<svg width="189" height="46" viewBox="0 0 189 46" fill="none" xmlns="http://www.w3.org/2000/svg">
<path fill-rule="evenodd" clip-rule="evenodd" d="M7.65386 36.6436L0 13.655C11.8236 12.6468 21.882 8.16805 29.8526 0.386719L38.4586 23.6206C31.3764 30.9365 20.0723 36.3153 7.65386 36.6436Z" fill="#FF0000"/>
<path fill-rule="evenodd" clip-rule="evenodd" d="M158.991 36.1313L175.125 0H181.642L174.76 15.412C174.544 15.9354 175.021 15.8562 175.021 15.8562L187.237 6.19185L189 11.5822L177.553 20.2577L180.096 36.1333H174.192L172.157 22.3474C172.108 22.0249 171.855 21.9245 171.718 22.2277L165.509 36.1333L158.991 36.1313ZM63.6449 22.809C54.1544 23.0099 49.9769 27.5987 52.7484 30.9148C55.29 33.1938 61.4065 28.6706 63.6449 22.809ZM53.0844 11.9549C57.2484 7.95129 62.2756 5.95815 66.3179 6.42747C72.5677 7.2985 74.0046 14.5333 69.1589 24.0798C65.1939 32.4348 59.8016 36.9097 53.8203 36.9773C48.1711 36.9097 45.1583 32.709 45.9984 27.7996C47.1688 21.6695 53.405 18.5118 65.4507 18.0174C66.4125 14.3054 66.1846 12.291 64.1123 12.2234C61.0106 12.2311 57.9128 14.0504 54.4209 17.55L53.0844 11.9549ZM67.9634 36.2704L81.0424 7.05901H87.4428L85.131 12.4513C85.0132 12.6946 85.3975 12.6618 85.664 12.123C88.4934 6.61481 91.9795 5.34979 95.9851 7.42983L92.4932 13.6236C88.9937 12.8511 85.8997 14.4155 83.2113 18.3129C80.4881 22.4652 78.0701 28.35 74.6941 36.2704H67.9634ZM89.9922 41.0176C92.0664 41.0331 94.104 40.1466 96.1029 38.3582L97.9512 43.0532C95.7572 44.9382 93.6192 45.8189 91.5392 45.6934L89.9922 41.0176ZM109.698 17.2275C112.073 10.3655 105.201 10.1974 99.1949 18.8498C94.7529 25.5708 94.1947 30.3026 97.1825 30.8047C99.8806 31.1601 103.158 28.8077 107.015 23.7515L109.586 29.1013C104.678 35.0652 99.7879 37.6223 94.9228 36.7687C87.8542 35.4824 86.8557 27.6335 92.6864 17.8416C97.8952 10.0333 103.27 6.18798 109.027 6.19571C114.474 6.30579 116.83 9.89421 115.594 16.3294L109.698 17.2275ZM120.21 25.8547C117.821 32.2243 124.32 33.1822 131.821 25.903L134.067 30.8356C125.131 40.0288 113.52 38.2597 113.471 29.3485C113.614 19.8676 122.695 7.65193 131.485 6.40622C138.078 5.4985 141.663 9.52146 139.61 16.4665C137.601 21.6869 130.913 25.3275 120.21 25.8528V25.8547ZM122.549 20.4895C124.748 20.6807 128.632 19.491 131.151 18.141C134.832 15.9876 134.926 11.6285 132.201 11.6749C128.907 11.7232 125.645 14.9524 122.549 20.4895ZM135.013 36.1294L151.148 0H157.664L141.532 36.1313L135.013 36.1294ZM169.706 0L167.413 5.13348L160.897 5.12961L163.188 0H169.706ZM147.055 36.1313L159.995 7.14979L166.515 7.14399L153.572 36.1333L147.055 36.1313Z" fill="black"/>
</svg>
