<svg width="30" height="26" viewBox="0 0 30 26" fill="none" xmlns="http://www.w3.org/2000/svg">
<path d="M13.7143 16.8571C13.7143 15.6071 12.6786 14.5714 11.4286 14.5714H2.28571C1.03571 14.5714 0 15.6071 0 16.8571V23.7143C0 24.9643 1.03571 26 2.28571 26H11.4286C12.6786 26 13.7143 24.9643 13.7143 23.7143V16.8571ZM13.7143 3.14286C13.7143 1.89286 12.6786 0.857141 11.4286 0.857141H2.28571C1.03571 0.857141 0 1.89286 0 3.14286V10C0 11.25 1.03571 12.2857 2.28571 12.2857H11.4286C12.6786 12.2857 13.7143 11.25 13.7143 10V3.14286ZM29.7143 16.8571C29.7143 15.6071 28.6786 14.5714 27.4286 14.5714H18.2857C17.0357 14.5714 16 15.6071 16 16.8571V23.7143C16 24.9643 17.0357 26 18.2857 26H27.4286C28.6786 26 29.7143 24.9643 29.7143 23.7143V16.8571ZM29.7143 3.14286C29.7143 1.89286 28.6786 0.857141 27.4286 0.857141H18.2857C17.0357 0.857141 16 1.89286 16 3.14286V10C16 11.25 17.0357 12.2857 18.2857 12.2857H27.4286C28.6786 12.2857 29.7143 11.25 29.7143 10V3.14286Z" fill="#EBEAED"/>
</svg>
