<svg width="32" height="33" viewBox="0 0 32 33" fill="none" xmlns="http://www.w3.org/2000/svg">
<path d="M30.2857 7.42857H22.8571C22.1607 7.42857 21.2679 7.73214 20.5714 8.14286V2.28571C20.5714 1.33928 19.8036 0.571426 18.8571 0.571426H11.4286C10.4821 0.571426 9.16072 1.125 8.5 1.78571L1.21429 9.07143C0.553571 9.73214 0 11.0536 0 12V24C0 24.9464 0.767857 25.7143 1.71429 25.7143H11.4286V30.8571C11.4286 31.8036 12.1964 32.5714 13.1429 32.5714H30.2857C31.2321 32.5714 32 31.8036 32 30.8571V9.14286C32 8.19643 31.2321 7.42857 30.2857 7.42857ZM20.5714 11.2321V16.5714H15.2321L20.5714 11.2321ZM9.14286 4.375V9.71428H3.80357L9.14286 4.375ZM12.6429 15.9286C11.9821 16.5893 11.4286 17.9107 11.4286 18.8571V23.4286H2.28571V12H9.71429C10.6607 12 11.4286 11.2321 11.4286 10.2857V2.85714H18.2857V10.2857L12.6429 15.9286ZM29.7143 30.2857H13.7143V18.8571H21.1429C22.0893 18.8571 22.8571 18.0893 22.8571 17.1429V9.71428H29.7143V30.2857Z" fill="#EBEAED"/>
</svg>
