<svg width="38" height="31" viewBox="0 0 38 31" fill="none" xmlns="http://www.w3.org/2000/svg">
<path d="M4.78571 12.2857H10.5536L15.9107 24.1607L4.78571 12.2857ZM19.2857 26.0714L13.0536 12.2857H25.5179L19.2857 26.0714ZM10.6071 10H4.42857L9.57143 3.14286H14.25L10.6071 10ZM22.6607 24.1607L28.0179 12.2857H33.7857L22.6607 24.1607ZM13.1964 10L16.8393 3.14286H21.7321L25.375 10H13.1964ZM27.9643 10L24.3214 3.14286H29L34.1429 10H27.9643ZM30.4821 1.32143C30.2679 1.01786 29.9286 0.857141 29.5714 0.857141H9C8.64286 0.857141 8.30357 1.01786 8.08929 1.32143L1.23214 10.4643C0.892857 10.8929 0.928571 11.5179 1.30357 11.9286L18.4464 30.2143C18.6607 30.4464 18.9643 30.5714 19.2857 30.5714C19.6071 30.5714 19.9107 30.4464 20.125 30.2143L37.2679 11.9286C37.6429 11.5179 37.6786 10.8929 37.3393 10.4643L30.4821 1.32143Z" fill="#EBEAED"/>
</svg>
