<svg width="32" height="33" viewBox="0 0 32 33" fill="none" xmlns="http://www.w3.org/2000/svg">
<path d="M29.7143 29.7143C29.7143 30.0179 29.4464 30.2857 29.1429 30.2857H9.71429C9.41072 30.2857 9.14286 30.0179 9.14286 29.7143V10.2857C9.14286 9.98214 9.41072 9.71428 9.71429 9.71428H29.1429C29.4464 9.71428 29.7143 9.98214 29.7143 10.2857V29.7143ZM32 10.2857C32 8.71428 30.7143 7.42857 29.1429 7.42857H9.71429C8.14286 7.42857 6.85714 8.71428 6.85714 10.2857V29.7143C6.85714 31.2857 8.14286 32.5714 9.71429 32.5714H29.1429C30.7143 32.5714 32 31.2857 32 29.7143V10.2857ZM25.1429 3.42857C25.1429 1.85714 23.8571 0.571426 22.2857 0.571426H2.85714C1.28571 0.571426 0 1.85714 0 3.42857V22.8571C0 24.4286 1.28571 25.7143 2.85714 25.7143H5.71429V23.4286H2.85714C2.55357 23.4286 2.28571 23.1607 2.28571 22.8571V3.42857C2.28571 3.125 2.55357 2.85714 2.85714 2.85714H22.2857C22.5893 2.85714 22.8571 3.125 22.8571 3.42857V6.28571H25.1429V3.42857Z" fill="#EBEAED"/>
</svg>
