<svg width="30" height="29" viewBox="0 0 30 29" fill="none" xmlns="http://www.w3.org/2000/svg">
<path d="M12.9464 8.55357C14.2143 11.1429 15.3036 13.9107 16.2321 16.625C15.8929 16.6429 15.5536 16.6607 15.2143 16.6607C13.4464 16.6607 11.6786 16.6071 9.91072 16.5893L12.9464 8.55357ZM0 28.2857C1.125 28.2857 2.23214 28.2321 3.35714 28.0357C3.60714 28 3.96429 27.8929 4.21429 27.8929C6.28571 27.8929 8.375 28.25 10.4464 28.25C10.4643 28.0893 10.4821 27.9286 10.4821 27.7679C10.4821 27.4107 10.4821 27.0714 10.4643 26.7321C9.44643 26.5893 6.82143 26.5357 6.82143 25.1607C6.82143 24.4821 8.625 19.8036 9.08929 18.7679L17.125 18.8036C17.4107 19.5357 19.7143 24.8393 19.7143 25.4821C19.7143 26.1429 18.7679 26.2679 18.2857 26.375L15.9464 26.875C15.8929 27.3393 15.875 27.8036 15.875 28.2679C18.2143 28.1964 20.5536 28 22.8929 28C25.1607 28 27.4286 28.2857 29.6964 28.2857C29.6964 28.125 29.7143 27.9821 29.7143 27.8214C29.7143 27.4821 29.6607 27.1429 29.6071 26.8036C28.7679 26.4821 27.125 26.375 26.5357 25.9107C26.2857 25.7143 26.0357 25.1786 25.9107 24.8929C25.0179 23.0714 24.3929 21.1607 23.5893 19.3036C22.2321 16.1607 21 12.9643 19.6607 9.80357L16 1.23214C15.9464 1.10714 15.875 0.982141 15.8036 0.857141H14.8571H13.5179L8.51786 13.7857L4.28571 24.7857C3.53571 26.7143 1.71429 26.3571 0.0357143 26.875L0 28.2857Z" fill="#EBEAED"/>
</svg>
