<svg width="153" height="40" viewBox="0 0 153 40" fill="none" xmlns="http://www.w3.org/2000/svg">
<path d="M16.5184 6.38239L12.5672 8.49718C12.3391 8.67502 11.9641 8.44402 11.7099 8.3174C11.4721 8.16372 11.0816 7.95978 11.1174 7.67272L11.8655 0.696239C11.8974 0.479734 11.9013 0.28256 12.0105 0.0911854C12.1197 -0.100189 12.6165 0.0747545 12.8359 0.199438L13.2593 0.440106C13.5879 0.626648 13.6913 0.79386 13.6207 1.33319L13.1375 5.8015L15.0532 5.2583" fill="#FF4040"/>
<path d="M20.7067 5.53246L21.6558 5.80116L21.1725 1.33285C21.101 0.793518 21.2044 0.626307 21.5331 0.439765L21.9564 0.199097C22.1758 0.074413 22.6658 -0.114062 22.7818 0.0908439C22.8978 0.29575 22.8949 0.47746 22.9278 0.695898L23.6749 7.67238C23.7107 7.96234 23.3202 8.16338 23.0824 8.31706C22.8282 8.44368 22.4532 8.67468 22.2251 8.49684L20.4244 7.5303" fill="#FF4040"/>
<path d="M6.47606 26.8214L0.347231 24.0919C0.000243795 23.9498 0.0205415 23.3776 0.000244141 23.0103C0.0205415 22.643 0.000243795 22.0718 0.347231 21.9288L8.69233 18.2985C8.95716 18.197 9.18237 18.0742 9.46556 18.0742C9.77196 18.0742 9.87441 18.7508 9.87441 19.0746V19.7067C9.87441 20.1967 9.75166 20.421 9.10118 20.6868L3.75428 23.0132L6.71769 24.3084" fill="#47D1C7"/>
<path d="M28.223 24.2117L31.0579 23.0142L25.71 20.6868C25.0566 20.4219 24.9368 20.1967 24.9368 19.7077V19.0746C24.9368 18.7479 25.0334 18.0742 25.3446 18.0742C25.6346 18.0742 25.855 18.197 26.1179 18.2994L34.4649 21.9317C34.8119 22.0747 34.7916 22.646 34.8119 23.0142C34.7916 23.3815 34.8119 23.9527 34.4649 24.0958L28.3197 26.8214" fill="#47D1C7"/>
<path d="M18.3491 4.56276C18.3531 4.53913 18.3348 4.51758 18.3109 4.51758C18.2619 4.51758 18.2131 4.51758 18.1638 4.51758H16.7017C12.0587 4.51758 8.26064 8.61087 8.26064 13.6137V14.195C8.26064 14.208 8.2541 14.2201 8.24328 14.2274C7.64052 14.6299 7.14216 15.1905 6.79487 15.8569C6.44425 16.5298 6.25928 17.2881 6.25757 18.0598V18.8628C6.25757 18.8912 6.28711 18.9099 6.3128 18.8978L8.71991 17.764C9.07424 17.6171 9.37295 17.4421 9.75419 17.4421C10.1623 17.4421 10.2978 18.4087 10.2978 18.8784V19.786C10.2978 20.4896 10.1354 20.8125 9.26441 21.1933L6.27981 22.5978C6.26623 22.6042 6.25757 22.6179 6.25757 22.6329V25.9158C6.25757 30.6205 9.06111 34.6528 12.9573 36.1701C12.9801 36.179 13.0052 36.1647 13.0093 36.1406L18.3491 4.56276Z" fill="#FF4040"/>
<path d="M25.1129 17.4411C25.4932 17.4411 25.7928 17.617 26.1462 17.7629L28.5542 18.8968C28.5799 18.9089 28.6095 18.8901 28.6095 18.8618V18.0645C28.608 17.2923 28.423 16.5334 28.0722 15.86C27.7248 15.1931 27.2261 14.632 26.6229 14.2292C26.612 14.222 26.6055 14.2099 26.6055 14.1969V13.6155C26.6055 9.45351 23.9764 5.92251 20.4202 4.85184C20.398 4.84515 20.3749 4.8595 20.3711 4.8824L14.9938 36.6807C14.9902 36.7021 15.0048 36.7223 15.0263 36.7254C15.4718 36.79 15.9208 36.8223 16.3704 36.8221H18.4955C24.057 36.8221 28.6095 31.9189 28.6095 25.9244V22.627C28.6095 22.612 28.6008 22.5983 28.5872 22.592L25.6026 21.1922C24.7316 20.8114 24.5684 20.4896 24.5684 19.7859V18.8774C24.5684 18.4076 24.7047 17.4411 25.1129 17.4411Z" fill="#FF4040"/>
<path d="M9.12779 32.4185L7.58712 34.255L11.3885 36.5476C11.404 36.5573 11.4678 36.6124 11.4852 36.6249C12.1231 37.1961 12.1163 37.3759 12.2584 38.1395L12.3647 39.0741C12.358 39.3921 12.1569 39.598 11.8766 39.7507C11.7252 39.8306 11.5564 39.8717 11.3853 39.8705C11.2141 39.8694 11.0459 39.8259 10.8956 39.7439C10.509 39.5352 10.0663 39.2607 9.89232 39.1718L5.09152 36.4732C4.76386 36.3002 4.61791 35.3955 4.49613 34.8194C4.40817 34.2395 4.2284 33.3397 4.4739 33.0632L8.40578 28.3774" fill="#FF4040"/>
<path d="M7.58706 34.2529L11.3885 36.5475C11.4039 36.5572 11.4677 36.6122 11.4851 36.6248C12.123 37.196 12.1163 37.3758 12.2583 38.1394L12.3647 39.074C12.3579 39.392 12.1569 39.5979 11.8766 39.7506C11.7252 39.8304 11.5564 39.8716 11.3852 39.8704C11.214 39.8692 11.0458 39.8258 10.8955 39.7438C10.5089 39.5351 10.0662 39.2606 9.89225 39.1716L5.55249 36.7321" fill="#E43A3A"/>
<path d="M26.4541 28.5059L30.386 33.1916C30.6315 33.469 30.4517 34.367 30.3628 34.9488C30.242 35.5287 30.0951 36.4286 29.7684 36.6016L24.9666 39.3002C24.7936 39.3852 24.35 39.6646 23.9633 39.8724C23.8134 39.9548 23.6453 39.9986 23.4742 39.9997C23.3031 40.0009 23.1343 39.9595 22.9833 39.8791C22.703 39.7284 22.5 39.5225 22.5 39.2026L22.6063 38.2679C22.7445 37.5043 22.7378 37.3255 23.3747 36.7533C23.3892 36.7408 23.452 36.6857 23.4714 36.676L27.2718 34.3853L25.7321 32.5489" fill="#FF4040"/>
<path d="M29.4742 36.7604L24.9041 39.3001C24.7311 39.3852 24.2875 39.6645 23.9008 39.8723C23.7509 39.9547 23.5828 39.9985 23.4117 39.9997C23.2406 40.0009 23.0718 39.9594 22.9208 39.8791C22.6405 39.7283 22.4375 39.5224 22.4375 39.2025L22.5438 38.2678C22.682 37.5043 22.6753 37.3255 23.3122 36.7533C23.3267 36.7407 23.3895 36.6856 23.4089 36.6759L27.2904 34.334" fill="#E43A3A"/>
<path d="M49.3704 21.6146C49.769 22.002 50.0858 22.4669 50.3016 22.9812C50.5173 23.4956 50.6276 24.0487 50.6257 24.6072V29.4154C50.6264 29.9562 50.5214 30.4918 50.3168 30.9916C50.1121 31.4914 49.8119 31.9456 49.4332 32.3283C49.0545 32.7109 48.6048 33.0144 48.1098 33.2215C47.6148 33.4286 47.0842 33.5352 46.5483 33.5352H39.0459V9.71387H46.5434C47.6248 9.71387 48.6619 10.1474 49.4265 10.9191C50.1912 11.6908 50.6208 12.7374 50.6208 13.8287V18.6219C50.6241 19.1802 50.5151 19.7334 50.3001 20.2479C50.0852 20.7623 49.7688 21.2273 49.3704 21.6146ZM41.3045 20.4674H46.5483C47.0267 20.4674 47.4856 20.2756 47.8239 19.9342C48.1622 19.5928 48.3523 19.1297 48.3523 18.6469V13.8337C48.3509 13.3513 48.1605 12.889 47.8224 12.5479C47.4844 12.2068 47.0263 12.0145 46.5483 12.0132H41.3045V20.4674ZM41.3045 22.7667V31.2159H46.5483C47.0267 31.2159 47.4856 31.0241 47.8239 30.6827C48.1622 30.3413 48.3523 29.8783 48.3523 29.3954V24.6072C48.3523 24.1244 48.1622 23.6613 47.8239 23.3199C47.4856 22.9785 47.0267 22.7867 46.5483 22.7867L41.3045 22.7667Z" fill="white"/>
<path d="M53.2727 18.316H55.5512V29.3987C55.5505 29.6389 55.5967 29.8769 55.6871 30.099C55.7776 30.321 55.9104 30.5228 56.0781 30.6927C56.2457 30.8625 56.4448 30.9972 56.664 31.0888C56.8831 31.1804 57.118 31.2272 57.3551 31.2266H60.7702C61.0073 31.2272 61.2422 31.1804 61.4613 31.0888C61.6805 30.9972 61.8796 30.8625 62.0473 30.6927C62.2149 30.5228 62.3478 30.321 62.4382 30.099C62.5286 29.8769 62.5748 29.6389 62.5742 29.3987V18.316H64.8526V29.3987C64.8526 30.4958 64.4225 31.5479 63.6569 32.3237C62.8913 33.0994 61.8529 33.5352 60.7702 33.5352H57.3551C56.2736 33.5313 55.2375 33.0942 54.4728 32.3193C53.708 31.5444 53.2767 30.4945 53.2727 29.3987V18.316Z" fill="white"/>
<path d="M76.7595 33.1545C76.178 33.4453 75.5344 33.5937 74.8829 33.5872H71.3636C70.7189 33.5905 70.0827 33.4422 69.5073 33.1545C68.9322 32.877 68.4306 32.4704 68.0426 31.967C67.4826 31.2446 67.1756 30.3615 67.1679 29.4511V22.4722C67.1759 21.3732 67.6203 20.3214 68.4053 19.5438C69.1903 18.7663 70.2528 18.3253 71.3636 18.316H74.8829C75.5338 18.3201 76.1753 18.4698 76.7595 18.7538V18.316H79.0786V35.6703C79.0767 36.4415 78.8591 37.1972 78.4498 37.8535C78.0404 38.5098 77.4554 39.0412 76.7595 39.3887C76.1749 39.671 75.5334 39.8189 74.8829 39.8214H71.3636C70.2533 39.8135 69.1907 39.3736 68.4056 38.5969C67.6205 37.8201 67.1759 36.7688 67.1679 35.6703H69.5073C69.5087 36.157 69.7047 36.6233 70.0525 36.9675C70.4003 37.3116 70.8717 37.5055 71.3636 37.5069H74.8829C75.3771 37.5069 75.8514 37.314 76.2027 36.9702C76.5541 36.6263 76.7542 36.1592 76.7595 35.6703V33.1545ZM69.5073 29.4511C69.5073 29.9382 69.7029 30.4054 70.051 30.7498C70.3991 31.0942 70.8713 31.2877 71.3636 31.2877H74.8829C75.3771 31.2877 75.8514 31.0949 76.2027 30.751C76.5541 30.4072 76.7542 29.9401 76.7595 29.4511V22.4722C76.7542 21.9833 76.5541 21.5162 76.2027 21.1723C75.8514 20.8285 75.3771 20.6356 74.8829 20.6356H71.3636C71.1198 20.6356 70.8784 20.6831 70.6532 20.7754C70.428 20.8677 70.2234 21.003 70.051 21.1736C69.8786 21.3441 69.7419 21.5466 69.6486 21.7694C69.5553 21.9922 69.5073 22.231 69.5073 22.4722V29.4511Z" fill="white"/>
<path d="M102.901 33.5352H100.557V22.7754H93.308V33.5352H90.9899V9.71387H93.308V20.4737H100.557V9.71387H102.901V33.5352Z" fill="white"/>
<path d="M105.217 18.316H107.495V29.3987C107.494 29.6389 107.541 29.8769 107.631 30.099C107.722 30.321 107.854 30.5228 108.022 30.6927C108.19 30.8625 108.389 30.9972 108.608 31.0888C108.827 31.1804 109.062 31.2272 109.299 31.2266H112.714C112.951 31.2272 113.186 31.1804 113.405 31.0888C113.624 30.9972 113.824 30.8625 113.991 30.6927C114.159 30.5228 114.292 30.321 114.382 30.099C114.473 29.8769 114.519 29.6389 114.518 29.3987V18.316H116.797V29.3987C116.797 30.4958 116.366 31.5479 115.601 32.3237C114.835 33.0994 113.797 33.5352 112.714 33.5352H109.299C108.218 33.5313 107.181 33.0942 106.417 32.3193C105.652 31.5444 105.221 30.4945 105.217 29.3987V18.316Z" fill="white"/>
<path d="M118.781 18.316H121.06V18.7517C121.62 18.4697 122.237 18.3207 122.863 18.316H126.279C126.905 18.3226 127.521 18.4715 128.083 18.7517C128.766 19.0914 129.341 19.6181 129.744 20.2722C130.146 20.9263 130.36 21.6817 130.361 22.4526V33.5352H128.073V22.4526C128.073 22.2124 128.027 21.9744 127.937 21.7523C127.846 21.5303 127.713 21.3285 127.546 21.1586C127.378 20.9887 127.179 20.8541 126.96 20.7625C126.741 20.6709 126.506 20.624 126.269 20.6247H122.854C122.617 20.624 122.382 20.6709 122.162 20.7625C121.943 20.8541 121.744 20.9887 121.577 21.1586C121.409 21.3285 121.276 21.5303 121.186 21.7523C121.095 21.9744 121.049 22.2124 121.05 22.4526V33.5352H118.781V18.316Z" fill="white"/>
<path d="M135.949 14.4523V18.4721H139.229V20.7571H135.949V29.4411C135.955 29.9236 136.153 30.3844 136.501 30.7233C136.849 31.0622 137.319 31.2516 137.808 31.2502H141.279V33.5352H137.808C137.47 33.5321 137.133 33.4922 136.803 33.4163C135.907 33.1951 135.112 32.6846 134.544 31.9661C133.976 31.2476 133.668 30.3622 133.669 29.451V20.7571H131.353V18.4721H133.669V12.3607H135.959L135.949 14.4523Z" fill="white"/>
<path d="M140.948 18.316H143.288V26.2806C143.293 26.7658 143.49 27.2295 143.837 27.5726C144.184 27.9156 144.653 28.1107 145.144 28.1159H148.663C148.931 28.1168 149.195 28.0611 149.439 27.9527C149.683 27.8443 149.9 27.6857 150.077 27.4874C150.376 27.155 150.541 26.7254 150.54 26.2806V18.3311H152.859V35.6732C152.857 36.4439 152.64 37.199 152.23 37.8549C151.821 38.5108 151.236 39.0417 150.54 39.389C149.955 39.6711 149.314 39.8189 148.663 39.8214H145.144C144.034 39.8135 142.971 39.374 142.186 38.5977C141.401 37.8215 140.956 36.771 140.948 35.6732H143.288C143.289 36.1596 143.485 36.6256 143.833 36.9695C144.181 37.3134 144.652 37.5072 145.144 37.5085H148.663C149.158 37.5085 149.632 37.3158 149.983 36.9722C150.335 36.6286 150.535 36.1618 150.54 35.6732V30.0165C149.955 30.2963 149.314 30.444 148.663 30.449H145.144C144.501 30.4406 143.867 30.293 143.288 30.0165C142.778 29.7605 142.326 29.4061 141.957 28.9743C141.589 28.5425 141.311 28.042 141.142 27.5025C141.015 27.1123 140.95 26.7054 140.948 26.2957V18.316Z" fill="white"/>
</svg>
