<svg width="563" height="94" viewBox="0 0 563 94" fill="none" xmlns="http://www.w3.org/2000/svg">
<path d="M201.1 19.84C201.1 19.03 201.75 18.38 202.56 18.38H213.25C214.06 18.38 214.71 19.03 214.71 19.84V72.08C214.71 72.89 214.06 73.54 213.25 73.54H203.37C202.24 73.54 201.59 73.3 200.78 72.08L178.43 42.19V72.08C178.43 72.89 177.78 73.54 176.97 73.54H166.28C165.47 73.54 164.82 72.89 164.82 72.08V19.84C164.82 19.03 165.47 18.38 166.28 18.38H176.24C177.37 18.38 177.94 18.7 178.83 19.84L201.1 49.73V19.84V19.84ZM227.43 40.33C231.07 37.17 236.1 35.47 241.44 35.47C246.78 35.47 251.81 37.17 255.45 40.33C259.42 43.65 261.85 48.75 261.85 54.91C261.85 61.07 259.42 66.17 255.45 69.49C251.8 72.65 246.78 74.35 241.44 74.35C236.1 74.35 231.07 72.65 227.43 69.49C223.46 66.17 221.03 61.07 221.03 54.91C221.03 48.75 223.46 43.65 227.43 40.33V40.33ZM236.34 61.55C237.64 62.93 239.42 63.74 241.44 63.74C243.46 63.74 245.25 62.93 246.54 61.55C248 59.93 248.89 57.58 248.89 54.91C248.89 52.24 248 49.89 246.54 48.27C245.24 46.89 243.46 46.08 241.44 46.08C239.42 46.08 237.63 46.89 236.34 48.27C234.88 49.89 233.99 52.24 233.99 54.91C233.99 57.58 234.88 59.93 236.34 61.55ZM282.83 58.15C282.83 59.53 282.99 60.58 283.32 61.39C283.81 62.52 284.7 63.09 286.07 63.09C287.28 63.09 288.9 62.6 290.61 61.15C291.42 60.5 292.31 60.58 292.64 61.39L296.12 68.76C296.44 69.41 296.2 70.14 295.55 70.62C292.55 72.81 287.77 74.35 282.59 74.35C277.89 74.35 274.81 72.89 272.87 70.71C270.44 67.88 269.71 63.83 269.71 59.94V46.41H265.82C265.01 46.41 264.36 45.76 264.36 44.95V37.58C264.36 36.77 265.01 36.12 265.82 36.12H269.71V28.75C269.71 27.94 270.36 27.29 271.17 27.29H281.38C282.19 27.29 282.84 27.94 282.84 28.75V36.12H291.75C292.56 36.12 293.21 36.77 293.21 37.58V44.95C293.21 45.76 292.56 46.41 291.75 46.41H282.84V58.15H282.83ZM299.36 20.33C299.36 16.2 302.68 12.88 306.81 12.88C310.94 12.88 314.26 16.2 314.26 20.33C314.26 24.46 310.94 27.78 306.81 27.78C302.68 27.78 299.36 24.46 299.36 20.33ZM301.71 36.12H311.92C312.73 36.12 313.38 36.77 313.38 37.58V72.08C313.38 72.89 312.73 73.54 311.92 73.54H301.71C300.9 73.54 300.25 72.89 300.25 72.08V37.58C300.25 36.77 300.9 36.12 301.71 36.12ZM319.77 69.25C319.04 68.85 318.8 68.2 319.2 67.39L323.82 57.75C324.14 57.02 324.79 56.7 325.6 57.18C329.41 59.53 334.02 62.04 339.85 62.04C342.28 62.04 343.9 61.55 344.87 60.83C346.25 59.86 346.49 58.48 346.49 57.67C346.49 54.84 343.57 53.46 339.69 52.24C335.48 50.86 329.97 49.65 325.84 46.65C322.2 43.9 319.6 40.33 319.6 33.85C319.6 28.99 321.71 24.7 325.84 21.78C329.4 19.19 334.67 17.65 341.31 17.65C350.71 17.65 356.29 20.16 359.78 21.94C360.51 22.35 360.67 23.07 360.35 23.8L355.73 33.44C355.32 34.17 354.68 34.41 353.95 34.01C350.39 32.07 345.93 29.96 340.51 29.96C338.73 29.96 337.35 30.28 336.46 30.69C335.25 31.34 334.68 32.23 334.68 33.2C334.68 35.71 337.43 36.85 341.24 37.98C345.78 39.36 351.85 40.57 356.14 43.89C359.7 46.56 362.13 50.45 362.13 56.52C362.13 62.03 359.7 66.4 355.81 69.48C351.84 72.64 346.25 74.34 340.02 74.34C330.87 74.34 324.06 71.75 319.77 69.24V69.25ZM395.74 61.96C396.71 61.39 397.44 61.72 397.85 62.37L401.25 68.69C401.57 69.34 401.33 70.07 400.68 70.55C397.68 72.74 392.01 74.36 386.67 74.36C380.35 74.36 375.33 72.5 371.85 69.18C368.12 65.7 366.1 60.51 366.1 54.44C366.1 48.69 368.37 43.91 371.77 40.51C375.01 37.35 379.63 35.49 385.46 35.49C392.59 35.49 397.45 38.08 400.36 42.21C402.95 46.02 403.92 51.12 403.36 56.87C403.28 57.68 402.71 58.33 401.9 58.33H379.87C380.27 60.11 381 61.41 382.06 62.38C383.36 63.59 385.38 64.24 387.73 64.24C390.73 64.24 393.16 63.51 395.75 61.97L395.74 61.96ZM390.88 50.46C390.72 49.16 390.47 48.19 389.58 47.14C388.69 46.09 387.31 45.52 385.53 45.52C383.91 45.52 382.29 46.01 381.4 46.98C380.59 47.87 380.1 49 379.86 50.46H390.87H390.88ZM436.24 61.31C437.21 60.74 438.02 60.99 438.35 61.72L442.08 68.69C442.4 69.34 442.16 70.07 441.51 70.55C438.51 72.74 433.82 74.36 428.47 74.36C421.34 74.36 415.75 72.17 412.11 68.2C409.03 64.88 407.33 60.26 407.33 54.84C407.33 50.14 408.79 46.09 411.3 43.02C415.19 38.16 421.51 35.49 428.8 35.49C434.14 35.49 438.36 37.19 441.35 39.38C442 39.87 442.24 40.59 441.92 41.24L438.03 48.45C437.71 49.18 436.73 49.34 435.92 48.85C433.41 47.31 431.63 46.5 428.87 46.5C426.28 46.5 424.33 47.39 422.96 48.77C421.5 50.31 420.69 52.42 420.69 54.84C420.69 57.26 421.42 59.54 422.8 61.08C424.18 62.62 426.2 63.51 428.88 63.51C431.71 63.51 433.74 62.78 436.25 61.32L436.24 61.31ZM446.69 37.58C446.69 36.77 447.34 36.12 448.15 36.12H458.36C459.17 36.12 459.82 36.77 459.82 37.58V56.86C459.82 58.32 460.06 59.69 460.63 60.83C461.52 62.53 463.14 63.66 465.81 63.66C468.48 63.66 470.1 62.53 470.99 60.83C471.56 59.7 471.8 58.32 471.8 56.86V37.58C471.8 36.77 472.45 36.12 473.26 36.12H483.47C484.28 36.12 484.93 36.77 484.93 37.58V57.26C484.93 62.12 483.63 65.84 481.37 68.52C477.97 72.57 472.46 74.35 465.82 74.35C459.18 74.35 453.67 72.57 450.27 68.52C448 65.85 446.71 62.12 446.71 57.26V37.58H446.69ZM523.64 38.63C524.29 39.2 524.45 39.93 524.13 40.57L520.49 48.26C520.08 48.99 519.19 49.15 518.38 48.66C516.27 47.53 514.33 46.64 511.82 46.64C509.88 46.64 508.58 47.37 507.69 48.58C506.23 50.52 505.91 53.52 505.91 56.19V72.07C505.91 72.88 505.26 73.53 504.45 73.53H494.24C493.43 73.53 492.78 72.88 492.78 72.07V37.58C492.78 36.77 493.43 36.12 494.24 36.12H504.04C504.85 36.12 505.5 36.77 505.5 37.58V39.6H505.74C506.55 38.63 507.52 37.82 508.57 37.09C510.11 36.12 511.97 35.47 514.32 35.47C517.72 35.47 521.04 36.36 523.63 38.63H523.64ZM554.91 61.96C555.88 61.39 556.61 61.72 557.02 62.37L560.42 68.69C560.74 69.34 560.5 70.07 559.85 70.55C556.85 72.74 551.18 74.36 545.84 74.36C539.52 74.36 534.5 72.5 531.02 69.18C527.29 65.7 525.27 60.51 525.27 54.44C525.27 48.69 527.54 43.91 530.94 40.51C534.18 37.35 538.8 35.49 544.63 35.49C551.76 35.49 556.62 38.08 559.53 42.21C562.12 46.02 563.09 51.12 562.53 56.87C562.45 57.68 561.88 58.33 561.07 58.33H539.04C539.44 60.11 540.17 61.41 541.23 62.38C542.53 63.59 544.55 64.24 546.9 64.24C549.9 64.24 552.33 63.51 554.92 61.97L554.91 61.96ZM550.05 50.46C549.89 49.16 549.64 48.19 548.75 47.14C547.86 46.09 546.48 45.52 544.7 45.52C543.08 45.52 541.46 46.01 540.57 46.98C539.76 47.87 539.27 49 539.03 50.46H550.04H550.05Z" fill="#1E5C2F"/>
<path d="M112.92 93.9H15.5C6.95 93.9 0 86.95 0 78.4V15.5C0 6.95 6.95 0 15.5 0H112.92C121.47 0 128.42 6.95 128.42 15.5V78.4C128.42 86.95 121.47 93.9 112.92 93.9V93.9ZM15.5 10C12.47 10 10 12.47 10 15.5V78.4C10 81.43 12.47 83.9 15.5 83.9H112.92C115.95 83.9 118.42 81.43 118.42 78.4V15.5C118.42 12.47 115.95 10 112.92 10H15.5Z" fill="#1E5C2F"/>
<path d="M68.6101 71.7C67.5201 71.7 66.4101 71.34 65.4901 70.61L2.37007 20.21C0.210068 18.48 -0.139931 15.34 1.58007 13.18C3.30007 11.02 6.45007 10.67 8.61007 12.39L71.7301 62.79C73.8901 64.51 74.2401 67.66 72.5201 69.82C71.5301 71.06 70.0801 71.7 68.6101 71.7V71.7Z" fill="#1E5C2F"/>
<path d="M68.61 75.05C66.72 75.05 64.87 74.4 63.39 73.22L36.72 51.87C34.98 50.48 33.88 48.49 33.64 46.27C33.4 44.05 34.03 41.87 35.42 40.13C37.01 38.14 39.39 37 41.94 37C43.83 37 45.68 37.65 47.15 38.83L67.64 55.24L111.57 5.41C113.16 3.64 115.43 2.62 117.8 2.62C119.86 2.62 121.83 3.38 123.37 4.75C126.8 7.82 127.09 13.11 124.02 16.54L74.84 72.26C73.25 74.03 70.98 75.05 68.61 75.05Z" fill="url(#paint0_linear_2593_41956)"/>
<defs>
<linearGradient id="paint0_linear_2593_41956" x1="137.112" y1="1.70314" x2="-6.46487" y2="113.045" gradientUnits="userSpaceOnUse">
<stop offset="0.251514" stop-color="#1E5C2F"/>
<stop offset="0.759605" stop-color="#DEF9E3"/>
</linearGradient>
</defs>
</svg>
