<svg width="222" height="123" viewBox="0 0 222 123" fill="none" xmlns="http://www.w3.org/2000/svg">
<path d="M16.0202 49.7853L20.4566 44.4863C23.2293 47.0742 26.8647 48.4913 30.6232 48.6146C33.704 48.6146 35.4909 47.3822 35.4909 45.4105V45.2873C35.4909 43.3772 34.2586 42.3913 28.6515 40.9742C21.8121 39.2489 17.3758 37.3388 17.3758 30.5611V30.4378C17.3758 24.2762 22.3667 20.148 29.2677 20.148C33.8889 20.0247 38.3868 21.5651 42.0222 24.4611L38.1404 30.1298C35.6141 28.158 32.5333 26.9873 29.2677 26.8025C26.3717 26.8025 24.8929 28.0964 24.8929 29.7601V29.8833C24.8929 32.1015 26.3717 32.8409 32.1636 34.3813C39.0646 36.1681 42.9464 38.6328 42.9464 44.6095V44.7328C42.9464 51.5105 37.7707 55.2691 30.4384 55.2691C25.1394 55.2075 20.0253 53.2974 16.0202 49.7853Z" fill="white"/>
<path d="M85.0917 20.6414H91.9927L107.951 41.5908V0H115.345V54.715H108.937L92.424 33.0878V54.715H85.0917V20.6414Z" fill="white"/>
<path d="M163.344 27.5421H152.992V20.6411H181.212V27.5421H170.861V54.7148H163.344V27.5421Z" fill="white"/>
<path d="M17.8684 62.2319H37.031C41.7754 62.2319 45.4724 63.5259 47.8138 65.8673C49.6623 67.7158 50.7098 70.242 50.6482 72.8915V73.0147C50.7714 76.7733 48.6148 80.2854 45.2259 81.9491C50.032 83.7975 52.9279 86.5703 52.9279 92.1157V92.2389C52.9279 99.8177 46.828 103.576 37.4623 103.576H17.8068L17.8684 62.2319ZM35.0593 78.9299C39.0643 78.9299 41.5906 77.6359 41.5906 74.5551V74.4319C41.5906 71.7208 39.434 70.1804 35.6138 70.1804H26.6179V78.9299H35.0593ZM37.5239 95.5662C41.529 95.5662 43.932 94.149 43.932 91.0682V90.945C43.932 88.1723 41.8371 86.447 37.2159 86.447H26.6795V95.5046L37.5239 95.5662Z" fill="white"/>
<path d="M61.8623 73.0151H70.9198V103.515H61.8623V73.0151ZM61.9855 62.2939H70.8582V69.8111H61.9855V62.2939Z" fill="white"/>
<path d="M107.089 87.248L91.1919 62.2319H101.79L111.648 78.8066L121.692 62.2319H131.982L116.146 87.0632V122.616H107.15L107.089 87.248Z" fill="white"/>
<path d="M138.698 62.2319H169.875V70.3036H147.755V78.6834H167.226V86.7551H147.755V95.443H170.183V103.515H138.759L138.698 62.2319Z" fill="white"/>
<path d="M179.241 62.2319H198.157C203.394 62.2319 207.461 63.7107 210.172 66.4218C212.575 68.9481 213.869 72.337 213.684 75.8491V75.9723C213.931 81.7642 210.357 87.0016 204.811 88.7884L214.978 103.576H204.38L195.446 90.3288H188.298V103.515H179.179V62.2319H179.241ZM197.479 82.3188C201.915 82.3188 204.442 79.9773 204.442 76.4652V76.342C204.442 72.4602 201.731 70.4269 197.294 70.4269H188.298V82.2571H197.479V82.3188Z" fill="white"/>
<path d="M66.2989 20.3945H59.3979L44.7333 54.7147H52.4353L55.5161 47.0743L58.1656 40.4814L58.2889 40.1117L62.7252 29.3905L67.0999 40.1117L67.2232 40.4814L70.4888 48.6763L73.0767 54.7147H80.9019L66.2989 20.3945Z" fill="white"/>
<path d="M141.039 20.3945H134.077L119.474 54.7147H127.176L130.071 47.5056L132.967 40.4814L133.029 40.2349L137.465 29.3905L141.902 40.2349L141.963 40.4814L144.859 47.5056L147.755 54.7147H155.642L141.039 20.3945Z" fill="white"/>
<path d="M200.067 20.3945H193.166L178.563 54.7147H186.203L189.161 47.5672L191.995 40.4814L192.119 40.2349L196.555 29.3905L200.93 40.2349L201.053 40.4814L203.949 47.5672L206.845 54.7147H214.67L200.067 20.3945Z" fill="white"/>
<path d="M7.51715 99.3862H0V122.615H7.51715V99.3862Z" fill="white"/>
<path d="M23.2292 115.16H0V122.677H23.2292V115.16Z" fill="white"/>
<path d="M221.51 0H213.992V23.2292H221.51V0Z" fill="white"/>
<path d="M221.51 0H198.28V7.51716H221.51V0Z" fill="white"/>
</svg>
