<svg width="71" height="79" viewBox="0 0 71 79" fill="none" xmlns="http://www.w3.org/2000/svg">
<path d="M28.4241 11.2012H12.9657C9.885 11.2012 7.35444 14.0081 7.35444 17.4863C7.24441 20.8424 9.66495 23.6494 12.6906 23.7714H28.5892L28.4241 11.2012V11.2012Z" fill="#073042"/>
<path d="M63.467 67.0963H12.9657C9.83004 67.0963 7.35449 64.2894 7.35449 60.8112V17.4255C7.35449 20.9037 9.88506 23.7107 12.9657 23.7717H55.2701C55.2701 23.7717 63.522 22.9784 63.522 29.8737V67.0963H63.467Z" fill="#4285F4"/>
<path d="M39.9217 44.8845C42.1772 42.9928 42.6173 39.4536 40.9119 37.0128C39.9767 35.6704 38.5464 34.8161 37.006 34.755H37.171C37.4461 34.694 37.7762 34.694 38.0512 34.755V31.2769C38.0512 30.8497 37.8862 30.4836 37.5561 30.3005C37.061 29.9954 36.4559 30.1785 36.1808 30.7277C36.0708 30.9107 36.0158 31.0938 36.0708 31.3379V34.8771C33.3202 35.3653 31.3948 38.2332 31.8349 41.3453V41.4063C32.0549 42.8708 32.7701 44.2132 33.8703 45.0675L24.5732 67.157H30.6246L34.9155 57.0276C35.4107 55.8072 36.7309 55.258 37.8862 55.8682C38.3263 56.1123 38.7114 56.5394 38.9314 57.0276L43.3874 67.157H49.5488L39.9217 44.8845ZM36.786 43.9081C35.0256 43.9081 33.6503 42.3216 33.6503 40.3689C33.6503 38.4163 35.0806 36.8908 36.841 36.9518C37.6662 36.9518 38.3813 37.3179 38.9864 37.9281C40.2517 39.2706 40.2517 41.4673 39.0415 42.8708C38.4913 43.481 37.6662 43.9081 36.786 43.9081Z" fill="#3870B2"/>
<path d="M25.0684 14.2524H46.7432V18.6459H25.0684V14.2524Z" fill="white"/>
<path d="M35.1357 36.891C36.8411 36.891 38.2714 38.4775 38.2164 40.4302C38.2164 42.3218 36.7861 43.9084 35.0257 43.8474C33.3203 43.8474 31.945 42.2608 31.945 40.3692C31.945 39.4539 32.2751 38.5996 32.8802 37.9284C33.4853 37.2571 34.3105 36.891 35.1357 36.891V36.891ZM36.346 34.8773V31.2161C36.346 30.7889 36.1809 30.4228 35.8509 30.2398C35.3557 29.9346 34.7506 30.1177 34.4755 30.6669C34.3655 30.85 34.3105 31.033 34.3655 31.2771V34.8163C31.6149 35.3045 29.6895 38.1724 30.1296 41.2845V41.3455C30.3496 42.81 31.0648 44.1525 32.165 45.0067L20.4474 72.8932C20.0073 73.8695 20.0623 75.0899 20.6675 76.0052C21.5477 77.4087 23.2531 77.7748 24.5183 76.7985C24.9584 76.4934 25.2885 76.0052 25.5086 75.5171L33.3203 56.9668C33.8154 55.7464 35.1357 55.1972 36.291 55.8074C36.731 56.0515 37.1161 56.4786 37.3362 56.9668L45.313 75.334C45.9731 76.8595 47.6235 77.4697 48.9988 76.7375C50.3741 76.0052 50.9242 74.1746 50.2641 72.6491L38.2164 44.8847C40.4169 42.932 40.802 39.3318 39.0416 36.891C38.3814 35.9147 37.4462 35.2434 36.346 34.8773" fill="#073042"/>
<path d="M43.5526 18.1577C42.7274 18.1577 42.0672 17.4865 42.0672 16.5711C42.0672 16.144 42.2323 15.6558 42.5073 15.3507C43.1125 14.7405 43.9927 14.7405 44.5978 15.3507C44.8729 15.6558 45.0379 16.083 45.0379 16.5101C44.9829 17.4254 44.3777 18.0967 43.5526 18.1577M27.2689 18.0967C26.4438 18.0967 25.7836 17.3644 25.7836 16.5101C25.7836 16.083 25.9487 15.6558 26.2237 15.3507C26.7188 14.6795 27.654 14.5575 28.2592 15.1067H28.3142C28.9193 15.7169 28.9743 16.7542 28.4242 17.4254L28.2592 17.6695C27.9841 17.9746 27.599 18.1577 27.2139 18.1577M43.9927 8.27234L46.9083 2.65844C47.0733 2.35334 46.9633 1.98722 46.7433 1.74314C46.4682 1.62109 46.1932 1.68211 46.0281 1.9262L43.0024 7.72316C38.1614 5.34335 32.6601 5.34335 27.8741 7.72316L24.9034 1.98722C24.7934 1.80416 24.5733 1.62109 24.3533 1.62109C24.1333 1.62109 23.9132 1.74313 23.8032 1.98722C23.6932 2.17028 23.6932 2.47538 23.8032 2.65844L26.7738 8.27234C21.6027 11.3844 18.2469 17.2424 17.7518 23.7106H53.0697C52.6296 17.1814 49.2188 11.3844 44.0477 8.27234" fill="#3DDC84"/>
<path d="M58.2958 35.8536H55.9853C55.8753 35.9147 55.7653 36.0367 55.7653 36.2198V76.7985C55.7653 76.9815 55.8753 77.1036 56.0403 77.1036H58.4609C61.2665 77.1036 63.522 74.5407 63.522 71.4897V30.1787C63.522 33.2908 61.2665 35.7926 58.4609 35.7926H58.2958V35.8536Z" fill="#073042"/>
</svg>
