<svg width="71" height="79" viewBox="0 0 71 79" fill="none" xmlns="http://www.w3.org/2000/svg">
<path d="M54.0626 41.4238C54.1583 52.8956 63.1363 56.7137 63.2353 56.7625C63.1594 57.031 61.8012 62.2031 58.5059 67.5443C55.6574 72.1623 52.7005 76.7633 48.0437 76.8597C43.4678 76.9524 41.9962 73.8489 36.764 73.8489C31.5334 73.8489 29.899 76.7633 25.5668 76.9524C21.0712 77.1416 17.6478 71.9579 14.7756 67.3575C8.9069 57.9457 4.42175 40.7617 10.4439 29.1623C13.4355 23.4019 18.7827 19.7547 24.5859 19.6608C29.0001 19.5674 33.1667 22.9547 35.8651 22.9547C38.5618 22.9547 43.6251 18.8809 48.9481 19.4789C51.1766 19.582 57.4315 20.4772 61.448 26.9991C61.1251 27.2218 53.985 31.8325 54.0626 41.4238M45.4625 13.253C47.849 10.0488 49.4553 5.58696 49.0174 1.14893C45.577 1.30209 41.4169 3.69166 38.9496 6.89463C36.7381 9.73026 34.8017 14.2702 35.3238 18.6204C39.1587 18.9499 43.0755 16.459 45.4625 13.253" fill="#1E1E2C"/>
</svg>
