<svg width="71" height="79" viewBox="0 0 71 79" fill="none" xmlns="http://www.w3.org/2000/svg">
<path fill-rule="evenodd" clip-rule="evenodd" d="M21.8238 40.972C21.3804 41.9935 20.9942 42.8569 20.6273 43.7313C18.791 48.1108 17.2699 52.6117 16.4848 57.3798C16.048 60.0318 15.8093 62.7033 16.4337 65.3656C16.9701 67.6533 18.0863 68.8279 19.9957 68.9249C20.8314 68.9683 21.7055 68.7718 22.5191 68.5173C24.6734 67.8406 26.5477 66.5335 28.3603 65.1179C28.8004 64.7737 29.2504 64.5589 29.7995 64.7853C30.7721 65.1868 31.1242 66.6171 30.3039 67.2963C27.3437 69.7426 24.2108 71.8521 20.3748 71.9827C17.233 72.0901 14.9588 70.221 13.9565 66.899C13.2083 64.4204 13.1643 61.8709 13.4388 59.313C14.2541 51.6988 16.9035 44.7809 20.0848 38.0747C20.3583 37.4987 20.3748 37.041 20.1811 36.4253C19.3867 33.8948 18.6479 31.3423 17.9223 28.7862C17.7848 28.3017 17.644 28.1638 17.1697 28.2791C14.0528 29.0394 10.982 29.9675 8.21706 31.7841C7.14927 32.4858 6.12494 33.3572 5.27115 34.3519C3.85129 36.0055 3.82433 37.8355 4.98454 39.7235C5.99677 41.3717 7.42323 42.4987 8.92837 43.5172C9.39927 43.8369 9.89603 44.1091 10.3702 44.4227C11.0595 44.8797 11.2955 45.7658 10.9418 46.5029C10.587 47.2406 9.79096 47.5329 9.0681 47.1204C6.95343 45.9147 4.98124 44.4837 3.39964 42.4761C2.43032 41.246 1.72011 39.8632 1.48521 38.2242C1.19255 36.18 1.72066 34.3787 2.82751 32.7604C3.96901 31.0927 5.4681 29.9028 7.10471 28.9143C10.0072 27.1612 13.1346 26.1141 16.3473 25.3422C16.5674 25.2891 16.7852 25.2232 17.0834 25.1408C16.9321 24.1901 16.7698 23.2675 16.64 22.3381C16.1135 18.5585 15.8709 14.7758 16.7076 11.0084C17.0388 9.51829 17.5587 8.10993 18.4631 6.92308C20.3093 4.50239 22.6836 3.96358 25.3462 4.68484C27.978 5.39818 30.1878 7.01461 32.2486 8.89588C32.8317 9.42798 32.8477 10.3891 32.3718 11.0084C31.8861 11.64 31.1308 11.7224 30.4695 11.2226C29.4309 10.4385 28.4209 9.60067 27.3415 8.89222C26.1048 8.08125 24.7768 7.50583 23.297 7.4979C22.0746 7.49118 21.1246 8.04281 20.4281 9.14118C19.5457 10.5343 19.2305 12.1416 19.0638 13.7897C18.7112 17.2758 19.1298 20.7028 19.7421 24.1132C19.8076 24.4757 19.933 24.6038 20.2768 24.5654C22.7579 24.2908 25.2395 24.0168 27.7244 23.7867C28.2646 23.7373 28.6172 23.5207 28.9523 23.0508C32.1815 18.5262 35.7215 14.3365 39.8859 10.8406C42.2058 8.89344 44.6572 7.19584 47.4776 6.26894C49.2446 5.68863 51.0331 5.47384 52.8127 6.16765C55.0352 7.03414 56.2774 8.90747 56.9177 11.3251C57.5966 13.8916 57.4904 16.5082 57.2148 19.1242C57.1394 19.7943 57.0426 20.4613 56.9243 21.1238C56.7697 22.0257 56.1668 22.5035 55.3548 22.3985C54.6166 22.3033 54.1347 21.6449 54.2122 20.7308C54.3195 19.4701 54.5786 18.2162 54.5902 16.9579C54.6039 15.469 54.5753 13.9417 54.2958 12.4955C53.7133 9.48839 51.8379 8.30886 49.0636 8.98741C46.9825 9.49571 45.1369 10.5819 43.3798 11.8664C39.7704 14.5049 36.6892 17.8043 33.8286 21.3715C33.2966 22.0348 32.785 22.7189 32.2679 23.3962C32.2365 23.4365 32.2387 23.5085 32.1991 23.68H32.9478C40.3145 23.7623 47.5728 24.7338 54.6661 26.9983C58.0438 28.0771 61.3044 29.483 64.3048 31.5535C65.9012 32.6549 67.3668 33.9296 68.5259 35.593C70.8897 38.9858 70.6911 42.7947 67.9719 45.8329C66.1356 47.885 63.874 49.1811 61.465 50.1879C60.7834 50.4717 60.0331 50.0549 59.7723 49.3306C59.4857 48.5349 59.7965 47.7117 60.526 47.3193C61.6383 46.7213 62.7952 46.2033 63.8471 45.493C64.726 44.902 65.5302 44.184 66.2385 43.3579C67.7111 41.6194 67.7656 39.7192 66.5168 37.7739C65.5816 36.3167 64.3251 35.2513 62.974 34.3201C59.6403 32.0221 55.982 30.5985 52.2153 29.4873C48.2885 28.3285 44.299 27.52 40.2474 27.2002C37.0187 26.9458 33.7785 26.8726 30.5438 26.7023C30.0767 26.6773 29.7576 26.8305 29.498 27.2747C27.6017 30.5185 25.684 33.7471 23.7976 36.9983C23.6601 37.2351 23.6018 37.661 23.6959 37.9118C26.8893 46.3412 30.9338 54.2092 36.2937 61.1942C38.5503 64.1336 41.0043 66.8521 43.9844 68.9091C45.3828 69.8738 46.8422 70.6787 48.535 70.8038C50.0687 70.9185 51.1877 70.2064 51.949 68.7626C52.6664 67.4025 52.9541 65.8977 53.0828 64.3514C53.4987 59.3618 52.6092 54.5491 51.4297 49.7858C50.2216 44.9066 48.5119 40.2336 46.5529 35.6681C46.395 35.3007 46.2657 34.8644 46.2828 34.469C46.3141 33.7496 46.8257 33.2376 47.4655 33.1266C48.0278 33.0289 48.6197 33.3719 48.9008 34.0407C49.6017 35.7053 50.313 37.3669 50.955 39.0602C52.9365 44.2903 54.5319 49.6564 55.3746 55.2691C55.9627 59.1866 56.2438 63.1182 55.4275 67.0424C55.2417 67.926 54.9765 68.7866 54.6358 69.6114C53.2457 72.9822 50.4268 74.5053 47.1608 73.7132C44.5053 73.0682 42.2641 71.5293 40.1731 69.6907C36.3272 66.3096 33.2069 62.187 30.3848 57.7704C27.1677 52.7392 24.4506 47.3889 22.1742 41.7622C22.0889 41.5529 21.991 41.3497 21.8238 40.972V40.972ZM20.4331 27.578L22.1913 33.7801C23.5803 31.4284 24.8753 29.2365 26.2682 26.8768L20.4331 27.578ZM36.0422 43.5885C33.8324 43.5855 32.0341 41.5987 32.0385 39.1652C32.0423 36.6926 33.8385 34.7223 36.0852 34.7229C38.2933 34.7241 40.0878 36.7091 40.0895 39.1499C40.0906 41.6194 38.2922 43.5916 36.0422 43.5885Z" fill="#67595D"/>
</svg>
