<svg width="71" height="79" viewBox="0 0 71 79" fill="none" xmlns="http://www.w3.org/2000/svg">
<path d="M23.6667 3.29189H44.2364L22.8835 73.4681C22.6643 74.1895 22.2464 74.8163 21.689 75.2603C21.1315 75.7043 20.4625 75.943 19.7762 75.9429H3.7684C3.24851 75.9428 2.73611 75.8055 2.27352 75.5423C1.81093 75.2791 1.41143 74.8976 1.10801 74.4293C0.804685 73.961 0.606298 73.4192 0.52928 72.8489C0.452262 72.2786 0.498828 71.6961 0.665122 71.1497L20.5594 5.76616C20.7787 5.04485 21.1966 4.41804 21.754 3.97397C22.3114 3.5299 22.9804 3.29096 23.6667 3.29077V3.29189Z" fill="url(#paint0_linear_221_1370)"/>
<path d="M53.5573 50.3618H20.9389C20.6356 50.3612 20.3391 50.4619 20.0882 50.6509C19.8373 50.84 19.6436 51.1085 19.5323 51.4214C19.421 51.7344 19.3973 52.0773 19.4643 52.4055C19.5313 52.7336 19.6859 53.0317 19.908 53.2609L40.8676 74.9611C41.4779 75.5925 42.2814 75.9436 43.116 75.9435H61.5858L53.5573 50.3618Z" fill="#0078D4"/>
<path d="M23.6667 3.29202C22.973 3.28913 22.2965 3.53235 21.7362 3.98617C21.1759 4.43999 20.7611 5.08062 20.5523 5.81451L0.689961 71.0904C0.512642 71.6388 0.45699 72.2265 0.527712 72.8037C0.598434 73.381 0.793449 73.9309 1.09626 74.4069C1.39908 74.8829 1.80079 75.271 2.26741 75.5384C2.73403 75.8058 3.25185 75.9446 3.77706 75.9431H20.1984C20.81 75.8219 21.3816 75.5228 21.8549 75.0763C22.3282 74.6299 22.6861 74.0521 22.8922 73.4021L26.8529 60.4536L41.0017 75.0912C41.5945 75.6352 42.3381 75.9361 43.1075 75.9431H61.5087L53.4381 50.3614L29.9117 50.3676L44.3108 3.29202H23.6667Z" fill="url(#paint1_linear_221_1370)"/>
<path d="M49.9394 5.76289C49.7203 5.0426 49.303 4.4167 48.7462 3.97341C48.1895 3.53012 47.5214 3.29179 46.8361 3.29199H23.9119C24.5971 3.29207 25.265 3.53053 25.8216 3.97379C26.3782 4.41705 26.7955 5.04278 27.0146 5.76289L46.9094 71.1493C47.0759 71.6958 47.1227 72.2784 47.0459 72.8489C46.9691 73.4195 46.7708 73.9615 46.4676 74.4301C46.1643 74.8988 45.7648 75.2805 45.302 75.5438C44.8393 75.8071 44.3267 75.9443 43.8066 75.9442H66.7318C67.2517 75.9438 67.764 75.8061 68.2264 75.5427C68.6889 75.2792 69.0881 74.8975 69.3913 74.429C69.6944 73.9605 69.8926 73.4187 69.9696 72.8484C70.0466 72.2781 70.0002 71.6957 69.8341 71.1493L49.9394 5.76289Z" fill="url(#paint2_linear_221_1370)"/>
<defs>
<linearGradient id="paint0_linear_221_1370" x1="31.164" y1="8.67561" x2="5.48898" y2="77.0563" gradientUnits="userSpaceOnUse">
<stop stop-color="#114A8B"/>
<stop offset="1" stop-color="#0669BC"/>
</linearGradient>
<linearGradient id="paint1_linear_221_1370" x1="37.8368" y1="41.2977" x2="32.7989" y2="42.8332" gradientUnits="userSpaceOnUse">
<stop stop-opacity="0.3"/>
<stop offset="0.071" stop-opacity="0.2"/>
<stop offset="0.321" stop-opacity="0.1"/>
<stop offset="0.623" stop-opacity="0.05"/>
<stop offset="1" stop-opacity="0"/>
</linearGradient>
<linearGradient id="paint2_linear_221_1370" x1="35.1192" y1="6.63382" x2="63.172" y2="74.0122" gradientUnits="userSpaceOnUse">
<stop stop-color="#3CCBF4"/>
<stop offset="1" stop-color="#2892DF"/>
</linearGradient>
</defs>
</svg>
