<svg width="72" height="79" viewBox="0 0 72 79" fill="none" xmlns="http://www.w3.org/2000/svg">
<path d="M37.4614 43.1347C37.5935 40.5462 38.7416 38.261 40.4788 36.6458C42.1809 35.058 44.4661 34.0872 46.9752 34.0872C49.4711 34.0872 51.7558 35.0574 53.4557 36.6458C55.1957 38.261 56.3367 40.5462 56.4731 43.1347C56.6051 45.7891 55.6353 48.2665 53.9398 50.1014C52.2025 51.9625 49.744 53.1384 46.9752 53.1384C44.2043 53.1384 41.7348 51.9699 40.0085 50.1014C38.3064 48.2671 37.3387 45.8031 37.4746 43.1469L37.4614 43.1347Z" fill="#235785"/>
<path d="M22.5603 48.6082C22.5757 49.6211 22.8706 51.5921 23.3085 53.1262C24.2338 56.3822 25.8044 59.3948 27.979 62.0346C30.2136 64.7591 32.9708 66.9498 36.1483 68.5088C39.4892 70.1381 43.1156 70.9722 46.8784 70.9722C50.6413 70.9668 54.2677 70.118 57.608 68.4692C60.7855 66.8936 63.5438 64.7054 65.7773 61.9662C67.9635 59.2972 69.5292 56.287 70.4484 53.0285C70.9088 51.41 71.2031 49.7391 71.3259 48.0474C71.4403 46.4059 71.3919 44.7492 71.1812 43.0925C70.7688 39.9003 69.7533 36.8407 68.2012 34.114C66.7852 31.5816 64.9467 29.3788 62.7605 27.5158L62.7671 27.5133L40.7869 8.8984C40.7671 8.88131 40.7495 8.86422 40.7297 8.84958C39.289 7.62795 36.8547 7.63283 35.278 8.85446C33.675 10.0938 33.4901 12.1404 34.9171 13.4286L34.9105 13.4334L44.0877 21.6615L16.1475 21.6926H16.1101C13.8012 21.695 11.5776 23.3639 11.1425 25.4838C10.6914 27.6323 12.262 29.4257 14.6699 29.4257L14.6655 29.4355L28.8234 29.4062L3.4903 50.7573C3.45949 50.7842 3.42428 50.811 3.39347 50.8379C1.00869 52.8479 0.239074 56.2016 1.74091 58.3092C3.26915 60.4584 6.50827 60.473 8.91835 58.3214L22.7033 45.8671C22.7033 45.8671 22.5009 47.5501 22.5185 48.5502L22.5603 48.6082ZM58.0762 54.2337C55.2331 57.4238 51.2459 59.2435 46.9489 59.2435C42.6408 59.2508 38.6536 57.4629 35.81 54.2752C34.4204 52.7137 33.4021 50.9355 32.7689 49.0329C32.1499 47.1607 31.9112 45.16 32.0697 43.1737C32.2202 41.2356 32.7412 39.3553 33.5979 37.658C34.427 36.0019 35.5729 34.4972 36.9757 33.2237C39.7445 30.7474 43.2581 29.3916 46.9329 29.3916C50.6237 29.3867 54.1379 30.7182 56.9066 33.1968C58.3094 34.463 59.4509 35.9604 60.2844 37.6165C61.1429 39.3137 61.6633 41.1954 61.8104 43.1346C61.9666 45.1201 61.7279 47.1194 61.1112 48.9914C60.4802 50.9087 59.4597 52.6868 58.0674 54.2483L58.0762 54.2337Z" fill="#E87500"/>
</svg>
