<svg width="71" height="79" viewBox="0 0 71 79" fill="none" xmlns="http://www.w3.org/2000/svg">
<path d="M15.3444 8.47266C11.3961 8.47266 8.47553 12.3072 8.60591 16.4657C8.73134 20.4602 8.5685 25.6347 7.39399 29.8537C6.21673 34.0861 4.22529 36.7606 0.972412 37.1048V41.0021C4.22529 41.3457 6.21673 44.0208 7.39399 48.2532C8.5685 52.4722 8.73079 57.6467 8.60591 61.6412C8.47498 65.7997 11.3961 69.6336 15.3444 69.6336H55.8004C59.7486 69.6336 62.6692 65.7991 62.5388 61.6412C62.4134 57.6467 62.5762 52.4722 63.7502 48.2532C64.9274 44.0214 66.9139 41.3463 70.1668 41.0021V37.1048C66.9139 36.7612 64.928 34.0861 63.7502 29.8537C62.5762 25.6347 62.4134 20.4602 62.5388 16.4657C62.6692 12.3072 59.7486 8.47266 55.7998 8.47266H15.3444ZM47.3142 46.1138C47.3142 51.84 43.4622 55.3115 37.0703 55.3115H25.2856C25.214 55.3115 25.1453 55.2799 25.0946 55.2237C25.044 55.1675 25.0155 55.0913 25.0155 55.0119V23.0822C25.0154 23.0428 25.0224 23.0038 25.0359 22.9674C25.0495 22.931 25.0693 22.8979 25.0944 22.87C25.1195 22.8421 25.1493 22.82 25.1821 22.8049C25.2149 22.7898 25.2501 22.782 25.2856 22.782H37.0082C42.3383 22.782 45.836 25.9831 45.836 30.8977C45.836 34.3472 43.4831 37.4349 40.4849 37.9761V38.1568C44.5658 38.6529 47.3142 41.7863 47.3142 46.1138ZM35.8837 26.9076H29.6794V36.6233H34.9056C38.9446 36.6233 41.172 34.8201 41.172 31.5964C41.172 28.5759 39.2571 26.9076 35.8837 26.9076V26.9076ZM29.6794 40.4786V51.1865H36.1131C40.3188 51.1865 42.5468 49.3156 42.5468 45.7984C42.5468 42.2817 40.2566 40.4786 35.8425 40.4786H29.6794Z" fill="#7952B3"/>
</svg>
