<svg width="71" height="79" viewBox="0 0 71 79" fill="none" xmlns="http://www.w3.org/2000/svg">
<path d="M63.9902 18.7334L37.4193 1.76967C36.9792 1.46457 36.3741 1.34253 35.7139 1.34253C35.0538 1.34253 34.4486 1.52559 34.0085 1.76967L7.60268 18.7944C6.66747 19.4046 6.00732 20.9302 6.00732 22.0895V56.078C6.00732 56.7493 6.11735 57.5425 6.55745 58.2138L65.3105 20.381C64.9804 19.6487 64.4853 19.0995 63.9902 18.7334V18.7334Z" fill="#659AD3"/>
<path d="M6.39246 58.1526C6.66752 58.6408 7.0526 59.0679 7.43769 59.312L33.9536 76.3368C34.3937 76.6419 34.9988 76.7639 35.659 76.7639C36.3191 76.7639 36.9242 76.5809 37.3643 76.3368L63.7702 59.312C64.7054 58.7018 65.3656 57.1763 65.3656 56.0169V22.0284C65.3656 21.4792 65.3106 20.869 65.0355 20.3198L6.39246 58.1526V58.1526Z" fill="#03599C"/>
<path d="M47.4316 46.4366C45.121 50.9521 40.7201 54.0032 35.714 54.0032C28.2873 54.0032 22.236 47.2909 22.236 39.0531C22.236 30.8153 28.2873 24.103 35.714 24.103C40.7201 24.103 45.121 27.1541 47.4316 31.7306L54.5832 27.1541C50.8423 19.8926 43.8008 14.95 35.714 14.95C23.7213 14.95 13.9841 25.7506 13.9841 39.0531C13.9841 52.3556 23.7213 63.1563 35.714 63.1563C43.7457 63.1563 50.7873 58.2746 54.5281 51.0742L47.4316 46.4366V46.4366Z" fill="white"/>
</svg>
