<svg width="72" height="79" viewBox="0 0 72 79" fill="none" xmlns="http://www.w3.org/2000/svg">
<path d="M56.3765 47.2093C56.3765 50.2603 54.8911 51.7858 52.1955 51.9079H19.2432C16.5476 51.9079 15.0623 50.3824 15.0623 47.2093C15.0623 44.1583 16.5476 42.6328 19.2432 42.5107H52.3606C55.0562 42.6328 56.3765 44.1583 56.3765 47.2093V47.2093ZM52.3606 54.2267H19.2432C16.5476 54.2267 15.0623 55.6912 15.0623 58.9253C15.0623 61.9763 16.5476 63.4408 19.2432 63.6239H52.3606C55.0562 63.6239 56.5415 62.0983 56.5415 58.9253C56.3765 55.6912 55.0562 54.2267 52.3606 54.2267V54.2267ZM62.5929 28.537C59.8973 28.537 58.4119 30.0625 58.4119 33.0525V58.7422C58.4119 61.7932 59.8973 63.3188 62.5929 63.4408C66.6638 63.3188 68.8092 58.7422 68.8092 49.4671V37.9342C68.8092 31.7101 66.6638 28.659 62.5929 28.537ZM9.01094 28.537C4.94003 28.659 2.79456 31.7101 2.79456 37.9342V49.4671C2.79456 58.7422 4.94003 63.3188 9.01094 63.4408C11.7065 63.4408 13.1919 61.9763 13.1919 58.7422V33.2356C13.0818 30.1845 11.7065 28.659 9.01094 28.537V28.537ZM62.5929 26.2182C62.5929 18.4686 58.962 14.8073 52.3606 14.6853H19.2432C12.5317 14.8073 9.01094 18.6516 9.01094 26.2182C13.0818 26.2182 15.2273 28.659 15.2273 33.2356C15.2273 37.8121 17.3728 40.1919 21.4437 40.1919H50.3251C54.341 40.1919 56.5415 37.8121 56.5415 33.2356C56.3765 28.537 58.687 26.4013 62.5929 26.2182V26.2182Z" fill="#E42528"/>
</svg>
