<svg width="71" height="79" viewBox="0 0 71 79" fill="none" xmlns="http://www.w3.org/2000/svg">
<path d="M63.9902 19.4336L37.4193 2.46987C36.9792 2.16477 36.3741 2.04272 35.7139 2.04272C35.0538 2.04272 34.4486 2.22579 34.0085 2.46987L7.60268 19.4946C6.66747 20.1048 6.00732 21.6303 6.00732 22.7897V56.7782C6.00732 57.4495 6.11735 58.2427 6.55745 58.914L65.3105 21.0812C64.9804 20.3489 64.4853 19.7997 63.9902 19.4336V19.4336Z" fill="#D26383"/>
<path d="M6.39246 58.8528C6.66752 59.341 7.0526 59.7681 7.43769 60.0122L33.9536 77.037C34.3937 77.3421 34.9988 77.4641 35.659 77.4641C36.3191 77.4641 36.9242 77.2811 37.3643 77.037L63.7702 60.0122C64.7054 59.402 65.3656 57.8765 65.3656 56.7171V22.7286C65.3656 22.1794 65.3106 21.5692 65.0355 21.02L6.39246 58.8528V58.8528Z" fill="#9C033A"/>
<path d="M47.4316 47.1368C45.121 51.6523 40.7201 54.7034 35.714 54.7034C28.2873 54.7034 22.236 47.9911 22.236 39.7533C22.236 31.5155 28.2873 24.8032 35.714 24.8032C40.7201 24.8032 45.121 27.8543 47.4316 32.4308L54.5832 27.8543C50.8423 20.5928 43.8008 15.6501 35.714 15.6501C23.7213 15.6501 13.9841 26.4508 13.9841 39.7533C13.9841 53.0558 23.7213 63.8565 35.714 63.8565C43.7457 63.8565 50.7873 58.9748 54.5281 51.7744L47.4316 47.1368V47.1368Z" fill="white"/>
<path d="M45.6711 38.4109H48.5318V35.1768H50.9523V38.4109H53.868V41.0958H50.9523V44.2688H48.5318V41.0958H45.6711V38.4109V38.4109ZM55.8484 38.4109H58.709V35.1768H61.1296V38.4109H64.0452V41.0958H61.1296V44.2688H58.709V41.0958H55.8484V38.4109V38.4109Z" fill="white"/>
</svg>
