<svg width="71" height="79" viewBox="0 0 71 79" fill="none" xmlns="http://www.w3.org/2000/svg">
<path d="M10.856 69.7394L5.32507 0.925781H66.1026L60.5662 69.729L35.677 77.3828L10.856 69.7394V69.7394Z" fill="#1572B6"/>
<path d="M35.7145 71.5331L55.8264 65.3481L60.558 6.55225H35.7145V71.5331Z" fill="#33A9DC"/>
<path d="M35.7145 31.483H45.7828L46.4782 22.8406H35.7145V14.4009H54.7938L54.6112 16.6654L52.7408 39.9228H35.7145V31.483Z" fill="white"/>
<path d="M35.7596 53.4018L35.7261 53.4128L27.2525 50.875L26.7106 44.1438H19.0739L20.1394 57.3956L35.725 62.1937L35.7596 62.1827V53.4018V53.4018Z" fill="#EBEBEB"/>
<path d="M45.1358 39.5662L44.2193 50.8684L35.7332 53.4093V62.1902L51.3313 57.3952L51.4457 55.9691L52.7693 39.5662H45.1358Z" fill="white"/>
<path d="M35.7402 14.4009V22.8406H17.3617L17.2093 20.9441L16.8628 16.6654L16.6807 14.4009H35.7402V14.4009ZM35.7143 31.4842V39.924H27.3475L27.1952 38.0275L26.848 33.7487L26.6665 31.4842H35.7143V31.4842Z" fill="#EBEBEB"/>
</svg>
