<svg width="71" height="79" viewBox="0 0 71 79" fill="none" xmlns="http://www.w3.org/2000/svg">
<path d="M19.9411 21.6965L15.3751 16.6318V53.0612L15.4301 54.7697C15.4301 55.563 15.5402 56.4783 15.8152 57.3936L51.9032 71.4894L60.8702 67.0959L19.9411 21.6965V21.6965Z" fill="#00C4B3"/>
<path d="M60.8703 67.0963L51.9033 71.4898L15.9253 57.394C16.6405 60.323 18.1258 63.5571 19.7761 65.4488L31.4938 78.3851L57.6796 78.4462L60.8703 67.0963Z" fill="#22D3C5"/>
<path d="M1.51207 40.125C0.356813 41.4675 0.961948 44.3354 2.77735 46.4712L10.8641 55.5022L15.9253 57.5159C15.7602 56.6006 15.5402 55.6853 15.5402 54.892L15.4852 53.1834L15.3752 16.6931M60.8703 67.0961L64.8311 57.0887L52.1783 17.0592C51.3531 16.8761 50.528 16.6931 49.8128 16.6321L48.2174 16.571L15.4302 16.6321" fill="#0075C9"/>
<path d="M52.0684 17.0593C52.1784 17.0593 52.1784 17.0593 52.0684 17.0593C52.1784 17.0593 52.1784 17.0593 52.0684 17.0593ZM60.8703 67.0962L70.6075 63.557V33.84L59.385 21.3308C57.7346 19.5002 54.819 17.7916 52.1234 17.0593L64.8312 57.0889" fill="#00A8E1"/>
<path d="M50.363 11.5063L42.2212 2.53627C40.3508 0.461565 37.8202 -0.148641 36.4999 1.13279L15.3752 16.632H48.1075L49.7029 16.6931C50.418 16.6931 51.2432 16.8151 52.0684 17.1202L50.363 11.5063V11.5063Z" fill="#00C4B3"/>
</svg>
