<svg width="72" height="79" viewBox="0 0 72 79" fill="none" xmlns="http://www.w3.org/2000/svg">
<path d="M41.3952 41.908C40.2592 41.9251 41.6103 42.5567 43.0934 42.8105C43.4797 42.4766 43.8511 42.1221 44.2063 41.7482C43.2827 41.9983 42.3431 42.0038 41.3952 41.908ZM47.4938 40.222C48.1699 39.1865 48.664 38.0521 48.8372 36.8793C48.6854 37.7147 48.2767 38.4372 47.891 39.1987C45.7676 40.6821 47.6913 38.3182 47.8899 37.4194C45.6069 40.6077 47.5764 39.3311 47.4938 40.222M49.7455 33.7246C49.8825 31.4546 49.3423 32.1722 49.1607 33.0381C49.372 33.1607 49.5403 34.638 49.7455 33.7246ZM37.0866 2.7035C37.6929 2.82432 38.3965 2.91707 38.298 3.07695C38.9615 2.91646 39.1122 2.76818 37.0866 2.7035ZM38.298 3.07756L37.8695 3.1758L38.2683 3.13675L38.298 3.07756M57.2068 34.585C57.2745 36.623 56.6688 37.6122 56.1236 39.3623L55.1411 39.9066C54.3379 41.6383 55.2192 41.0062 54.6443 42.3834C53.3895 43.6203 50.8369 46.2551 50.02 46.495C49.4237 46.4809 50.4238 45.7151 50.5547 45.4143C48.8758 46.6945 49.2075 47.3346 46.639 48.1126L46.5641 47.9265C40.2289 51.232 31.4303 44.6814 31.5464 35.7431C31.4787 36.3112 31.3544 36.1684 31.2135 36.3985C30.8868 31.7994 33.1285 27.1801 36.9089 25.2952C40.6069 23.2638 44.9418 24.0973 47.5907 26.8353C46.1361 24.721 43.2397 22.4803 39.8075 22.6902C36.4457 22.7494 33.3007 25.1188 32.2516 27.6915C30.5286 28.8948 30.3289 32.329 29.5786 32.9563C28.5691 41.1886 31.4781 44.7443 36.399 48.9285C37.173 49.5076 36.6168 49.5954 36.7219 50.036C35.0869 49.1866 33.5895 47.9045 32.3589 46.3351C33.0113 47.3962 33.7166 48.4275 34.6281 49.2372C33.0861 48.6581 31.027 45.0939 30.4252 44.9487C33.0834 50.2264 41.207 54.2049 45.4617 52.2315C43.4928 52.3114 40.9925 52.2761 38.7805 51.3693C37.8519 50.839 36.5888 49.7406 36.8143 49.5344C42.6198 51.9411 48.6177 51.3577 53.6404 46.8904C54.9183 45.7859 56.3145 43.9083 56.7177 43.8821C56.1099 44.8956 56.8212 44.3702 56.3547 45.2648C57.6287 42.9869 55.8018 44.3367 57.6717 41.3302L58.3626 42.3852C58.1057 40.4948 60.4795 38.1986 60.2385 35.208C60.7831 34.2933 60.8459 36.1916 60.2682 38.2962C61.0698 35.9622 60.4795 35.5869 60.6858 33.6605C60.908 34.3085 61.2001 34.9956 61.3503 35.6791C60.8277 33.4237 61.8867 31.8799 62.148 30.5698C61.8911 30.4429 61.3426 31.5669 61.2172 28.9027C61.2359 27.7458 61.5077 28.2968 61.6122 28.0118C61.407 27.8806 60.8701 26.994 60.5427 25.2927C60.7798 24.893 61.1759 26.3289 61.4994 26.3881C61.2915 25.0352 60.9339 24.004 60.9201 22.9654C59.9778 20.7815 60.5868 23.2571 59.8221 22.0281C58.8192 18.5579 60.6544 21.2227 60.7782 19.6465C62.2982 22.0891 63.1652 25.8755 63.5629 27.4431C63.2592 25.5313 62.7691 23.6793 62.17 21.8872C62.6316 22.1032 61.4262 17.9538 62.7702 20.7015C61.3349 14.8436 56.6275 9.37062 52.297 6.80226C52.8262 7.33985 53.4957 8.01596 53.2558 8.12152C51.1021 6.69913 51.4806 6.58808 51.1725 5.98702C49.4176 5.19558 49.3026 6.05048 48.1408 5.98885C44.8335 4.04352 44.1959 4.24977 41.1526 3.03057L41.2912 3.74879C39.0995 2.93904 38.7381 4.05572 36.3704 3.75123C36.2257 3.62613 37.129 3.29967 37.8722 3.17946C35.7542 3.48945 35.8533 2.71632 33.7804 3.26489C34.2915 2.86765 34.8306 2.60465 35.3758 2.26598C33.6489 2.38253 31.2526 3.38144 31.9919 2.47284C29.1748 3.86778 24.1703 5.82471 21.3625 8.74577L21.2739 8.09101C19.9872 9.80508 15.6627 13.2088 15.3183 15.4269L14.9745 15.516C14.3044 16.773 13.872 18.1985 13.3406 19.4927C12.4648 21.1482 12.0566 20.1298 12.1815 20.3891C10.4585 24.2633 9.60307 27.5182 8.86426 30.1872C9.39128 31.061 8.87636 35.4435 9.07606 38.9522C8.21126 56.2784 20.0389 73.1006 32.9679 76.9858C34.863 77.7363 37.6808 77.7082 40.0776 77.7857C37.2495 76.8881 36.8836 77.311 34.1292 76.245C32.141 75.207 31.7059 74.0214 30.2981 72.6667L30.8559 73.759C28.0949 72.6759 29.2507 72.4177 27.004 71.6288L27.5998 70.7671C26.7047 70.6921 25.2293 69.0952 24.8261 68.2098L23.8474 68.2525C22.6712 66.6428 22.0446 65.4834 22.0903 64.5845L21.774 65.2094C21.4153 64.5266 17.4473 59.1726 19.5058 60.4193C19.1229 60.0306 18.6146 59.7877 18.0634 58.6765L18.4826 58.145C17.4913 56.7318 16.6589 54.9189 16.7222 54.3154C17.2503 55.1074 17.6173 55.2551 17.9803 55.3912C15.4784 48.505 15.3381 55.0116 13.4429 48.3817L13.844 48.3457C13.5364 47.8319 13.35 47.2742 13.103 46.7274L13.2768 44.7986C11.4757 42.4883 12.7729 34.9755 13.0331 30.8548C13.2135 29.1791 14.5366 27.3955 15.5433 24.5989L14.9305 24.4818C16.1028 22.2136 21.6238 15.3726 24.1808 15.7247C25.4191 13.9984 23.9354 15.718 23.6934 15.2835C26.4137 12.1599 27.2692 13.0764 29.1055 12.515C31.0859 11.211 27.4061 13.0233 28.3446 12.0177C31.7681 11.0481 30.7707 9.81302 35.2366 9.32058C35.708 9.61775 34.1435 9.77946 33.7507 10.1657C36.6031 8.61823 42.7771 8.97032 46.7869 11.0249C51.4399 13.4364 56.6677 20.5673 56.874 27.2753L57.1089 27.3449C56.9901 30.0115 57.4769 33.0954 56.633 35.928L57.2068 34.585M28.9938 43.638L28.8342 44.5216C29.5808 45.6474 30.1738 46.8666 31.1266 47.7453C30.4412 46.26 29.9312 45.6462 28.9938 43.638ZM30.7586 43.5611C30.3636 43.076 30.1292 42.4926 29.8674 41.9111C30.1182 42.9332 30.6309 43.8113 31.1079 44.7046L30.7586 43.5611M61.9973 36.0293L61.83 36.4943C61.5222 38.9357 60.8532 41.304 59.8501 43.5037C60.9632 41.1748 61.6904 38.6432 61.9973 36.0293M37.3116 2.0994C38.0796 1.78636 39.2002 1.92793 40.0149 1.7229C38.9532 1.82175 37.8959 1.88094 36.8517 2.02983L37.3116 2.0994ZM10.3408 18.0069C10.5179 19.8247 9.10741 20.5301 10.6527 19.3316C11.4812 17.263 10.3292 18.7611 10.3408 18.0069ZM8.52483 26.4204C8.88021 25.2085 8.94513 24.4799 9.08101 23.7794C8.09739 25.1737 8.62826 25.4715 8.52483 26.4204Z" fill="#A80030"/>
</svg>
