<svg width="71" height="79" viewBox="0 0 71 79" fill="none" xmlns="http://www.w3.org/2000/svg">
<path fill-rule="evenodd" clip-rule="evenodd" d="M40.8727 31.6986H47.0891V38.716H50.2248C51.6551 38.716 53.1404 38.4109 54.5157 37.9227C55.1759 37.6787 55.946 37.3125 56.6062 36.8854C55.726 35.604 55.2859 34.0174 55.1759 32.4309C55.0108 30.2952 55.3959 27.4882 56.7162 25.8407L57.3763 24.9864L58.1465 25.6576C60.127 27.4272 61.7223 29.807 62.0524 32.6139C64.4179 31.8207 67.1685 32.0037 69.259 33.3462L70.0842 33.8954L69.6441 34.8717C67.8837 38.655 64.1979 39.8754 60.6221 39.6313C55.2309 54.4593 43.5683 61.4767 29.3751 61.4767C22.0585 61.4767 15.347 58.4257 11.4961 51.2252L11.4411 51.1032L10.891 49.8218C9.57072 46.6487 9.18563 43.1705 9.46069 39.6923L9.57072 38.655H14.8519V31.6986H21.0683V24.8643H33.446V17.969H40.8727V31.6986V31.6986Z" fill="#3A4D54"/>
<path d="M61.0071 34.3226C61.4472 30.7224 59.0267 27.9155 57.4863 26.573C55.781 28.7697 55.5059 34.6277 58.2015 37.0685C56.6612 38.533 53.5255 39.9365 50.2247 39.9365H10.5059C10.1758 43.7198 10.781 47.198 12.1563 50.188L12.5964 51.1033C12.8714 51.6525 13.2015 52.1406 13.5316 52.6898C15.1819 52.8119 16.6673 52.8729 18.0426 52.8119C20.7382 52.7509 22.9387 52.3847 24.644 51.7745C24.9191 51.6525 25.1392 51.8355 25.2492 52.0796C25.3592 52.3847 25.1942 52.6288 24.9741 52.7509C24.7541 52.8119 24.534 52.9339 24.259 52.9949C22.9387 53.4221 21.5083 53.6662 19.6929 53.7882H19.3629C18.6477 53.8492 17.8775 53.8492 17.0524 53.8492C16.1722 53.8492 15.347 53.8492 14.3568 53.7882C17.6575 57.9376 22.8286 60.3784 29.3201 60.3784C43.0731 60.3784 54.7357 53.6051 59.8519 38.472C63.5377 38.8992 67.0585 37.8618 68.6538 34.3836C66.1783 32.7361 62.8775 33.2853 61.0071 34.3226V34.3226Z" fill="#00AADA"/>
<path d="M61.0072 34.3226C61.4473 30.7224 59.0267 27.9155 57.4864 26.573C55.781 28.7697 55.5059 34.6277 58.2015 37.0685C56.6612 38.533 53.5255 39.9365 50.2248 39.9365H12.8164C12.6514 45.7335 14.5768 50.127 18.0426 52.7509C20.7382 52.6898 22.9387 52.3237 24.6441 51.7135C24.9191 51.5915 25.1392 51.7745 25.2492 52.0186C25.3592 52.3237 25.1942 52.5678 24.9742 52.6898C24.7541 52.7508 24.5341 52.8729 24.259 52.9339C22.9387 53.3611 21.3984 53.6662 19.583 53.7882L19.5279 53.7272C24.204 56.4121 30.9705 56.3511 38.7822 53.056C47.4742 49.3337 55.616 42.2553 61.2822 34.2006C61.1722 34.2616 61.0622 34.2616 61.0072 34.3226V34.3226Z" fill="#28B8EB"/>
<path d="M10.5609 44.5129C10.781 46.5266 11.3311 48.4183 12.1563 50.1879L12.5964 51.1032C12.8714 51.6524 13.2015 52.1405 13.5316 52.6897C15.1819 52.8117 16.6673 52.8728 18.0426 52.8117C20.7382 52.7507 22.9387 52.3846 24.644 51.7744C24.9191 51.6523 25.1392 51.8354 25.2492 52.0795C25.3592 52.3846 25.1942 52.6287 24.9741 52.7507C24.7541 52.8117 24.534 52.9338 24.259 52.9948C22.9387 53.4219 21.3983 53.7271 19.5829 53.8491H19.3629C18.6477 53.9101 17.8775 53.9101 17.1074 53.9101C16.2272 53.9101 15.347 53.9101 14.4118 53.8491C17.7125 57.9985 22.9387 60.4393 29.4301 60.4393C41.2027 60.4393 51.435 55.4967 57.3763 44.574H10.5609V44.5129Z" fill="#028BB8"/>
<path d="M13.2015 44.5129C13.9167 48.0521 15.5671 50.8591 18.0426 52.7507C20.7382 52.6897 22.9387 52.3236 24.6441 51.7134C24.9191 51.5913 25.1392 51.7744 25.2492 52.0185C25.3592 52.3236 25.1942 52.5677 24.9742 52.6897C24.7541 52.7507 24.5341 52.8728 24.259 52.9338C22.9387 53.3609 21.3984 53.666 19.5279 53.7881C24.204 56.473 30.9705 56.412 38.7272 53.1168C43.4033 51.1032 47.9693 48.1132 52.0402 44.5129H13.2015V44.5129Z" fill="#019BC6"/>
<path fill-rule="evenodd" clip-rule="evenodd" d="M15.8971 32.858H21.2883V38.838H15.8971V32.858V32.858ZM16.3372 33.3462H16.7773V38.2888H16.3372V33.3462ZM17.1074 33.3462H17.5475V38.2888H17.1074V33.3462ZM17.9325 33.3462H18.3726V38.2888H17.9325V33.3462ZM18.7577 33.3462H19.1978V38.2888H18.7577V33.3462ZM19.5829 33.3462H20.023V38.2888H19.5829V33.3462ZM20.4081 33.3462H20.8482V38.2888H20.4081V33.3462ZM22.0585 26.0237H27.4497V32.0037H22.0585V26.0237ZM22.5536 26.5118H22.9937V31.4545H22.5536V26.5118ZM23.3237 26.5118H23.7638V31.4545H23.3237V26.5118ZM24.1489 26.5118H24.589V31.4545H24.1489V26.5118ZM24.9741 26.5118H25.4142V31.4545H24.9741V26.5118ZM25.7443 26.5118H26.1844V31.4545H25.7443V26.5118ZM26.5695 26.5118H27.0096V31.4545H26.5695V26.5118Z" fill="#00ACD3"/>
<path fill-rule="evenodd" clip-rule="evenodd" d="M22.0585 32.8582H27.4497V38.8382H22.0585V32.8582V32.8582ZM22.5536 33.3463H22.9937V38.289H22.5536V33.3463ZM23.3238 33.3463H23.7639V38.289H23.3238V33.3463ZM24.1489 33.3463H24.589V38.289H24.1489V33.3463ZM24.9741 33.3463H25.4142V38.289H24.9741V33.3463ZM25.7443 33.3463H26.1844V38.289H25.7443V33.3463ZM26.5695 33.3463H27.0096V38.289H26.5695V33.3463Z" fill="#23C2EE"/>
<path fill-rule="evenodd" clip-rule="evenodd" d="M28.2749 32.8582H33.6661V38.8382H28.2749V32.8582V32.8582ZM28.715 33.3463H29.1551V38.289H28.715V33.3463ZM29.5402 33.3463H29.9803V38.289H29.5402V33.3463ZM30.3654 33.3463H30.8055V38.289H30.3654V33.3463ZM31.1355 33.3463H31.5756V38.289H31.1355V33.3463ZM31.9607 33.3463H32.4008V38.289H31.9607V33.3463ZM32.7859 33.3463H33.226V38.289H32.7859V33.3463Z" fill="#00ACD3"/>
<path fill-rule="evenodd" clip-rule="evenodd" d="M28.2749 26.0237H33.6661V32.0037H28.2749V26.0237V26.0237ZM28.715 26.5118H29.1551V31.4545H28.715V26.5118ZM29.5402 26.5118H29.9803V31.4545H29.5402V26.5118ZM30.3654 26.5118H30.8055V31.4545H30.3654V26.5118ZM31.1355 26.5118H31.5756V31.4545H31.1355V26.5118ZM31.9607 26.5118H32.4008V31.4545H31.9607V26.5118ZM32.7859 26.5118H33.226V31.4545H32.7859V26.5118ZM34.4913 32.858H39.8825V38.838H34.4913V32.858V32.858ZM34.9314 33.3462H35.3715V38.2888H34.9314V33.3462V33.3462ZM35.7566 33.3462H36.1967V38.2888H35.7566V33.3462ZM36.5267 33.3462H36.9668V38.2888H36.5267V33.3462ZM37.3519 33.3462H37.792V38.2888H37.3519V33.3462ZM38.1771 33.3462H38.6172V38.2888H38.1771V33.3462ZM39.0023 33.3462H39.4424V38.2888H39.0023V33.3462Z" fill="#23C2EE"/>
<path fill-rule="evenodd" clip-rule="evenodd" d="M34.4913 26.0237H39.8825V32.0037H34.4913V26.0237ZM34.9314 26.5118H35.3715V31.4545H34.9314V26.5118ZM35.7566 26.5118H36.1967V31.4545H35.7566V26.5118ZM36.5268 26.5118H36.9669V31.4545H36.5268V26.5118ZM37.352 26.5118H37.7921V31.4545H37.352V26.5118ZM38.1772 26.5118H38.6172V31.4545H38.1772V26.5118ZM39.0023 26.5118H39.4424V31.4545H39.0023V26.5118Z" fill="#00ACD3"/>
<path fill-rule="evenodd" clip-rule="evenodd" d="M34.4913 19.1284H39.8825V25.1084H34.4913V19.1284ZM34.9314 19.6166H35.3715V24.5593H34.9314V19.6166ZM35.7566 19.6166H36.1967V24.5593H35.7566V19.6166ZM36.5268 19.6166H36.9669V24.5593H36.5268V19.6166ZM37.352 19.6166H37.7921V24.5593H37.352V19.6166ZM38.1772 19.6166H38.6172V24.5593H38.1772V19.6166ZM39.0023 19.6166H39.4424V24.5593H39.0023V19.6166Z" fill="#23C2EE"/>
<path fill-rule="evenodd" clip-rule="evenodd" d="M40.7076 32.8582H46.0988V38.8382H40.7076V32.8582ZM41.1477 33.3463H41.5878V38.289H41.1477V33.3463ZM41.9179 33.3463H42.358V38.289H41.9179V33.3463ZM42.7431 33.3463H43.1832V38.289H42.7431V33.3463ZM43.5683 33.3463H44.0084V38.289H43.5683V33.3463ZM44.3935 33.3463H44.8336V38.289H44.3935V33.3463ZM45.2186 33.3463H45.6587V38.289H45.2186V33.3463Z" fill="#00ACD3"/>
<path fill-rule="evenodd" clip-rule="evenodd" d="M27.1196 48.4792C27.9448 48.4792 28.6049 49.2115 28.6049 50.1268C28.6049 51.0421 27.9448 51.7744 27.1196 51.7744C26.2944 51.7744 25.6343 51.0421 25.6343 50.1268C25.6343 49.2115 26.2944 48.4792 27.1196 48.4792Z" fill="#D4EEF1"/>
<path fill-rule="evenodd" clip-rule="evenodd" d="M27.1196 48.9676C27.2296 48.9676 27.3947 48.9676 27.5047 49.0286C27.3947 49.0896 27.2847 49.2727 27.2847 49.4557C27.2847 49.6998 27.5047 49.9439 27.7248 49.9439C27.8898 49.9439 28.0548 49.8219 28.1098 49.6998C28.1649 49.8219 28.1649 50.0049 28.1649 50.127C28.1649 50.7982 27.6697 51.2864 27.1196 51.2864C26.5145 51.2864 26.0744 50.7372 26.0744 50.127C26.0744 49.5168 26.5145 48.9676 27.1196 48.9676M0.878784 45.1233H69.8641C68.3788 44.6961 65.1331 44.1469 65.6282 41.9502C62.8776 45.4284 56.3311 44.391 54.6257 42.6824C52.7553 45.6725 41.9729 44.5131 41.2578 42.1943C38.9472 45.2453 31.7406 45.2453 29.4301 42.1943C28.66 44.5131 17.8776 45.6725 16.0622 42.6824C14.4118 44.391 7.81033 45.4284 5.05971 41.9502C5.66485 44.0859 2.36411 44.6961 0.878784 45.1233" fill="#3A4D54"/>
<path d="M31.0806 60.3784C27.3947 58.4257 25.4143 55.8018 24.259 52.9338C22.8837 53.361 21.2334 53.6661 19.363 53.7881C18.6478 53.8491 17.8776 53.8491 17.1075 53.8491C16.1723 53.8491 15.237 53.8491 14.2468 53.7881C17.5476 57.4494 21.7285 60.3173 29.3752 60.3784H31.0806Z" fill="#BFDBE0"/>
<path d="M25.6343 55.5577C25.1392 54.7645 24.6441 53.8491 24.259 52.9338C22.8837 53.361 21.2333 53.6661 19.3629 53.7881C20.6282 54.5204 22.4986 55.2526 25.6343 55.5577V55.5577Z" fill="#D4EEF1"/>
</svg>
