<svg width="72" height="79" viewBox="0 0 72 79" fill="none" xmlns="http://www.w3.org/2000/svg">
<path d="M17.7322 47.8041H16.775V41.7246C16.775 41.2444 16.8031 40.6598 16.8542 39.9703H16.8328C16.7426 40.3736 16.6606 40.6659 16.5885 40.8465L13.8044 47.8041H13.3379L10.5482 40.8972C10.4701 40.7043 10.3876 40.3937 10.3045 39.9703H10.2836C10.3133 40.3327 10.3298 40.921 10.3298 41.7368V47.8041H9.40613V38.7505H10.6692L13.1734 45.0643C13.3621 45.5396 13.4842 45.9015 13.5436 46.148H13.5827C13.7466 45.6531 13.8764 45.2815 13.9738 45.0374L16.5324 38.7505H17.7311V47.8041H17.7322V47.8041ZM20.6787 47.8041H19.7479V41.3389H20.6787V47.8041ZM20.8393 39.0208C20.8393 39.2118 20.7788 39.3704 20.6589 39.501C20.6025 39.5648 20.535 39.6151 20.4604 39.6489C20.3859 39.6827 20.3059 39.6992 20.2254 39.6975C20.0587 39.6975 19.914 39.634 19.7952 39.5077C19.6764 39.3808 19.6181 39.2191 19.6181 39.0202C19.6181 38.8334 19.6764 38.6742 19.7952 38.5448C19.914 38.4155 20.0587 38.3532 20.2254 38.3532C20.3959 38.3532 20.5417 38.4161 20.6589 38.5448C20.7788 38.6748 20.8393 38.8341 20.8393 39.0208M26.4951 47.5051C26.0484 47.8096 25.5154 47.9603 24.8987 47.9603C24.0625 47.9603 23.3902 47.6528 22.8764 47.0383C22.3769 46.4415 22.1261 45.6714 22.1261 44.728C22.1261 43.6687 22.3989 42.8114 22.9496 42.1597C23.4975 41.5074 24.2336 41.1815 25.16 41.1815C25.6661 41.1815 26.1155 41.2914 26.5089 41.5098V42.5722C26.0737 42.2335 25.6138 42.0651 25.1198 42.0651C24.5262 42.0651 24.0432 42.2951 23.6692 42.7534C23.2791 43.2233 23.0816 43.8506 23.0816 44.6341C23.0816 45.3858 23.2621 45.982 23.6202 46.4214C23.9794 46.8589 24.458 47.0779 25.0621 47.0779C25.5715 47.0779 26.049 46.8918 26.4957 46.522V47.5051H26.4951V47.5051ZM30.9484 42.3879C30.7839 42.2475 30.5473 42.1798 30.2354 42.1798C29.8564 42.1798 29.5373 42.3678 29.2798 42.7473C28.9872 43.1708 28.842 43.7578 28.842 44.5084V47.8041H27.9084V41.3383H28.842V42.6716H28.8645C29.0015 42.2 29.2133 41.8369 29.496 41.5794C29.7473 41.3494 30.0631 41.2241 30.3889 41.2255C30.6376 41.2255 30.8218 41.2554 30.9478 41.3139V42.3873L30.9484 42.3879V42.3879ZM36.1476 44.5828C36.1476 43.7554 35.9792 43.1226 35.6426 42.6893C35.3158 42.2726 34.8586 42.0645 34.27 42.0645C33.6902 42.0645 33.2248 42.275 32.8765 42.6967C32.5091 43.1476 32.3253 43.7834 32.3253 44.609C32.3253 45.3828 32.4997 45.9899 32.8534 46.4232C33.2044 46.8589 33.677 47.0773 34.27 47.0773C34.8834 47.0773 35.3532 46.8552 35.675 46.4153C35.9902 45.9832 36.1476 45.3736 36.1476 44.5828M37.1042 44.5468C37.1042 45.5768 36.8418 46.4049 36.3192 47.0249C35.7944 47.6479 35.0886 47.9591 34.2001 47.9591C33.3254 47.9591 32.629 47.6479 32.1185 47.0249C31.6179 46.425 31.367 45.6318 31.367 44.6463C31.367 43.521 31.6509 42.6546 32.2208 42.0389C32.7478 41.4677 33.4531 41.1803 34.3366 41.1803C35.2058 41.1803 35.8846 41.4811 36.3742 42.0767C36.8594 42.6747 37.1042 43.4985 37.1042 44.5468M41.7313 46.0748C41.7313 46.6044 41.5536 47.0419 41.1961 47.3922C40.806 47.7705 40.2702 47.9597 39.5963 47.9597C39.0451 47.9597 38.5615 47.8315 38.1506 47.5704V46.4574C38.6072 46.8692 39.1122 47.0767 39.6656 47.0767C40.4044 47.0767 40.7747 46.7747 40.7747 46.1736C40.7778 46.056 40.7575 45.939 40.7152 45.8311C40.6728 45.7232 40.6096 45.627 40.5299 45.5494C40.3659 45.384 40.0468 45.1869 39.5732 44.955C39.0852 44.7183 38.737 44.4748 38.5318 44.2228C38.2854 43.9232 38.1616 43.5339 38.1616 43.0542C38.1616 42.5179 38.3552 42.0712 38.737 41.7154C39.1204 41.3585 39.6128 41.1803 40.2174 41.1803C40.6806 41.1803 41.0954 41.2804 41.464 41.4836V42.5252C41.0794 42.2176 40.6399 42.0645 40.1409 42.0645C39.8317 42.0645 39.5836 42.1499 39.3988 42.3159C39.3095 42.3928 39.2377 42.4918 39.189 42.6049C39.1403 42.718 39.1161 42.8422 39.1182 42.9676C39.1182 43.2538 39.1964 43.4765 39.352 43.6364C39.4907 43.7834 39.7844 43.9634 40.2273 44.1727C40.7246 44.404 41.0844 44.6438 41.3033 44.8891C41.5877 45.1991 41.7313 45.5945 41.7313 46.0748M47.4339 44.5828C47.4339 43.7554 47.265 43.1226 46.9278 42.6893C46.601 42.2726 46.1433 42.0645 45.5558 42.0645C44.9754 42.0645 44.5105 42.275 44.1607 42.6967C43.7937 43.1476 43.6105 43.7834 43.6105 44.609C43.6105 45.3828 43.786 45.9899 44.1354 46.4232C44.4907 46.8589 44.9638 47.0773 45.5558 47.0773C46.1703 47.0773 46.6384 46.8552 46.9608 46.4153C47.2755 45.9832 47.4339 45.3736 47.4339 44.5828M48.3922 44.5468C48.3922 45.5768 48.1276 46.4049 47.6039 47.0249C47.0813 47.6479 46.3754 47.9591 45.487 47.9591C44.6112 47.9591 43.9153 47.6479 43.4042 47.0249C42.9042 46.425 42.6528 45.6318 42.6528 44.6463C42.6528 43.521 42.9394 42.6546 43.506 42.0389C44.033 41.4677 44.7388 41.1803 45.6234 41.1803C46.4932 41.1803 47.1709 41.4811 47.6589 42.0767C48.1446 42.6747 48.3922 43.4985 48.3922 44.5468M52.5033 39.1416C52.3134 39.0267 52.1 38.9683 51.8838 38.972C51.2303 38.972 50.9063 39.4278 50.9063 40.3419V41.3383H52.2722V42.2158H50.9063V47.8041H49.9721V42.2158H48.9808V41.3383H49.9721V40.2906C49.9721 39.5791 50.1685 39.0208 50.5685 38.6186C50.9107 38.269 51.3293 38.0957 51.8277 38.0957C52.116 38.0957 52.3404 38.1341 52.5033 38.208V39.1416V39.1416ZM56.1858 47.7394C55.9657 47.8791 55.672 47.9487 55.3094 47.9487C54.2917 47.9487 53.7834 47.3129 53.7834 46.04V42.2164H52.7833V41.3383H53.7834V39.761C54.0816 39.6566 54.3913 39.5431 54.7186 39.4253V41.3383H56.1858V42.2164H54.7186V45.8648C54.7186 46.2981 54.7824 46.6081 54.9161 46.7881C55.0509 46.9742 55.2715 47.0651 55.5823 47.0651C55.815 47.0651 56.0158 46.9962 56.1858 46.8564V47.7394V47.7394ZM5.74837 73.0392C5.74837 73.5463 5.58609 73.9838 5.25601 74.3542C5.1022 74.5328 4.91677 74.6743 4.71135 74.7698C4.50593 74.8652 4.28494 74.9126 4.06225 74.9088C3.84397 74.9123 3.62748 74.8647 3.42691 74.7692C3.22633 74.6736 3.04617 74.5322 2.89819 74.3542C2.744 74.181 2.62238 73.9756 2.5404 73.7498C2.45843 73.5241 2.41773 73.2825 2.42068 73.0392C2.42068 72.5181 2.57967 72.0781 2.89819 71.7144C3.047 71.5381 3.22748 71.3984 3.42798 71.3042C3.62848 71.21 3.84455 71.1635 4.06225 71.1677C4.52985 71.1677 4.92814 71.3513 5.25601 71.7211C5.58609 72.0915 5.74837 72.5309 5.74837 73.0392M26.6393 74.5281H23.596L12.5501 55.6068C12.2844 55.135 12.0602 54.636 11.8806 54.1167H11.7898C11.869 54.6238 11.9086 55.7111 11.9086 57.377V74.5281H9.40063V50.7892H12.6563L23.3715 69.4127C23.7979 70.1517 24.09 70.6813 24.238 70.9999H24.2974C24.1984 70.317 24.1467 69.1528 24.1467 67.5095V50.7898H26.6398V74.5281H26.6393V74.5281ZM42.721 74.5281H31.378V50.7892H42.2286V53.3051H33.8844V61.2018H41.6158V63.7183H33.8844V72.0116H42.721V74.5281V74.5281ZM59.9255 53.3051H53.7608V74.5287H51.2534V53.3051H45.0766V50.788H59.9255V53.3051V53.3051Z" fill="black"/>
<path d="M25.7887 9.78615C28.2087 17.9946 29.1246 32.6378 36.2014 32.6378C36.74 32.6378 37.2846 32.5798 37.8309 32.4639C31.3983 30.7998 30.6358 16.3166 26.7107 8.81592C26.3978 9.1327 26.0904 9.45617 25.7887 9.78615" fill="url(#paint0_linear_221_1362)"/>
<path d="M26.7107 8.81585C30.6358 16.3165 31.3983 30.7998 37.8309 32.4638C38.3472 32.3557 38.8551 32.2035 39.3503 32.0086C33.5762 28.8703 31.9803 14.8056 27.5227 8.03418C27.2526 8.28436 26.9814 8.54492 26.7107 8.81585" fill="url(#paint1_linear_221_1362)"/>
<path d="M32.3665 4.35551C31.829 4.35551 31.2833 4.41409 30.7359 4.52942C29.304 4.82903 27.8494 5.51246 26.3828 6.54798C26.7988 7.00866 27.1802 7.5062 27.5232 8.03567C29.0146 6.66331 30.4961 5.64915 31.9721 5.03894C32.5109 4.81563 33.0663 4.64454 33.6318 4.52759C33.2182 4.4115 32.7931 4.35368 32.3665 4.35551" fill="#14559A"/>
<path d="M43.857 29.1164C44.4722 28.5713 45.0648 27.9952 45.6328 27.3902C43.1737 19.2201 42.2935 4.36768 35.1678 4.36768C34.6584 4.36768 34.144 4.42015 33.6318 4.52572C40.1222 6.31606 40.9534 21.9807 43.857 29.1164Z" fill="url(#paint2_linear_221_1362)"/>
<path d="M33.6318 4.52649C33.218 4.41087 32.7927 4.35327 32.366 4.35502L35.1683 4.36661C34.6583 4.36661 34.1445 4.41909 33.6318 4.52649Z" fill="#3092C4"/>
<path d="M43.7332 30.8517C43.4494 30.5475 43.1812 30.2258 42.93 29.8882C41.7313 30.8297 40.5364 31.5437 39.3503 32.0086C39.7723 32.2375 40.2151 32.4071 40.6849 32.5127C41.0592 32.5971 41.4402 32.639 41.822 32.6378C43.1539 32.6378 44.2063 32.4633 45.1024 31.9861C44.609 31.6901 44.1562 31.3075 43.7332 30.8517" fill="#1969BC"/>
<path d="M31.9716 5.03967C37.7858 8.41289 38.2908 23.6876 42.93 29.8891C43.2408 29.6462 43.5489 29.3887 43.8564 29.1172C40.9523 21.9808 40.1222 6.315 33.6324 4.52588C33.0665 4.64388 32.5108 4.81578 31.9716 5.03967" fill="url(#paint3_linear_221_1362)"/>
<path d="M27.5227 8.03505C31.9803 14.8065 33.5763 28.8712 39.3503 32.0095C40.5375 31.5445 41.7313 30.8305 42.93 29.889C38.2908 23.6875 37.7852 8.41277 31.9715 5.03955C30.4956 5.64854 29.0141 6.6627 27.5227 8.03505" fill="url(#paint4_linear_221_1362)"/>
<path d="M22.9363 9.58839C22.2371 11.3409 21.5236 13.6438 20.661 16.6509C22.3763 13.9691 24.0872 11.6588 25.7882 9.7861C25.5734 9.04018 25.3207 8.30838 25.0312 7.59424C24.3011 8.21666 23.6017 8.88234 22.9363 9.58839" fill="url(#paint5_linear_221_1362)"/>
<path d="M25.6512 7.08936C25.446 7.25228 25.2392 7.41887 25.0323 7.59461C25.3218 8.3087 25.5744 9.04051 25.7888 9.78647C26.0912 9.4571 26.3987 9.13365 26.7113 8.81624C26.3977 8.21178 26.0434 7.6345 25.6512 7.08936" fill="#2B74B1"/>
<path d="M26.3824 6.54736C26.1387 6.71883 25.8961 6.89945 25.6501 7.08862C26.043 7.63393 26.3976 8.21187 26.7108 8.81733C26.982 8.54518 27.2527 8.2834 27.5228 8.03505C27.1799 7.50544 26.7985 7.00788 26.3824 6.54736" fill="#125A9E"/>
<path d="M66.0384 3.73071C62.7503 17.796 55.8826 29.0939 50.125 31.9418H50.1134L49.8026 32.0888L49.7652 32.1053L49.6766 32.1431L49.637 32.1614L49.4934 32.2176L49.434 32.2408L49.3625 32.267L49.2932 32.2939L49.2316 32.3164L49.1089 32.3579L49.0567 32.3732L48.9736 32.3982L48.9175 32.4153L48.8273 32.4409L48.7167 32.4678C48.9769 32.5746 49.2481 32.6283 49.5402 32.6283C54.9996 32.6283 60.5052 21.7751 69.6136 3.72705H66.0373L66.0384 3.73071V3.73071Z" fill="url(#paint6_linear_221_1362)"/>
<path d="M19.4755 4.9265L19.4854 4.91612L19.498 4.90697H19.5052L19.5938 4.86914L19.6114 4.85938L19.6339 4.84839L19.7291 4.81056H19.734L19.9436 4.7294L19.9744 4.72025L20.0647 4.69035L20.1059 4.6757L20.1961 4.6458L20.2308 4.63604L20.5306 4.54939L20.5719 4.53902L20.6593 4.5201L20.7028 4.50546L20.7908 4.48715H20.8112L20.9938 4.44932H21.0301L21.1143 4.43345L21.1616 4.42369L21.2419 4.41026L21.287 4.40111L21.4834 4.38158C21.2902 4.36062 21.0961 4.34962 20.9019 4.34863C14.7532 4.34863 6.2819 17.0031 2.4657 33.3908H3.20121C4.34193 31.1289 5.44911 28.8464 6.5223 26.5443C9.19534 14.9369 14.6388 7.02012 19.4744 4.92284" fill="url(#paint7_linear_221_1362)"/>
<path d="M22.9364 9.58875C23.6019 8.88284 24.3012 8.21716 25.0313 7.59459C24.8828 7.22812 24.7162 6.87102 24.5323 6.5249C23.9701 7.28217 23.4563 8.28046 22.9364 9.58875M23.442 5.02257C23.8436 5.39541 24.2028 5.90981 24.5323 6.5249C24.6326 6.38797 24.7387 6.25643 24.8503 6.13071C24.4085 5.66795 23.9078 5.27959 23.3644 4.97803L23.4299 5.01281L23.442 5.02257" fill="#0D82CA"/>
<path d="M6.52405 26.5472C12.1303 14.5628 14.7869 6.97852 19.4761 4.92578C14.6411 7.02428 9.19654 14.9405 6.52405 26.5472" fill="url(#paint8_linear_221_1362)"/>
<path d="M24.8497 6.13135C24.7402 6.25522 24.6368 6.38458 24.5317 6.52554C24.7078 6.85261 24.8717 7.20836 25.0318 7.59523C25.2386 7.41888 25.4455 7.25291 25.6507 7.08937C25.4041 6.74972 25.1365 6.4296 24.8497 6.13135" fill="#127BCA"/>
<path d="M9.06938 33.3399L8.96761 33.3533H8.94836L8.86199 33.3631H8.84768L8.64194 33.3783H8.62048C14.2944 33.202 16.8888 30.0509 18.1761 25.4798C19.1537 22.0151 19.9574 19.0959 20.6616 16.6465C18.285 20.3571 15.897 24.7805 13.4968 29.736C12.3393 32.1244 10.5789 33.1221 9.06938 33.335" fill="url(#paint9_linear_221_1362)"/>
<path d="M9.06946 33.337C10.579 33.1234 12.3394 32.127 13.4968 29.7374C15.897 24.7837 18.2862 20.3591 20.6605 16.6479C21.5248 13.6401 22.2372 11.3385 22.9369 9.58594C18.2037 14.5829 13.4528 22.8921 9.06946 33.3346" fill="url(#paint10_linear_221_1362)"/>
<path d="M6.52397 26.5474C5.45027 28.8495 4.34273 31.1319 3.20178 33.3939H5.34121C5.61105 31.0879 6.00584 28.802 6.52342 26.5486" fill="#05A1E6"/>
<path d="M21.2876 4.40845L21.2419 4.41821L21.1616 4.43102L21.1148 4.44018L21.0307 4.45665L20.9944 4.46641L20.8117 4.50181H20.7914L20.7022 4.52133L20.6577 4.53415L20.5713 4.55306L20.5306 4.56405L20.2302 4.6507L20.1956 4.66229L20.1048 4.69219L20.0635 4.70379L19.9739 4.73308L19.9409 4.74284L19.7324 4.824L19.6378 4.86061L19.5981 4.87891L19.5101 4.91553L19.481 4.93139C14.7923 6.98413 12.1357 14.5684 6.52944 26.5522C6.01124 28.8055 5.61627 31.0914 5.34668 33.3975H5.64705L7.70395 33.3878H8.64686L8.85261 33.3725H8.86581L8.95218 33.3627H8.97309L9.07486 33.3493C13.4577 22.9075 18.2091 14.5983 22.9423 9.6013C23.4622 8.29302 23.9755 7.29411 24.5366 6.53807C24.2082 5.92298 23.8489 5.40735 23.4474 5.03391L23.4358 5.02414L23.3687 4.98814L23.3027 4.95092L23.2383 4.91614L23.1624 4.88075L23.103 4.85207L22.9786 4.79471L22.9258 4.77213L22.8334 4.73124L22.7834 4.71294L22.6546 4.66412H22.6442L22.4951 4.61714L22.4615 4.60554L22.3361 4.56649L22.3069 4.55734C22.204 4.52731 22.0999 4.50207 21.995 4.48167L21.9626 4.47191L21.8272 4.4475L21.8008 4.43835L21.6408 4.41516H21.6127L21.4895 4.3999L21.2931 4.42004" fill="url(#paint11_linear_221_1362)"/>
<path d="M53.1953 11.5173C52.1165 15.35 51.2429 18.5121 50.4827 21.1141C53.4429 16.5961 56.358 10.9126 59.135 4.35352C55.8953 5.48179 54.1679 8.06418 53.1953 11.5173" fill="url(#paint12_linear_221_1362)"/>
<path d="M50.5761 31.7023C50.4254 31.7878 50.2735 31.8683 50.125 31.9421C55.8826 29.0937 62.7509 17.7957 66.0384 3.73047H65.3722C57.8174 18.6988 55.388 28.7196 50.5761 31.7023" fill="url(#paint13_linear_221_1362)"/>
<path d="M46.8166 30.445C48.0692 28.7493 49.0897 25.8661 50.4831 21.1138C48.8762 23.5619 47.2589 25.6671 45.6398 27.383L45.6316 27.3983C45.9848 28.5717 46.3721 29.6085 46.8138 30.4444" fill="#079AE1"/>
<path d="M46.8167 30.4448C46.3903 31.0221 45.9387 31.4614 45.4364 31.7873C45.3264 31.8587 45.2153 31.9258 45.1019 31.9862C45.6322 32.3035 46.211 32.5159 46.8585 32.6007L47.1456 32.6288H47.1627L47.3008 32.6385H47.7695L47.8223 32.6288L47.9257 32.619H47.9758L48.0885 32.6056H48.0968L48.1315 32.5964L48.2514 32.5757H48.2866L48.4214 32.5506H48.4428L48.7118 32.4872C47.9686 32.1864 47.347 31.4742 46.8112 30.4613" fill="#1969BC"/>
<path d="M36.2014 32.638C36.74 32.638 37.2841 32.5794 37.8303 32.4629C38.3359 32.361 38.8426 32.2054 39.3498 32.0089C40.119 32.4274 40.9652 32.6427 41.822 32.638H36.2014ZM41.822 32.638C43.1528 32.638 44.2062 32.4629 45.1018 31.9863C45.6465 32.314 46.2428 32.5226 46.8584 32.6008L47.1455 32.6283H47.1626L47.3007 32.638H47.4663H41.822V32.638Z" fill="#1E5CB3"/>
<path d="M47.4663 32.6378H47.7738L47.8266 32.628L47.9312 32.6183H47.9823L48.094 32.6048H48.1034L48.1375 32.5957L48.2574 32.5755L48.2937 32.5664L48.429 32.542H48.4505L48.7195 32.4785C48.9833 32.5862 49.2624 32.6405 49.5436 32.639L47.468 32.6488L47.4663 32.6378V32.6378Z" fill="#1D60B5"/>
<path d="M45.6343 27.3989V27.3892C45.0665 27.9946 44.4739 28.5708 43.8585 29.116C43.5499 29.3876 43.2424 29.6451 42.931 29.888C43.1824 30.2256 43.4508 30.5473 43.7348 30.8515C44.1584 31.3067 44.61 31.6899 45.1035 31.9858C45.2162 31.9248 45.3279 31.8577 45.4374 31.7869C45.9407 31.4611 46.3913 31.0217 46.8182 30.4445C46.3764 29.6085 45.9892 28.5717 45.6365 27.3983" fill="#175FAB"/>
<path d="M63.262 3.73047H59.9084L59.377 3.75915L59.1294 4.34617C56.3535 10.9053 53.4379 16.5887 50.4777 21.1073C49.0859 25.8584 48.0643 28.7416 46.8116 30.438C47.3469 31.4515 47.9702 32.1643 48.7107 32.4663L48.769 32.4523H48.7811L48.8218 32.4419L48.9148 32.4163L48.9698 32.3986L49.0528 32.3742L49.1046 32.3583L49.2278 32.3168L49.2894 32.2942L49.3587 32.2662L49.4297 32.2411L49.4874 32.2167L49.6321 32.1606L49.6723 32.1441L49.7609 32.1057L49.7988 32.0904L50.1096 31.9434H50.1201C50.2692 31.8701 50.4204 31.789 50.5706 31.7035C55.3842 28.7209 57.8135 18.7001 65.3678 3.73169H63.2581L63.262 3.73047V3.73047Z" fill="url(#paint14_linear_221_1362)"/>
<path d="M21.4846 4.38818L21.5193 4.39795L21.6067 4.40832H21.6365L21.796 4.4309L21.8235 4.44066L21.9583 4.46568L21.9918 4.47483L22.3032 4.55111L22.3313 4.56087L22.4561 4.59992L22.4908 4.61152L22.6388 4.6585L22.6498 4.66827L22.7796 4.71769L22.8291 4.73539L22.9221 4.77749L22.9749 4.79824L23.0981 4.8556L23.1586 4.88428L23.2329 4.92028L23.2989 4.95445L23.3644 4.99229C23.9081 5.29391 24.4089 5.68249 24.8508 6.14558C25.0186 5.94909 25.1946 5.77335 25.3778 5.6147C24.3794 4.82875 23.2467 4.38086 21.9418 4.38086C21.7905 4.38086 21.6398 4.39062 21.4857 4.40344" fill="#7DCBEC"/>
<path d="M24.8496 6.13098C25.1291 6.4196 25.397 6.74179 25.6506 7.089C25.8954 6.89984 26.1385 6.718 26.3828 6.54775C26.0723 6.20027 25.7353 5.88321 25.3755 5.6001C25.1882 5.76184 25.0124 5.93933 24.8496 6.13098" fill="#5EC5ED"/>
<path d="M21.3396 4.42907L21.7952 4.40744C23.1004 4.40744 24.2333 4.85417 25.2302 5.63965C26.2855 4.71863 27.5576 4.39513 29.3293 4.39513H20.7593L21.3396 4.42907" fill="url(#paint15_linear_221_1362)"/>
<path d="M29.3292 4.39486C27.5602 4.39486 26.2854 4.71836 25.2301 5.63938C25.58 5.91352 25.9162 6.23072 26.2356 6.58496C27.7018 5.54997 29.157 4.86622 30.5899 4.56435C31.137 4.45037 31.6814 4.39185 32.2201 4.39185H29.3292V4.39486Z" fill="url(#paint16_linear_221_1362)"/>
<path d="M50.4826 21.1166C51.244 18.5128 52.1154 15.352 53.1964 11.5181C54.1706 8.06367 55.8947 5.48067 59.1333 4.35362L59.383 3.7666C54.1035 4.11747 51.6362 7.0965 50.3946 11.5083C48.2233 19.2103 46.9074 24.2024 45.641 27.384C47.2584 25.6681 48.8757 23.5623 50.4826 21.1166Z" fill="url(#paint17_linear_221_1362)"/>
<defs>
<linearGradient id="paint0_linear_221_1362" x1="31.9406" y1="4.26231" x2="31.9406" y2="39.7136" gradientUnits="userSpaceOnUse">
<stop stop-color="#0994DC"/>
<stop offset="0.35" stop-color="#66CEF5"/>
<stop offset="0.846" stop-color="#127BCA"/>
<stop offset="1" stop-color="#127BCA"/>
</linearGradient>
<linearGradient id="paint1_linear_221_1362" x1="33.0675" y1="3.2119" x2="33.0675" y2="39.6603" gradientUnits="userSpaceOnUse">
<stop stop-color="#0E76BC"/>
<stop offset="0.36" stop-color="#36AEE8"/>
<stop offset="0.846" stop-color="#00ADEF"/>
<stop offset="1" stop-color="#00ADEF"/>
</linearGradient>
<linearGradient id="paint2_linear_221_1362" x1="39.6214" y1="31.7564" x2="39.6214" y2="2.82954" gradientUnits="userSpaceOnUse">
<stop stop-color="#1C63B7"/>
<stop offset="0.5" stop-color="#33BDF2"/>
<stop offset="1" stop-color="#33BDF2" stop-opacity="0.42"/>
</linearGradient>
<linearGradient id="paint3_linear_221_1362" x1="37.8658" y1="-0.475129" x2="37.8658" y2="37.3676" gradientUnits="userSpaceOnUse">
<stop stop-color="#166AB8"/>
<stop offset="0.4" stop-color="#36AEE8"/>
<stop offset="0.846" stop-color="#0798DD"/>
<stop offset="1" stop-color="#0798DD"/>
</linearGradient>
<linearGradient id="paint4_linear_221_1362" x1="35.3847" y1="-0.212408" x2="35.3847" y2="40.0285" gradientUnits="userSpaceOnUse">
<stop stop-color="#124379"/>
<stop offset="0.39" stop-color="#1487CB"/>
<stop offset="0.78" stop-color="#165197"/>
<stop offset="1" stop-color="#165197"/>
</linearGradient>
<linearGradient id="paint5_linear_221_1362" x1="20.3858" y1="11.6362" x2="25.5128" y2="11.6362" gradientUnits="userSpaceOnUse">
<stop stop-color="#33BDF2" stop-opacity="0.698"/>
<stop offset="1" stop-color="#1DACD8"/>
</linearGradient>
<linearGradient id="paint6_linear_221_1362" x1="59.189" y1="31.0192" x2="59.189" y2="2.76785" gradientUnits="userSpaceOnUse">
<stop stop-color="#136AB4"/>
<stop offset="0.6" stop-color="#59CAF5" stop-opacity="0.549"/>
<stop offset="1" stop-color="#59CAF5" stop-opacity="0.235"/>
</linearGradient>
<linearGradient id="paint7_linear_221_1362" x1="2.19479" y1="18.3852" x2="21.2077" y2="18.3852" gradientUnits="userSpaceOnUse">
<stop stop-color="#05A1E6" stop-opacity="0.247"/>
<stop offset="1" stop-color="#05A1E6"/>
</linearGradient>
<linearGradient id="paint8_linear_221_1362" x1="13.102" y1="31.7761" x2="13.102" y2="2.92335" gradientUnits="userSpaceOnUse">
<stop stop-color="#318ED5"/>
<stop offset="1" stop-color="#38A7E4"/>
</linearGradient>
<linearGradient id="paint9_linear_221_1362" x1="14.5581" y1="31.8676" x2="14.5581" y2="3.74876" gradientUnits="userSpaceOnUse">
<stop stop-color="#05A1E6"/>
<stop offset="1" stop-color="#05A1E6" stop-opacity="0.549"/>
</linearGradient>
<linearGradient id="paint10_linear_221_1362" x1="16.0845" y1="33.3899" x2="16.0845" y2="9.62914" gradientUnits="userSpaceOnUse">
<stop stop-color="#1959A6"/>
<stop offset="0.5" stop-color="#05A1E6"/>
<stop offset="0.918" stop-color="#7EC5EA"/>
<stop offset="1" stop-color="#7EC5EA"/>
</linearGradient>
<linearGradient id="paint11_linear_221_1362" x1="16.7826" y1="31.7849" x2="11.7912" y2="6.26503" gradientUnits="userSpaceOnUse">
<stop stop-color="#165096"/>
<stop offset="1" stop-color="#0D82CA"/>
</linearGradient>
<linearGradient id="paint12_linear_221_1362" x1="54.6981" y1="17.2152" x2="54.6981" y2="3.75127" gradientUnits="userSpaceOnUse">
<stop stop-color="#05A1E6"/>
<stop offset="0.874" stop-color="#0495D6"/>
<stop offset="1" stop-color="#0495D6"/>
</linearGradient>
<linearGradient id="paint13_linear_221_1362" x1="60.5783" y1="2.58801" x2="54.5633" y2="33.3415" gradientUnits="userSpaceOnUse">
<stop stop-color="#38A7E4" stop-opacity="0.329"/>
<stop offset="0.962" stop-color="#0E88D3"/>
<stop offset="1" stop-color="#0E88D3"/>
</linearGradient>
<linearGradient id="paint14_linear_221_1362" x1="55.9522" y1="3.68207" x2="55.9522" y2="32.9792" gradientUnits="userSpaceOnUse">
<stop stop-color="#168CD4"/>
<stop offset="0.5" stop-color="#1C87CC"/>
<stop offset="1" stop-color="#154B8D"/>
</linearGradient>
<linearGradient id="paint15_linear_221_1362" x1="20.1387" y1="0.756986" x2="51.7999" y2="12.5955" gradientUnits="userSpaceOnUse">
<stop stop-color="#97D6EE"/>
<stop offset="0.703" stop-color="#55C1EA"/>
<stop offset="1" stop-color="#55C1EA"/>
</linearGradient>
<linearGradient id="paint16_linear_221_1362" x1="28.5606" y1="8.89437" x2="53.6816" y2="-1.37254" gradientUnits="userSpaceOnUse">
<stop stop-color="#7ACCEC"/>
<stop offset="1" stop-color="#3FB7ED"/>
</linearGradient>
<linearGradient id="paint17_linear_221_1362" x1="52.4056" y1="5.23641" x2="52.4056" y2="33.9658" gradientUnits="userSpaceOnUse">
<stop stop-color="#1DA7E7"/>
<stop offset="1" stop-color="#37ABE7" stop-opacity="0"/>
</linearGradient>
</defs>
</svg>
