<svg width="71" height="79" viewBox="0 0 71 79" fill="none" xmlns="http://www.w3.org/2000/svg">
<path d="M25.3042 78.9811C31.8506 78.9811 37.1318 73.1231 37.1318 65.8616V52.7422H25.3042C18.7577 52.7422 13.4766 58.6002 13.4766 65.8616C13.4766 73.1231 18.7577 78.9811 25.3042 78.9811Z" fill="#0ACF83"/>
<path d="M13.4766 39.6229C13.4766 32.3614 18.7577 26.5034 25.3042 26.5034H37.1318V52.7423H25.3042C18.7577 52.7423 13.4766 46.8843 13.4766 39.6229Z" fill="#A259FF"/>
<path d="M13.4766 13.3841C13.4766 6.12263 18.7577 0.264648 25.3042 0.264648H37.1318V26.5035H25.3042C18.7577 26.5035 13.4766 20.6455 13.4766 13.3841Z" fill="#F24E1E"/>
<path d="M37.1318 0.264648H48.9595C55.5059 0.264648 60.7871 6.12263 60.7871 13.3841C60.7871 20.6455 55.5059 26.5035 48.9595 26.5035H37.1318V0.264648Z" fill="#FF7262"/>
<path d="M60.7871 39.6229C60.7871 46.8843 55.5059 52.7423 48.9595 52.7423C42.413 52.7423 37.1318 46.8843 37.1318 39.6229C37.1318 32.3614 42.413 26.5034 48.9595 26.5034C55.5059 26.5034 60.7871 32.3614 60.7871 39.6229Z" fill="#1ABCFE"/>
</svg>
