<svg width="72" height="79" viewBox="0 0 72 79" fill="none" xmlns="http://www.w3.org/2000/svg">
<path d="M16.0165 49.2348L21.8918 7.47231C22.0954 6.05053 23.8173 5.70882 24.4224 6.98415L30.7378 20.0914L16.0165 49.2348V49.2348ZM57.7928 59.3826L52.1871 20.9152C52.0165 19.7192 50.6687 19.231 49.8931 20.0914L14.5642 59.3826L34.1156 71.5562C34.7206 71.9254 35.3999 72.1191 36.0905 72.1191C36.7811 72.1191 37.4604 71.9254 38.0654 71.5562L57.7928 59.3826V59.3826ZM41.9218 25.8212L37.3943 16.2715C36.8882 15.1853 35.5019 15.1853 34.9957 16.2715L15.1088 55.5993L41.9218 25.8212V25.8212Z" fill="#F58220"/>
</svg>
