<svg width="72" height="79" viewBox="0 0 72 79" fill="none" xmlns="http://www.w3.org/2000/svg">
<path d="M25.1858 61.5062C22.8587 59.4743 20.3777 57.5277 18.6778 54.7879C15.1075 49.955 12.3569 44.3533 10.481 38.471C9.34223 34.645 8.95715 30.5444 7.48832 26.8648C5.95898 24.1921 7.75238 21.2753 10.3875 20.4271C11.5592 20.177 13.6277 18.9443 11.1356 19.8291C8.90213 21.6476 8.68759 18.1755 10.9761 17.9558C12.5384 17.7239 13.1161 16.3083 12.5825 15.0268C10.9046 13.8125 16.6534 12.4762 13.7597 10.6638C10.745 7.05753 17.9737 6.36189 16.1913 10.4625C15.7677 13.6111 21.2414 9.88278 19.9706 13.5196C21.2634 15.2648 24.8117 13.9162 24.7181 16.3693C26.5996 16.5157 27.2487 18.267 29.0091 18.4013C30.841 19.3166 34.1582 20.0427 34.7799 22.331C32.9645 23.9236 28.756 19.0359 28.558 23.4538C29.1081 29.9769 28.9651 36.6953 31.1161 42.9072C32.1338 46.666 34.5983 49.6255 36.8263 52.5545C38.9608 55.4225 41.8435 57.4423 44.7921 59.1447C47.3722 60.4933 50.1558 61.3903 52.9724 61.9517C54.1112 60.9815 56.1301 57.3873 57.907 58.9007C57.995 60.6092 54.3752 62.4643 57.7365 62.2812C59.7114 61.6222 61.0812 63.9715 62.7096 61.848C64.2059 63.8189 68.937 60.5909 67.8697 64.6122C66.4284 65.6434 64.327 65.021 62.8801 66.4428C60.4981 65.1248 58.6057 67.6205 55.9706 67.3093C53.0439 67.889 50.0678 68.127 47.0971 68.127C42.2285 67.6998 37.2554 67.5229 32.6289 65.6434C30.0213 64.8014 27.4743 63.1538 25.1858 61.5062V61.5062ZM29.2952 63.4833C31.8422 64.7037 34.3343 65.9913 37.1234 66.3818C41.5519 67.0652 46.1289 68.1148 50.5739 67.1568C48.5604 66.1499 46.481 67.5473 44.4785 66.4367C42.0745 67.0103 39.4944 66.2903 37.0519 65.9363C34.2738 64.5634 31.2756 63.6176 28.6735 61.8358C25.4223 60.5177 30.3569 63.526 31.2316 63.7701C33.2615 65.0515 28.9981 63.1111 28.393 62.5802C26.6931 61.5184 26.473 61.7442 28.2224 62.8182C28.5745 63.044 28.9266 63.288 29.2952 63.4833ZM24.4486 59.6817C26.9186 60.6947 24.4376 57.7535 23.3098 57.9243C22.8092 56.9602 21.3954 56.35 22.3911 55.8313C20.5977 56.5209 20.5097 53.2074 19.668 53.6773C17.7701 53.0122 18.9309 50.6568 16.6699 49.2106C16.4663 47.6851 14.4254 46.367 13.7762 44.0665C13.4902 42.8888 11.4712 39.5144 12.709 42.657C13.7652 45.6836 15.6191 48.277 17.165 50.8642C18.3642 53.3295 19.7836 55.9045 21.962 57.4423C22.6992 58.2355 23.4089 59.4376 24.4486 59.6817V59.6817ZM17.3355 51.0229C17.4235 50.608 17.7866 51.9138 17.3355 51.0229V51.0229ZM27.4027 60.896C27.9529 60.6275 26.6161 60.5543 27.4027 60.896V60.896ZM28.745 61.4391C28.6075 60.6886 28.1344 61.8602 28.745 61.4391V61.4391ZM30.4229 62.2141C31.2206 61.372 29.1906 61.6832 30.4229 62.2141V62.2141ZM33.2946 63.9898C33.7842 63.1965 31.7432 63.6908 33.2946 63.9898V63.9898ZM27.7768 59.7244C29.0146 58.8335 26.176 59.7122 27.7768 59.7244V59.7244ZM29.0366 60.4201C28.9981 59.9502 28.5855 60.6275 29.0366 60.4201V60.4201ZM35.3245 64.7708C36.3367 65.4787 41.2273 66.3208 38.1631 65.0637C37.6515 65.1858 32.4804 63.4406 35.3245 64.7708ZM25.3398 56.1486C25.2408 55.6788 23.7719 55.63 25.3398 56.1486V56.1486ZM28.2664 58.0403C29.0311 57.4545 26.6876 57.5887 28.2664 58.0403V58.0403ZM30.731 59.7183C31.8202 59.2607 28.9541 59.2607 30.731 59.7183V59.7183ZM24.146 54.7085C25.3343 55.7154 28.9321 54.8367 25.9614 54.1044C24.6136 53.3051 21.5659 52.762 23.6399 54.5865L24.146 54.7085V54.7085ZM32.3979 60.298C32.893 59.3644 30.3239 59.7611 32.3979 60.298V60.298ZM29.8893 58.083C32.7884 58.9922 27.4523 56.0449 29.1741 57.7474L29.5592 57.9426L29.8893 58.083V58.083ZM34.9174 61.3049C37.6625 61.3354 32.4364 60.8899 34.9174 61.3049V61.3049ZM23.0898 52.945C22.9853 52.3776 22.4131 52.9939 23.0898 52.945V52.945ZM39.5604 64.1973C39.6375 63.1721 38.6692 64.96 39.5604 64.1973V64.1973ZM27.7768 56.1303C27.6118 55.5933 26.9186 56.1059 27.7768 56.1303V56.1303ZM23.3538 52.5911C24.9272 52.4874 21.1919 51.8223 23.3538 52.5911V52.5911ZM18.1057 48.8323C17.9076 47.9902 16.3893 47.325 18.1057 48.8323V48.8323ZM31.8752 58.5223C31.5892 58.1562 31.7377 58.6017 31.8752 58.5223V58.5223ZM40.4461 64.3559C40.4186 63.8006 39.9785 64.5695 40.4461 64.3559V64.3559ZM31.1161 57.6558C31.2701 56.9358 29.7738 57.4362 31.1161 57.6558V57.6558ZM24.7347 53.1647C25.9064 53.0244 22.8532 52.286 24.7347 53.1647V53.1647ZM35.5336 60.6092C37.36 59.8038 33.7512 60.2187 35.5336 60.6092V60.6092ZM29.9168 56.3805C32.0238 56.6795 27.4082 54.7879 29.4547 56.2096L29.9168 56.3805ZM37.2389 61.3781C39.2084 60.0723 38.5592 64.4352 40.5782 61.7442C42.5696 60.1333 38.8563 63.7396 41.3098 62.031C43.0867 60.713 45.7053 62.6534 47.3612 63.288C48.5494 63.2209 49.7102 64.4291 50.9315 63.6969C53.2805 62.9951 46.3325 62.6534 48.1534 61.4086C46.0024 62.1042 44.4125 60.5787 43.3563 59.0532C40.9413 58.4369 38.1521 57.07 36.9474 54.6963C36.4578 53.8054 37.657 54.8245 36.5238 53.3661C35.0715 51.9321 34.3453 50.3029 33.3716 48.5577C32.2053 47.8681 32.0678 45.8361 31.9523 48.4905C31.9633 46.8186 30.5439 45.6897 30.1974 46.1596C30.1919 44.5486 31.7157 45.3541 30.6485 44.1642C30.4174 42.4922 29.6637 40.7531 29.4382 38.8676C29.0861 37.9584 29.3887 36.0118 28.2334 38.0682C27.8153 40.2467 28.0959 35.3955 28.7505 36.9943C29.6087 35.365 28.4425 35.5542 28.393 35.7799C28.9541 34.4009 28.745 32.4482 28.2444 33.1927C28.5415 31.7343 28.7175 27.8228 27.7988 28.5185C28.3545 26.993 28.8551 21.5377 26.44 23.6185C25.4608 23.6368 23.7719 24.0091 22.9688 24.4545C25.4773 25.9861 22.7157 25.0098 21.6925 24.7657C21.5604 26.1875 20.5482 25.5712 19.2829 25.5834C21.3019 25.858 18.2982 27.8717 17.143 27.0906C15.6356 27.89 18.4413 29.8792 17.1705 30.4956C17.3245 31.4231 14.8655 30.1599 15.058 32.3018C13.6002 31.6183 14.86 34.8402 15.5861 33.7541C18.0672 34.4985 17.3355 36.201 17.396 37.8119C16.9889 38.7516 15.3991 35.603 17.0439 35.7494C15.7457 33.4123 15.6081 34.9073 14.5354 35.9874C14.2878 36.0667 17.2805 37.5312 15.3991 38.2574C17.0549 38.5442 17.1045 40.149 17.44 41.162C18.4358 42.3091 18.2322 39.8927 19.4205 41.2718C18.6668 40.0392 15.4321 37.8058 18.0342 38.5198C18.0177 37.281 17.5611 36.2803 18.3642 36.3047C19.1564 34.7182 17.5336 40.2222 19.3159 38.2025C19.8111 37.9645 19.9321 36.6159 20.8178 38.3306C22.1051 39.7341 21.2854 40.7531 19.4645 39.4656C19.7891 40.6921 21.896 41.1253 21.4999 43.0414C21.918 44.7256 22.5067 44.1032 23.0183 44.0055C23.4199 45.6409 23.6454 44.4388 23.6674 43.6577C25.5048 44.0971 25.0757 45.2992 25.6479 46.1412C26.9131 46.7759 23.838 41.8454 26.0109 44.6584C28.2994 46.9467 26.8691 47.9047 24.8172 47.5386C26.1155 47.4227 26.5336 49.4852 28.1564 49.4119C29.6362 50.193 30.643 53.1952 28.0904 51.9443C27.2047 51.0595 24.069 49.9672 26.6326 51.6514C28.9981 52.8657 30.874 53.5919 33.157 55.1174C34.7854 56.411 35.495 57.8877 36.1112 58.1806C34.7414 58.9068 31.9798 57.6009 34.0317 57.1982C32.7499 56.9419 31.3141 56.2219 32.5409 57.9915C33.5806 58.9556 36.2322 58.8579 36.7108 58.9617C36.3092 59.9441 35.6161 60.0234 36.7273 60.0967C35.4895 60.8411 37.1234 60.9571 37.2389 61.3781V61.3781ZM34.7084 53.4454C33.9547 52.5728 33.7622 50.9375 34.5763 52.3592C34.9889 52.5423 35.9131 55.032 34.7084 53.4454ZM42.9547 59.2546C43.4223 59.218 42.9657 59.6512 42.9547 59.2546V59.2546ZM33.5201 51.3036C33.4871 49.9794 33.7897 52.3226 33.5201 51.3036V51.3036ZM32.7004 50.0771C31.7487 48.0512 33.8942 50.6568 32.7004 50.0771V50.0771ZM22.7652 42.4739C23.3208 42.3092 23.0403 43.5296 22.7652 42.4739V42.4739ZM30.6705 47.2274C31.0115 45.8056 31.0721 48.4234 30.6705 47.2274V47.2274ZM25.0867 42.9194C24.6961 42.1322 25.9119 43.6577 25.0867 42.9194V42.9194ZM29.8783 44.6218C28.9816 42.3946 30.5164 43.4014 30.0763 44.988L29.8783 44.6218ZM21.6155 38.5137C21.2139 37.7814 20.5537 35.6335 20.7628 34.9806C20.9553 36.0484 22.8092 39.5754 21.6705 36.439C20.4162 33.8151 23.1723 37.2933 23.4584 37.9462C23.5904 38.5991 22.6827 37.7692 23.2988 39.2947C22.1766 37.5556 22.6387 40.2589 21.6155 38.5137ZM19.0629 36.561C19.1674 34.8585 19.646 37.7265 19.0629 36.561V36.561ZM20.2071 37.0004C20.7573 35.7128 21.1369 38.7883 20.2071 37.0004V37.0004ZM17.4455 34.6267C16.4938 33.5771 15.8062 32.613 17.4895 33.9737C18.1387 34.0042 16.0482 31.777 17.6436 33.2659C19.327 33.6076 18.4743 36.323 17.4455 34.6267ZM18.8979 34.5839C19.448 33.9798 19.1894 35.1819 18.8979 34.5839V34.5839ZM19.7891 34.9012C18.9529 33.1622 20.8068 35.6335 19.7891 34.9012V34.9012ZM18.0177 33.0218C15.256 30.2942 21.4889 34.4497 18.4688 33.5283L18.0177 33.0218ZM25.9339 38.1231C24.7347 37.3299 25.6148 32.5214 26.0219 35.8105C27.1827 35.3955 25.9559 37.5068 26.8251 37.4885C26.6931 38.8188 26.3025 39.3008 25.9339 38.1231ZM28.8661 40.0453C28.9816 38.593 29.1136 41.0338 28.8661 40.0453V40.0453ZM28.3545 39.4839C28.4865 38.8676 28.371 40.2161 28.3545 39.4839V39.4839ZM18.5568 32.1248C16.7799 29.4094 23.7169 34.8768 19.6955 32.8143C19.2719 32.6862 18.7658 32.6435 18.5568 32.1248ZM24.201 35.4382C24.0305 33.15 24.5751 35.8166 24.201 35.4382V35.4382ZM28.481 38.4893C28.8111 37.1834 28.5085 39.3496 28.481 38.4893V38.4893ZM18.8318 31.0875C19.8881 30.8373 23.2053 33.1438 20.1576 31.7465C19.8166 31.3254 19.0959 31.5146 18.8318 31.0875ZM27.8924 36.0972C28.0024 33.7541 28.525 34.6999 27.8979 36.4329L27.8924 36.0972ZM19.613 30.2698C20.0421 29.568 18.4688 27.1089 19.8386 29.385C20.4327 29.9037 21.5494 30.2576 20.5592 30.4772C22.1216 32.0028 20.1851 30.8922 19.613 30.2698V30.2698ZM27.4468 35.365C27.7438 32.6984 27.7053 36.9271 27.4468 35.365V35.365ZM18.7163 27.8106C19.0464 27.652 18.8924 28.2927 18.7163 27.8106V27.8106ZM20.7573 29.1592C21.2854 27.9327 21.731 30.52 20.7573 29.1592V29.1592ZM26.517 32.7106C26.517 32.2407 26.6271 33.394 26.517 32.7106V32.7106ZM26.187 31.8929C25.3893 29.7023 26.9296 33.0523 26.187 31.8929V31.8929ZM25.6974 30.4589C25.5598 29.5558 26.154 31.5939 25.6974 30.4589V30.4589ZM26.495 29.0189C25.9449 27.9449 27.1882 24.2898 27.3257 26.5597C26.7481 28.3232 27.1607 29.3118 27.5623 26.9442C28.3104 25.0769 27.4027 30.6176 26.495 29.0189ZM27.3147 23.5819C27.5568 23.2585 27.3697 23.9785 27.3147 23.5819V23.5819ZM25.9449 53.5553C25.6203 53.2379 25.9834 53.7566 25.9449 53.5553V53.5553ZM28.767 55.1418C30.3404 55.5933 30.3294 54.8733 28.9101 54.6597C28.1454 53.8726 25.7359 53.0366 27.8924 54.5621C28.0409 54.9587 28.492 54.9465 28.767 55.1418ZM23.1888 51.029C24.0525 51.749 26.451 53.0549 24.4211 51.3036C25.1032 50.4249 23.1118 49.955 23.7719 49.3631C22.0886 48.2221 22.4461 48.3258 23.6234 48.3624C21.6045 47.3617 23.915 47.4349 23.8049 46.9223C23.0238 46.7515 19.9376 45.3968 21.753 47.0321C19.9046 45.9887 21.3129 47.4227 20.7518 47.2701C18.8593 46.6965 22.4351 48.8689 20.4547 48.3258C21.5384 49.2777 23.3703 50.7666 20.9113 49.3326C20.5977 49.8513 22.6772 50.6385 23.1888 51.029V51.029ZM26.143 52.9145C29.7353 54.196 24.3826 51.3402 26.143 52.9145V52.9145ZM41.2713 63.0745C41.3153 62.2812 40.7762 63.7518 41.2713 63.0745V63.0745ZM42.8227 63.8006C43.6534 62.9097 42.8557 65.2224 44.198 63.5809C44.2145 62.4093 44.1595 61.7137 42.6576 63.1416C42.245 63.3979 42.058 64.4779 42.8227 63.8006ZM18.1497 46.6111C17.8911 45.5005 16.3618 45.5066 18.1497 46.6111V46.6111ZM19.8056 47.8193C19.1894 46.6843 17.6051 46.7942 19.8056 47.8193V47.8193ZM29.2512 54.1349C30.1754 55.0442 33.4871 54.8001 30.3679 54.2448C29.9113 53.4881 27.4413 53.6712 29.2512 54.1349ZM42.234 63.0257C43.6479 61.7076 40.8587 63.6176 42.234 63.0257V63.0257ZM45.1827 65.2773C45.1937 64.8563 44.5721 65.4604 45.1827 65.2773V65.2773ZM45.1882 64.6854C46.7615 62.8365 43.6644 64.7953 45.1882 64.6854V64.6854ZM14.0623 42.8217C12.7255 40.7043 13.2316 39.7524 11.9388 38.0194C11.6913 36.6952 9.72182 33.693 10.9211 36.8722C12.0158 38.7333 12.3404 41.6135 14.0623 42.8217ZM44.6931 64.0996C47.5867 62.0249 43.5103 63.1965 44.6931 64.0996V64.0996ZM46.8991 65.0576C48.3514 63.6786 45.9859 64.7708 46.8991 65.0576V65.0576ZM17.6546 44.2679C18.0727 43.5845 16.5873 44.1825 17.6546 44.2679V44.2679ZM46.4425 64.3986C47.8453 63.3979 46.1179 63.5504 46.1894 64.4901L46.4425 64.3986ZM27.4192 51.1022C27.3697 50.4249 26.6766 51.1571 27.4192 51.1022V51.1022ZM28.5965 51.8528C28.2169 51.0107 28.0189 51.9809 28.5965 51.8528V51.8528ZM48.6925 65.076C50.4914 63.6359 47.6032 64.8014 48.3184 65.3505L48.6925 65.076ZM47.9993 64.7098C49.4682 63.3491 46.459 65.3139 47.9993 64.7098V64.7098ZM51.5146 67.3032C52.4993 66.5771 50.3208 67.0713 51.5146 67.3032V67.3032ZM18.5568 43.7736C19.8716 44.1032 23.8159 47.3678 21.4889 43.9994C20.2952 43.6089 21.0103 40.3748 19.7946 40.9484C20.6087 42.4617 20.4657 43.1024 18.7493 42.1505C16.5983 40.985 17.5391 42.7241 17.9626 43.2062C17.3905 43.3587 18.7273 43.7614 18.5568 43.7736V43.7736ZM12.5604 38.5198C12.797 37.4397 10.3875 32.5703 11.4217 36.0789C11.7958 36.8173 11.7573 38.2086 12.5604 38.5198ZM23.5684 46.0497C22.8917 45.4212 23.5354 45.9582 23.5684 46.0497V46.0497ZM25.2353 46.483C25.2353 45.3358 23.3924 46.0131 25.2353 46.483V46.483ZM39.7035 56.5941C39.4284 55.813 38.6142 56.5819 39.7035 56.5941V56.5941ZM40.3966 57.1616C40.2976 56.7222 40.0005 57.247 40.3966 57.1616V57.1616ZM46.1344 61.1645C46.6845 60.713 45.4468 61.1096 46.1344 61.1645V61.1645ZM15.5531 39.368C17.132 38.6906 13.8642 38.8859 15.5531 39.368V39.368ZM38.4327 55.3554C38.4107 54.2204 37.426 55.6361 38.4327 55.3554V55.3554ZM14.9315 37.757C15.9437 37.3787 13.9908 37.5068 14.9315 37.757V37.757ZM17.8691 39.3374C17.8526 38.9652 17.5611 39.4778 17.8691 39.3374V39.3374ZM53.7481 63.7396C55.0519 63.4467 58.0226 64.4779 58.5012 63.3552C56.9168 63.3125 53.0274 62.1164 52.8459 63.6359L53.1925 63.6969L53.7481 63.7396V63.7396ZM18.8043 39.5998C18.8318 38.4526 18.0012 39.5571 18.8043 39.5998V39.5998ZM11.0751 33.6503C10.723 31.4658 9.73832 33.3208 11.0751 33.6503V33.6503ZM12.918 34.1629C12.94 33.4612 11.2292 33.5344 12.918 34.1629V34.1629ZM13.9688 34.7365C13.6662 34.468 13.7322 35.0843 13.9688 34.7365V34.7365ZM20.6032 39.4534C20.9168 39.1361 19.8606 39.2215 20.6032 39.4534V39.4534ZM13.2701 33.4428C13.0886 31.7892 11.1356 33.1988 13.2701 33.4428V33.4428ZM9.49077 30.7213C9.43575 29.9586 9.12218 31.0081 9.49077 30.7213V30.7213ZM10.0519 30.2515C9.95837 29.3484 9.56778 30.3674 10.0519 30.2515V30.2515ZM13.1601 32.3079C14.4749 31.7343 10.767 31.1241 12.8905 32.198L13.1601 32.3079ZM54.7438 60.7984C55.5855 59.9441 53.6766 60.536 54.7438 60.7984V60.7984ZM59.7664 63.6908C60.102 62.5863 58.9193 63.8311 59.7664 63.6908V63.6908ZM13.4736 30.5017C13.6167 29.4338 12.4339 30.7152 13.4736 30.5017V30.5017ZM9.05617 27.2187C8.81962 25.7115 8.85262 23.0571 11.1246 23.9541C8.09345 24.6254 13.2261 28.1341 12.577 25.3637C13.8532 25.4308 15.069 24.5277 14.4034 25.9007C16.9174 25.5956 18.6558 23.1792 21.0818 23.5148C22.9743 23.2341 25.0372 23.0266 27.0727 22.1845C28.745 22.0503 30.3569 20.0488 29.4437 18.865C27.1607 18.6514 24.7677 18.9688 22.2481 19.524C19.4535 20.1709 16.9119 21.3913 14.0898 21.9222C11.3392 22.331 14.6399 23.051 13.8532 23.2097C12.4174 23.7589 15.5641 24.1372 13.6662 24.7169C12.4944 24.4667 11.2732 24.0213 11.7738 22.6544C9.13869 23.0327 6.82267 24.247 8.90764 27.2187H9.05617V27.2187ZM15.4046 23.6307C16.0207 21.1045 18.7108 25.7054 16.4168 23.9663C16.1417 23.7345 15.6906 23.5514 15.4046 23.6307ZM15.5256 22.4042C16.4168 21.672 15.9987 22.8192 15.5256 22.4042V22.4042ZM16.6589 22.4286C16.7414 21.2692 19.2499 23.0449 17.0715 22.8436L16.6589 22.4286ZM18.2047 21.733C18.7713 21.0007 18.3697 22.3859 18.2047 21.733V21.733ZM18.6008 21.4401C19.5415 20.1831 23.9315 20.6407 20.7188 21.318C19.8606 20.598 19.2004 21.7452 18.6008 21.4401ZM24.3331 20.4638C24.19 17.0344 27.1827 21.6781 24.3331 20.4638V20.4638ZM25.9614 20.4516C26.5556 18.7247 28.2719 19.7559 26.2365 20.1037C26.2805 20.2868 26.176 20.9946 25.9614 20.4516ZM12.8355 29.6169C14.6124 28.4086 10.9486 28.5673 12.8355 29.6169V29.6169ZM14.1503 30.0196C14.7719 29.2873 12.797 29.7206 14.1503 30.0196V30.0196ZM10.2774 26.9747C11.2952 26.1082 9.07817 26.6452 10.2774 26.9747V26.9747ZM62.7316 63.3735C62.7591 62.3666 61.9559 63.825 62.7316 63.3735V63.3735ZM57.4009 59.34C57.5549 58.1806 56.7188 59.4376 57.4009 59.34V59.34ZM64.2004 63.764C65.6197 63.7701 68.5024 63.2758 65.4107 63.2758C64.9266 63.3552 62.5886 63.343 64.2004 63.764ZM15.3056 29.3118C16.4553 29.2263 17.1045 27.9083 15.08 27.9815C11.9498 27.6215 17.8416 29.1714 14.6784 28.726C14.2548 29.0372 15.2781 29.3972 15.3056 29.3118ZM16.3178 29.8792C16.1968 29.0616 15.9602 30.3125 16.3178 29.8792V29.8792ZM17.517 26.3278C18.0122 25.6444 16.8239 26.1448 17.517 26.3278V26.3278ZM13.6937 19.2494C15.7457 18.4745 18.5458 17.608 19.514 19.6278C18.5293 18.3158 19.1179 17.0161 20.0476 18.9443C21.3624 20.8909 22.0226 18.0595 21.1644 17.4066C22.1381 18.7491 23.2493 19.3837 21.819 17.4921C23.3759 15.4174 18.7053 17.7666 17.6436 17.7422C17.1375 17.9924 12.3734 19.0847 13.6937 19.2494ZM14.8985 16.6988C16.0702 15.7225 18.9419 17.2846 17.099 15.7286C16.9174 15.5455 13.0556 16.9063 14.8985 16.6988ZM19.1619 16.8941C20.5317 16.9307 18.5733 14.856 20.2016 15.7957C19.9321 14.8255 18.3037 14.6424 17.506 14.258C17.0549 15.1428 18.4193 16.9063 19.1619 16.8941ZM15.6466 12.5982C16.1197 11.8904 14.8159 12.9643 15.6466 12.5982V12.5982ZM17.385 13.062C19.591 12.7385 16.8239 12.0124 16.9394 13.0375L17.385 13.062ZM14.1338 10.2428C12.5825 7.99114 17.0549 10.6211 15.4761 8.26574C14.1503 7.09414 12.874 9.58378 14.1338 10.2428ZM34.0537 22.1418C34.7634 20.7445 31.1161 20.2563 33.5751 21.6476C33.8062 21.733 33.7512 22.2395 34.0537 22.1418Z" fill="#010101"/>
</svg>
