<svg width="71" height="79" viewBox="0 0 71 79" fill="none" xmlns="http://www.w3.org/2000/svg">
<path d="M69.1267 35.7974L38.8061 2.16646C37.0611 0.229668 34.2291 0.229668 32.4814 2.16646L26.1858 9.15089L34.1724 18.0099C36.0291 17.3148 38.157 17.781 39.6362 19.4219C41.1232 21.0731 41.5402 23.4535 40.8982 25.5197L48.5955 34.0583C50.4577 33.3462 52.607 33.8063 54.0935 35.4587C56.1729 37.7635 56.1729 41.4998 54.0935 43.8057C53.5993 44.3541 53.0126 44.7892 52.3668 45.086C51.721 45.3828 51.0288 45.5355 50.3298 45.5355C49.6308 45.5355 48.9386 45.3828 48.2928 45.086C47.647 44.7892 47.0603 44.3541 46.5661 43.8057C45.8237 42.9817 45.3176 41.9324 45.1115 40.7901C44.9055 39.6477 45.0087 38.4632 45.4081 37.3857L38.2301 29.4238L38.229 50.3789C38.7498 50.6634 39.2253 51.0401 39.6368 51.4943C41.7152 53.7991 41.7152 57.5342 39.6368 59.8438C37.5579 62.1485 34.1884 62.1485 32.1117 59.8438C30.0333 57.5348 30.0333 53.7997 32.1117 51.4943C32.6096 50.9411 33.2019 50.5034 33.8539 50.2068V29.0576C33.2013 28.7618 32.6089 28.3238 32.1117 27.7695C30.5372 26.0243 30.1582 23.4614 30.9658 21.316L23.0919 12.5821L2.30165 35.6418C1.46289 36.5724 0.991699 37.8345 0.991699 39.1505C0.991699 40.4664 1.46289 41.7285 2.30165 42.6591L32.6227 76.2901C34.3688 78.2269 37.1998 78.2269 38.9486 76.2901L69.1272 42.8154C69.9658 41.8844 70.4368 40.6222 70.4367 39.3062C70.4366 37.9902 69.9654 36.7281 69.1267 35.7974V35.7974Z" fill="#F34F29"/>
</svg>
