<svg width="72" height="79" viewBox="0 0 72 79" fill="none" xmlns="http://www.w3.org/2000/svg">
<path d="M70.5095 44.2871L66.6399 31.0779L58.9707 4.89826C58.5768 3.55214 56.8582 3.55214 56.4643 4.89826L48.7956 31.0779H23.3316L15.6629 4.89826C15.2684 3.55214 13.5504 3.55214 13.156 4.89826L5.4878 31.0786L1.61769 44.2871C1.44556 44.8743 1.44547 45.507 1.61742 46.0943C1.78938 46.6817 2.12455 47.1935 2.5749 47.5566L36.0636 74.5436L69.5517 47.556C70.0019 47.1929 70.337 46.6811 70.5089 46.0939C70.6808 45.5068 70.6809 44.8743 70.5089 44.2871" fill="#FC6D26"/>
<path d="M36.0636 74.5436L48.7956 31.0786H23.3315L36.0636 74.543V74.5436Z" fill="#E24329"/>
<path d="M36.0636 74.5436L23.3316 31.0786H5.48779L36.0636 74.543V74.5436Z" fill="#FC6D26"/>
<path d="M5.48779 31.0781L1.61713 44.2873C1.44495 44.8744 1.44484 45.507 1.6168 46.0942C1.78877 46.6815 2.12397 47.1933 2.57434 47.5561L36.0636 74.5437L5.48779 31.0787V31.0781Z" fill="#FCA326"/>
<path d="M5.48779 31.0779H23.3316L15.6629 4.89826C15.2684 3.55214 13.5504 3.55214 13.1559 4.89826L5.48779 31.0786V31.0779Z" fill="#E24329"/>
<path d="M36.0635 74.5436L48.7955 31.0786H66.6398L36.0635 74.543V74.5436Z" fill="#FC6D26"/>
<path d="M66.6393 31.0781L70.5094 44.2873C70.6816 44.8744 70.6817 45.507 70.5097 46.0942C70.3377 46.6815 70.0025 47.1933 69.5522 47.5561L36.0635 74.5437L66.6393 31.0787V31.0781Z" fill="#FCA326"/>
<path d="M66.6394 31.0778H48.7961L56.4648 4.89875C56.8593 3.55263 58.5773 3.55263 58.9718 4.89875L66.6405 31.0784L66.6394 31.0778Z" fill="#E24329"/>
</svg>
