<svg width="72" height="79" viewBox="0 0 72 79" fill="none" xmlns="http://www.w3.org/2000/svg">
<path fill-rule="evenodd" clip-rule="evenodd" d="M6.90475 34.3094C6.77107 34.3094 6.73806 34.2349 6.80462 34.1245L7.50493 33.1256C7.57094 33.0145 7.73818 32.9407 7.87131 32.9407H19.7743C19.908 32.9407 19.941 33.0517 19.8744 33.1628L19.3078 34.1245C19.2412 34.2349 19.0746 34.346 18.9744 34.346L6.90475 34.3094ZM1.87003 37.7113C1.7369 37.7113 1.70334 37.638 1.76991 37.5264L2.47021 36.5281C2.53678 36.417 2.70346 36.3432 2.83714 36.3432H18.0403C18.1735 36.3432 18.2406 36.4542 18.207 36.5653L17.9402 37.4525C17.9072 37.6008 17.7735 37.6746 17.6404 37.6746L1.87003 37.7113ZM9.93812 41.1138C9.80499 41.1138 9.77198 41.0027 9.83855 40.8917L10.3051 39.9672C10.3722 39.8561 10.5053 39.7457 10.639 39.7457H17.3065C17.4401 39.7457 17.5067 39.8561 17.5067 40.0044L17.4407 40.8917C17.4407 41.0399 17.307 41.151 17.2069 41.151L9.93812 41.1138ZM44.5463 33.6436C42.4454 34.2355 41.0118 34.6791 38.945 35.2704C38.4444 35.4187 38.4113 35.4553 37.9779 34.9006C37.4778 34.2721 37.1109 33.8651 36.4111 33.4953C34.3102 32.3494 32.2764 32.6819 30.3763 34.0506C28.1092 35.6774 26.9424 38.081 26.9754 41.0765C27.0084 44.0354 28.8425 46.4763 31.4765 46.8833C33.7436 47.2158 35.6442 46.328 37.1444 44.4424C37.4442 44.0354 37.711 43.5918 38.0444 43.0738H31.6096C30.9099 43.0738 30.7432 42.5929 30.9764 41.9644C31.4099 40.8178 32.2098 38.8951 32.6763 37.9334C32.777 37.7113 33.0102 37.3415 33.5103 37.3415H45.646C45.58 38.3404 45.58 39.3387 45.4463 40.3376C45.0794 42.9999 44.1794 45.4407 42.7122 47.5856C40.3115 51.0992 37.178 53.2807 33.2099 53.8726C29.9428 54.3534 26.9088 53.6505 24.2418 51.4317C21.7746 49.3607 20.3745 46.6239 20.0076 43.222C19.5741 39.191 20.6407 35.5664 22.8412 32.386C25.2084 28.9469 28.3425 26.7648 32.1768 25.988C35.3109 25.3595 38.3112 25.7665 41.0118 27.8003C42.7788 29.0945 44.0457 30.8696 44.8791 33.0145C45.0794 33.3477 44.9463 33.5326 44.5458 33.643L44.5463 33.6436Z" fill="#00ACD7"/>
<path d="M55.5817 54.0946C52.5478 54.0202 49.7801 53.0591 47.4465 50.8398C45.4793 48.9542 44.2459 46.55 43.8459 43.7022C43.2458 39.5235 44.2789 35.825 46.5465 32.5342C48.9802 28.9834 51.914 27.1345 55.8821 26.3577C59.2824 25.6926 62.4835 26.0623 65.3838 28.2438C68.0178 30.241 69.6511 32.9406 70.0846 36.4908C70.6512 41.4835 69.3513 45.5517 66.2502 49.0281C64.0497 51.5055 61.3492 53.0591 58.2487 53.7614C57.3487 53.9463 56.4481 53.9836 55.5817 54.0946ZM63.5167 39.1537C63.4837 38.6729 63.4837 38.3031 63.4165 37.9333C62.8169 34.2721 59.7824 32.201 56.6154 33.015C53.5143 33.7912 51.5141 35.9733 50.7808 39.4497C50.1806 42.3341 51.4475 45.2558 53.8477 46.439C55.6818 47.3268 57.5154 47.2158 59.2824 46.2175C61.9164 44.7011 63.35 42.3341 63.5167 39.1537V39.1537Z" fill="#00ACD7"/>
</svg>
