<svg width="71" height="79" viewBox="0 0 71 79" fill="none" xmlns="http://www.w3.org/2000/svg">
<path d="M44.6602 25.1441H44.8803L44.7702 25.022L52.4719 16.4792V16.2961C45.9805 9.94995 37.0135 7.75321 28.7067 10.4991C20.3998 13.2451 14.0184 20.5675 11.7079 29.8427C11.8179 29.7817 11.9829 29.7206 12.148 29.7206C15.0086 27.6459 18.4194 26.4255 21.9952 26.4255C23.2054 26.4255 24.3607 26.5476 25.516 26.7916C25.571 26.7306 25.626 26.7306 25.681 26.7306C30.6321 20.6896 38.9939 19.9573 44.7152 25.1441H44.6602Z" fill="#EA4535"/>
<path d="M59.7885 29.7204C58.5232 24.5337 55.8826 19.8351 52.1968 16.2349L44.3301 24.8998C47.6308 27.8898 49.5562 32.4053 49.4462 37.1039V38.6294C58.7433 38.6294 58.7433 54.0066 49.4462 54.0066H35.4731V66.2108H35.4181L35.4731 66.3328H49.4462C57.478 66.3938 64.5746 60.6579 66.9401 52.237C69.3056 43.8162 66.39 34.6631 59.7885 29.7204V29.7204Z" fill="#557EBF"/>
<path d="M21.775 66.3939H36.2432V54.0677H21.775C20.7298 54.0677 19.7396 53.8236 18.8044 53.3965L10.4425 62.3055V62.4275C13.7432 65.0514 17.7041 66.4549 21.83 66.4549L21.775 66.3939Z" fill="#36A852"/>
<path d="M22.4352 26.1206C14.2384 26.1816 6.97676 31.7955 4.33617 40.0333C1.69559 48.3321 4.33618 57.4242 10.8276 62.794L19.4095 53.7019C14.6785 51.4442 13.5782 44.8539 17.209 41.0096C20.8398 37.1043 27.0012 38.3247 29.1467 43.3284L37.7286 34.2363C34.0978 29.1716 28.4315 26.1816 22.4352 26.2426V26.1206Z" fill="#F9BC15"/>
</svg>
