<svg width="71" height="79" viewBox="0 0 71 79" fill="none" xmlns="http://www.w3.org/2000/svg">
<path d="M10.9788 69.8886L5.47485 1.41431H65.9531L60.4431 69.8782L35.6771 77.4936L10.9788 69.8886Z" fill="#E44D26"/>
<path d="M35.7139 71.6728L55.7262 65.5183L60.4347 7.01294H35.7139V71.6728Z" fill="#F16529"/>
<path d="M35.7139 32.409H25.6951L25.003 23.8088H35.7139V15.4111H16.7286L16.9102 17.664L18.7707 40.8073H35.7139V32.409ZM35.7139 54.2196L35.6803 54.23L27.2486 51.7038L26.7101 45.0068H19.109L20.1697 58.1927L35.6792 62.9682L35.7139 62.9578V54.2196Z" fill="#EBEBEB"/>
<path d="M35.6875 32.409V40.8073H45.0104L44.1319 51.6989L35.6875 54.227V62.9645L51.2092 58.1927L51.3231 56.774L53.1022 34.6644L53.2865 32.409H51.2466H35.6875ZM35.6875 15.4111V23.8088H53.9758L54.1276 21.922L54.4731 17.664L54.6541 15.4111H35.6875Z" fill="white"/>
</svg>
