<svg width="71" height="79" viewBox="0 0 71 79" fill="none" xmlns="http://www.w3.org/2000/svg">
<path d="M26.1951 60.7257C26.1951 60.7257 23.5727 62.4184 28.0639 62.9895C33.5057 63.6791 36.2866 63.5802 42.2818 62.3232C42.2818 62.3232 43.8612 63.4185 46.0628 64.368C32.6184 70.7569 15.6366 63.9976 26.1951 60.7257ZM24.5514 52.3872C24.5514 52.3872 21.6093 54.803 26.1044 55.3192C31.9175 55.985 36.5072 56.0393 44.4532 54.3429C44.4532 54.3429 45.5495 55.5786 47.2764 56.2535C31.0247 61.5257 12.9234 56.6684 24.5514 52.3872V52.3872Z" fill="#0074BD"/>
<path d="M38.3997 38.2403C41.7142 42.4721 37.5305 46.2767 37.5305 46.2767C37.5305 46.2767 45.9413 41.4616 42.0794 35.4291C38.4712 29.806 35.7052 27.0131 50.6806 17.3792C50.6806 17.3798 27.1733 23.8901 38.3997 38.2403V38.2403Z" fill="#EA2D2E"/>
<path d="M56.1802 66.8942C56.1802 66.8942 58.1216 68.6699 54.0413 70.0423C46.2835 72.6491 21.7458 73.435 14.9309 70.1466C12.4823 68.964 17.0758 67.3244 18.521 66.9784C20.0278 66.6166 20.8882 66.6825 20.8882 66.6825C18.1634 64.5547 3.27713 70.8624 13.3279 72.6716C40.7355 77.5997 63.2883 70.4523 56.1802 66.8942V66.8942ZM27.4578 43.746C27.4578 43.746 14.9777 47.0344 23.0386 48.2298C26.4428 48.7351 33.2258 48.6191 39.5483 48.0309C44.714 47.5495 49.8978 46.5213 49.8978 46.5213C49.8978 46.5213 48.078 47.3871 46.7599 48.3842C34.084 52.0827 9.60244 50.3601 16.6512 46.5792C22.6101 43.3823 27.4578 43.746 27.4578 43.746V43.746ZM49.8461 57.6264C62.7305 50.202 56.7727 43.0669 52.6143 44.0279C51.5977 44.2629 51.1416 44.4673 51.1416 44.4673C51.1416 44.4673 51.5201 43.8089 52.2419 43.5257C60.4678 40.3191 66.7931 52.9858 49.5886 58.0029C49.5886 58.0017 49.7861 57.8034 49.8461 57.6264V57.6264Z" fill="#0074BD"/>
<path d="M42.0795 1.8208C42.0795 1.8208 49.2134 9.73884 35.3113 21.9106C24.1625 31.6776 32.7692 37.2451 35.3075 43.609C28.799 37.0962 24.025 31.3621 27.2273 26.0259C31.9297 18.1945 44.9571 14.3959 42.0795 1.8208Z" fill="#EA2D2E"/>
<path d="M28.7241 77.751C41.0887 78.6279 60.0811 77.2629 60.5305 70.7727C60.5305 70.7727 59.6663 73.2331 50.3109 75.1851C39.7563 77.3892 26.736 77.1323 19.0161 75.7184C19.0161 75.719 20.5977 77.1713 28.7241 77.751V77.751Z" fill="#0074BD"/>
</svg>
