<svg width="71" height="79" viewBox="0 0 71 79" fill="none" xmlns="http://www.w3.org/2000/svg">
<path d="M35.5785 78.6998C34.7671 78.593 33.5018 78.3336 32.8141 78.1201L32.099 77.8912L31.7139 76.7166C31.4938 76.0606 30.9712 74.2605 30.5586 72.7045L29.7885 69.8823L28.702 69.7908C27.0378 69.6535 26.0889 69.3178 23.352 67.9144C21.9905 67.2126 20.6702 66.5567 20.4226 66.4651C20.1888 66.3583 19.8587 66.099 19.68 65.9007C19.3911 65.5498 19.3499 65.3362 19.2399 63.0175L19.1298 60.5004L18.3597 59.7071C14.1237 55.2831 11.2768 49.1658 10.4104 42.6366C10.1353 40.5161 10.1353 36.3972 10.4104 34.2767C11.2631 27.8086 14.11 21.6607 18.2359 17.374L19.3911 16.1689L19.5562 14.9027C19.8175 12.7365 20.5189 11.1652 21.5504 10.4329C21.8529 10.2041 22.1005 9.83798 22.2518 9.39558C22.9807 7.29037 24.1635 6.14623 28.0831 3.75117C30.6411 2.17989 33.0754 1.23407 35.441 0.852694C36.72 0.654377 39.4156 0.654377 40.6396 0.86795C44.1466 1.44765 46.1133 2.54602 48.6301 5.32246C50.3355 7.21409 51.312 8.7091 51.8896 10.3719C52.371 11.7449 52.8936 14.3688 53.0449 16.0926L53.1411 17.2215L54.4477 18.8385C58.8624 24.2999 61.2279 31.1647 61.2279 38.4567C61.2279 43.0942 60.2927 47.5335 58.4636 51.5303L57.7622 53.0711L58.1885 53.4372C58.8212 53.9864 59.2337 54.8865 59.9214 57.2052C60.4303 58.8986 60.5403 59.4935 60.5403 60.3936C60.5403 62.2547 59.9352 64.2074 59.055 65.1227C58.326 65.8854 56.4006 66.1905 54.1039 65.9007C53.3474 65.8092 53.1962 65.7329 52.9348 65.3362L52.6323 64.8938L51.4633 64.9701C50.033 65.0769 49.2628 65.3362 49.2628 65.7024C49.2628 66.2058 49.084 66.4651 48.5614 66.7702C48.0525 67.0448 48.025 67.1058 48.025 67.7466C48.025 68.1279 48.1763 69.2263 48.3688 70.2026C49.0427 73.6656 48.7677 74.3063 46.3196 74.9165C45.9345 75.008 45.9345 75.008 46.0171 75.9081C46.1958 77.6472 45.3707 78.3489 42.8126 78.6387C41.5198 78.7913 36.555 78.8371 35.5785 78.6998V78.6998Z" fill="#201D1E"/>
<path d="M28.8394 67.9602C27.4229 67.7466 25.4837 66.9381 23.0769 65.5651C21.3303 64.5735 20.7389 64.1616 20.7114 63.9328C20.6976 63.765 20.6426 62.7429 20.6013 61.6445C20.3675 56.1832 19.2811 50.2337 17.6857 45.7792C17.3419 44.8028 17.0806 43.9791 17.1081 43.9486C17.1218 43.9333 17.9195 43.2773 18.8685 42.4993C20.8076 40.9128 23.3107 39.2195 24.796 38.5025L25.7862 38.0143L26.969 39.4025C28.2343 40.9128 28.9082 41.4162 31.2462 42.6671L32.7178 43.4451L32.9653 44.6198C33.1029 45.2605 33.4192 46.5114 33.6667 47.4115C34.0381 48.6929 34.2306 49.1201 34.5607 49.4252C35.0145 49.8523 35.2896 49.9133 35.8397 49.6692C36.3073 49.4709 36.2936 49.6082 35.716 50.493C35.1521 51.3626 35.1108 51.927 35.5509 52.3694C35.8535 52.6898 39.4568 54.7187 40.5295 55.1764L41.0796 55.4204L39.7731 55.512C39.0579 55.573 37.4901 55.6798 36.2798 55.7713C34.3406 55.9239 31.9476 56.1832 30.1185 56.473C29.4996 56.5646 29.4721 56.5646 29.362 56.1374C29.2383 55.634 29.2245 53.1627 29.3208 50.7066C29.3895 49.059 29.2933 48.6319 28.9219 48.8912C28.6056 49.1048 28.5231 50.2032 28.6744 52.2321C28.8257 54.3373 28.7156 55.8933 28.4268 56.0154C28.3306 56.0612 27.918 55.8476 27.5054 55.5577C27.1065 55.2526 26.7352 55.0085 26.6802 55.0085C26.4739 55.0085 26.5702 55.5882 26.8452 55.9696C26.9965 56.1832 27.1203 56.4578 27.1203 56.5951C27.1203 56.8544 26.7077 57.1443 26.3226 57.1443C26.0338 57.1443 25.5112 57.6935 25.6625 57.8613C25.7037 57.9223 26.3776 57.9528 27.1616 57.9375C27.9317 57.9223 28.6331 57.9528 28.7294 58.0291C28.8257 58.0901 28.9632 58.8681 29.0457 59.8292C29.1282 60.7597 29.3758 62.9565 29.5958 64.7108C29.9672 67.7314 29.9809 68.1585 29.7609 68.1127C29.7059 68.0975 29.2933 68.0365 28.8394 67.9602V67.9602ZM44.8067 65.3363C44.6279 63.8413 44.4216 57.5714 44.5592 57.4189C44.6279 57.3426 45.1093 57.2663 45.6319 57.2511L46.5671 57.2205L46.7322 58.0443C46.8284 58.502 47.0072 60.2106 47.131 61.8581C47.2548 63.5057 47.3648 64.9854 47.3785 65.1532C47.406 65.4583 47.1172 65.5651 45.3981 65.8855C44.8892 65.9618 44.8892 65.9618 44.8067 65.3363ZM45.7832 54.9018C45.9895 54.4899 46.5534 53.4525 47.0485 52.5677C47.5436 51.6829 48.3963 50.1116 48.9464 49.0743L49.9641 47.1827L49.5653 46.6335C48.9739 45.8097 48.9739 45.7792 49.2215 45.1537C49.3865 44.7113 49.4553 44.1011 49.4553 42.8044C49.4553 40.7297 49.2077 39.5703 48.5476 38.7465C48.1625 38.2736 48.0524 38.2126 47.5848 38.2584C47.296 38.2889 47.076 38.2736 47.0897 38.2126C47.1172 38.1516 47.5161 37.755 47.9699 37.3278L48.8226 36.5498L50.4042 38.1821C51.2707 39.0974 52.3021 40.15 52.6872 40.5467C53.5537 41.4315 53.5674 41.5688 52.921 44.5283C52.2334 47.7013 50.5417 53.0559 49.8128 54.3678C49.4553 55.0085 49.2077 55.1001 47.5023 55.2221C46.7184 55.2679 45.962 55.3747 45.8244 55.4662C45.3981 55.7255 45.3844 55.6493 45.7832 54.9018V54.9018Z" fill="#335061"/>
<path d="M45.0681 54.2611C45.3294 53.3458 45.5769 51.561 45.7695 49.2117C46.0308 46.2522 46.0583 46.1606 46.966 46.1606C47.6261 46.1606 48.2725 46.481 48.7814 47.076L49.1665 47.5184L48.3 49.1659C47.131 51.3932 45.2469 54.551 45.0956 54.551C45.0406 54.551 45.0131 54.4289 45.0681 54.2611Z" fill="#335061"/>
<path d="M18.1257 56.9765C10.1902 47.2743 9.54384 32.3852 16.6129 21.9659C17.4656 20.715 19.3773 18.3962 19.5698 18.3962C19.6248 18.3962 19.7211 18.6251 19.7624 18.8997C19.8311 19.2963 19.7486 19.6167 19.391 20.3794C18.9509 21.3405 18.9372 21.3863 18.9509 23.2626C18.9509 24.9865 18.9922 25.3068 19.336 26.3289C20.0787 28.5257 21.2202 29.8834 22.7743 30.4631L23.4619 30.7224L23.7095 31.836C23.847 32.431 24.2321 33.4988 24.5759 34.1853C25.2498 35.5583 25.3324 36.0617 24.961 36.4431C24.8235 36.5651 23.627 37.3737 22.3067 38.2279C20.9864 39.0975 19.391 40.1654 18.7584 40.6078C18.1721 41.0351 17.5711 41.4371 16.9567 41.8129C16.0628 42.3163 15.5677 42.9723 15.5677 43.7046C15.5677 44.2385 16.7367 48.1896 17.5894 50.5846C17.8232 51.2101 18.1395 52.3085 18.2908 53.0255C18.6209 54.551 19.0472 57.5257 18.9784 57.7698C18.9509 57.8766 18.5658 57.5105 18.1257 56.9765V56.9765ZM51.0506 54.5967C51.0506 54.5357 51.4219 53.3 51.8895 51.8203C53.2648 47.3963 54.6401 42.3316 54.7226 41.4315C54.8052 40.3637 54.5989 39.9975 52.8385 38.2585C50.3079 35.7566 49.8128 35.1769 49.8128 34.765C49.8128 34.5515 50.1016 33.7887 50.4454 33.087C51.1331 31.6835 51.5732 30.3715 52.0958 28.1443C52.4946 26.4205 52.976 22.9423 52.976 21.7371C52.976 21.2642 53.0173 20.654 53.0585 20.3947L53.1548 19.9065L53.4986 20.2574C54.9564 21.7676 57.2394 26.0086 58.1884 28.9833C59.2474 32.2937 59.6187 34.8108 59.6187 38.4568C59.6187 41.279 59.4674 42.835 58.9448 45.108C58.4497 47.3048 57.8583 49.0744 56.9506 51.0728L56.1254 52.8424L55.2452 53.0102C54.3651 53.178 53.2786 53.5899 51.8482 54.2916C51.4081 54.5052 51.0506 54.6425 51.0506 54.5967V54.5967ZM34.7669 48.2658C34.6707 48.0675 34.3681 47.259 34.1206 46.4657C33.6942 45.1233 33.653 44.8792 33.653 43.1096C33.653 41.0044 33.8455 40.3026 34.4644 40.1196C35.0145 39.967 36.9537 40.6535 38.6453 41.5993C39.5255 42.1028 40.3369 42.4994 40.4332 42.4994C40.6395 42.4994 40.6533 42.896 40.447 43.0486C40.3644 43.1096 40.0069 43.2316 39.6493 43.3384C38.9891 43.5367 39.0029 43.5673 40.0894 43.8724C40.7083 44.0554 40.7358 44.0859 40.7358 44.6351C40.7358 45.1538 40.6533 45.2606 39.608 46.1911C38.0814 47.5336 37.6826 47.7777 36.4311 48.2201C35.1108 48.693 35.0145 48.693 34.7669 48.2658ZM45.343 45.1538C43.844 44.8639 43.899 44.9097 43.899 44.0402C43.899 43.2011 44.1053 42.957 44.7929 42.957C44.9992 42.957 45.123 42.896 45.068 42.8045C45.0267 42.7282 44.7242 42.6519 44.4078 42.6519C43.8852 42.6519 43.8027 42.6062 43.6652 42.1943C43.5139 41.7519 43.5139 41.7366 44.6141 40.9739C47.5848 38.8534 48.1762 39.0822 48.575 42.5452C48.6988 43.6893 48.6438 44.6351 48.41 45.1385C48.2587 45.4589 46.9797 45.4741 45.343 45.1538ZM41.6297 44.4215C41.4234 44.2537 41.3684 44.0097 41.3547 43.3232C41.3547 42.4536 41.3684 42.4384 41.7948 42.3011C42.9638 41.9197 43.5552 43.9029 42.4412 44.4673C42.0011 44.6809 41.946 44.6809 41.6297 44.4215Z" fill="#D33833"/>
<path d="M36.1286 76.9607C35.6747 76.8845 34.7533 76.6709 34.0656 76.4878L32.8278 76.137L32.264 74.0012C31.1637 69.9129 30.3248 65.3058 29.7471 60.3479C29.6096 59.1275 29.5408 58.0749 29.5959 58.0138C29.7609 57.8003 34.1069 57.1748 36.6374 56.9917C38.4116 56.8697 39.5668 56.8697 40.9009 56.9765C43.2526 57.1901 43.514 57.2816 43.6377 57.8308C43.7065 58.0596 43.8165 59.8139 43.899 61.7056C43.9953 63.5972 44.0778 65.199 44.1191 65.2448C44.1466 65.2905 44.2291 67.0754 44.3116 69.2111C44.4492 72.7961 44.628 75.4657 44.8067 76.0912C44.8893 76.3963 44.4354 76.5794 42.785 76.8997C41.506 77.1438 37.5451 77.1896 36.1286 76.9607V76.9607ZM45.0818 72.2927C45.0405 71.6367 44.9718 70.279 44.9168 69.2569C44.8205 67.1822 44.7655 67.3042 45.9345 67.1212L46.5946 67.0296L46.966 69.1348C47.1723 70.3095 47.3373 71.6367 47.3373 72.1096V72.9639L46.5396 73.2232C45.1781 73.6504 45.1781 73.6504 45.0818 72.2927V72.2927ZM53.9388 64.7871C53.6225 64.5278 53.925 64.3905 55.3553 64.0701C57.2257 63.6735 56.6069 63.4752 53.8563 63.6125L51.6145 63.704L51.5457 63.0633C51.5045 62.6972 51.3945 61.6903 51.3119 60.8055C51.2338 59.8901 51.1191 58.979 50.9681 58.0749C50.7756 57.0528 50.7756 56.9307 50.9819 56.6866C51.2844 56.3205 52.2059 55.8476 53.5949 55.3137C54.2001 55.0848 54.9565 54.7492 55.2728 54.5662C56.6756 53.7882 57.7484 54.5662 58.3948 56.8087C59.4675 60.5767 59.4813 62.331 58.4773 63.7498C57.9272 64.5125 57.1982 64.8024 55.5891 64.8787C54.6952 64.9244 54.0625 64.8787 53.9388 64.7871V64.7871ZM56.4143 60.9428C55.9192 60.714 54.2001 60.592 53.5812 60.7293L53.0448 60.8665L53.5262 60.9581C53.7875 61.0191 54.6264 61.0801 55.3828 61.0801C56.4418 61.0954 56.6756 61.0496 56.4143 60.9428V60.9428ZM55.6717 59.0207C56.3043 58.9139 56.318 58.8986 55.933 58.8071C55.2178 58.624 53.8838 58.6698 53.4574 58.8986C53.0586 59.097 53.0861 59.0969 54.0213 59.1122C54.5577 59.1275 55.3003 59.0817 55.6717 59.0207ZM54.3514 57.2663C55.3003 56.6561 55.4241 56.5341 55.039 56.6104C54.0213 56.8239 53.2649 57.1748 52.756 57.6935L52.2196 58.2274L52.701 58.1206C52.9623 58.0749 53.705 57.6935 54.3514 57.2663ZM48.9327 64.1464C48.9052 64.0244 48.7814 63.0785 48.6576 62.0259C48.5338 60.9733 48.3413 59.4326 48.2175 58.6088C48.0937 57.7087 48.0662 57.0375 48.135 56.9612C48.2037 56.885 48.5613 56.8392 48.9327 56.8697L49.6066 56.9155L49.9366 57.8308C50.3767 59.0664 50.6243 60.7445 50.638 62.4531C50.638 63.8566 50.638 63.8718 50.2667 64.0244C49.5791 64.3142 49.0014 64.3752 48.9327 64.1464V64.1464ZM41.2172 53.8797C40.2407 53.4373 38.7279 52.6898 37.8752 52.2016C36.4861 51.4084 36.3349 51.2863 36.4174 50.9965C36.7199 49.9133 37.6139 48.7997 39.0442 47.7166C39.5256 47.3657 39.9382 47.0759 39.9657 47.0759C40.227 47.0759 42.0286 50.9049 43.0601 53.6051C43.4177 54.5509 43.4452 54.7035 43.2389 54.7035C43.1151 54.7035 42.2074 54.3373 41.2172 53.8797ZM45.0681 54.2611C45.3294 53.3458 45.5769 51.5609 45.7695 49.2116C45.9482 47.2132 46.0583 46.4962 46.2096 46.3589C46.7322 45.886 48.1212 46.2979 48.8226 47.1216L49.139 47.4878L48.7951 48.159C48.0387 49.6693 47.4336 50.7676 46.3471 52.6135C45.2881 54.4136 44.8618 54.9628 45.0681 54.2611V54.2611ZM44.2154 53.8644C43.8878 53.1097 43.576 52.3468 43.2802 51.5762C42.3862 49.2726 41.9048 48.22 41.2585 47.1827C40.7358 46.3284 40.7221 46.2674 40.9559 45.9928C41.0934 45.825 41.3822 45.7029 41.616 45.7029C41.8498 45.6877 42.1937 45.5961 42.3862 45.4741C42.8951 45.1537 43.2251 45.1995 43.9403 45.7029C44.2979 45.947 44.7517 46.2063 44.9443 46.2521L45.3156 46.3589L45.2193 48.7845C45.1231 51.1643 44.8755 53.3305 44.6142 54.0933C44.4904 54.4746 44.4904 54.4746 44.2154 53.8644V53.8644ZM44.3804 50.2032C44.3804 49.8218 44.3254 49.7455 44.0366 49.7455C43.8165 49.7455 43.679 49.8371 43.6515 50.0201C43.569 50.4778 43.734 50.7676 44.0641 50.7066C44.3116 50.6761 44.3804 50.5693 44.3804 50.2032ZM43.9541 47.7624C44.0778 47.381 43.8853 47.0759 43.5415 47.0759C43.3489 47.0759 43.1701 47.1827 43.1289 47.3047C42.9913 47.6861 43.1839 47.9912 43.5415 47.9912C43.7203 47.9912 43.899 47.8844 43.9541 47.7624ZM31.4525 41.7518C30.4761 41.3705 29.7059 40.9128 29.4033 40.5314C29.1008 40.15 29.197 39.6619 29.5684 39.8297C29.9947 40.028 30.7511 40.1806 31.8376 40.2873C33.0066 40.3941 33.0204 40.4094 32.7453 41.4772C32.594 42.118 32.4703 42.1485 31.4525 41.7518V41.7518ZM40.9284 41.2942C40.4608 41.1569 39.3605 40.5162 39.3605 40.3636C39.3605 40.3026 39.8144 40.2873 40.3645 40.3331C41.1072 40.3789 41.7398 40.3026 42.7025 40.0585C43.4452 39.8755 44.1053 39.7534 44.1741 39.7839C44.2566 39.8144 43.899 40.1958 43.3902 40.6382C42.4275 41.4772 42.0286 41.584 40.9284 41.2942V41.2942ZM31.8651 39.6009C30.5586 39.4483 29.087 38.9449 28.3306 38.3804C27.6154 37.8465 26.914 36.7787 26.2814 35.2226C25.6625 33.7124 25.0574 31.7139 24.9748 30.7986C24.8923 30.0511 24.9061 29.9749 25.3874 29.3189C25.7313 28.8765 25.8825 28.5104 25.855 28.2815C25.8 27.8239 25.4837 27.8849 24.741 28.4798C23.7646 29.2579 22.513 29.0138 21.5778 27.8696C20.6014 26.6645 19.8725 24.544 20.01 23.2626C20.2575 20.9285 22.3893 19.2962 24.0534 20.1658C24.5622 20.4404 25.2224 21.554 25.4699 22.5608C25.6075 23.0948 25.6487 23.1253 26.1714 23.1253C26.4739 23.1253 26.9278 23.0185 27.1891 22.9117C27.7805 22.6371 27.808 22.2863 27.3679 20.4861C26.9828 18.8538 26.9965 17.4351 27.4504 15.0553C27.8355 13.0416 27.9042 11.4703 27.6567 10.3872C27.5054 9.74651 27.5329 9.65498 27.9317 8.9685C29.1695 6.83278 32.8553 3.84277 35.5097 2.82067C36.6512 2.39353 39.1405 2.34776 40.7771 2.74439C43.1151 3.30884 45.6594 4.52925 46.8697 5.67339C47.4473 6.22257 49.6753 9.24309 49.6753 9.48717C49.6753 9.51769 49.4415 9.51769 49.1527 9.45666C48.0387 9.25835 46.9247 9.97534 46.9247 10.8754C46.9247 11.2263 46.9385 11.2263 47.2273 11.0127C47.7637 10.5855 48.8914 10.6923 49.8404 11.2568C51.2707 12.0958 51.7795 13.2094 52.0271 16.0469C52.2609 18.6555 52.1096 23.8575 51.7658 25.7492C51.1882 28.7697 50.308 31.2258 48.8914 33.6513C47.7636 35.5735 47.2548 36.2142 46.2233 36.9617C44.2291 38.3804 42.1524 39.1432 40.2545 39.1432C38.8929 39.1432 38.0265 38.8686 36.4174 37.9533C34.9458 37.1143 33.1992 35.3447 31.8239 33.3157C31.3287 32.5835 30.9024 32.0038 30.8611 32.0343C30.7099 32.2174 31.2187 33.331 31.9339 34.3836C32.8691 35.7718 34.822 37.8923 35.6335 38.3957C35.936 38.594 36.1973 38.8228 36.1973 38.8839C36.1973 38.9601 35.8673 38.9601 35.4684 38.9144C34.602 38.7923 33.7355 39.0212 33.378 39.4483C33.2404 39.6161 33.0616 39.7382 32.9791 39.7382C32.8966 39.7229 32.4015 39.6619 31.8651 39.6009V39.6009ZM44.903 34.2616C45.1781 34.17 45.5357 33.9412 45.7007 33.7581L45.9758 33.4225L43.6652 33.331C40.4745 33.2089 39.6218 32.9038 38.4941 31.5156C38.1365 31.0885 37.7652 30.7529 37.6414 30.7834C37.5039 30.8139 37.7102 31.2105 38.3841 32.1258C39.6356 33.8344 39.9244 34.109 40.6946 34.3531C41.4648 34.5972 44.0916 34.5361 44.903 34.2616ZM45.0818 30.9512C45.0405 30.6308 44.9993 30.2647 44.9993 30.1274C44.9993 29.9138 44.6967 29.8681 42.7713 29.7918C40.7496 29.7308 39.8281 29.5782 38.7416 29.1358C38.2328 28.9375 39.388 30.1427 40.0619 30.5393C41.0247 31.0732 42.675 31.4546 44.2979 31.5004L45.1781 31.5156L45.0818 30.9512ZM47.0347 31.1342C47.9287 30.8291 48.9327 29.9443 49.5653 28.907C49.8404 28.4493 50.0467 28.068 50.0192 28.0374C50.0054 28.0069 49.4278 28.2968 48.7401 28.6782C48.0662 29.0595 47.2135 29.4562 46.8422 29.5477C46.5606 29.615 46.2809 29.6913 46.0033 29.7765C45.8932 29.807 45.8245 30.1122 45.8245 30.6003C45.8245 31.4851 45.8795 31.5004 47.0347 31.1342V31.1342ZM45.1781 28.3273C46.2783 28.0069 46.8835 27.7171 48.2313 26.817C49.0152 26.3136 49.0839 26.2221 49.304 25.3983C49.4278 24.9101 49.5378 24.4372 49.5378 24.3304C49.5378 24.2389 49.0014 23.5372 48.355 22.7744C46.3608 20.4099 45.1368 18.4572 44.3666 16.3367C44.2704 16.1079 44.2429 16.1994 44.2016 16.7334C44.1191 18.1063 44.9993 19.9827 46.966 22.6066C48.355 24.4372 48.5476 24.8949 48.2863 25.5966C48.1487 25.9933 47.8737 26.1916 46.7322 26.8018C45.0818 27.6561 44.4767 27.8544 43.5415 27.8544C42.7163 27.8544 42.2899 27.4578 42.1524 26.5577C42.0836 26.1 42.0424 26.039 41.9324 26.2526C41.7398 26.6492 41.7948 27.6103 42.0424 28.1442C42.2487 28.6019 42.2899 28.6171 43.1976 28.6171C43.7065 28.6171 44.6004 28.4798 45.1781 28.3273V28.3273ZM22.6781 24.6966C22.7193 23.3846 22.9531 22.8202 23.462 22.8202C23.8333 22.8202 24.0809 23.11 24.521 24.0406C24.8373 24.7271 24.8511 24.7271 24.8923 24.2847C24.9611 23.6135 24.5485 22.5914 23.9434 21.9964C23.5033 21.5388 23.297 21.4472 22.8019 21.4472C22.293 21.4472 22.1417 21.5235 21.8391 21.9201C21.399 22.4998 21.3853 22.7439 21.8116 22.4388C22.1967 22.149 22.6506 22.2863 22.4855 22.6524C22.2655 23.1253 22.3755 25.8712 22.6093 25.8712C22.6368 25.8712 22.6643 25.3525 22.6781 24.6966V24.6966ZM40.1445 20.4404C40.557 20.0895 40.6808 19.7692 40.5983 19.1589C40.5846 19.0369 40.337 18.6555 40.0482 18.3199C39.7456 17.9843 39.2918 17.191 39.0167 16.5656L38.5353 15.4214L38.5766 16.1079C38.6316 16.8097 38.9754 17.725 39.5118 18.6708C39.7869 19.1437 39.8006 19.2047 39.5806 19.4335C39.4018 19.6319 39.1542 19.6776 38.4941 19.6471C36.4311 19.5251 36.5412 19.5251 36.4999 19.8607C36.3624 20.9133 39.0855 21.3404 40.1445 20.4404V20.4404ZM50.4317 19.7844C50.7343 19.6319 51.0919 19.3725 51.2157 19.2047C51.4495 18.9301 51.422 18.8386 50.638 17.13C49.9091 15.5587 49.8129 15.4062 49.8129 15.8791C49.8129 16.1689 49.9779 16.8554 50.1842 17.4046C50.4593 18.1369 50.5143 18.442 50.4042 18.564C50.308 18.6708 49.7578 18.7928 49.1665 18.8691C48.5751 18.9301 48.08 18.9911 48.0662 18.9911C47.9562 19.0217 48.0525 19.4488 48.245 19.7386C48.41 20.0132 48.5888 20.0743 49.1665 20.0743C49.5653 20.0743 50.1292 19.937 50.4317 19.7844ZM33.3092 13.1484C34.1344 11.9127 34.9458 11.4551 36.2386 11.4703C37.16 11.4703 37.1738 11.4703 37.1325 11.089C37.0638 10.4788 36.2661 9.96008 35.5922 10.0821C34.3957 10.2804 32.8828 11.6229 32.4015 12.8891C32.0714 13.7434 32.2089 15.0095 32.5528 14.3383C32.6215 14.201 32.9654 13.6671 33.3092 13.1484V13.1484Z" fill="#6F6C6E"/>
<path d="M26.3914 21.7982C26.3364 21.7524 26.2951 21.5389 26.2951 21.3405C26.2951 20.3795 25.2637 19.098 24.1359 18.6861C23.4758 18.4421 21.8254 18.5794 21.4953 18.915C21.3715 19.0523 21.2065 19.1133 21.1652 19.0523C21.1102 19.0065 21.069 18.0454 21.069 16.9471C21.069 14.3537 21.2615 13.6062 22.2105 12.4925C23.1732 11.3637 24.8511 10.4331 25.9788 10.4026L26.7765 10.3873L26.9003 11.4399C27.0103 12.2637 26.969 12.996 26.7352 14.9486C26.3639 18.0149 26.3639 18.3048 26.7352 20.0286C26.9828 21.188 26.9965 21.4626 26.859 21.6609C26.6527 21.9202 26.5289 21.966 26.3914 21.7982V21.7982ZM23.5033 9.36524C23.9709 8.46518 25.2361 7.09222 26.4189 6.22268C28.5094 4.66665 31.315 3.52251 31.315 4.20899C31.315 4.33104 31.1912 4.49884 31.0399 4.59037C29.9259 5.21583 28.7569 6.4515 28.1518 7.59564C27.9455 7.99227 27.6154 8.5262 27.3954 8.78554C27.0378 9.21269 26.9415 9.2432 26.1301 9.22794C25.5587 9.21493 24.99 9.31834 24.4522 9.53305C23.3107 9.9907 23.2007 9.96019 23.5033 9.36524V9.36524Z" fill="#6F6C6E"/>
<path d="M21.0689 64.4211C20.8764 64.2991 20.7388 64.1465 20.7526 64.0702C20.7939 63.8109 20.5326 59.5547 20.3813 58.136C20.0649 55.1765 19.4186 51.5 18.8547 49.4405C18.4283 47.8387 18.0157 46.4963 17.892 46.1607C17.7957 45.9471 17.6857 45.642 17.6169 45.4742C17.1218 44.1317 17.0805 43.9487 17.2181 43.9029C17.3006 43.8724 17.7407 43.5215 18.1808 43.1249C19.9412 41.5841 22.6643 39.6315 24.2321 38.8229C24.7272 38.5636 25.2774 38.2738 25.4561 38.1822C25.7587 38.0144 25.8412 38.0754 26.6527 39.067C27.134 39.6467 27.5329 40.1654 27.5329 40.2112C27.5329 40.318 27.6154 40.2722 22.9256 42.5757C21.1102 43.4758 19.5973 44.2233 19.5836 44.2538C19.5561 44.2843 19.6936 45.1233 19.8999 46.1149C20.6838 49.9745 21.289 53.9256 21.619 57.2664C21.8666 59.7835 21.7841 64.6194 21.4953 64.6194C21.454 64.6194 21.2615 64.5279 21.0689 64.4211V64.4211ZM44.5591 59.6462C44.4216 59.5089 44.4216 58.5784 44.5316 57.9377C44.6279 57.4037 44.8067 57.2969 45.8107 57.2359C46.4708 57.1749 46.4983 57.1902 46.6359 57.6478C46.7184 57.8919 46.7871 58.3343 46.7871 58.6241C46.7871 59.0818 46.7184 59.1733 46.2783 59.3869C45.6731 59.6615 44.6967 59.814 44.5591 59.6462V59.6462ZM27.5329 59.1276C26.5701 58.9445 26.075 58.7614 25.6349 58.4411C25.2361 58.1512 25.0986 57.9682 25.2223 57.8919C25.3049 57.8309 25.4561 57.8156 25.5387 57.8766C25.6074 57.9377 26.3363 57.9834 27.1478 57.9834C28.0417 57.9834 28.6744 58.0444 28.7706 58.1512C28.8532 58.2428 28.9082 58.5631 28.8807 58.853L28.8394 59.3716L27.5329 59.1276V59.1276ZM29.4033 56.2901C29.2932 55.9697 29.2932 52.217 29.4033 50.4626L29.4995 49.0744L30.0222 49.8067L30.5585 50.5542V53.4679C30.5585 55.0697 30.5173 56.3816 30.4623 56.3969C30.3935 56.3969 30.1597 56.4274 29.9121 56.4579C29.6096 56.5037 29.4583 56.4579 29.4033 56.2901V56.2901ZM41.5747 54.0171C40.0894 53.3611 36.8712 51.6525 36.5136 51.3169C36.2523 51.0728 36.8712 49.8677 37.7239 48.9829C38.6866 47.976 39.7456 47.1828 39.9794 47.2743C40.3094 47.4269 41.5335 49.8219 42.4549 52.1254C43.3351 54.3832 43.4451 54.7036 43.2526 54.7036C43.1838 54.7036 42.4412 54.3832 41.5747 54.0171ZM45.068 54.3222C45.4393 53.1323 45.7694 50.661 45.9069 48.1744C46.0032 46.5268 46.017 46.4353 46.3333 46.298C47.1172 45.9776 48.1487 46.3132 48.8226 47.1218L49.1389 47.4879L48.7951 48.1591C47.1172 51.5 44.7242 55.4358 45.068 54.3222V54.3222ZM51.1606 41.0502C50.0466 40.1349 48.9189 39.1281 48.6713 38.8535C48.41 38.5636 48.0112 38.2433 47.7636 38.1517L47.3235 37.9992L48.0662 37.2822L48.8088 36.5652L50.1016 37.9687C50.8168 38.7467 51.807 39.7688 52.3159 40.2569C53.2786 41.1722 53.5399 41.7519 53.2923 42.4232C53.1961 42.6978 52.9898 42.5757 51.1606 41.0502V41.0502Z" fill="#4A738D"/>
<path d="M36.3348 76.9149C34.5607 76.6098 33.0753 76.2131 32.924 76.0148C32.7315 75.7555 32.0301 73.0095 31.3975 70.0958C30.5173 66.1295 29.417 58.3341 29.6921 58.0595C29.8434 57.8917 33.2816 57.3425 35.5096 57.1289C38.164 56.8696 43.2113 57.0984 43.5552 57.4798C43.5964 57.5103 43.7202 59.3562 43.8302 61.5834C43.9402 63.7954 44.064 65.8854 44.1053 66.221C44.1465 66.5566 44.2428 68.4635 44.3116 70.4467C44.3803 72.4298 44.5179 74.5503 44.6004 75.1605C44.7242 76.0301 44.7104 76.2741 44.5729 76.3809C43.7477 76.9454 38.5078 77.281 36.3348 76.9149V76.9149ZM45.2055 73.3146C45.178 73.2689 45.1093 71.9112 45.0542 70.3246L44.958 67.4262L45.6731 67.2431C46.4983 67.0295 46.6496 67.0905 46.6496 67.5787C46.6496 67.777 46.7734 68.5703 46.9247 69.3636C47.0759 70.1568 47.241 71.2552 47.2822 71.8196C47.3785 72.8417 47.3785 72.8417 46.9797 73.0248C46.4433 73.2536 45.2743 73.4519 45.2055 73.3146V73.3146ZM54.2825 64.787C53.7462 64.6802 53.7462 64.665 54.0762 64.5124C54.2688 64.4209 54.6401 64.3141 54.9014 64.2531C56.4005 63.9327 56.7031 63.8107 56.5518 63.6429C56.4418 63.5361 55.6579 63.4903 54.0212 63.5208L51.6557 63.5666L51.4219 61.1563C51.2844 59.8291 51.0918 58.3341 50.9818 57.8307L50.7893 56.9153L51.1606 56.5797C51.3669 56.3814 51.972 56.0458 52.4946 55.8322C53.031 55.6034 53.98 55.1915 54.6264 54.8864C56.0292 54.2457 56.6068 54.1999 57.2257 54.7033C57.8308 55.1763 58.2297 56.1831 58.7523 58.5171C59.1924 60.5613 59.2611 61.5682 58.9998 62.5292C58.766 63.3835 57.8721 64.3904 57.1707 64.5887C56.3868 64.8175 54.9289 64.9091 54.2825 64.787V64.787ZM56.5793 60.9427C55.8504 60.6224 54.4613 60.4851 53.7187 60.6529C52.4396 60.958 52.8797 61.1105 54.9427 61.0953C56.2905 61.0953 56.7994 61.0495 56.5793 60.9427V60.9427ZM56.318 58.9901C56.5655 58.8833 56.5105 58.8375 55.9329 58.7307C54.5439 58.4714 52.976 58.7002 52.976 59.1731C52.976 59.3409 55.8366 59.1884 56.318 58.9901ZM54.4476 57.2815C55.1627 56.8543 55.7266 56.4882 55.6991 56.4577C55.6028 56.3509 54.3101 56.7018 53.6774 56.9916C53.3061 57.1747 52.8247 57.5256 52.6184 57.7849L52.2196 58.2578L52.6872 58.151C52.9347 58.1053 53.7324 57.7086 54.4476 57.2815V57.2815ZM48.9876 64.1615C48.9876 63.9937 48.2174 58.1205 48.0937 57.4188C48.0387 56.9916 48.0387 56.9916 48.7951 56.9916H49.5515L49.8266 57.6781C50.2391 58.7002 50.4867 60.1952 50.5967 62.1174L50.6792 63.8107L50.0191 64.07C49.2489 64.3446 48.9876 64.3751 48.9876 64.1615V64.1615ZM42.8675 54.505C40.9696 53.8186 36.4723 51.4845 36.4723 51.1794C36.4723 50.3861 37.6826 48.7996 39.0304 47.8233L39.9381 47.1826L40.2544 47.625C40.8733 48.4487 43.5001 54.4593 43.3214 54.6271C43.2939 54.6423 43.1013 54.5966 42.8675 54.505V54.505ZM45.1918 54.1694C45.4531 53.3914 45.9344 49.3793 45.9757 47.4114L46.0032 46.4656L46.4983 46.313C47.1997 46.1147 47.9699 46.3435 48.52 46.9385C48.7813 47.2131 48.9876 47.5029 48.9876 47.5792C48.9876 47.7775 47.1447 51.2099 46.127 52.9185C45.3018 54.3067 44.9992 54.7033 45.1918 54.1694V54.1694ZM44.1328 53.5287C43.954 53.1321 43.4176 51.8201 42.95 50.6455C42.4824 49.4556 41.8223 48.0216 41.4784 47.4419C40.9283 46.4961 40.8733 46.3588 41.0384 46.0384C41.1484 45.7943 41.2859 45.7028 41.4647 45.7638C41.616 45.8096 42.0423 45.7028 42.4137 45.535L43.0876 45.2452L43.954 45.7791C44.4354 46.0689 44.9167 46.313 45.0405 46.313C45.3156 46.313 45.3156 46.1757 45.1368 49.303C45.013 51.4845 44.7104 54.0169 44.5316 54.1999C44.4904 54.2457 44.3116 53.9406 44.1328 53.5287V53.5287ZM44.4629 50.4929C44.6967 50.1726 44.4629 49.7454 44.0365 49.7454C43.6102 49.7454 43.3764 50.1726 43.6102 50.4929C43.7202 50.6302 43.899 50.737 44.0365 50.737C44.174 50.737 44.3528 50.6302 44.4629 50.4929ZM43.954 47.808C44.1328 47.4877 43.9265 47.03 43.5964 46.9537C43.3764 46.908 42.9363 47.3046 42.9363 47.5334C42.9363 47.7623 43.3764 48.1589 43.5964 48.1131C43.7064 48.0826 43.8715 47.9453 43.954 47.808ZM31.4525 41.6754C30.5585 41.3551 29.4858 40.6991 29.3207 40.3635C29.0869 39.8906 29.2657 39.7533 29.7884 39.9821C30.0359 40.1042 30.8061 40.2415 31.5075 40.3025C32.1951 40.3635 32.7865 40.455 32.8278 40.5161C32.8553 40.5618 32.814 40.8974 32.7315 41.2483C32.5665 41.9653 32.4152 42.0111 31.4525 41.6754ZM40.7358 41.172C40.2682 40.989 39.3605 40.455 39.3605 40.3635C39.3605 40.3025 39.6768 40.333 40.0619 40.4245C40.6533 40.5618 41.0246 40.5161 42.4687 40.1957C43.4039 39.9669 44.174 39.8143 44.174 39.8448C44.174 39.8601 43.8027 40.1957 43.3626 40.5771C42.5924 41.233 42.4962 41.2788 41.7398 41.2636C41.2997 41.2636 40.8458 41.2178 40.7358 41.172V41.172ZM31.59 39.494C30.8886 39.4177 29.2657 38.8837 28.6193 38.5329C27.9179 38.1362 27.2715 37.2667 26.6114 35.8632C25.9925 34.5208 25.1398 31.8359 24.9885 30.7375C24.906 30.0815 24.9198 30.0052 25.4561 29.3188C26.0475 28.5713 26.1025 28.3882 25.8825 28.0068C25.7725 27.8085 25.6762 27.8238 25.2361 28.1136C23.9708 28.9221 23.8745 28.9679 23.2144 28.8611C22.2104 28.6933 21.5228 27.9916 20.8076 26.4508C20.2712 25.3067 20.1887 24.971 20.1337 23.9337C20.0787 22.8963 20.12 22.6217 20.3813 22.0421C21.0689 20.5165 21.9766 19.9674 23.5995 20.0589C24.1771 20.0894 24.9335 21.0352 25.2636 22.1336C25.4011 22.637 25.5662 23.1099 25.6212 23.1709C25.7862 23.3998 27.134 23.0947 27.5053 22.7438L27.8629 22.4082L27.4916 20.6691C27.024 18.4571 27.024 17.7248 27.5329 14.9942C28.0005 12.4771 28.028 11.8058 27.7529 10.6159L27.5466 9.77691L27.9867 8.95313C29.142 6.8174 33.5154 3.40025 35.9222 2.77479C39.2092 1.90524 44.7379 3.52229 47.1034 6.02414C47.7498 6.71062 49.5377 9.19721 49.5377 9.42604C49.5377 9.44129 49.1389 9.4718 48.6575 9.4718C47.9011 9.4718 47.7223 9.53282 47.406 9.85318C47.0072 10.2651 46.7459 10.86 46.8559 11.0736C46.8972 11.1499 47.1447 11.1041 47.406 10.9821C48.3275 10.5549 49.524 10.86 50.4867 11.7906C51.6557 12.9042 51.972 14.2467 52.0958 18.7012C52.2471 24.0557 51.5732 27.9458 49.8678 31.7138C49.469 32.5681 48.0662 34.9632 47.5023 35.7107C46.3745 37.2209 43.1151 38.8685 40.8183 39.0821C39.5255 39.2041 38.4803 38.96 36.9537 38.1668C34.8357 37.0531 33.4192 35.6649 31.6175 32.9037C31.1499 32.202 30.7511 31.6986 30.7236 31.8054C30.641 32.0647 31.3424 33.6512 31.9201 34.4903C32.7315 35.6802 34.6844 37.8311 35.4134 38.3498L36.0735 38.8075L34.9733 38.8532C34.0656 38.899 33.818 38.9753 33.5567 39.2651C33.2129 39.6007 32.9516 39.6313 31.59 39.494V39.494ZM44.8067 34.3377C45.3981 34.1394 46.0995 33.5902 46.0995 33.3461C46.0995 33.2851 45.1918 33.2393 44.0778 33.2393C40.8458 33.2546 39.388 32.7664 38.4253 31.363C38.164 30.9816 37.8751 30.6612 37.7789 30.6307C37.38 30.5239 37.4488 30.9358 37.9027 31.5613C38.1777 31.9121 38.6591 32.5681 38.9754 33.0258C39.6355 33.9411 40.2544 34.3682 41.2446 34.5665C42.0836 34.7343 43.9953 34.6123 44.8067 34.3377V34.3377ZM45.1093 30.7222L45.068 29.9137L43.1426 29.8069C41.0659 29.7001 39.7181 29.4866 38.9616 29.1357C38.7003 29.0137 38.4665 28.9374 38.4528 28.9679C38.4253 28.9984 38.5903 29.273 38.8241 29.5781C39.6493 30.6765 41.781 31.485 44.009 31.5003L45.1505 31.5155L45.1093 30.7222ZM47.8186 30.8443C48.1487 30.6307 48.6438 30.1883 48.9189 29.8527C49.4827 29.1967 50.2529 27.9763 50.1566 27.8848C50.1291 27.8543 49.6478 28.0984 49.0976 28.4187C48.0387 29.0594 46.5671 29.6849 46.0995 29.6849C45.8519 29.6849 45.8244 29.7917 45.8244 30.5392V31.4087L46.5258 31.3172C46.9109 31.2562 47.4885 31.0426 47.8186 30.8443V30.8443ZM45.2743 28.3577C46.1957 28.0984 47.2272 27.5797 48.3137 26.8474C49.0426 26.3593 49.1389 26.2372 49.3314 25.5355C49.6478 24.3151 49.6065 24.1625 48.7401 23.1709C46.8559 21.0657 44.8067 17.8164 44.5316 16.5349C44.4904 16.2909 44.3528 16.1078 44.2428 16.1078C43.734 16.1078 44.2703 18.3808 45.1368 19.9826C45.3981 20.4555 46.0582 21.4471 46.5808 22.1488C48.4375 24.6659 48.52 24.849 48.1487 25.7643C47.8461 26.5118 44.1878 28.0068 43.1701 27.7932C42.5787 27.6712 42.3724 27.3966 42.2624 26.6644C42.1661 26.0084 41.9598 25.9474 41.781 26.5118C41.6022 27.061 41.8085 27.9763 42.1936 28.4187C42.5237 28.7848 42.5924 28.8001 43.5277 28.6933C44.0778 28.6323 44.8617 28.4797 45.2743 28.3577V28.3577ZM23.0494 23.1404C23.2006 22.9574 23.3794 22.8201 23.4757 22.8201C23.7095 22.8201 24.1496 23.3998 24.5209 24.193L24.851 24.8795L24.8923 24.1625C24.9473 23.3082 24.5897 22.4387 23.9571 21.8437C23.1181 21.081 22.1967 21.1573 21.6603 22.0421C21.2615 22.698 21.2615 22.9116 21.6465 22.6065C21.8116 22.4692 22.0729 22.3624 22.2104 22.3624C22.4305 22.3624 22.4442 22.4387 22.3479 22.8658C22.1829 23.5828 22.2379 25.1236 22.458 25.6423C22.623 26.0847 22.6368 26.0389 22.7193 24.7727C22.7743 23.7811 22.8568 23.3693 23.0494 23.1404V23.1404ZM40.2682 20.3792C40.9146 19.6622 40.8871 19.2351 40.1169 18.274C39.7731 17.8469 39.2642 16.9621 38.9754 16.3061C38.5353 15.2535 38.4665 15.162 38.4253 15.5586C38.3703 16.0163 38.8516 17.6943 39.1542 18.091C39.2505 18.213 39.4292 18.5334 39.5393 18.7927C39.7593 19.2809 39.7593 19.2809 39.3605 19.4639C39.0717 19.6012 38.6453 19.6165 37.8889 19.525C37.2975 19.4639 36.7612 19.4029 36.6786 19.3877C36.4311 19.3877 36.4448 20.0894 36.6924 20.3945C37.05 20.8369 37.6551 20.9894 38.7828 20.9284C39.7043 20.8827 39.8281 20.8369 40.2682 20.3792ZM50.7343 19.6928C51.0643 19.4639 51.3807 19.1893 51.4219 19.0826C51.4769 18.8842 49.8541 15.0399 49.7028 15.0399C49.524 15.0399 49.8266 16.7485 50.1566 17.5418C50.583 18.6096 50.5555 18.6402 49.2627 18.7774C48.7676 18.8385 48.2862 18.8995 48.2037 18.93C47.9011 19.0368 48.0112 19.586 48.41 19.9216C48.7126 20.1962 48.8913 20.2419 49.4552 20.1657C49.8128 20.1199 50.3904 19.9063 50.7343 19.6928V19.6928ZM32.8828 13.9111C33.3779 12.9805 34.2168 12.0652 34.9045 11.7448C35.152 11.6228 35.7572 11.5312 36.2523 11.5312C36.7474 11.5312 37.1875 11.455 37.2288 11.3787C37.5038 10.8753 36.5824 10.0057 35.7572 10.0057C35.1245 10.0057 33.9968 10.6465 33.2954 11.4245C32.7178 12.0652 32.0714 13.3466 32.0714 13.8653C32.0714 14.1399 32.3052 14.7348 32.4152 14.7348C32.4427 14.7348 32.649 14.3687 32.8828 13.9111V13.9111Z" fill="#83B3C7"/>
<path d="M21.124 18.152C21.0139 17.1147 21.124 14.8722 21.344 14.0942C21.7979 12.3856 23.8883 10.7533 26.1026 10.3719C26.6114 10.2956 26.6802 10.3109 26.749 10.6312C26.8865 11.1804 26.8728 11.2262 26.5289 11.2262C25.9926 11.2262 24.4797 11.8364 23.7921 12.3246C22.1417 13.4839 21.1652 15.8638 21.4265 18.0758C21.4816 18.5334 21.454 18.8538 21.3715 18.9148C21.2753 18.9758 21.1927 18.686 21.124 18.152V18.152ZM23.407 9.70067C23.407 9.63965 23.6958 9.16674 24.0396 8.64806C24.7823 7.54969 26.3226 6.22249 27.918 5.30718C29.1695 4.59019 30.9299 3.85794 31.1224 3.99524C31.37 4.14779 31.2325 4.46815 30.8474 4.68172C27.918 6.26826 26.914 7.0005 25.6212 8.49551C25.0161 9.18199 24.686 9.42608 24.1359 9.60914C23.7371 9.73118 23.407 9.77694 23.407 9.70067Z" fill="#83B3C7"/>
<path d="M40.7358 41.1417C40.2545 40.9739 39.5255 40.5468 39.4293 40.3637C39.3743 40.2569 39.4705 40.2569 39.7043 40.3637C40.2682 40.5926 41.0796 40.5468 42.7025 40.1502C43.5139 39.9518 44.1741 39.8145 44.1741 39.8298C44.1741 39.845 43.8027 40.1807 43.3627 40.5773C42.62 41.218 42.4825 41.279 41.8086 41.2638C41.4097 41.2638 40.9284 41.2028 40.7358 41.1417V41.1417ZM31.425 39.4332C30.311 39.2806 28.8807 38.7314 28.2343 38.228C27.4916 37.6331 26.7627 36.3669 26.0476 34.4752C25.5112 33.026 24.9198 30.8292 24.9198 30.2801C24.9198 30.1275 25.1674 29.6851 25.4837 29.2885C26.0613 28.5562 26.1576 27.9765 25.7175 27.885C25.5937 27.8545 25.1399 28.0833 24.7273 28.4037C24.0671 28.8918 23.8883 28.9529 23.3932 28.8766C22.458 28.7393 21.6191 28.0528 21.0277 26.9392C19.6386 24.2848 19.8312 21.8287 21.5365 20.5778C22.1142 20.1354 22.3205 20.0744 23.0631 20.0744C23.737 20.0744 23.9983 20.1506 24.3009 20.41C24.686 20.7456 25.4699 22.3779 25.4699 22.8661C25.4699 23.0186 25.5662 23.1712 25.6762 23.2169C26.0613 23.3847 27.1203 23.1101 27.4916 22.7593L27.8492 22.4084L27.4916 20.6388C27.024 18.3963 27.024 17.7556 27.5329 15.0554C28.0005 12.5993 28.0417 11.623 27.7392 10.5246C27.5466 9.80764 27.5604 9.76187 27.8767 9.15167C28.7156 7.56513 30.6961 5.67349 33.1716 4.11746C35.0145 2.97333 35.8535 2.66822 37.5726 2.57669C39.9932 2.4394 42.3724 3.0496 45.0818 4.5141C46.2783 5.15481 46.6084 5.41415 47.4198 6.39048C47.9424 7.01594 48.6301 7.94651 48.9601 8.46519L49.5515 9.39575H48.7676C47.8874 9.39575 47.351 9.6856 47.0072 10.3111C46.7046 10.8908 46.7184 11.2874 47.0347 11.1501C48.135 10.6314 49.0014 10.7382 50.1154 11.5162C51.4632 12.462 51.807 13.5757 52.0408 17.6183C52.3296 22.805 51.697 27.2748 50.1567 31.0123C49.5378 32.5073 47.9012 35.2685 47.1722 36.0313C46.127 37.1449 44.2153 38.228 42.3862 38.7619C41.1484 39.1281 39.223 39.1281 38.2603 38.7772C35.881 37.8924 33.9281 36.2296 32.0164 33.4531C31.3425 32.4768 30.7649 31.6988 30.7236 31.7293C30.5998 31.8666 31.1362 33.3006 31.5625 33.9871C32.3327 35.2227 34.3682 37.5568 35.2621 38.228L36.1148 38.8535L35.3859 38.7924C34.5057 38.7009 33.9281 38.8687 33.5155 39.2959C33.1991 39.6315 32.9791 39.6315 31.425 39.4332V39.4332ZM44.4354 34.46C45.2743 34.2617 46.0995 33.6972 46.0995 33.3158C46.0995 33.2548 45.1918 33.1938 44.0778 33.1938C41.7398 33.2091 41.0796 33.1175 40.0757 32.7056C39.2367 32.3548 38.6729 31.8666 38.2603 31.1344C38.0815 30.8292 37.8477 30.6004 37.6964 30.6004C37.215 30.6004 37.2976 30.7377 39.0992 33.2396C39.333 33.5599 39.6631 33.926 39.8556 34.0481C40.7358 34.7041 42.675 34.8719 44.4354 34.46ZM45.1368 30.7987C45.1368 30.2801 45.068 29.9597 44.9718 29.9139C44.8755 29.8834 43.9953 29.8224 43.0051 29.7614C40.7496 29.6546 39.6218 29.441 38.6178 28.9986C38.3978 28.8918 38.384 28.9224 38.5216 29.1817C39.168 30.5547 41.7398 31.5768 44.5592 31.6073H45.1368V30.7987V30.7987ZM47.5573 30.9818C47.9562 30.7987 48.52 30.3563 48.8364 30.0055C49.359 29.4258 50.2667 27.9918 50.1704 27.885C50.1429 27.8697 49.4965 28.1901 48.7263 28.602C47.9562 29.0139 46.9935 29.441 46.5809 29.5326L45.8244 29.7004V31.5462L46.3471 31.4395C46.6221 31.3937 47.1722 31.1801 47.5573 30.9818V30.9818ZM45.4394 28.3732C46.2508 28.0986 47.1585 27.6257 48.3275 26.8477C48.9877 26.4053 49.1389 26.2069 49.3177 25.612C49.6615 24.5136 49.6065 23.9644 49.1252 23.5525C47.8737 22.4694 45.0818 18.2895 44.6554 16.8708C44.5179 16.3979 44.3529 16.108 44.2153 16.108C44.0365 16.108 44.009 16.2453 44.0916 16.9928C44.2291 18.2743 45.1918 20.3184 46.4433 21.9813C48.0662 24.1322 48.3 24.5136 48.3 24.9713C48.3 25.8408 48.08 26.0696 46.5259 26.8324C44.9305 27.6104 44.1328 27.824 43.2939 27.7477C42.6062 27.6867 42.3999 27.4884 42.3037 26.7561C42.1936 26.0544 42.0424 25.9018 41.8498 26.3137C41.5472 26.9392 41.6985 27.8392 42.2349 28.5257C42.4274 28.7698 42.5925 28.7851 43.5827 28.7088C44.2016 28.6478 45.0405 28.4952 45.4394 28.3732V28.3732ZM23.1044 23.0949C23.3795 22.7898 23.407 22.7898 23.737 23.0339C23.9296 23.1712 24.2597 23.6441 24.466 24.0865L24.851 24.8797L24.8923 24.1627C25.0023 22.3321 23.2007 20.6541 22.0592 21.5389C21.7291 21.7829 21.2752 22.6372 21.399 22.7745C21.4403 22.8203 21.5641 22.744 21.6878 22.6067C21.8116 22.4694 22.0317 22.3626 22.1967 22.3626C22.4305 22.3626 22.458 22.4237 22.348 22.8661C22.1829 23.6136 22.238 25.2916 22.458 25.7188C22.6368 26.0696 22.6505 26.0086 22.7331 24.7577C22.8018 23.6746 22.8706 23.339 23.1044 23.0949ZM39.8556 20.7456C40.9284 20.1811 41.0109 19.3269 40.1169 18.259C39.7869 17.8624 39.278 16.9928 38.9892 16.3216C38.5353 15.2537 38.4666 15.1622 38.4253 15.5588C38.3565 16.1233 38.7279 17.3895 39.2367 18.259C39.4568 18.6404 39.6356 19.037 39.6356 19.1285C39.6356 19.6167 38.4528 19.7235 36.995 19.3726C36.5549 19.2658 36.3899 19.5404 36.5274 20.1354C36.6924 20.8981 38.8241 21.2795 39.8556 20.7456V20.7456ZM50.6655 19.7387C51.6007 19.1591 51.6007 19.1285 50.638 16.9776C50.1704 15.9097 49.7578 15.0402 49.7166 15.0402C49.524 15.0402 49.8266 16.764 50.1567 17.5573C50.5555 18.5336 50.5005 18.6861 49.7441 18.7167C49.2077 18.7319 48.41 18.8387 48.2037 18.9302C47.9012 19.0523 48.0112 19.5862 48.41 19.9218C48.7126 20.1964 48.8914 20.2422 49.4415 20.1659C49.8128 20.1201 50.363 19.9218 50.6655 19.7387ZM32.8141 14.0791C32.9653 13.7282 33.4054 13.0875 33.7768 12.6604C34.5882 11.7756 35.3859 11.4552 36.4724 11.562C37.05 11.623 37.1738 11.5925 37.2288 11.3637C37.4213 10.7229 36.6237 10.006 35.7572 10.006C34.6295 10.006 33.0066 11.3637 32.4015 12.7977C32.0439 13.6672 32.0026 14.0028 32.2089 14.4452C32.4152 14.8724 32.5252 14.8113 32.8141 14.0791Z" fill="#F1D8B9"/>
<path d="M37.2976 77.037C37.105 77.0065 36.4861 76.8997 35.9223 76.8082C34.657 76.6099 33.1441 76.2132 32.9791 76.0454C32.6903 75.7556 31.4663 70.7672 30.8474 67.3347C30.3935 64.8787 29.7609 60.1343 29.7059 58.8224L29.6646 57.9986L30.2835 57.8765C33.873 57.1596 39.1267 56.8087 41.7673 57.129C42.6062 57.2358 43.3627 57.4036 43.4452 57.4952C43.6102 57.6782 43.8578 61.2937 44.1741 68.4331C44.3254 71.8503 44.5592 75.2979 44.6692 75.9234C44.7517 76.3048 44.7105 76.3353 43.8578 76.5641C42.2074 77.0218 38.7691 77.2659 37.2976 77.037V77.037ZM45.0955 71.3926C45.0405 70.3095 44.9993 68.9823 44.9993 68.4179V67.4263L45.7282 67.2585C46.1133 67.1669 46.4708 67.1212 46.4984 67.1364C46.5946 67.2432 47.3235 71.7435 47.3373 72.2927C47.3373 72.9486 47.076 73.1317 45.8795 73.269L45.1781 73.3453L45.0955 71.3926V71.3926ZM54.4614 64.8176C54.1726 64.7871 53.9388 64.6956 53.9388 64.6041C53.9388 64.5278 53.9663 64.4668 53.9938 64.4668C54.0625 64.4668 55.9192 64.0549 56.4006 63.9176C56.6619 63.8566 56.6894 63.7956 56.5656 63.6583C56.4418 63.521 55.7267 63.4904 54.035 63.521L51.6557 63.5515L51.4219 61.0801C51.2844 59.7072 51.0919 58.2122 50.9818 57.7545L50.7756 56.9155L51.1469 56.5799C51.3532 56.3815 52.2471 55.9544 53.1136 55.6035C53.98 55.2527 54.9977 54.795 55.3553 54.5967C56.373 54.0322 57.3908 54.4441 57.9271 55.6188C58.3122 56.4426 59.1649 60.2258 59.1649 61.0801C59.1649 62.7887 58.326 64.2685 57.1707 64.5888C56.4831 64.7871 55.1215 64.8939 54.4614 64.8176V64.8176ZM56.9369 61.0344C56.8957 60.9886 56.373 60.8513 55.7817 60.714C54.4751 60.4394 52.976 60.5767 52.976 60.9733C52.976 61.0496 53.8837 61.1106 54.9977 61.1106C56.098 61.1106 56.9782 61.0801 56.9369 61.0344V61.0344ZM56.4143 58.9749C56.6481 58.8224 55.5754 58.6088 54.5576 58.5935C53.8425 58.5935 52.976 58.8986 52.976 59.1732C52.976 59.341 56.0842 59.1732 56.4143 58.9749ZM53.6774 57.7545C54.1609 57.455 54.6516 57.1701 55.149 56.9002C55.5479 56.6866 55.8504 56.4731 55.8229 56.4426C55.7954 56.3968 55.3141 56.4731 54.7502 56.5951C53.7737 56.8239 52.2884 57.7087 52.2884 58.0596C52.2884 58.3495 52.9485 58.2122 53.6774 57.7545ZM48.9189 63.4447C48.8776 62.9565 48.6851 61.492 48.4925 60.1953C48.3138 58.8986 48.1625 57.6477 48.1625 57.4189C48.1625 57.007 48.19 56.9917 48.8639 56.9917C49.5515 56.9917 49.5515 56.9917 49.8266 57.6782C50.2254 58.6851 50.4867 60.1801 50.583 62.1175L50.6793 63.7955L49.9504 64.0549C49.5515 64.1922 49.1802 64.3142 49.1252 64.3142C49.0702 64.3142 48.9739 63.9176 48.9189 63.4447ZM44.009 53.178C43.734 52.5525 43.1976 51.2253 42.7988 50.249C42.4137 49.2726 41.8086 48.0065 41.4785 47.442C41.1484 46.8776 40.8734 46.3894 40.8734 46.3436C40.8734 46.1301 41.3272 45.7334 41.4922 45.7945C41.5885 45.8402 41.8911 45.764 42.1799 45.6419C42.9226 45.291 43.3351 45.3368 44.0366 45.8555C44.3804 46.0996 44.793 46.3131 44.9718 46.3131C45.2743 46.3131 45.2743 46.3284 45.2056 48.037C45.0955 50.432 44.8617 52.7203 44.6554 53.5898L44.4767 54.3221L44.009 53.178ZM44.4629 50.493C44.6967 50.1727 44.4629 49.7455 44.0366 49.7455C43.6102 49.7455 43.3764 50.1727 43.6102 50.493C43.7202 50.6303 43.899 50.7371 44.0366 50.7371C44.1741 50.7371 44.3529 50.6303 44.4629 50.493ZM43.954 47.8081C44.1328 47.4878 43.9265 47.0301 43.5965 46.9539C43.3764 46.9081 42.9363 47.3047 42.9363 47.5335C42.9363 47.7624 43.3764 48.159 43.5965 48.1132C43.7065 48.0827 43.8715 47.9454 43.954 47.8081ZM31.2737 41.584C29.8847 41.0349 29.0182 40.3179 29.252 39.906C29.2933 39.8297 29.5271 39.8602 29.7746 39.9822C30.0084 40.089 30.7924 40.2416 31.4938 40.3331C32.1952 40.4094 32.8003 40.5009 32.8278 40.5467C32.8553 40.5772 32.8141 40.8976 32.7315 41.2484C32.5665 41.9959 32.4015 42.0417 31.2737 41.584V41.584ZM28.5369 38.3805C27.9042 37.9686 27.973 37.8618 28.6056 38.2584C29.2383 38.6703 29.2658 38.6856 29.1007 38.6856C29.032 38.6856 28.7707 38.5483 28.5369 38.3805ZM26.6252 35.7718C26.4326 35.3447 26.2951 34.9633 26.3226 34.9328C26.3501 34.9023 26.5427 35.2531 26.749 35.7108C26.9553 36.1685 27.0928 36.5498 27.0515 36.5498C27.0103 36.5498 26.8315 36.199 26.6252 35.7718ZM25.0573 29.9749C25.0573 29.8528 25.2361 29.624 25.4424 29.4714L25.8138 29.1816L25.4699 29.624C25.2774 29.8681 25.1124 30.0969 25.0986 30.1274C25.0711 30.1579 25.0573 30.0969 25.0573 29.9749ZM20.1475 23.6592C20.1475 23.3236 20.175 23.2016 20.2025 23.3999C20.23 23.5829 20.23 23.8575 20.2025 24.0101C20.1613 24.1474 20.1337 23.9948 20.1475 23.6592ZM21.069 21.0658C21.3303 20.776 21.5641 20.5319 21.6053 20.5319C21.6466 20.5319 21.4678 20.776 21.2065 21.0658C20.9452 21.3557 20.7114 21.5998 20.6701 21.5998C20.6289 21.5998 20.8076 21.3557 21.069 21.0658ZM24.5485 20.9438C24.4935 20.837 24.2872 20.6234 24.0946 20.4861C23.9158 20.3489 23.8058 20.2268 23.8608 20.2268C24.0534 20.2268 24.6172 20.6997 24.6998 20.9286C24.796 21.2031 24.6998 21.2031 24.5485 20.9438ZM22.8293 20.12C22.9944 20.0895 23.2419 20.0895 23.3795 20.12C23.5032 20.1658 23.3657 20.1963 23.0631 20.181C22.7606 20.181 22.6506 20.1505 22.8293 20.12ZM21.1377 17.9996C21.0002 16.6571 21.1377 14.857 21.4265 13.8959C21.8804 12.4467 23.6408 11.0127 25.5937 10.5245C26.1438 10.3872 26.6114 10.311 26.6389 10.3415C26.6802 10.372 26.7215 10.555 26.7352 10.7534C26.7765 11.0585 26.6802 11.1347 25.7725 11.3941C24.4247 11.7755 23.517 12.3399 22.7193 13.3162C21.7841 14.4604 21.4403 15.4977 21.4128 17.3588C21.399 18.1826 21.3578 18.8844 21.3165 18.9454C21.2615 18.9911 21.1927 18.564 21.1377 17.9996ZM32.5803 12.0653C32.7453 11.8212 33.0754 11.4093 33.3229 11.15C33.6668 10.8144 33.6255 10.8907 33.1854 11.4551C32.374 12.4772 32.2502 12.5992 32.5803 12.0653ZM23.407 9.77703C23.407 9.5482 24.0809 8.57187 24.741 7.82437C26.0201 6.39038 27.863 5.13946 29.9947 4.30043C30.6961 4.01058 31.0537 3.9343 31.1637 4.05634C31.3975 4.31568 31.1087 4.54451 29.3758 5.47507C27.9455 6.23783 26.7627 7.1684 25.745 8.32779C25.2499 8.89223 24.7273 9.39565 24.576 9.44141C24.4247 9.48718 24.0946 9.59397 23.8608 9.67024C23.6133 9.76177 23.407 9.80754 23.407 9.77703V9.77703ZM49.1252 9.09055C49.0427 8.92274 49.0289 8.78544 49.0839 8.78544C49.1527 8.78544 49.2765 8.92274 49.3727 9.09055C49.469 9.25835 49.4828 9.39565 49.4002 9.39565C49.3315 9.39565 49.2077 9.25835 49.1252 9.09055ZM29.252 7.41248C29.7746 6.83278 30.2422 6.34462 30.2697 6.34462C30.311 6.34462 29.9122 6.83278 29.3896 7.41248C28.8669 8.00743 28.3993 8.48034 28.3718 8.48034C28.3306 8.48034 28.7294 8.00743 29.252 7.41248ZM30.476 6.22258C30.5861 6.02426 31.3837 5.36829 31.3837 5.47507C31.3837 5.52084 31.1499 5.73441 30.8749 5.97849C30.5998 6.20732 30.421 6.32936 30.476 6.22258ZM44.3116 4.28517C44.1191 4.16313 44.0366 4.0716 44.1053 4.0716C44.1878 4.0716 44.3941 4.16313 44.5867 4.28517C44.7792 4.40721 44.8755 4.49874 44.793 4.49874C44.7242 4.49874 44.5042 4.40721 44.3116 4.28517ZM33.5842 3.98007C33.5842 3.87328 34.6982 3.26308 34.767 3.3241C34.7945 3.36986 34.5332 3.53767 34.2031 3.72073C33.8593 3.90379 33.5842 4.02583 33.5842 3.98007ZM37.8202 2.57659C37.9852 2.54608 38.2603 2.54608 38.4391 2.57659C38.6041 2.6071 38.4666 2.63761 38.1227 2.63761C37.7789 2.63761 37.6414 2.6071 37.8202 2.57659Z" fill="#F6F5F5"/>
</svg>
