<svg width="71" height="79" viewBox="0 0 71 79" fill="none" xmlns="http://www.w3.org/2000/svg">
<path d="M36.0431 65.4566C35.5876 65.3425 35.1448 65.1845 34.7003 65.0386L34.3653 64.9257C33.9316 64.7783 33.5003 64.6227 33.0714 64.4589L32.8937 64.3875C32.5112 64.2377 32.1308 64.0812 31.7527 63.9183L31.4326 63.7785C31.0189 63.5973 30.6074 63.4081 30.2014 63.2104L29.9555 63.0896C29.6073 62.9151 29.2609 62.7363 28.9163 62.5532L28.6159 62.3934C28.3458 62.2475 28.0785 62.0925 27.8122 61.94C27.634 61.8356 27.4524 61.7374 27.2758 61.6288C26.9516 61.4353 26.6305 61.2355 26.3126 61.0296L25.9875 60.8282C25.5651 60.5518 25.147 60.2676 24.7332 59.9757L24.3949 59.7256C24.0939 59.5117 23.7963 59.2922 23.502 59.0671L23.2143 58.8432C22.9309 58.6208 22.6496 58.3952 22.3704 58.1665L21.9969 57.8528C21.7405 57.6364 21.4867 57.4163 21.2355 57.1926L20.8961 56.8905C20.5764 56.5996 20.2603 56.3041 19.9477 56.0039L19.8442 55.9069C19.5074 55.5775 19.1751 55.2424 18.8474 54.9019L18.5669 54.6023C18.3243 54.346 18.0855 54.0879 17.8506 53.823L17.57 53.5124C17.2719 53.1739 16.9786 52.8301 16.6904 52.4812L16.6475 52.4299C16.3439 52.061 16.0466 51.6859 15.7557 51.3047L15.5225 50.9972C15.3049 50.7071 15.0908 50.4138 14.8805 50.1172L14.6456 49.7926C14.3939 49.4317 14.1469 49.0667 13.9046 48.6979C7.22059 38.5843 4.81876 24.6362 10.1615 13.1815L5.42444 19.8455C-0.642856 29.5179 0.112462 42.1034 4.74724 52.3817C4.85727 52.6282 4.97334 52.8705 5.08667 53.1127L5.30397 53.5759L5.43875 53.8426L5.68025 54.3222C5.82438 54.6035 5.97182 54.8836 6.1231 55.1636L6.37505 55.625C6.54229 55.9246 6.71338 56.2205 6.88887 56.5159L7.10782 56.8905C7.34877 57.2902 7.59633 57.6893 7.85158 58.081L7.87304 58.1116L7.99847 58.2995C8.21851 58.6369 8.44626 58.9701 8.67622 59.2996L8.93092 59.6597C9.13612 59.9458 9.34461 60.2302 9.55751 60.5133L9.79681 60.8306C10.0823 61.2043 10.3732 61.5729 10.6693 61.9363L10.6869 61.9565L10.721 61.998C11.0119 62.3484 11.3076 62.6941 11.6078 63.0347L11.8922 63.3526C12.1249 63.6126 12.3615 63.8682 12.6002 64.1227L12.8896 64.4278C13.2087 64.7616 13.531 65.0887 13.86 65.4084L13.8754 65.4218L14.0443 65.5817C14.3337 65.86 14.6285 66.1364 14.9262 66.4073L15.2914 66.7301C15.534 66.9461 15.7794 67.1585 16.0264 67.3672L16.4192 67.6985C16.6915 67.9212 16.9666 68.1403 17.2438 68.3545L17.5442 68.5906L17.6267 68.6559C17.8897 68.8567 18.1587 69.0501 18.4277 69.2436L18.7743 69.4998C19.1863 69.7891 19.6049 70.0753 20.0274 70.3517L20.374 70.5683C20.6854 70.7679 20.9992 70.963 21.3153 71.1535C21.4869 71.256 21.663 71.353 21.8357 71.4513C22.0596 71.5813 22.2818 71.7131 22.5096 71.8394L22.6653 71.923L22.9409 72.0706C23.2935 72.2574 23.6489 72.441 24.0081 72.618L24.2337 72.7303C24.6455 72.9301 25.0605 73.1215 25.4786 73.3045L25.7817 73.4369C26.169 73.6023 26.5618 73.7658 26.9562 73.9196L27.1037 73.9763C27.5361 74.1441 27.9734 74.2997 28.4135 74.4517L28.7298 74.5566C29.1776 74.7061 29.6199 74.8849 30.082 74.9795C59.425 80.915 67.9486 55.4205 67.9486 55.4205C60.7893 65.766 48.0826 68.4948 36.0431 65.4566V65.4566ZM25.4731 39.0768C26.1305 40.1221 26.8594 41.3657 27.7314 42.2053C28.0504 42.5929 28.3788 42.971 28.7161 43.3391L28.9757 43.6228C29.3035 43.977 29.6388 44.3224 29.9814 44.6589L30.0221 44.698L30.032 44.709C30.4153 45.0792 30.8069 45.4388 31.2065 45.7872L31.4727 46.0179C31.8745 46.3612 32.2841 46.693 32.7012 47.0131L32.7369 47.043C32.9218 47.1846 33.1104 47.3164 33.298 47.4531L33.5632 47.6477C33.8625 47.8607 34.1661 48.0682 34.4742 48.2671L34.6029 48.3501C34.8686 48.5197 35.1382 48.6869 35.4078 48.8492L35.6944 49.0146C35.8809 49.1226 36.0674 49.2331 36.2577 49.338L36.343 49.3807C36.7292 49.5919 37.1192 49.7957 37.518 49.9879L37.7777 50.1063C38.0961 50.2574 38.4171 50.4018 38.7404 50.5395L39.153 50.7073C39.4462 50.8281 39.7405 50.938 40.0376 51.0484L40.4375 51.1906C40.8595 51.3358 41.2765 51.5195 41.716 51.6007C64.3717 55.7641 69.6017 36.4151 69.6017 36.4151C64.8872 43.9468 55.7562 47.541 46.013 44.7352C45.5823 44.6096 45.1543 44.4725 44.7296 44.3239L44.3445 44.1854C44.0433 44.0773 43.744 43.963 43.4467 43.8425L43.0418 43.6753C42.7177 43.5372 42.3956 43.3932 42.0758 43.2433L41.8156 43.1212C41.4172 42.9289 41.0232 42.7256 40.6339 42.5116C40.4337 42.4036 40.2373 42.2895 40.0409 42.1772L39.6987 41.982C39.4463 41.8302 39.1963 41.6736 38.9489 41.5121L38.7696 41.3992C38.4633 41.201 38.1606 40.9959 37.8619 40.7841L37.5879 40.5816C37.3906 40.4399 37.1946 40.2961 36.9998 40.1501C36.5846 39.8298 36.1763 39.4985 35.7752 39.1567L35.4996 38.9157C31.2351 35.1812 27.8546 30.0762 26.2471 24.2884C24.5626 18.2864 24.9263 11.5485 27.8441 6.07987L24.259 11.6938C19.8707 18.6977 20.1094 28.0741 23.5323 35.4814C24.1047 36.7275 24.7532 37.9287 25.4731 39.0768V39.0768ZM49.3523 30.4125C49.5387 30.4887 49.7252 30.5571 49.9145 30.6285L50.1626 30.7157C50.4288 30.8085 50.694 30.9165 50.9696 30.9745C63.4788 33.6557 66.8725 23.854 67.7753 22.4108C64.803 27.1576 59.8084 28.2969 53.6795 26.6469C53.1954 26.5169 52.6629 26.3229 52.1964 26.1392C51.5971 25.903 51.0093 25.6323 50.4354 25.3282C49.3465 24.7469 48.3124 24.047 47.3482 23.2389C41.864 18.6227 38.4571 9.818 42.0356 2.64746L40.0992 5.60757C37.5125 9.8302 37.2584 15.0743 39.0534 19.7375C40.9464 24.6875 44.8253 28.5702 49.3523 30.4125V30.4125Z" fill="#0868AC"/>
</svg>
