<svg width="72" height="79" viewBox="0 0 72 79" fill="none" xmlns="http://www.w3.org/2000/svg">
<path d="M4.49579 41.3917C4.49579 43.7777 4.2961 44.5544 3.78283 45.1262C3.21291 45.6205 2.47189 45.892 1.70227 45.892L1.90251 47.2552C3.09298 47.2693 4.24879 46.8665 5.15154 46.1227C5.6373 45.5552 5.99818 44.9023 6.21327 44.1993C6.42709 43.5033 6.49243 42.7618 6.40417 42.0331V33.0051H4.49579V41.3917ZM18.7346 40.3166C18.7346 41.3393 18.7346 42.2521 18.8188 43.0436H17.1233L17.0094 41.4204C16.6546 41.994 16.1474 42.4688 15.5395 42.7934C14.9182 43.1232 14.2362 43.2879 13.5475 43.2742C11.8949 43.2742 9.92825 42.4163 9.92825 38.9125V33.0893H11.8388V38.5433C11.8388 40.438 12.4511 41.706 14.1746 41.706C14.5272 41.7111 14.8778 41.6475 15.2105 41.5181C15.5314 41.3939 15.8287 41.2048 16.0874 40.9603C16.332 40.7287 16.5302 40.4429 16.6694 40.1213C16.8037 39.8122 16.8714 39.4728 16.8675 39.1297V33.0203H18.7753V40.2616L18.7346 40.3166ZM22.3539 36.3337C22.3539 35.0651 22.3539 34.0284 22.2675 33.0893H23.9784L24.062 34.7936C24.4443 34.1761 24.9922 33.6708 25.6502 33.3303C26.3211 32.9861 27.056 32.8234 27.7946 32.8556C30.3323 32.8556 32.2407 34.8888 32.2407 37.9142C32.2407 41.4869 29.9477 43.2602 27.4678 43.2602C26.8389 43.2884 26.2123 43.1589 25.6348 42.8813C25.0698 42.6067 24.5863 42.1972 24.2336 41.6914V47.1454H22.3539V36.3337ZM24.2336 38.9912C24.238 39.2389 24.2683 39.4867 24.32 39.7277C24.4812 40.333 24.8481 40.8694 25.3641 41.2532C25.8801 41.6371 26.5161 41.8421 27.1691 41.8421C29.1787 41.8421 30.3603 40.2739 30.3603 37.9978C30.3603 36.0067 29.2491 34.3024 27.24 34.3024C26.4451 34.3646 25.7014 34.7008 25.1474 35.2512C24.5951 35.8017 24.2683 36.5241 24.2342 37.2869L24.2336 38.9912ZM35.6426 33.0795L37.9377 38.9558C38.1815 39.6239 38.4043 40.3013 38.6056 40.9866C38.8058 40.388 39.0182 39.6228 39.2767 38.9149L41.3562 33.0795H43.3658L40.5161 40.1689C39.0913 43.5775 38.221 45.3361 36.9101 46.3991C36.2505 46.9788 35.4446 47.3815 34.5743 47.5719L34.1039 46.0464C34.7018 45.86 35.2659 45.5601 35.7713 45.1598C36.4656 44.6167 37.0179 43.9253 37.381 43.1412C37.4576 43.0081 37.5108 42.86 37.5378 42.7049C37.5203 42.5389 37.4768 42.3776 37.4091 42.2283L33.5345 33.0508H35.614L35.6426 33.0795ZM48.433 30.2195V33.082H51.1682V34.4458H48.433V39.818C48.433 41.0458 48.8043 41.7536 49.8578 41.7536C50.231 41.7591 50.6037 41.7176 50.9685 41.6297L51.0543 42.9954C50.5043 43.1756 49.932 43.2578 49.3588 43.2388C48.9796 43.2622 48.5999 43.2064 48.2393 43.0741C47.8908 42.9478 47.5691 42.7444 47.2937 42.4761C46.7138 41.7322 46.4492 40.8078 46.5526 39.8852V34.4311H44.9281V33.0679H46.5801V30.6411L48.433 30.2195ZM54.6862 38.381C54.6477 38.8435 54.7137 39.3085 54.8815 39.7418C55.0562 40.1886 55.321 40.585 55.6555 40.9005C55.9993 41.2294 56.4119 41.4821 56.8674 41.6419C57.3207 41.8036 57.8081 41.8659 58.29 41.8299C59.2607 41.8531 60.2268 41.6771 61.1397 41.3106L61.4681 42.6738C60.3482 43.1126 59.1655 43.321 57.9781 43.2889C57.2795 43.334 56.5814 43.234 55.9284 42.9978C55.2904 42.7693 54.7005 42.4005 54.1938 41.9135C53.7042 41.4369 53.3257 40.8645 53.0892 40.2354C52.8539 39.6156 52.7609 38.9407 52.8185 38.2712C52.8185 35.2702 54.6862 32.8989 57.7355 32.8989C61.1545 32.8989 62.01 35.7614 62.01 37.5896C62.0265 37.8709 62.0265 38.1522 62.01 38.4335H54.6427L54.6862 38.381ZM60.271 37.0178C60.3266 36.652 60.2994 36.2767 60.1918 35.9255C60.0787 35.5638 59.8917 35.2359 59.6455 34.9675C59.3859 34.6811 59.0757 34.4572 58.7345 34.3097C58.3803 34.1538 58.0028 34.0731 57.6216 34.0717C56.8394 34.1266 56.1044 34.4574 55.5647 35.0035C55.0234 35.5466 54.7159 36.2642 54.7011 37.0172L60.271 37.0178ZM64.9058 36.1788C64.9058 35.0084 64.9058 33.9973 64.8205 33.0704H66.5314V35.02H66.6167C66.7955 34.4195 67.1668 33.885 67.6762 33.4945C68.1878 33.1039 68.8133 32.8751 69.4663 32.8391C69.6446 32.8177 69.8272 32.8177 70.0077 32.8391V34.5434C69.7898 34.5196 69.5703 34.5196 69.3525 34.5434C68.7055 34.5672 68.0888 34.8149 67.6207 35.2415C67.1498 35.6686 66.8599 36.2453 66.8015 36.8604C66.7482 37.1411 66.7201 37.423 66.7157 37.7061V43.01H64.8354V36.1928L64.9058 36.1788Z" fill="#4E4E4E"/>
<path d="M61.2233 4.73604C61.2581 5.65332 61.0496 6.56178 60.6237 7.34894C60.1989 8.13221 59.5744 8.75838 58.8292 9.14844C58.0851 9.53586 57.2537 9.66762 56.4416 9.52677C55.6282 9.38616 54.8711 8.97974 54.267 8.35944C53.6603 7.73538 53.2332 6.92662 53.039 6.03448C52.8449 5.14234 52.8924 4.20649 53.1756 3.34416C53.4556 2.48351 53.9588 1.7339 54.6218 1.18952C55.2834 0.647778 56.0756 0.33736 56.8971 0.298009C57.4422 0.272532 57.9864 0.367044 58.4983 0.576091C59.0103 0.785138 59.4798 1.10458 59.8799 1.51598C60.6921 2.35027 61.1742 3.5068 61.2211 4.7336L61.2233 4.73604Z" fill="#767677"/>
<path d="M37.0135 59.355C25.9572 59.355 16.302 54.8615 11.2865 48.2084C13.1463 54.1653 16.6255 59.336 21.2448 63.0084C25.8449 66.664 31.3613 68.6304 37.0201 68.6314C42.6786 68.6291 48.1946 66.6629 52.7949 63.0084C57.4135 59.3363 60.8913 54.1653 62.7488 48.2084C57.7245 54.8615 48.0693 59.355 37.0135 59.355ZM37.0091 16.0871C48.0655 16.0871 57.7223 20.5825 62.7361 27.2326C60.8763 21.2759 57.3971 16.1054 52.7778 12.4332C48.1784 8.77765 42.663 6.81034 37.0047 6.80713C31.3465 6.81034 25.831 8.77765 21.2316 12.4332C16.6117 16.1044 13.1327 21.2753 11.2744 27.2326C16.2981 20.5947 25.9528 16.0871 37.0091 16.0871Z" fill="#F37726"/>
<path d="M21.8335 72.2878C21.8789 73.4442 21.6166 74.59 21.0793 75.5823C20.5454 76.5698 19.7585 77.3585 18.819 77.848C17.8794 78.3375 16.8297 78.5055 15.8036 78.3307C14.7777 78.1549 13.8231 77.6408 13.064 76.8552C12.3018 76.0682 11.7645 75.0505 11.5187 73.928C11.2761 72.8013 11.336 71.6205 11.6909 70.531C12.0469 69.4452 12.6838 68.5 13.5217 67.8138C14.4977 67.0182 15.6932 66.6249 16.9024 66.7015C18.1116 66.7782 19.2589 67.3199 20.1468 68.2336C21.1686 69.2868 21.7747 70.7445 21.8335 72.2902V72.2878Z" fill="#9E9E9E"/>
<path d="M12.548 14.5831C11.9403 14.6124 11.3386 14.4389 10.8206 14.0851C10.2991 13.7306 9.88404 13.2126 9.62772 12.5966C9.3714 11.9806 9.28533 11.2942 9.38039 10.624C9.47167 9.95211 9.74111 9.3255 10.1544 8.82393C10.564 8.32459 11.098 7.97123 11.6887 7.80855C12.279 7.64499 12.9002 7.68414 13.47 7.92083C14.0419 8.15451 14.5374 8.57304 14.8926 9.12232C15.3121 9.76505 15.5193 10.5484 15.4793 11.3406C15.4393 12.1329 15.1546 12.8857 14.6731 13.4725C14.4022 13.8042 14.0747 14.0731 13.7096 14.2637C13.3444 14.4543 12.9489 14.5628 12.5458 14.5831H12.548Z" fill="#616262"/>
</svg>
