<svg width="71" height="79" viewBox="0 0 71 79" fill="none" xmlns="http://www.w3.org/2000/svg">
<path fill-rule="evenodd" clip-rule="evenodd" d="M67.106 19.2557C64.2839 17.7033 61.596 16.1247 58.7425 14.637C53.1835 11.7398 47.855 8.45197 42.2652 5.61756C40.4509 4.69798 38.7263 3.63439 36.9543 2.61351C36.3619 2.27241 35.8392 2.27058 35.2385 2.61107C32.9307 3.91874 30.5944 5.14709 28.2613 6.39618C22.7298 9.35812 16.9381 12.5483 11.3808 15.4596C8.96467 16.7251 6.6283 18.0761 3.87769 19.3625V59.9326C4.42781 59.9589 4.44706 59.9589 4.51748 59.9973C6.27127 60.956 8.21485 61.8944 9.95269 62.8866C11.7263 63.8996 13.6281 64.8204 15.427 65.7723C21.0085 68.7239 26.5587 71.8555 32.0962 74.9101C33.1667 75.5008 34.2928 76.0213 35.3447 76.6505C35.8783 76.969 36.2958 76.9403 36.8383 76.6535C38.4925 75.7791 40.1588 74.9101 41.8031 74.0199C48.1834 70.5643 54.2601 66.9653 60.6773 63.5908C62.9119 62.415 64.9413 61.1396 67.1417 59.8722V19.3204C67.1417 19.2935 67.1759 19.2941 67.106 19.2557V19.2557ZM59.0984 56.751C57.7699 58.2906 56.2136 59.4548 54.5043 60.3878C54.0769 60.6209 53.6379 60.8974 53.1791 60.9773C52.4744 61.0993 52.2285 61.7169 51.9006 62.2294C51.3389 63.1075 49.9878 63.9966 49.0504 64.01C48.7919 64.0143 48.5322 63.9911 48.2753 64.0143C47.2609 64.1046 46.3389 63.827 45.4295 63.3199C44.1829 62.6249 42.8302 62.5095 41.4411 62.551C40.7106 62.5736 40.0719 62.7603 39.459 63.1509C38.6454 63.6708 38.2075 64.8582 38.383 65.8364C38.4259 66.0762 38.2163 66.3709 38.076 66.7743C37.774 66.4917 37.4445 66.3337 37.4307 66.1476C37.3389 64.9015 37.2718 63.6067 38.0656 62.5864C39.1532 61.1878 40.5675 60.419 42.2394 60.2859C42.6679 60.2524 43.1014 60.2933 43.5321 60.2786C44.5746 60.242 45.5604 60.4574 46.5749 60.7692C47.4155 61.0273 48.4068 61.0817 49.254 60.48C49.5516 59.2413 48.9613 58.3443 48.146 57.7621C47.2856 57.1477 46.4203 56.4984 45.3591 56.2275C44.601 56.0346 43.9326 55.4421 43.1889 55.1334C42.4435 54.8234 41.6975 54.4884 40.9526 54.1875C40.2413 53.9001 39.4315 53.9117 38.7956 53.3961C37.6145 53.4577 36.4686 52.8725 35.2842 53.1166C33.7394 53.4352 32.1798 53.7152 30.7138 54.3755C29.6075 54.8734 28.4874 55.3353 27.4262 55.962C26.798 56.333 26.0806 56.513 25.4331 56.8505C24.9259 57.1147 24.4308 57.4418 23.9902 57.825C23.2321 58.4858 22.7254 59.3084 22.9636 60.4751C23.8988 60.9572 24.8401 61.0212 25.8402 60.6484C26.9229 60.2444 28.066 60.3299 29.1927 60.2542C30.6208 60.1584 31.8707 60.6539 33.0204 61.449C34.1124 62.2044 34.8628 63.2888 34.8215 64.8387C34.8127 65.1731 34.8661 65.5185 34.8067 65.8394C34.7538 66.1226 34.5833 66.3789 34.404 66.7828C34.0458 66.3691 33.4671 66.2708 33.9947 65.6429C33.6569 64.9534 33.8544 64.0021 33.1766 63.4877C32.577 63.0325 31.9906 62.5242 31.1913 62.5706C30.7187 62.598 30.2401 62.6163 29.7703 62.5675C28.6596 62.4528 27.6611 62.8689 26.7204 63.4078C25.421 64.1528 24.0457 63.9887 22.6776 64.01C21.9063 63.528 20.9843 63.3059 20.4056 62.4924C20.1123 62.0806 19.9847 61.3428 19.6365 61.2037C19.1815 61.0219 18.7651 60.6746 18.3156 60.5953C17.1791 60.3952 16.382 59.5104 15.4396 58.9447C14.6469 58.4687 14.012 57.6535 13.3376 56.9524C12.5988 56.1854 12.217 55.2218 12.0465 54.1033C11.7934 52.4448 12.3754 50.9046 13.1781 49.9661C14.2343 48.7317 15.5502 48.094 16.9695 47.5137C16.6224 46.751 16.355 45.8954 15.8863 45.209C15.4374 44.5518 15.3928 43.7786 15.2113 43.0781C15.0056 42.283 15.0237 41.3342 15.2036 40.5226C15.3802 39.7299 15.8208 38.9757 16.2626 38.2984C16.6614 37.687 17.2022 37.1805 17.716 36.6734C17.8805 36.5111 18.16 36.4928 18.3696 36.4147C18.6523 36.8522 18.5643 37.1512 18.2859 37.4654C17.9966 37.7937 17.7556 38.1745 17.491 38.5303C16.7423 39.5371 16.9783 40.7392 16.9898 41.8772C16.997 42.6089 17.3898 43.2191 17.7677 43.8073C18.4928 44.9356 19.2338 45.998 20.4694 46.5575C21.1312 46.8571 21.7539 47.1128 22.4707 47.0878C23.1105 47.0652 23.7514 47.0829 24.7064 47.0829C24.1458 46.8053 23.8631 46.6692 23.5831 46.5246C21.6186 45.511 20.5959 43.7884 20.5943 41.4953C20.5937 40.6825 20.6674 39.8593 20.5722 39.0605C20.4897 38.3692 20.8506 37.8188 20.8682 37.1689C20.8842 36.5849 20.6267 35.932 21.1119 35.4231C20.9799 34.3125 21.3578 33.1726 20.9128 32.0731C20.6779 31.4934 20.8732 30.8471 20.6394 30.1924C20.1888 28.9311 19.8653 27.704 18.3932 27.5502C18.2353 27.5343 18.1011 27.2469 17.9625 27.0932C18.2188 26.4762 18.4812 26.3524 19.0649 26.5568C20.5563 27.0791 21.4486 28.1964 22.1659 29.6694C22.9361 31.2517 23.1952 32.9377 23.4785 34.6719C23.7635 36.4134 23.604 38.1385 23.7101 39.8654C23.7459 40.4408 23.8867 41.0187 24.0452 41.5721C24.1992 42.1091 24.5628 42.4289 25.0601 42.4826C25.7825 42.5631 25.8826 42.507 26.9828 41.7711V40.3151C25.8826 40.0179 26.3991 39.2735 25.6317 39.3009C25.3407 39.3113 25.2136 38.8317 25.2246 38.3991C25.256 37.1573 25.3215 35.9064 25.223 34.6731C25.1168 33.3417 25.3946 32.0511 25.5734 30.7861C25.7307 29.6682 25.8485 28.4918 26.2589 27.3909C26.639 26.3707 26.7127 25.2107 27.0813 24.1831C27.7601 22.2914 28.5237 20.4425 29.4743 18.6802C30.0173 17.6746 30.7446 16.8112 31.2023 15.7519C31.2369 15.6719 31.2815 15.5932 31.3343 15.5261C32.0027 14.6852 32.6364 13.8041 33.3538 13.0188C34.2186 12.0723 35.156 11.2077 36.0983 10.2716C37.0836 11.2424 38.1101 12.0833 38.9485 13.1121C41.2238 15.9062 43.223 18.9451 44.5092 22.4495C45.1082 24.0812 45.6782 25.7446 45.9807 27.5191C46.2536 29.1203 46.5369 30.7117 46.7762 32.322C47.0865 34.4053 46.8362 36.4629 46.9853 38.5223C47.015 38.9306 46.4847 39.3199 46.2888 39.3028C45.5175 39.2363 45.1369 40.0088 44.5867 40.3145V41.7851C45.1369 42.3355 45.8938 42.5326 46.5655 42.5088C47.3753 42.4801 47.9304 41.9968 48.1515 41.0675C48.393 40.0491 48.5163 39.0355 48.437 38.0256C48.3215 36.5562 48.6142 35.1223 48.7941 33.7041C49.0042 32.0474 49.5318 30.4304 50.3207 28.9616C50.8466 27.9822 52.4227 26.6422 53.3452 26.4396C53.7507 26.3505 54.0967 26.5049 54.2458 27.1267C54.0917 27.2591 53.919 27.5374 53.7215 27.5587C52.4183 27.6997 52.0315 28.8255 51.6448 29.9141C51.4352 30.503 51.4842 31.2084 51.3257 31.7814C51.0545 32.7644 51.1343 33.723 51.131 34.6902C51.1293 35.2718 51.2801 35.8551 51.3763 36.4348C51.4649 36.9687 51.164 37.5582 51.609 38.058C51.7174 38.18 51.6316 38.5162 51.6321 38.7542C51.6327 39.6622 51.6156 40.5714 51.6355 41.4782C51.6866 43.7536 50.2634 46.2811 47.7791 46.9712C49.3233 47.1165 50.8257 47.2544 52.2818 46.2646C53.7001 45.2999 54.4581 43.8201 55.2531 42.3288C55.2723 40.6135 55.4841 38.8329 54.0466 37.582C53.7353 37.3105 53.6456 36.9999 53.7474 36.4421C54.0147 36.4842 54.2969 36.4324 54.4042 36.5605C55.1953 37.5057 56.2411 38.2215 56.6174 39.5517C56.7241 39.9282 57.0509 40.2822 57.0365 40.6355C57.0008 41.5624 57.1741 42.4789 56.9194 43.4327C56.7246 44.1625 56.5183 44.8795 56.2262 45.5568C55.9495 46.1981 55.5815 46.7906 55.2332 47.4417C55.7207 47.7053 56.1866 48.0483 56.6993 48.2161C57.7919 48.5743 58.5411 49.4139 59.2948 50.2743C60.0446 51.1304 60.137 52.2788 60.4253 53.3406C60.0243 54.4957 59.9346 55.7814 59.0984 56.751V56.751ZM18.8597 51.9554C18.4323 51.9975 17.9971 51.9347 17.5686 51.9682C16.8738 52.0225 16.2279 52.3008 15.6591 52.7237C15.0853 53.1502 15.043 53.5456 15.3142 54.2827C15.5832 55.015 15.9848 55.6221 16.4947 56.1829C17.4041 57.183 18.3514 58.1142 19.4682 58.808C19.8659 56.3568 21.1026 54.5799 22.9862 53.2741C22.6572 53.0947 22.3987 52.9726 22.1571 52.8188C21.1339 52.1696 20.0496 51.8376 18.8597 51.9554V51.9554ZM56.668 52.814C56.3511 52.5022 55.1359 51.9743 54.6606 51.9646C54.0582 51.9524 53.4514 52.0073 52.8529 51.9511C51.9523 51.8669 51.175 52.2581 50.3889 52.6309C50.0225 52.8042 49.6776 53.0312 49.2468 53.2771C51.1266 54.5805 52.3638 56.3574 52.7687 58.8587C53.2638 58.4651 53.7782 58.1234 54.2199 57.6901C55.0206 56.9108 55.7921 56.0955 56.5326 55.2462C56.7681 54.9753 56.866 54.5476 56.9986 54.1784C57.1873 53.6542 57.0679 53.2082 56.668 52.814ZM32.1881 39.0532C31.6027 39.0709 31.43 39.3437 31.4592 40.204C31.4812 40.8594 31.7342 41.1102 32.3245 41.0614C32.8042 41.0217 33.3208 40.4317 33.2691 39.9819C33.2168 39.5157 32.6601 39.0379 32.1881 39.0532V39.0532ZM40.0642 39.0532C39.5102 39.0245 38.9309 39.5719 38.959 40.0973C38.9843 40.5714 39.5196 41.0632 40.0081 41.0614C40.5763 41.0589 40.7634 40.8198 40.7694 40.0887C40.776 39.3254 40.6099 39.0813 40.0642 39.0532Z" fill="#0081C2"/>
</svg>
