<svg width="71" height="79" viewBox="0 0 71 79" fill="none" xmlns="http://www.w3.org/2000/svg">
<path d="M31.3467 33.7222C31.5503 33.8869 31.7978 33.9846 32.0674 33.9846C32.7275 33.9846 33.2666 33.4049 33.2941 32.6848L33.3216 32.6665L33.7342 24.5752C33.2391 24.6423 32.744 24.7338 32.2489 24.8559C29.5368 25.5393 27.1878 27.0221 25.3504 29.0236L31.3302 33.7283L31.3467 33.7222V33.7222ZM30.549 45.5785C30.4793 45.2359 30.2923 44.9369 30.0274 44.7444C29.7626 44.552 29.4407 44.4813 29.1297 44.5472L29.1187 44.5289L21.9396 45.8775C23.0168 49.186 25.0495 52.007 27.7214 53.9017L30.505 46.445L30.483 46.4145C30.5765 46.1582 30.6095 45.8714 30.549 45.5785ZM28.1615 39.8365C28.4036 39.7632 28.6291 39.6046 28.7996 39.3727C29.2122 38.7991 29.1407 37.9753 28.6456 37.4994L28.6511 37.4689L23.1884 32.0502C21.5226 35.0589 20.8066 38.5967 21.1529 42.1064L28.156 39.867L28.1615 39.8365V39.8365ZM33.4647 42.2163L35.4781 43.2902L37.4916 42.2224L37.9867 39.812L36.5949 37.8838H34.3614L32.9641 39.812L33.4647 42.2163ZM37.6456 32.6543C37.6566 32.935 37.7446 33.2096 37.9152 33.4415C38.3278 34.0151 39.0704 34.1188 39.5985 33.6917L39.6205 33.7039L45.5619 29.0297C43.3174 26.595 40.3907 25.0023 37.2275 24.5752L37.6401 32.6543H37.6456V32.6543ZM41.8155 44.5106C41.722 44.4923 41.6285 44.4801 41.535 44.4862C41.3754 44.4923 41.2159 44.5411 41.0674 44.6205C40.7825 44.7728 40.5617 45.0413 40.451 45.3699C40.3403 45.6984 40.3483 46.0617 40.4732 46.384L40.4622 46.3962L43.2734 53.9261C45.9855 52.0101 48.0099 49.1482 49.0716 45.847L41.832 44.4862L41.8155 44.5106V44.5106ZM36.5564 48.5014C36.4471 48.279 36.2843 48.0945 36.0862 47.9685C35.8881 47.8424 35.6624 47.7798 35.4341 47.7874C35.0105 47.8057 34.6089 48.0681 34.3944 48.5075H34.3889L30.8571 55.5859C33.3859 56.5395 36.104 56.6938 38.7073 56.0313C39.1915 55.9093 39.6646 55.7628 40.1212 55.592L36.5839 48.4953H36.5564V48.5014Z" fill="#486BB3"/>
<path d="M68.7881 46.9575L63.0448 19.2969C62.895 18.5794 62.6009 17.9087 62.1846 17.335C61.7684 16.7612 61.2406 16.2992 60.6408 15.9834L37.4036 3.66947C36.7315 3.31491 35.9904 3.15134 35.2471 3.19351C34.6559 3.22574 34.0763 3.3875 33.5417 3.66947L10.3046 15.9834C9.70575 16.3008 9.17883 16.7633 8.76274 17.3368C8.34664 17.9103 8.05199 18.5801 7.90055 19.2969L2.17378 46.9636C2.04075 47.601 2.02579 48.2618 2.1298 48.9058C2.23382 49.5498 2.45465 50.1637 2.77891 50.7103C2.85593 50.8445 2.94395 50.9727 3.03197 51.1008L19.1175 73.2818C19.536 73.8573 20.0657 74.3212 20.6675 74.6391C21.2693 74.957 21.9278 75.1208 22.5943 75.1185L48.3895 75.1124C49.7428 75.1124 51.0191 74.4351 51.8663 73.2757L67.9464 51.0886C68.358 50.5147 68.6475 49.8452 68.7933 49.1299C68.939 48.4145 68.9372 47.672 68.7881 46.9575V46.9575ZM59.9476 46.6219C59.7771 47.4457 58.9794 47.946 58.1542 47.7508C58.1487 47.7508 58.1377 47.7508 58.1322 47.7447C58.1212 47.7447 58.1157 47.7386 58.1047 47.7325C57.9892 47.702 57.8461 47.6776 57.7471 47.647C57.274 47.5067 56.9274 47.2931 56.4983 47.1101C55.5796 46.7439 54.815 46.4388 54.0723 46.3168C53.6927 46.2863 53.5002 46.4816 53.2911 46.6341C53.1921 46.6097 52.8785 46.5487 52.697 46.5182C51.3657 51.1618 48.5271 55.1892 44.6817 57.7032C44.7477 57.8802 44.8633 58.2585 44.9128 58.3257C44.8248 58.588 44.6927 58.8321 44.8083 59.2349C45.0778 60.0098 45.5124 60.7726 46.0405 61.6818C46.2936 62.1028 46.5576 62.4262 46.7887 62.9144C46.8437 63.0303 46.9152 63.2073 46.9702 63.3293C47.3278 64.1775 47.0638 65.1539 46.3761 65.52C45.6829 65.8922 44.8248 65.5017 44.4507 64.6474C44.3957 64.5254 44.3241 64.3667 44.2801 64.2508C44.0821 63.7504 44.0161 63.3232 43.8785 62.8351C43.565 61.8099 43.3009 60.9617 42.9268 60.2417C42.7123 59.8939 42.4537 59.8512 42.2172 59.7657C42.1732 59.6803 42.0081 59.3447 41.9201 59.1738C41.1499 59.4973 40.3578 59.7657 39.5326 59.9732C35.9238 60.8824 32.3095 60.5163 29.0858 59.1372L28.7722 59.7718C28.5356 59.839 28.3101 59.9122 28.1726 60.0953C27.6664 60.7665 27.4629 61.8404 27.0943 62.8656C26.9568 63.3477 26.8908 63.7809 26.6927 64.2813C26.6487 64.3972 26.5717 64.5559 26.5222 64.6718V64.6779L26.5167 64.684C26.1481 65.5322 25.2899 65.9227 24.5968 65.5566C23.9091 65.1905 23.6505 64.2141 24.0026 63.366C24.0576 63.2439 24.1237 63.067 24.1787 62.951C24.4097 62.469 24.6683 62.1394 24.9268 61.7184C25.4549 60.8031 25.9171 59.9854 26.1866 59.2105C26.2526 58.9542 26.1536 58.6003 26.0656 58.3379L26.3186 57.6666C22.6163 55.2319 19.6952 51.3571 18.2979 46.5548L17.6927 46.6707C17.5277 46.567 17.2031 46.329 16.895 46.3595C16.1524 46.4815 15.3877 46.7867 14.469 47.1528C14.0399 47.3358 13.6988 47.5433 13.2202 47.6837C13.1212 47.7142 12.9782 47.7447 12.8627 47.7752C12.8516 47.7752 12.8461 47.7813 12.8351 47.7874C12.8296 47.7874 12.8186 47.7874 12.8131 47.7935C11.988 47.9888 11.1903 47.4884 11.0197 46.6646C10.8492 45.8408 11.3773 45.0048 12.197 44.7852C12.2025 44.7852 12.2135 44.7791 12.219 44.7791C12.2245 44.7791 12.2245 44.7791 12.23 44.773C12.3455 44.7425 12.4941 44.6997 12.6041 44.6753C13.0882 44.5716 13.4843 44.596 13.9409 44.5594C14.9146 44.4435 15.7178 44.3519 16.4329 44.1017C16.6585 43.998 16.8785 43.6502 17.0326 43.4305L17.6157 43.2414C16.9611 38.2255 18.0668 33.3072 20.4543 29.3225L20.0087 28.8832C19.9812 28.6879 19.9427 28.2486 19.7282 27.9923C19.1836 27.4248 18.4904 26.9488 17.6597 26.3814C17.2636 26.1251 16.9005 25.9603 16.5045 25.6308C16.4219 25.5637 16.3064 25.4538 16.2184 25.3745C16.2129 25.3684 16.2019 25.3623 16.1964 25.3562C15.5307 24.7643 15.3767 23.7453 15.8553 23.0801C16.1249 22.7079 16.5375 22.5187 16.9611 22.5371C17.2911 22.5493 17.6377 22.6835 17.9293 22.9398C18.0228 23.0252 18.1548 23.1351 18.2373 23.2144C18.6114 23.5683 18.837 23.9222 19.1505 24.2944C19.8382 25.0694 20.4048 25.7101 21.0265 26.1739C21.351 26.3875 21.6041 26.302 21.8516 26.2654C21.9342 26.3325 22.1982 26.5461 22.3523 26.662C24.7178 23.8734 27.8315 21.8109 31.4403 20.9017C32.282 20.6881 33.1182 20.5478 33.9543 20.4746L33.9873 19.8216C34.1744 19.6203 34.3779 19.3396 34.4384 19.0223C34.499 18.1924 34.3999 17.3015 34.2844 16.2214C34.2184 15.721 34.1139 15.3 34.0919 14.7569C34.0864 14.6471 34.0919 14.4884 34.0974 14.3603C34.0974 14.3481 34.0919 14.3298 34.0919 14.3176C34.0919 13.3718 34.7135 12.6029 35.4837 12.6029C36.2538 12.6029 36.8755 13.3718 36.8755 14.3176C36.8755 14.4518 36.881 14.6349 36.881 14.7569C36.8645 15.3 36.7545 15.721 36.6884 16.2214C36.5729 17.2954 36.4684 18.1924 36.5289 19.0223C36.5839 19.4372 36.804 19.602 36.9855 19.7911C36.991 19.901 37.0075 20.2732 37.0185 20.4807C41.4415 20.9139 45.5454 23.1595 48.5656 26.6681L49.0937 26.2471C49.2752 26.2593 49.6658 26.3203 49.9354 26.1434C50.557 25.6796 51.1237 25.0328 51.8113 24.2639C52.1249 23.8917 52.3559 23.5439 52.73 23.1839C52.8125 23.1045 52.9446 22.9947 53.0381 22.9093C53.7037 22.3174 54.6334 22.3845 55.112 23.0496C55.5906 23.7148 55.4366 24.7338 54.771 25.3257C54.6774 25.4111 54.5564 25.5271 54.4629 25.6003C54.0668 25.9237 53.7037 26.0885 53.3076 26.3508C52.477 26.9183 51.7838 27.3943 51.2392 27.9618C50.9806 28.2669 51.0026 28.5598 50.9751 28.8344C50.8981 28.9137 50.6285 29.1822 50.48 29.3225C51.7107 31.3539 52.5946 33.6187 53.0876 36.0043C53.5937 38.439 53.6707 40.8677 53.3792 43.2047L53.9403 43.3878C54.0393 43.5465 54.2483 43.9309 54.5399 44.059C55.2551 44.3092 56.0583 44.4007 57.032 44.5167C57.4886 44.5594 57.8847 44.535 58.3688 44.6326C58.4843 44.657 58.6548 44.7059 58.7704 44.7364C59.5955 44.9621 60.1182 45.7981 59.9476 46.6219V46.6219Z" fill="#486BB3"/>
<path d="M47.7349 32.0503L42.2997 37.4445L42.3052 37.4628C42.1181 37.6459 41.9751 37.89 41.9146 38.1829C41.7661 38.8968 42.1566 39.6046 42.7838 39.7999L42.7893 39.8304L49.8253 42.076C49.9739 40.3918 49.8859 38.6466 49.5228 36.9014C49.1597 35.1379 48.5491 33.5087 47.7349 32.0503V32.0503Z" fill="#486BB3"/>
</svg>
