<svg width="72" height="79" viewBox="0 0 72 79" fill="none" xmlns="http://www.w3.org/2000/svg">
<path fill-rule="evenodd" clip-rule="evenodd" d="M49.0257 26.5249C49.9087 29.3581 50.5446 32.2505 50.7537 35.2484C51.0133 38.9676 50.8945 42.6606 50.1876 46.3188C50.1683 46.4195 50.1276 46.514 50.0974 46.6117C49.8757 46.6123 49.6496 46.5818 49.4328 46.619C47.6015 46.9381 45.7718 47.2689 43.9421 47.5978C42.0507 47.9377 40.1567 48.2641 38.2687 48.6272C37.5997 48.7553 36.7718 48.6022 36.5017 49.6285C36.494 49.6566 36.4169 49.6615 36.3724 49.6774L36.4637 43.5442L36.3707 28.7454L37.252 28.5776C38.6933 28.3159 40.1347 28.0504 41.5771 27.796C43.2984 27.4927 45.0214 27.198 46.7438 26.902C47.5036 26.7708 48.2644 26.6506 49.0257 26.5249V26.5249Z" fill="#439934"/>
<path fill-rule="evenodd" clip-rule="evenodd" d="M34.5527 67.5564C33.6229 66.6698 32.6608 65.8222 31.7696 64.8898C26.9742 59.8727 23.4666 53.9677 21.7392 46.8484C21.2633 44.8891 20.9459 42.8979 20.8442 40.8733C20.7726 39.4564 20.6692 38.0267 20.7594 36.6171C20.9998 32.868 21.4883 29.1549 22.4797 25.5437L22.5341 25.4595C22.6304 25.6017 22.769 25.7274 22.818 25.8878C23.7857 29.0487 24.7462 32.212 25.7017 35.3772C28.7043 45.3235 31.703 55.2723 34.7105 65.2163C34.7694 65.4103 34.9218 65.5696 35.0313 65.7447L34.5527 67.5564V67.5564Z" fill="#45A538"/>
<path fill-rule="evenodd" clip-rule="evenodd" d="M49.0258 26.5248C48.2644 26.6505 47.5031 26.7707 46.7433 26.9007C45.0209 27.1966 43.2979 27.4914 41.5766 27.7946C40.1342 28.0491 38.6928 28.3145 37.2515 28.5763L36.3702 28.7441L36.3636 28.1065C36.3345 27.5823 36.2844 27.0587 36.2789 26.5346C36.241 23.1919 36.2173 19.8491 36.1799 16.5064C36.1568 14.414 36.1221 12.3223 36.0836 10.2305C36.06 8.93073 36.0347 7.63038 35.9818 6.33247C35.9532 5.635 35.852 4.9412 35.8108 4.24373C35.7877 3.84283 35.8196 3.43887 35.8267 3.03613C36.2762 4.00209 36.7157 4.97537 37.1778 5.934C37.9078 7.44976 39.0708 8.56643 40.1177 9.78501C44.2562 14.6008 47.1944 20.2 49.0258 26.5248V26.5248Z" fill="#46A037"/>
<path fill-rule="evenodd" clip-rule="evenodd" d="M36.3719 49.6767C36.4164 49.6609 36.494 49.656 36.5011 49.6279C36.7712 48.6016 37.5992 48.7547 38.2681 48.6266C40.1561 48.2641 42.0502 47.9371 43.9415 47.5972C45.7712 47.2683 47.601 46.9375 49.4323 46.6184C49.6491 46.5806 49.8752 46.6117 50.0969 46.6111C49.7547 47.9657 49.4851 49.3497 49.0511 50.6671C48.5582 52.1615 47.9618 53.6199 47.3286 55.0496C46.3807 57.1821 45.2075 59.182 43.8337 61.0071C42.778 62.4154 41.6013 63.717 40.4219 65.0027C39.77 65.7136 39.0014 66.2927 38.2863 66.9316L38.1009 66.7912L37.433 66.1578L36.7421 64.4779C36.2701 62.5183 36.0127 60.5027 35.9752 58.4747L35.9879 58.1324L36.0819 56.652C36.1133 56.1468 36.1551 55.6421 36.1744 55.1357C36.2453 53.316 36.3069 51.4964 36.3719 49.6767V49.6767Z" fill="#409433"/>
<path fill-rule="evenodd" clip-rule="evenodd" d="M36.3719 49.6766C36.307 51.4962 36.2454 53.3159 36.1755 55.1361C36.1562 55.6426 36.1144 56.1472 36.0831 56.6525L35.6622 56.8288C34.7276 53.7766 33.7924 50.7566 32.8775 47.7288C31.3647 42.7196 29.87 37.7025 28.3594 32.6921C27.1392 28.6479 25.9106 24.6069 24.6735 20.5691C24.6158 20.38 24.4496 20.2323 24.3341 20.0651L27.0275 14.572C27.1199 14.7502 27.2421 14.9168 27.3004 15.1084C28.5478 19.1981 29.7889 23.2901 31.0236 27.3845C32.6278 32.7116 34.222 38.043 35.8251 43.3707C35.8889 43.5837 35.9945 43.7802 36.0952 44.0188L36.4638 43.5428L36.3719 49.6766V49.6766Z" fill="#4FAA41"/>
<path fill-rule="evenodd" clip-rule="evenodd" d="M24.3347 20.0657C24.4502 20.2329 24.6158 20.3805 24.6741 20.5697C25.9112 24.6075 27.1398 28.6485 28.3599 32.6927C29.8705 37.7031 31.3652 42.7202 32.8781 47.7294C33.7924 50.7566 34.7276 53.7771 35.6628 56.8294L36.0836 56.653L35.9896 58.1334L35.9043 58.4745C35.758 60.0952 35.6347 61.7196 35.4565 63.3366C35.3668 64.147 35.1765 64.9427 35.0318 65.7451C34.9229 65.57 34.7699 65.4107 34.7111 65.2167C31.7036 55.2721 28.7048 45.3239 25.7023 35.3776C24.747 32.2122 23.7858 29.0491 22.8185 25.8883C22.7696 25.7278 22.6315 25.6021 22.5347 25.4599L24.3347 20.0657V20.0657Z" fill="#4AA73C"/>
<path fill-rule="evenodd" clip-rule="evenodd" d="M36.4632 43.5435L36.0946 44.0194C35.994 43.7808 35.8883 43.5837 35.8245 43.3714C34.222 38.0437 32.6272 32.7123 31.0231 27.3852C29.7883 23.2908 28.5473 19.1987 27.2998 15.1091C27.2421 14.9175 27.1199 14.7503 27.027 14.5727L30.358 9.7124C30.463 9.868 30.6127 10.0065 30.6671 10.1817C31.5919 13.1845 32.5084 16.191 33.4194 19.1993C34.2704 22.0087 35.1088 24.8223 35.9698 27.6281C36.0275 27.816 36.2283 27.949 36.3625 28.1077L36.3692 28.7453C36.4011 33.677 36.4324 38.6106 36.4632 43.5435V43.5435Z" fill="#57AE47"/>
<path fill-rule="evenodd" clip-rule="evenodd" d="M36.3636 28.1064C36.2294 27.9477 36.0286 27.8147 35.9708 27.6268C35.1099 24.821 34.2715 22.0074 33.4204 19.198C32.5094 16.1897 31.5929 13.1838 30.6682 10.1804C30.6137 10.0052 30.4641 9.86672 30.359 9.71111C31.4422 8.53463 32.4918 7.31605 33.6185 6.19388C34.6203 5.19681 35.4256 4.12772 35.4625 2.55217C35.4641 2.48688 35.495 2.42159 35.5423 2.23853L35.8278 3.03545C35.8206 3.4388 35.7882 3.84215 35.8118 4.24305C35.8531 4.94052 35.9543 5.63432 35.9829 6.33179C36.0357 7.6297 36.061 8.93005 36.0847 10.2298C36.1226 12.3216 36.1573 14.4134 36.181 16.5058C36.2178 19.8485 36.242 23.1912 36.28 26.5339C36.2844 27.0593 36.3339 27.5822 36.3636 28.1064V28.1064Z" fill="#60B24F"/>
<path fill-rule="evenodd" clip-rule="evenodd" d="M35.0306 65.7445C35.1753 64.9421 35.3656 64.1457 35.4553 63.336C35.6341 61.7196 35.7568 60.0946 35.9031 58.4739L35.9394 58.4678L35.9757 58.4745C36.0132 60.5024 36.2706 62.518 36.7426 64.4777C36.6458 64.6193 36.5088 64.7456 36.4576 64.9054C36.0577 66.1564 35.6809 67.4171 35.2787 68.668C35.2237 68.8388 35.0708 68.9719 34.9629 69.122L34.552 67.5562L35.0306 65.7445V65.7445Z" fill="#A9AA88"/>
<path fill-rule="evenodd" clip-rule="evenodd" d="M34.9635 69.1228C35.0713 68.9727 35.2248 68.8397 35.2793 68.6688C35.6814 67.4179 36.0588 66.1578 36.4582 64.9063C36.5093 64.7464 36.6458 64.6201 36.7431 64.4785L37.4336 66.159C37.2971 66.3738 37.109 66.5672 37.0331 66.8064L35.7106 71.1139C35.6561 71.2866 35.4702 71.4086 35.3458 71.5545L34.9635 69.1228V69.1228Z" fill="#B6B598"/>
<path fill-rule="evenodd" clip-rule="evenodd" d="M35.3459 71.5537C35.4708 71.4084 35.6562 71.2858 35.7107 71.1131L37.0332 66.8056C37.1085 66.567 37.2972 66.373 37.4337 66.1582L38.1021 66.791C37.7791 67.1449 37.5998 67.5537 37.7076 68.0706L37.5046 68.8077C37.4122 68.934 37.2785 69.0439 37.2329 69.1885C36.7713 70.6548 36.3307 72.1291 35.8658 73.5954C35.8069 73.7815 35.6436 73.9274 35.528 74.0909C35.4681 73.2445 35.407 72.4 35.3459 71.5537V71.5537Z" fill="#C2C1A7"/>
<path fill-rule="evenodd" clip-rule="evenodd" d="M35.5285 74.091C35.6435 73.9269 35.8068 73.781 35.8663 73.5955C36.3311 72.1298 36.7718 70.6556 37.2333 69.1886C37.279 69.0446 37.4121 68.9342 37.5051 68.8079L37.2251 72.1915C37.1502 72.2873 37.0419 72.3709 37.0061 72.4825C36.6898 73.4674 36.3916 74.4596 36.0742 75.4445C36.0087 75.6477 35.8833 75.8271 35.7854 76.0168C35.6985 75.8905 35.5428 75.7685 35.5356 75.6367C35.5076 75.1235 35.5268 74.6067 35.5285 74.091V74.091Z" fill="#CECDB7"/>
<path fill-rule="evenodd" clip-rule="evenodd" d="M35.7849 76.0168C35.8828 75.8264 36.0083 75.647 36.0737 75.4444C36.3917 74.4602 36.6893 73.468 37.0056 72.4825C37.0414 72.3708 37.1503 72.2878 37.2246 72.1914L37.2312 74.4126L36.5611 76.3188L35.7849 76.0168V76.0168Z" fill="#DBDAC7"/>
<path fill-rule="evenodd" clip-rule="evenodd" d="M36.5612 76.3194L37.2312 74.4131L37.3693 76.6684L36.5612 76.3194V76.3194Z" fill="#EBE9DC"/>
<path fill-rule="evenodd" clip-rule="evenodd" d="M37.7076 68.0714C37.5998 67.5545 37.7786 67.1451 38.102 66.7917L38.2874 66.9321L37.7076 68.0714V68.0714Z" fill="#CECDB7"/>
<path fill-rule="evenodd" clip-rule="evenodd" d="M35.9758 58.4753L35.9395 58.4685L35.9032 58.4746L35.9885 58.1335L35.9758 58.4753V58.4753Z" fill="#4FAA41"/>
</svg>
