<svg width="72" height="79" viewBox="0 0 72 79" fill="none" xmlns="http://www.w3.org/2000/svg">
<path d="M64.9298 60.3827C61.1543 60.2686 58.2711 60.6586 55.806 61.8112C55.1057 62.1389 53.9878 62.1481 53.8734 63.1213C54.2585 63.5686 54.3184 64.2374 54.6243 64.7878C55.2129 65.8435 56.2065 67.2604 57.0933 68.0024C58.0626 68.814 59.0611 69.6811 60.0997 70.3834C61.947 71.6325 64.0094 72.3464 65.7879 73.598C66.8365 74.3363 67.8779 75.2657 68.9005 76.098C69.4067 76.5099 69.7461 77.15 70.4035 77.4081V77.2897C70.058 76.8016 69.9689 76.1316 69.652 75.622L68.2563 74.0739C66.892 72.0651 65.1597 70.3004 63.3184 68.8353C61.8502 67.6662 58.5643 66.087 57.952 64.1923L57.8447 64.0733C58.8856 63.9427 60.1041 63.5253 61.0651 63.2391C62.6792 62.7595 64.1216 62.8834 65.7879 62.4062L68.0418 61.6916V61.2157C67.1996 60.257 66.5988 58.9878 65.6807 58.1201C63.2766 55.8501 60.6537 53.582 57.9526 51.6903C56.454 50.642 54.6029 49.9604 53.0147 49.0713C52.4805 48.7717 51.542 48.6161 51.1894 48.1182C50.3548 46.9393 49.901 45.4443 49.2579 44.0707C47.9106 41.1924 46.5876 38.0492 45.3938 35.0207C44.5796 32.9558 44.0477 30.9201 43.0321 29.0676C38.1581 20.1787 32.9121 14.8144 24.7851 9.54096C23.0555 8.4194 20.9733 7.977 18.7728 7.3973C17.5928 7.31858 16.4117 7.23865 15.2312 7.15871C14.5099 6.82554 13.7607 5.84738 13.0846 5.37264C10.3923 3.48588 3.48605 -0.61776 1.49241 4.77768C0.233177 8.18325 3.37438 11.5052 4.49717 13.2315C5.28605 14.4409 6.29552 15.7986 6.85885 17.16C7.22963 18.0552 7.29345 18.9528 7.61087 19.8992C8.39039 22.2314 9.06979 24.7687 10.0793 26.9233C10.5892 28.0143 11.1515 29.1628 11.7967 30.1379C12.1917 30.7365 12.87 31.0001 12.9768 31.9239C12.3144 32.9527 12.2765 34.5503 11.904 35.8537C10.2261 41.7208 10.8593 49.014 13.2997 53.3562C14.0478 54.6901 15.8121 57.5489 18.237 56.4518C20.3583 55.4938 19.8846 52.5233 20.4914 49.9031C20.6284 49.3093 20.5442 48.8724 20.8133 48.4746V48.5936L22.7458 52.8796C24.1761 55.4346 26.7133 58.1042 28.8643 59.9056C29.9794 60.8398 30.8574 62.4544 32.2993 63.0011V62.8815H32.192C31.9125 62.3989 31.4752 62.1987 31.1187 61.8106C30.2787 60.8971 29.3445 59.7615 28.6503 58.715C26.6941 55.7696 24.9656 52.5459 23.3906 49.1903C22.638 47.5873 21.9839 45.8202 21.3502 44.1891C21.1059 43.5606 21.1092 42.6093 20.5998 42.284C19.905 43.4788 18.8823 44.4454 18.3454 45.8562C17.4867 48.1115 17.3761 50.8623 17.0576 53.7144C16.8694 53.7888 16.953 53.7376 16.8425 53.8328C15.3472 53.4331 14.8224 51.7264 14.2662 50.2612C12.8612 46.5573 12.5999 40.5944 13.8366 36.3308C14.1568 35.227 15.6025 31.7537 15.0172 30.734C14.7377 29.7174 13.8157 29.1292 13.3002 28.3524C12.6615 27.3919 12.0245 26.1276 11.5816 25.0182C10.4319 22.1313 9.89497 18.8893 8.68416 15.9701C8.10488 14.5745 7.12621 13.1619 6.32248 11.922C5.43293 10.5472 4.43611 9.53485 3.74626 7.87326C3.5009 7.28258 3.16808 6.33676 3.53116 5.72961C3.64669 5.32016 3.81062 5.1493 4.17535 5.01567C4.79809 4.48295 6.53208 5.19262 7.18012 5.49102C8.90145 6.28428 10.3384 7.03972 11.7967 8.11124C12.496 8.62626 13.2045 9.6215 14.0506 9.89732H15.0166C16.5278 10.2824 18.2205 10.0163 19.6327 10.4923C22.128 11.3331 24.3643 12.642 26.3948 14.0644C32.5815 18.3981 37.6404 24.5661 41.1007 31.9245C41.6574 33.1096 41.8983 34.2397 42.3885 35.4967C43.3776 38.0309 44.6236 40.6383 45.6078 43.117C46.5903 45.5895 47.5475 48.0846 48.9361 50.1423C49.6661 51.2235 52.4849 51.8039 53.7667 52.4049C54.6645 52.8253 56.1361 53.2647 56.9871 53.8328C58.6116 54.9202 60.1861 56.2144 61.7104 57.4055C62.4713 58.0005 64.8131 59.3069 64.9298 60.3827V60.3827ZM16.9486 15.0194C16.1614 15.0029 15.6047 15.1146 15.0161 15.2568V15.3757H15.1233C15.4991 16.2313 16.162 16.7829 16.6257 17.5194C16.9833 18.3536 17.3414 19.1865 17.6996 20.0194L17.8063 19.9016C18.4714 19.3811 18.7756 18.5507 18.7717 17.2814C18.5055 16.9708 18.4664 16.5815 18.2354 16.2105C17.9295 15.7156 17.3359 15.4343 16.9486 15.0194Z" fill="#00618A"/>
</svg>
