<svg width="71" height="79" viewBox="0 0 71 79" fill="none" xmlns="http://www.w3.org/2000/svg">
<path d="M41.6087 0.690186C41.1136 0.690186 40.6185 0.812227 40.1784 0.995289C41.1136 1.66652 41.6087 2.58183 41.8838 3.61918C41.8838 3.74122 41.9388 3.86326 41.9388 3.9853C41.9388 4.10734 41.9938 4.22938 41.9938 4.35142C42.0488 6.12102 41.5537 6.3651 41.2236 7.40246C40.6735 8.74491 40.8385 10.2094 41.4987 11.3688C41.5537 11.4908 41.6087 11.6739 41.7187 11.7959C41.0036 6.67021 44.8544 5.93796 45.5696 4.35142C45.6246 2.94795 44.5794 2.03264 43.7542 1.36141C42.929 0.812227 42.2688 0.690186 41.6087 0.690186ZM47.385 1.78856C47.33 2.27672 47.385 2.15468 47.33 2.39876C47.33 2.58183 47.33 2.76489 47.275 2.94795C47.2199 3.13101 47.2199 3.25305 47.1649 3.43611C47.1099 3.61918 47.0549 3.74122 46.9999 3.92428C46.9449 4.04632 46.8899 4.16836 46.8349 4.35142C46.7798 4.41244 46.7248 4.53449 46.6698 4.59551C46.6148 4.65653 46.6148 4.71755 46.5598 4.77857C46.4498 4.90061 46.3948 5.08367 46.2847 5.20571L45.9547 5.57184C45.8446 5.69388 45.7346 5.81592 45.6246 5.87694C45.2395 6.18204 44.7994 6.42613 44.4143 6.73123C44.3043 6.85327 44.1393 6.91429 44.0292 7.03633C43.9192 7.15837 43.8092 7.21939 43.6992 7.34143L43.3691 7.70756C43.2591 7.8296 43.149 7.95164 43.094 8.1347C42.984 8.25674 42.929 8.43981 42.819 8.56185C42.764 8.74491 42.7089 8.86695 42.5989 9.05001C42.5439 9.23307 42.4889 9.35512 42.4339 9.53818C42.3789 9.72124 42.3239 9.9043 42.3239 10.0263C42.3239 10.0874 42.3239 10.2094 42.2688 10.2704C42.2688 10.3314 42.2688 10.4535 42.2138 10.5145V11.3688C42.2138 11.5519 42.2138 11.6739 42.2688 11.857C42.2688 12.04 42.3239 12.1621 42.3789 12.3451C42.4339 12.5282 42.4889 12.6502 42.5439 12.8333C42.5989 12.9553 42.6539 13.0164 42.6539 13.1384L38.473 11.3688C37.7578 11.1247 37.0977 10.9417 36.3825 10.7586C35.9975 10.6365 35.6124 10.5755 35.2273 10.4535C34.127 10.2094 33.0268 10.0263 31.9265 9.9043H31.8165C30.7163 9.78226 29.671 9.72124 28.5708 9.72124C27.7456 9.72124 26.9754 9.78226 26.2053 9.84328C25.105 9.9043 24.0048 10.0874 22.9045 10.2704L22.0794 10.4535C21.5292 10.5755 20.9791 10.6976 20.429 10.8806C20.1539 10.9417 19.8789 11.0637 19.6038 11.1247C19.3287 11.2468 19.0537 11.3688 18.8336 11.4908C18.6136 11.6129 18.4485 11.6739 18.2285 11.7959C18.1735 11.7959 18.1735 11.7959 18.1185 11.857C17.9534 11.979 17.7884 12.04 17.6234 12.1621C17.5684 12.1621 17.5133 12.2231 17.5133 12.2231C17.2933 12.3451 17.1283 12.4672 16.9632 12.5282C16.8532 12.5892 16.6882 12.6502 16.5781 12.7113C16.5231 12.7723 16.4681 12.7723 16.4131 12.8333C16.2481 12.9553 16.083 13.0164 15.918 13.1384C15.7529 13.2604 15.5879 13.3215 15.4779 13.4435C15.3679 13.5655 15.2028 13.6266 15.0928 13.7486C15.0928 13.7486 15.0378 13.7486 15.0378 13.8096C14.9278 13.8706 14.8177 13.9927 14.7077 14.1147L14.6527 14.1757C14.5427 14.2368 14.4877 14.3588 14.3776 14.4198C14.3226 14.4198 14.3226 14.4808 14.2676 14.4808C14.1576 14.5419 14.1026 14.6639 13.9926 14.7249C13.9926 14.786 13.9375 14.786 13.9375 14.786L13.6075 15.1521L13.5525 15.2131L13.2224 15.5792C13.2224 15.5792 13.2224 15.6402 13.1674 15.6402L12.8923 15.9453C12.8373 16.0064 12.7823 16.0064 12.7823 16.0674L12.4522 16.4335C12.4522 16.4945 12.3972 16.4945 12.3972 16.5556L11.9571 17.0437L11.9021 17.1047C11.627 17.4709 11.297 17.776 10.9669 18.0811C10.6368 18.3862 10.3067 18.6913 9.92165 18.9964C9.53657 19.3015 9.20649 19.5456 8.82141 19.7896C8.43632 20.0337 8.05124 20.2168 7.66615 20.3999C7.28107 20.5829 6.89598 20.766 6.51089 20.888C5.74072 21.0711 4.97055 21.4372 4.3104 21.4982C4.3104 21.1931 4.14537 21.2541 3.98033 21.2541C3.81529 21.3152 3.65026 21.3152 3.54023 21.3762C3.3752 21.4372 3.26517 21.4982 3.10014 21.5592C2.9351 21.6203 2.82507 21.6813 2.66004 21.8033C2.55001 21.9254 2.38498 21.9864 2.27495 22.1084C2.16493 22.2305 1.99989 22.3525 1.88987 22.4746C1.77984 22.5966 1.61481 22.7186 1.50478 22.8407C1.39476 22.9627 1.28473 23.0848 1.17471 23.2678C1.06468 23.4509 0.954659 23.5729 0.899646 23.756C0.789622 23.878 0.73461 24.0611 0.624585 24.2442C0.569573 24.4272 0.459549 24.6103 0.404536 24.7933L0.2395 25.3425C0.184487 25.5256 0.184487 25.6476 0.129475 25.8307V25.8917C0.0744629 26.0748 0.0744629 26.3189 0.0744629 26.4409C0.129475 26.3799 0.129475 26.5019 0.129475 26.624V26.868C0.129475 26.9901 0.184487 27.1121 0.184487 27.2342C0.2395 27.3562 0.2395 27.4782 0.294512 27.6003C0.349524 27.7223 0.404536 27.8444 0.514561 27.9664C0.569573 28.0885 0.679597 28.2105 0.73461 28.3325C0.844634 28.4546 0.954659 28.5766 1.06468 28.6376C1.17471 28.7597 1.28473 28.8817 1.39476 28.9427C1.83485 29.3699 1.94488 29.4919 2.495 29.858C2.60503 29.9191 2.66004 29.9801 2.77006 30.0411H2.82507V30.1632C2.82507 30.3462 2.88009 30.4683 2.9351 30.6513C2.99011 30.8344 3.04512 31.0174 3.10014 31.1395L3.26517 31.5056C3.26517 31.5666 3.32018 31.5666 3.32018 31.6276C3.3752 31.8107 3.48522 31.9328 3.54023 32.0548C3.65026 32.1768 3.70527 32.3599 3.81529 32.4819L4.14537 32.8481L4.47544 33.2142H4.53045C4.64048 33.3362 4.7505 33.3972 4.86053 33.5193C4.97055 33.6413 5.13559 33.7024 5.24561 33.7634C5.35564 33.8244 5.52067 33.9464 5.68571 34.0075C5.79574 34.0685 5.90576 34.1295 6.0708 34.1295C6.0708 34.1295 6.12581 34.1295 6.12581 34.1905C6.18082 34.1905 6.29085 34.2515 6.34586 34.2515C6.29085 35.3499 6.29085 36.3873 6.40087 36.7534C6.56591 37.1805 7.39109 35.8991 8.16126 34.4956C8.05124 35.8991 7.99622 37.5467 8.16126 38.0348C8.38131 38.523 9.42654 36.9364 10.4168 35.2279C23.2896 31.9328 35.0622 41.8181 36.3275 55.7918C36.1075 53.5951 33.6869 52.3747 32.5317 52.6798C31.9816 54.1443 31.0463 56.0969 29.561 57.2563C29.671 55.9139 29.616 54.5714 29.396 53.229C29.0109 55.0596 28.2407 56.8292 27.1405 58.2937C25.4351 58.4157 23.6747 57.5004 22.7945 56.0969C22.7395 56.0359 22.6845 55.9139 22.6295 55.8528C22.5745 55.7308 22.5195 55.5477 22.4644 55.4257C22.4094 55.3037 22.3544 55.1206 22.3544 54.9986V54.5714V54.2663C22.3544 54.1443 22.4094 53.9612 22.4644 53.8392C22.5195 53.7171 22.5195 53.5341 22.5745 53.412C22.6295 53.29 22.6845 53.1069 22.7945 52.9849C23.1246 52.0085 23.1246 51.2153 22.5195 50.7881L22.1894 50.6051C22.1344 50.6051 22.0243 50.544 21.9693 50.544C21.9143 50.544 21.8593 50.483 21.8043 50.483C21.6943 50.422 21.5292 50.422 21.4192 50.361C21.3092 50.3 21.1441 50.3 21.0341 50.3C20.9241 50.3 20.7591 50.2389 20.649 50.2389H20.374C20.2089 50.2389 20.0989 50.2389 19.9889 50.3C19.8789 50.3 19.7138 50.361 19.6038 50.361C19.4938 50.422 19.3287 50.422 19.2187 50.483C19.1087 50.544 18.9987 50.6051 18.8336 50.6661L18.5036 50.8491C14.2676 53.9002 16.7982 61.1006 19.6588 63.1753C18.5586 63.4194 17.4583 63.6635 17.1283 63.9076L17.0732 63.9686C17.8434 64.5178 18.6686 64.9449 19.5488 65.311C20.704 65.7382 21.9693 66.1043 22.5195 66.2874C24.0048 66.6535 25.5451 66.7755 27.0855 66.6535C35.1173 66.0433 41.7187 59.209 42.929 50.3C42.984 50.483 42.984 50.6661 43.039 50.8491C43.094 51.2153 43.149 51.5814 43.2041 52.0085C43.2591 52.1916 43.2591 52.3747 43.2591 52.5577V52.6187C43.2591 52.8018 43.3141 52.9849 43.3141 53.1679C43.3141 53.412 43.3691 53.5951 43.3691 53.8392V56.402C43.3691 56.5851 43.3141 56.7071 43.3141 56.8902V57.0733C43.3141 57.2563 43.2591 57.4394 43.2591 57.6835C43.2041 57.8665 43.2041 58.0496 43.149 58.2326V58.2937C43.094 58.4767 43.094 58.6598 43.039 58.8428V58.9039C42.984 59.0869 42.984 59.27 42.929 59.4531V59.5141L42.764 60.0633V60.1243C42.7089 60.3073 42.6539 60.5514 42.5989 60.7345C42.5439 60.9176 42.4889 61.1006 42.3789 61.3447C42.3239 61.5278 42.2688 61.7718 42.1588 61.9549C42.1038 62.138 41.9938 62.321 41.9388 62.5651C41.8838 62.7482 41.7737 62.9312 41.7187 63.1143C41.7187 63.1753 41.6637 63.2363 41.6637 63.2363C41.6637 63.2363 41.6637 63.2974 41.6087 63.2974C40.4534 65.9212 38.693 68.24 36.4926 70.0706C36.3275 70.1927 36.2175 70.3147 36.0525 70.4368C35.9975 70.4978 35.9424 70.4978 35.9424 70.5588C35.8324 70.6809 35.6674 70.7419 35.5574 70.8639L35.6124 70.986C35.8874 70.9249 36.1075 70.9249 36.3825 70.8639C36.8776 70.8029 37.3177 70.6809 37.8129 70.5588C37.9229 70.5588 38.0879 70.4978 38.1979 70.4368C38.308 70.4368 38.363 70.3758 38.473 70.3758C38.583 70.3758 38.7481 70.3147 38.8581 70.3147C38.9681 70.2537 39.0781 70.2537 39.1882 70.1927C41.0036 69.7045 42.764 69.0333 44.4693 68.24C41.5537 72.6335 37.7028 76.1727 33.1918 78.4915C35.2823 78.3084 37.3728 77.9423 39.4082 77.2711C46.7248 74.8913 52.8862 69.3994 56.572 62.0159C55.8019 66.6535 54.1515 71.108 51.6759 75.0133C53.4363 73.7319 55.0317 72.2064 56.517 70.5588C60.5879 65.8602 63.2835 59.8192 64.1637 53.412C64.7688 56.5851 64.9889 59.8802 64.7138 63.1143C77.8618 42.7944 65.8141 21.7423 60.753 16.1894C60.753 16.1284 60.6979 16.1284 60.6979 16.0674C60.6979 16.3115 60.6979 16.5556 60.6429 16.7996C60.5879 17.2878 60.5329 17.7149 60.4779 18.1421C60.3679 18.5692 60.2578 19.0574 60.1478 19.4845C60.0378 19.9117 59.8728 20.3388 59.7077 20.766C59.5427 21.1931 59.3776 21.6203 59.1576 21.9864C58.9376 22.3525 58.7175 22.7797 58.4975 23.1458C58.2774 23.5119 58.0023 23.878 57.7273 24.2442C57.4522 24.6103 57.1772 24.9154 56.8471 25.2815C56.682 25.4646 56.517 25.6476 56.297 25.7697C56.1319 25.8917 56.0219 26.0137 55.8569 26.1968C55.5268 26.5019 55.1967 26.746 54.8116 26.9901C54.4816 27.2342 54.0965 27.4782 53.7114 27.6613L52.5561 28.2105C52.171 28.3936 51.786 28.5156 51.4009 28.6376C51.0158 28.7597 50.5757 28.8817 50.1906 28.9427C49.7505 29.0038 49.3654 29.0648 48.9803 29.1258C48.7053 29.1258 48.3752 29.1868 48.1001 29.1868C47.66 29.1868 47.275 29.1258 46.8899 29.1258C46.4498 29.0648 46.0647 29.0038 45.6796 28.9427C45.2395 28.8817 44.8544 28.7597 44.4693 28.5766C44.8544 28.5156 45.2945 28.5156 45.6796 28.3936C46.1197 28.3325 46.5048 28.2105 46.8899 28.0885C47.275 27.9664 47.7151 27.8444 48.0451 27.6613L49.2004 27.1121C49.5855 26.9291 49.9155 26.685 50.3006 26.4409C50.6307 26.1968 51.0158 25.8917 51.3459 25.6476C51.6759 25.3425 52.006 25.0374 52.2811 24.7323C52.6111 24.4272 52.8862 24.0611 53.1613 23.756C53.4363 23.3899 53.7114 23.0237 53.9314 22.6576C53.9865 22.5966 53.9864 22.5356 54.0415 22.4746C54.2065 22.1695 54.4265 21.8033 54.5916 21.4982C54.8116 21.0711 54.9767 20.705 55.1417 20.2778C55.3067 19.8507 55.4718 19.4235 55.5818 18.9964L55.9119 17.7149C55.9669 17.2268 56.0769 16.7996 56.0769 16.3725C56.1319 15.8843 56.1319 15.4572 56.1319 15.03C56.1319 14.7249 56.1319 14.3588 56.0769 14.0537C56.0219 13.5655 55.9669 13.1384 55.9119 12.7113C55.8569 12.2231 55.7468 11.7959 55.6368 11.3688C55.5268 10.9417 55.3618 10.5145 55.2517 10.0874C55.0867 9.66022 54.9217 9.23307 54.7566 8.86695C54.5366 8.43981 54.3715 8.07368 54.1515 7.64654C53.9314 7.28041 53.6564 6.91429 53.4363 6.54817C53.1613 6.18204 52.8862 5.87694 52.6111 5.51082C52.4461 5.32775 52.2811 5.14469 52.116 5.02265C51.2909 4.2904 50.4657 3.6802 49.5855 3.06999C49.4754 3.00897 49.3654 2.94795 49.2004 2.88693C48.4852 2.2157 47.9351 2.03264 47.385 1.78856V1.78856Z" fill="#DF234F"/>
</svg>
