<svg width="71" height="79" viewBox="0 0 71 79" fill="none" xmlns="http://www.w3.org/2000/svg">
<path d="M43.3126 42.3518C48.5415 40.2099 51.2948 33.8778 49.464 28.2115C47.6338 22.5445 41.9103 19.6875 36.6819 21.8305C31.4536 23.9736 28.6997 30.3039 30.531 35.9708C32.3618 41.6378 38.0853 44.4942 43.3126 42.3518V42.3518Z" fill="#FF7F0E"/>
<path d="M41.1534 13.3096C38.8432 13.2093 36.538 13.6168 34.3703 14.5086C25.4077 18.1821 20.636 29.0999 23.8008 38.8943C26.9657 48.6887 36.896 53.621 45.8585 49.9476V49.9457L45.8596 49.9451C54.8211 46.2717 59.5929 35.3563 56.428 25.5613C54.0548 18.2162 47.8758 13.6067 41.1534 13.3102V13.3096ZM41.0213 17.2844C46.3465 17.498 51.1689 21.1312 53.036 26.9111C55.5264 34.618 51.7938 43.2524 44.6103 46.1966V46.1978H44.6092C37.4246 49.1415 29.6827 45.2508 27.1929 37.5451C24.703 29.8388 28.4362 21.2032 35.6202 18.2583C37.3459 17.5454 39.1809 17.2145 41.0213 17.2844V17.2844ZM51.0126 55.8959C49.7215 55.8388 48.4329 56.0659 47.2212 56.564C42.2151 58.6155 39.5404 64.7243 41.3129 70.2082C43.0843 75.6916 48.6504 78.4503 53.6571 76.3982C58.6632 74.3467 61.3368 68.2397 59.5643 62.7558C58.2363 58.643 54.7727 56.0631 51.0126 55.8959V55.8959ZM50.918 58.737C53.6796 58.845 56.1728 60.7269 57.1394 63.7199C58.4294 67.7107 56.499 72.1884 52.7642 73.7194C49.0283 75.2504 45.0268 73.2343 43.7378 69.2441C42.4478 65.2528 44.3787 60.7745 48.114 59.2447C49.0099 58.8742 49.9625 58.7018 50.918 58.737V58.737ZM12.7758 36.0208C11.8509 35.9801 10.9278 36.1429 10.0599 36.4998C6.47419 37.9704 4.55921 42.3444 5.82835 46.2717C7.09803 50.199 11.0848 52.1779 14.6705 50.7079C18.2556 49.2373 20.1706 44.8633 18.9015 40.936C17.9497 37.9906 15.4698 36.141 12.7758 36.0208V36.0208ZM12.7082 38.0565C14.6864 38.134 16.4716 39.4825 17.1642 41.6262C18.0878 44.4844 16.7048 47.691 14.0301 48.7876C11.3554 49.8841 8.48874 48.4397 7.56508 45.5815C6.64088 42.7233 8.02444 39.5167 10.6991 38.4202C11.341 38.1548 12.0235 38.0312 12.7082 38.0565V38.0565Z" fill="#2C7FB8"/>
<path d="M23.764 37.1853L17.3 39.836L18.3233 42.9072L24.7872 40.2589L23.764 37.1853ZM47.1673 47.2799L43.2873 48.8225L46.4483 58.6047L50.3283 57.0627L47.1673 47.2799ZM61.4512 1.63951C59.6133 1.57053 57.823 2.29626 56.4583 3.66357C53.6197 6.50286 53.3501 11.3369 55.8972 14.4075C58.4453 17.4786 62.8287 17.63 65.6662 14.7901C68.5043 11.9514 68.775 7.11795 66.2274 4.04739C64.9533 2.51211 63.2199 1.70664 61.4512 1.63951V1.63951ZM61.3791 3.67638C62.6763 3.72398 63.9416 4.31588 64.8691 5.43378C66.7241 7.66896 66.547 11.1532 64.4307 13.2707C62.3149 15.3881 59.1104 15.2569 57.2554 13.0217C55.4004 10.7859 55.5765 7.30223 57.6939 5.1842C58.6997 4.17079 60.021 3.63038 61.3791 3.67699V3.67638Z" fill="#2C7FB8"/>
<path d="M55.7619 12.3113L50.643 17.4248L52.6191 19.8577L57.7368 14.7448L55.7619 12.3113ZM34.7819 58.3355C32.3504 57.8949 30.0041 59.7023 29.5409 62.3793C29.0777 65.0551 30.7011 67.6167 33.1332 68.0567C35.5636 68.4966 37.9088 66.6904 38.3731 64.0141V64.0128C38.8352 61.3377 37.2129 58.7754 34.7819 58.3355V58.3355ZM34.5888 59.6462H34.5899C36.3849 59.9721 37.5386 61.7954 37.1975 63.7627C36.8564 65.7318 35.1208 67.0712 33.3252 66.746C31.5285 66.4207 30.3754 64.5974 30.7165 62.6295C31.0576 60.6604 32.7926 59.3222 34.5888 59.6462V59.6462Z" fill="#2C7FB8"/>
<path d="M37.7905 62.8126L37.4824 64.9105L41.8488 65.6995L42.1568 63.6016L37.7905 62.8126ZM7.91116 23.8656C7.31112 23.8367 6.71186 23.94 6.14802 24.1695C3.8177 25.1147 2.56562 27.9491 3.3809 30.5016C4.19673 33.0541 6.78011 34.3471 9.10988 33.4013C11.4385 32.4567 12.6895 29.6235 11.8748 27.0716L11.8759 27.0704C11.2642 25.1568 9.6589 23.9504 7.91116 23.8656V23.8656ZM7.86275 25.1861C9.14563 25.241 10.302 26.1197 10.7476 27.5128L10.7465 27.514C11.3406 29.3715 10.4362 31.4486 8.69839 32.1534C6.96 32.8594 5.10279 31.9154 4.5092 30.0574C3.91507 28.1993 4.81947 26.1227 6.55841 25.4173H6.55951C6.97614 25.2466 7.41889 25.168 7.86275 25.1861V25.1861Z" fill="#2C7FB8"/>
<path d="M9.75685 32.2668L7.9519 32.9771L9.40643 37.5287L11.2119 36.8196L9.75685 32.2668ZM63.7073 37.8435C61.9613 37.8008 60.2581 38.8851 59.4571 40.7347C58.3756 43.1877 59.3471 46.1777 61.5888 47.2657C63.8267 48.3726 66.497 47.2682 67.5637 44.8035C68.6447 42.3529 67.6765 39.3648 65.4375 38.2743H65.4353C64.8912 38.0043 64.3038 37.8578 63.7079 37.8435H63.7073ZM63.6765 39.1707C64.1153 39.1808 64.5478 39.2882 64.9484 39.4868L64.9528 39.488C66.5757 40.2752 67.2798 42.4304 66.4882 44.222L66.486 44.2269C65.696 46.0538 63.7162 46.8679 62.0724 46.0526L62.068 46.0502C60.4451 45.263 59.7415 43.1078 60.5326 41.3162L60.5348 41.3113C61.1278 39.9408 62.3887 39.1414 63.676 39.1707H63.6765Z" fill="#2C7FB8"/>
<path d="M56.4215 37.8345L55.3641 39.7737L59.3745 41.763L60.1562 39.8237L56.4215 37.8345Z" fill="#2C7FB8"/>
<path d="M52.026 71.3933C54.5285 70.3675 55.8466 67.3366 54.9697 64.6248C54.0928 61.9119 51.3543 60.545 48.8518 61.5708C46.3493 62.5959 45.0312 65.6268 45.907 68.3386C46.7839 71.0515 49.5235 72.4184 52.0249 71.3933H52.026ZM13.5196 47.1784C15.3416 46.4315 16.3 44.2269 15.6624 42.2528C15.0242 40.2794 13.0311 39.2836 11.2108 40.0305C9.38877 40.7774 8.42991 42.982 9.0675 44.9555C9.70564 46.9301 11.6987 47.9247 13.5196 47.1784V47.1784ZM62.2176 12.7933C64.0385 12.047 64.9979 9.84173 64.3597 7.86894C63.7216 5.89431 61.7291 4.89967 59.9081 5.64596C58.0867 6.39224 57.1278 8.59752 57.7649 10.5715C58.403 12.5456 60.3961 13.5408 62.2176 12.7939V12.7933Z" fill="#FF7F0E"/>
<path d="M60.8637 46.5444L55.1677 57.5281L56.828 58.5881L62.5234 47.6044L60.8637 46.5444Z" fill="#2C7FB8"/>
</svg>
