<svg width="71" height="79" viewBox="0 0 71 79" fill="none" xmlns="http://www.w3.org/2000/svg">
<path d="M13.6076 30.8154C12.7824 30.8154 12.2323 31.5477 12.2323 32.463V41.0669L3.48531 31.3036C3.04521 30.8154 2.27504 30.6934 1.72492 30.9375C1.1748 31.1816 0.679688 31.7918 0.679688 32.463V45.0943C0.679688 46.0096 1.50487 46.7418 2.33005 46.7418C3.15524 46.7418 3.98042 46.0096 3.98042 45.0943V36.4903L12.8374 46.2537C13.1124 46.5588 13.4975 46.7418 13.8826 46.7418C14.0477 46.7418 14.1027 46.6808 14.2677 46.6198C14.8178 46.3757 14.9829 45.7655 14.9829 45.0943V32.524C14.9829 31.6087 14.4327 30.8154 13.6076 30.8154ZM24.445 38.0159C23.6748 38.0159 22.9596 38.8702 22.9596 39.7244C22.9596 40.5787 23.6748 41.433 24.445 41.433L28.0758 41.6771L27.2506 43.9349H22.5746L20.264 39.1142L22.6296 34.1716H27.6357L28.7909 36.6124H31.8166L29.8362 31.7918L29.3961 31.1205H20.8142L20.4291 31.8528L17.1834 38.1379L16.7983 38.9312L17.1834 39.7244L20.3741 46.0096L20.8142 46.9859H29.121L29.5061 45.9485L31.8716 40.4567L32.9168 37.8328H30.4963L24.445 38.0159V38.0159ZM35.8875 30.8154C35.1173 30.8154 34.2371 31.6087 34.2371 32.463V36.6124H37.5379V32.524C37.5379 31.6087 36.6577 30.8154 35.8875 30.8154ZM52.6112 30.9985C52.0611 30.7544 51.2909 30.8765 50.9058 31.3646L41.9389 41.1279V32.524C41.9389 31.6087 41.3887 30.8764 40.5635 30.8764C39.7384 30.8764 39.1882 31.6087 39.1882 32.524V45.1553C39.1882 45.8265 39.5733 46.4367 40.1234 46.6808C40.2885 46.7418 40.5085 46.8028 40.6736 46.8028C41.0587 46.8028 41.5538 46.6198 41.8288 46.3147L50.7408 36.5514V45.1553C50.7408 46.0706 51.2909 46.8028 52.1161 46.8028C52.9413 46.8028 53.4914 46.0706 53.4914 45.1553V32.524C53.4914 31.8528 53.1613 31.2426 52.6112 30.9985ZM64.6039 38.8091L69.2249 33.6834C69.83 33.0122 69.83 31.9748 69.2249 31.3646C68.6198 30.6934 67.6846 30.6934 67.1345 31.3646L62.5134 36.4903L57.8924 31.3646C57.2873 30.6934 56.3521 30.6934 55.8019 31.3646C55.1968 32.0358 55.1968 33.0732 55.8019 33.6834L60.423 38.8091L55.8019 43.9349C55.1968 44.6061 55.1968 45.6434 55.8019 46.2537C56.077 46.5588 56.4621 46.7418 56.8472 46.7418C57.2322 46.7418 57.6173 46.5588 57.8924 46.2537L62.5134 41.1279L67.1345 46.2537C67.4095 46.5588 67.7946 46.7418 68.1797 46.7418C68.5648 46.7418 68.9499 46.5588 69.2249 46.2537C69.83 45.5824 69.83 44.5451 69.2249 43.9349L64.6039 38.8091V38.8091ZM34.2371 45.0943C34.2371 45.9485 35.0623 46.7418 35.8875 46.7418C36.6577 46.7418 37.5379 45.9485 37.5379 45.0943V37.8328H34.2371V45.0943Z" fill="#009900"/>
</svg>
