<svg width="71" height="79" viewBox="0 0 71 79" fill="none" xmlns="http://www.w3.org/2000/svg">
<path d="M62.0792 18.9105L37.8205 3.2862C36.2906 2.31964 34.2986 2.31964 32.7566 3.2862L8.23875 18.9105C6.6599 19.918 5.5426 21.8115 5.5426 23.8367V55.0439C5.5426 57.0692 6.68906 58.9633 8.26791 59.9762L14.7456 64.0573C17.8417 65.7488 18.9359 65.7488 20.3447 65.7488C24.9289 65.7488 27.5475 62.6739 27.5475 57.3108V26.5015C27.5475 26.0664 27.3434 25.419 26.9583 25.419H23.865C23.4733 25.419 22.5964 26.0664 22.5964 26.5009V57.3102C22.5964 59.6876 20.6578 62.0533 17.0347 60.0439L10.3413 55.7646C10.1081 55.6242 9.94358 55.3417 9.94358 55.0439V23.8367C9.94358 23.5426 10.2489 23.2473 10.4838 23.0966L34.9224 7.49907C35.1507 7.35567 35.4863 7.35567 35.7141 7.49907L59.8545 23.0929C60.0856 23.2473 60.0042 23.5335 60.0042 23.8367V55.0439C60.0042 55.3417 60.1048 55.6315 59.8765 55.7749L35.6238 71.3816C35.4159 71.5201 35.1579 71.5201 34.9301 71.3816L28.7099 67.2633C28.5223 67.1425 28.2995 67.0991 28.1196 67.2108C26.3889 68.2988 26.0699 68.4434 24.4465 69.0677C24.0471 69.222 23.4579 69.4899 24.672 70.2448L32.8127 75.5865C33.5899 76.0844 34.4716 76.3467 35.3691 76.3468C36.2724 76.3468 37.157 76.0869 37.9366 75.5865L62.0787 59.9762C63.6575 58.9559 64.4057 57.0692 64.4057 55.0439V23.8367C64.4057 21.8115 63.6575 19.9229 62.0792 18.9105V18.9105ZM42.9014 50.0988C36.4507 50.0988 35.0297 48.1248 34.5561 44.5667C34.501 44.1834 34.2078 43.7252 33.8563 43.7252H30.7035C30.3135 43.7252 29.9999 44.25 29.9999 44.6808C29.9999 49.2366 32.2329 54.7565 42.902 54.7565C50.6251 54.7565 55.0531 51.4278 55.0531 45.5369C55.0531 39.696 51.4954 38.1632 44.0055 37.0636C36.4347 35.9536 35.6656 35.3928 35.6656 33.4255C35.6656 31.8036 36.317 29.6404 41.9227 29.6404C46.9316 29.6404 48.7778 30.8327 49.5375 34.5776C49.6024 34.9297 49.8924 35.1823 50.2197 35.1823H53.3851C53.5798 35.1823 53.7658 35.095 53.9022 34.9407C54.0342 34.7747 54.1041 34.5666 54.0865 34.3433C53.5963 27.8946 49.7339 24.8893 41.9222 24.8893C34.9736 24.8893 30.8284 28.1442 30.8284 33.6C30.8284 39.5178 34.9527 41.1532 41.6229 41.8848C49.6024 42.7525 50.223 44.0462 50.223 45.7871C50.223 48.8106 48.0346 50.0988 42.9014 50.0988Z" fill="#83CD29"/>
</svg>
