<svg width="72" height="79" viewBox="0 0 72 79" fill="none" xmlns="http://www.w3.org/2000/svg">
<path d="M30.621 17.276L19.0596 10.8047L6.36389 17.8294L18.2432 24.444L30.621 17.276ZM35.9247 20.2458L48.0489 27.0368L35.4714 34.0402L23.575 27.4164L35.9247 20.2458ZM52.1187 10.8999L64.5762 17.8288L53.434 24.0334L41.2862 17.2351L52.1187 10.8999ZM46.7572 7.91539L35.5418 1.67725L24.4492 7.81958L36.0061 14.2817L46.7572 7.91539ZM37.9899 61.4799V78.4534L51.5751 70.9332L51.5625 53.9524L37.9899 61.4799ZM51.5559 48.0249L51.541 31.2228L37.9899 38.6954V55.5048L51.5559 48.0249ZM67.8643 44.878V61.9186L56.2754 68.3307L56.2666 51.3688L67.8643 44.878ZM67.8643 38.9194V22.2198L56.2539 28.6221L56.2627 45.4577L67.8643 38.9194Z" fill="#4CABCF"/>
<path d="M33.1933 38.6953L24.0453 33.5897V55.6425C24.0453 55.6425 12.8514 29.231 11.8178 26.8567C11.6846 26.5491 11.1345 26.2153 10.9948 26.1317C8.97693 24.9638 3.09778 21.6626 3.09778 21.6626V60.6371L11.2313 65.4736V45.0927C11.2313 45.0927 22.3047 68.693 22.4186 68.953C22.5341 69.2105 23.6393 71.694 24.8298 72.5691C26.4087 73.7321 33.1889 78.2537 33.1889 78.2537L33.1933 38.6953Z" fill="#4C75CF"/>
</svg>
