<svg width="71" height="79" viewBox="0 0 71 79" fill="none" xmlns="http://www.w3.org/2000/svg">
<path d="M62.3666 40.6409C67.3199 43.8609 70.6487 49.8104 70.6591 56.6228C70.6767 66.8773 63.1681 75.2054 53.8914 75.2219C44.6147 75.2414 37.0802 66.9414 37.0631 56.6869C37.0521 49.8745 40.3617 43.9134 45.3062 40.6714L50.1329 49.689C50.2534 49.9148 50.1847 50.2059 49.9888 50.3541C48.1624 51.7271 46.9653 54.0434 46.9697 56.6679C46.9763 60.8753 50.0686 64.2815 53.8738 64.2717C57.6801 64.2644 60.7591 60.8485 60.7525 56.6417C60.7486 54.0178 59.545 51.7051 57.7142 50.3395C57.5189 50.1918 57.4479 49.9008 57.5678 49.6744L62.3666 40.6409Z" fill="#128DFF"/>
<path d="M25.2916 40.5311C22.7851 38.9792 19.9615 38.1668 17.091 38.1714C7.81204 38.1714 0.292969 46.4855 0.292969 56.74C0.292969 66.9939 7.81204 75.3086 17.091 75.3086C26.4133 75.3086 34.1172 66.56 33.8829 56.2628H24.4274C24.1782 56.2628 23.9829 56.4965 23.9807 56.7705C23.957 60.8729 20.8604 64.3578 17.091 64.3578C13.283 64.3578 10.1996 60.9467 10.1996 56.7394C10.1996 52.5326 13.283 49.1216 17.091 49.1216C18.0861 49.1216 19.034 49.3553 19.8889 49.7769C20.0996 49.8794 20.3488 49.8013 20.4649 49.5841L25.2916 40.5311Z" fill="#8BDA67"/>
<path d="M26.6493 37.618C21.7026 34.3882 18.3826 28.4319 18.3826 21.6196C18.3826 11.3651 25.9038 3.05103 35.1806 3.05103C44.4573 3.05103 51.9785 11.3651 51.9785 21.6196C51.9785 28.4319 48.6585 34.3882 43.7118 37.618L38.8977 28.5943C38.7773 28.3685 38.846 28.0774 39.0441 27.9291C40.8705 26.5586 42.0714 24.2441 42.0714 21.6196C42.0714 17.4128 38.9857 14.0018 35.18 14.0018C31.3743 14.0018 28.2886 17.4128 28.2886 21.6202C28.2886 24.2441 29.4895 26.5586 31.3165 27.9297C31.5145 28.0774 31.5828 28.3679 31.4623 28.5949L26.6493 37.618Z" fill="#FF2A44"/>
</svg>
