<svg width="71" height="79" viewBox="0 0 71 79" fill="none" xmlns="http://www.w3.org/2000/svg">
<path d="M35.3373 20.5613C16.7762 20.5613 1.72815 29.02 1.72815 39.4539C1.72815 49.8878 16.7762 58.3465 35.3373 58.3465C53.8984 58.3465 68.9465 49.8878 68.9465 39.4539C68.9465 29.02 53.8984 20.5613 35.3373 20.5613ZM26.592 43.1346C25.7899 43.967 24.8993 44.3105 23.9184 44.6644C22.9376 45.019 21.6893 44.9457 20.1715 44.9457H16.7316L15.7783 51.0478H11.7618L15.3459 30.3008H23.0696C25.3933 30.3008 27.0882 31.0422 28.1538 32.395C29.2194 33.7478 29.5396 35.6682 29.1149 38.0925C28.9394 39.0914 28.644 40.0201 28.227 40.8476C27.7949 41.7013 27.243 42.4734 26.592 43.1346V43.1346ZM38.3157 44.9457L39.9006 36.1466C40.081 35.1165 40.015 34.3513 39.702 33.9773C39.3884 33.6026 38.7217 33.3518 37.7023 33.3518H34.5171L32.4646 44.9457H28.4795L32.0635 24.8089H36.0486L35.0958 30.3008H38.6458C40.8798 30.3008 42.4201 30.7981 43.2679 31.6622C44.1156 32.5262 44.3698 33.71 44.0309 35.6456L42.3635 44.9457H38.3157ZM60.4631 38.1248C60.2881 39.1238 59.9921 40.0366 59.5757 40.8635C59.1587 41.6915 58.6141 42.4488 57.9413 43.1346C57.1392 43.967 56.248 44.3105 55.2677 44.6644C54.2874 45.019 53.0381 44.9457 51.5203 44.9457H48.0804L47.1275 51.0478H43.1111L46.6946 30.3008H54.4189C56.7426 30.3008 58.4375 31.0422 59.5025 32.395C60.567 33.7478 60.8877 35.7011 60.4631 38.1248V38.1248ZM52.8967 33.3518H50.1455L48.6453 41.8947H51.089C52.7074 41.8947 53.9144 41.7177 54.7066 41.0404C55.4999 40.3643 56.034 39.3147 56.3118 37.7325C56.5781 36.2125 56.4571 35.0268 55.9488 34.402C55.4399 33.7771 54.4227 33.3518 52.8967 33.3518V33.3518ZM21.548 33.3518H18.7962L17.2961 41.8947H19.7392C21.3582 41.8947 22.5646 41.7177 23.3573 41.0404C24.15 40.3643 24.6848 39.3147 24.962 37.7325C25.2283 36.2125 25.1072 35.0268 24.5989 34.402C24.0906 33.7771 23.074 33.3518 21.548 33.3518Z" fill="#6181B6"/>
</svg>
