<svg width="71" height="79" viewBox="0 0 71 79" fill="none" xmlns="http://www.w3.org/2000/svg">
<path d="M47.2958 30.7479C46.8371 30.4768 46.3253 30.3349 45.8055 30.3349C45.2857 30.3349 44.7739 30.4768 44.3152 30.7479L37.596 35.1554L32.9024 38.049L26.1832 42.459C25.7245 42.7301 25.2127 42.872 24.6929 42.872C24.1731 42.872 23.6613 42.7301 23.2026 42.459L17.8626 39.0119C17.4231 38.7308 17.0554 38.33 16.7945 37.8474C16.5335 37.3647 16.3878 36.8163 16.3712 36.2538V29.3731C16.3617 28.8046 16.4965 28.2446 16.7601 27.7569C17.0237 27.2693 17.4055 26.8736 17.862 26.615L23.2026 23.3095C23.661 23.0372 24.1729 22.8947 24.6929 22.8947C25.2129 22.8947 25.7248 23.0372 26.1832 23.3095L31.5232 26.6156C31.9626 26.8968 32.3301 27.2977 32.591 27.7803C32.8519 28.2629 32.9975 28.8113 33.014 29.3737V33.7782L37.596 30.7485V26.4795C37.6084 25.9138 37.4777 25.3556 37.2187 24.8681C36.9597 24.3806 36.5827 23.9833 36.1305 23.7214L26.3053 17.3862C25.8469 17.1139 25.335 16.9714 24.815 16.9714C24.295 16.9714 23.7831 17.1139 23.3247 17.3862L13.3906 23.7214C12.8947 23.9351 12.4719 24.3164 12.1822 24.8115C11.8926 25.3065 11.7506 25.8901 11.7766 26.4795V39.2884C11.7693 39.8545 11.9052 40.4116 12.1688 40.8965C12.4324 41.3814 12.8131 41.7747 13.268 42.0318L23.2026 48.3823C23.6613 48.6534 24.1731 48.7953 24.6929 48.7953C25.2127 48.7953 25.7245 48.6534 26.1832 48.3823L32.9024 44.1108L37.497 41.0811L44.1931 36.8237C44.6518 36.5526 45.1636 36.4107 45.6834 36.4107C46.2031 36.4107 46.7149 36.5526 47.1736 36.8237L52.5137 40.1298C52.9529 40.4111 53.3202 40.812 53.5808 41.2946C53.8414 41.7773 53.9867 42.3257 54.0029 42.888V49.6381C54.0124 50.206 53.8778 50.7655 53.6145 51.2528C53.3512 51.74 52.9698 52.1354 52.5137 52.3938L47.1736 55.8353C46.7153 56.1076 46.2033 56.2501 45.6834 56.2501C45.1634 56.2501 44.6515 56.1076 44.1931 55.8353L38.853 52.5292C38.4137 52.2487 38.0461 51.8484 37.7851 51.3663C37.5242 50.8842 37.3784 50.3362 37.3617 49.7741V45.3501L32.9024 48.2413V52.6464C32.8925 53.2147 33.027 53.7747 33.2903 54.2624C33.5536 54.7501 33.9352 55.1458 34.3916 55.4045L44.3262 61.7391C44.785 62.0114 45.2973 62.1538 45.8176 62.1538C46.3379 62.1538 46.8502 62.0114 47.309 61.7391L57.2431 55.4033C57.6796 55.1211 58.0444 54.7204 58.303 54.2389C58.5617 53.7574 58.7058 53.2109 58.7218 52.6507V39.8363C58.7313 39.2681 58.5965 38.7083 58.3328 38.221C58.0691 37.7337 57.6871 37.3385 57.2304 37.0806L47.2958 30.7479Z" fill="black"/>
</svg>
