<svg width="72" height="79" viewBox="0 0 72 79" fill="none" xmlns="http://www.w3.org/2000/svg">
<path fill-rule="evenodd" clip-rule="evenodd" d="M68.4011 46.854C68.1535 45.0734 66.8052 43.9073 65.2368 43.8286C64.6691 43.7999 64.0925 43.8659 63.5265 43.9458C62.8427 44.0422 62.1671 44.2131 61.485 44.3259C61.0135 44.4041 60.5354 44.4401 60.0645 44.4938L60.053 44.426C60.9321 42.5844 61.848 40.763 62.6798 38.8951C63.3174 37.4623 63.8631 35.9777 64.427 34.5053C65.36 32.0657 66.1054 29.5504 66.7227 26.9943C67.3141 24.5467 67.8202 22.0723 67.9791 19.5333C68.043 18.5191 68.087 17.5007 68.082 16.4853C68.0776 15.6755 67.999 14.8646 67.9258 14.0573C67.8433 13.1322 67.5913 12.2553 67.2425 11.4114C66.7826 10.2996 66.0697 9.38736 65.3193 8.52087C64.7186 7.82706 64.0579 7.19489 63.4027 6.56333C62.4686 5.66205 61.4184 4.94262 60.3275 4.30373C59.0917 3.57535 57.7825 3.01206 56.4271 2.62567C55.6058 2.39318 54.7658 2.22049 53.934 2.03621C53.6347 1.96908 53.3349 1.83057 53.0356 1.83057H47.4018C47.1983 1.83057 46.9964 1.94712 46.7912 1.97274C45.4423 2.13933 44.1093 2.42125 42.8149 2.86609C42.3308 3.03267 41.8885 2.92772 41.4286 2.88073C41.076 2.84473 40.7294 2.73977 40.3768 2.72025C39.0334 2.6458 37.6883 2.53658 36.3455 2.55244C35.0587 2.56709 33.7852 2.80202 32.5397 3.19438C31.4972 3.52267 30.4773 3.92357 29.5432 4.53134C29.1433 4.79129 28.8264 4.74247 28.4127 4.61006C27.0225 4.16522 25.6225 3.74722 24.2103 3.39636C23.3301 3.1779 22.4252 3.06929 21.5263 2.96494C20.6637 2.8655 19.7978 2.80565 18.9308 2.78554C18.0847 2.7654 17.2326 2.76601 16.3903 2.849C15.0488 2.97836 13.7265 3.28839 12.4526 3.77224C11.0416 4.30662 9.72332 5.10422 8.55439 6.13069C7.36227 7.17719 6.40616 8.45497 5.63709 9.91397C4.82676 11.4535 4.27113 13.1017 3.92566 14.8328C3.73861 15.7707 3.62034 16.7349 3.49216 17.6874C3.452 17.9839 3.89485 18.2805 3.34473 18.5758V22.7216C3.89485 22.9974 3.45915 23.2726 3.49106 23.549C3.56753 24.2135 3.63519 24.8836 3.73641 25.5432C3.8965 26.5872 4.08629 27.6283 4.27993 28.6656C4.54882 30.1155 4.83233 31.562 5.13042 33.0048C5.34827 34.0543 5.59638 35.0978 5.85603 36.1358C6.25267 37.7211 6.64326 39.3094 7.09161 40.8771C7.50805 42.3336 7.98501 43.7694 8.45811 45.2053C9.11331 47.1915 9.89778 49.1136 10.8385 50.9558C11.6521 52.5509 12.5818 54.0447 13.829 55.2737C14.6508 56.0834 15.5657 56.7058 16.6307 57.017C17.4675 57.2611 18.318 57.2904 19.1745 57.0957C20.1504 56.8755 21.062 56.3911 21.8283 55.6856C21.918 55.6038 22.0164 55.5415 22.1226 55.6917C22.5269 56.2598 23.0683 56.6387 23.6343 56.9664C25.162 57.85 26.8267 58.1148 28.5178 58.2228C28.9271 58.249 29.3408 58.1837 29.7533 58.1709C30.5571 58.1465 31.3383 57.9726 32.1068 57.7261C32.5095 57.5967 32.9028 57.4326 33.3126 57.2794C33.3341 57.7633 33.3616 58.2295 33.3743 58.6957L33.4315 61.2378C33.4419 61.6247 33.4557 62.0128 33.4881 62.3978C33.5712 63.3906 33.6526 64.384 33.7593 65.3738C33.8336 66.056 33.9106 66.7437 34.0553 67.4094C34.3454 68.7534 34.7426 70.066 35.2425 71.3319C35.721 72.5605 36.4564 73.6451 37.3879 74.4958C38.6092 75.6161 40.0406 76.0939 41.5865 76.1824C42.2257 76.2196 42.8831 76.1848 43.5125 76.0579C44.5127 75.8607 45.5021 75.6009 46.476 75.2799C48.4515 74.6184 50.159 73.4761 51.4348 71.6302C52.1609 70.5782 52.7573 69.4402 53.1401 68.1838C53.4559 67.1458 53.7535 66.0975 53.9901 65.0351C54.1771 64.1979 54.2696 63.3345 54.3834 62.4796C54.4588 61.9139 54.5039 61.3428 54.5512 60.7728C54.6282 59.8472 54.7069 58.9221 54.7625 57.9946C54.801 57.349 54.7993 56.7003 54.8224 56.0535C54.8296 55.8564 54.8582 55.6605 54.8747 55.464C54.8901 55.2822 54.9726 55.2194 55.1398 55.2224C55.729 55.2322 56.3193 55.2493 56.9068 55.22C57.5653 55.187 58.2299 55.1559 58.8779 55.0351C59.8013 54.864 60.7173 54.6467 61.623 54.384C62.6919 54.074 63.6722 53.5187 64.6157 52.8859C65.7148 52.1494 66.7166 51.2854 67.5297 50.1723C68.2366 49.2015 68.5716 48.0793 68.4011 46.854V46.854ZM66.5241 47.4533C66.4878 48.0116 66.2573 48.49 65.9228 48.8988C64.3445 50.8289 62.3646 51.9999 60.0997 52.5765C59.2394 52.795 58.3515 52.9085 57.4707 52.9988C56.7182 53.0722 55.9623 53.092 55.2075 53.058C54.6541 53.0348 54.1051 52.8945 53.5395 52.8042C53.4829 53.3778 53.429 53.9751 53.3635 54.5713L53.1 56.8565C53.0202 57.5809 52.9581 58.3076 52.8761 59.0313C52.7958 59.7337 52.6956 60.4336 52.6115 61.1359C52.5328 61.7901 52.4751 62.4472 52.3876 63.1002C52.2528 64.1009 52.1241 65.1041 51.948 66.0969C51.7368 67.2837 51.4128 68.4334 50.8841 69.5037C50.2394 70.8101 49.3251 71.8054 48.1615 72.5425C46.9623 73.3028 45.6513 73.6982 44.3222 74.029C43.3815 74.2633 42.4122 74.3017 41.4594 74.2065C39.8068 74.0406 38.3963 73.2564 37.3302 71.8353C36.3125 70.4788 35.6237 68.924 35.3772 67.1641C35.2622 66.3264 35.1721 65.4847 35.1071 64.6403C35.0342 63.702 34.9793 62.7621 34.9427 61.8212C34.8939 60.6275 34.8578 59.4333 34.8343 58.2387C34.8051 56.7705 34.7958 55.3023 34.7771 53.8342L34.7738 53.778C34.1004 54.2259 33.4386 54.7165 32.7367 55.1205C31.9163 55.5912 31.0183 55.8721 30.0972 55.9461C29.3721 56.0071 28.6377 56.0627 27.9159 55.9986C26.7326 55.893 25.5504 55.6874 24.4909 55.0412C24.0612 54.7788 23.6129 54.4596 23.3169 54.0404C22.6073 53.036 22.9472 51.7668 24.0172 51.156C24.7566 50.7331 25.5636 50.5568 26.3651 50.3511C27.0628 50.1756 27.7531 49.9661 28.4342 49.7232C29.1064 49.4791 29.5305 48.8744 29.9492 48.2813L30.6126 47.3349C30.3359 47.3025 30.0752 47.2696 29.8144 47.2427C29.0228 47.1597 28.2675 46.9181 27.5452 46.563C26.9268 46.2597 26.9175 46.2267 26.4642 46.7723C25.7072 47.6839 24.9711 48.6169 24.2296 49.5438C23.6838 50.2254 23.1414 50.9113 22.5985 51.5947C22.0604 52.2708 21.5565 52.9854 20.9772 53.6145C20.1169 54.5487 19.0799 55.1107 17.8427 55.0473C17.0488 55.007 16.3221 54.6982 15.6686 54.1936C14.3197 53.1514 13.4109 51.6936 12.5835 50.1626C11.5234 48.2008 10.7098 46.1108 10.0133 43.9635C9.5314 42.4795 9.04729 40.9942 8.62645 39.4888C8.1693 37.8529 7.76826 36.1962 7.37382 34.5401C7.07919 33.2889 6.80738 32.0312 6.55854 30.7678C6.26839 29.333 5.99989 27.8929 5.75316 26.4481C5.58923 25.4724 5.49405 24.4826 5.36148 23.5002C5.18269 22.1761 5.14968 20.8397 5.21459 19.5101C5.27236 18.3122 5.42749 17.1175 5.58152 15.9276C5.79497 14.2812 6.28403 12.7276 6.98764 11.2607C7.41838 10.3619 7.9531 9.5448 8.57144 8.7857C9.58641 7.53966 10.8148 6.63899 12.1813 5.96288C13.1364 5.49058 14.1453 5.20623 15.1735 4.98411C16.6995 4.6546 18.2393 4.66742 19.7796 4.70281C20.453 4.71806 21.1236 4.85414 21.7964 4.92797C23.2449 5.08785 24.6647 5.4259 26.0664 5.84328C27.088 6.14717 28.0887 6.54075 29.102 6.88247C29.2038 6.91664 29.3529 6.91359 29.4359 6.85317C30.809 5.85915 32.3098 5.20318 33.9057 4.8279C34.5114 4.68572 35.1363 4.62348 35.7557 4.57955C36.5089 4.52646 37.268 4.47764 38.0195 4.52585C38.9228 4.58321 39.8217 4.73088 40.7195 4.86756C41.1552 4.93347 41.5804 5.10127 42.0172 5.14704C42.2263 5.16901 42.448 4.99937 42.6691 4.94262C43.7963 4.65399 44.9186 4.33241 46.0557 4.1042C46.9023 3.93456 47.7671 3.85462 48.628 3.7997C49.588 3.73868 50.5551 3.69414 51.5145 3.74539C52.7294 3.81213 53.9363 4.00064 55.1206 4.30861C56.5933 4.68877 58.006 5.24101 59.3488 6.00743C60.3523 6.5798 61.3062 7.24371 62.1649 8.06016C62.7277 8.59592 63.3037 9.12497 63.812 9.72176C64.4391 10.4577 65.0789 11.1942 65.4722 12.137C65.7682 12.8478 65.9795 13.5838 66.0378 14.3624C66.1104 15.3302 66.1984 16.3016 66.1901 17.2706C66.1824 18.1975 66.0686 19.1238 65.9877 20.0483C65.804 22.1559 65.3908 24.2178 64.8891 26.2522C64.4694 27.9328 63.9943 29.5957 63.4648 31.2376C62.9813 32.7516 62.4235 34.238 61.8596 35.7184C61.4445 36.8149 60.9935 37.8943 60.5074 38.9543C59.5848 40.9594 58.6254 42.9438 57.5158 44.8324C57.3244 45.1589 57.1428 45.4933 56.9558 45.8264C57.4399 46.1889 57.9884 46.3164 58.5407 46.3823C59.0661 46.4458 59.6019 46.4836 60.1267 46.4403C60.9667 46.3714 61.804 46.2383 62.6391 46.1084C63.4665 45.9802 64.2774 45.7191 65.1268 45.788C65.9751 45.8563 66.5818 46.5715 66.5241 47.4533V47.4533ZM54.4142 45.4072C54.0539 44.891 53.6864 44.3809 53.3338 43.8585C52.7804 43.0384 52.3826 42.1225 51.9832 41.2023C51.6048 40.3303 51.1405 39.5047 50.7416 38.6425C50.0457 37.1383 49.3372 35.639 48.6963 34.1056C47.8903 32.1792 47.2549 30.1844 47.0547 28.0505C46.97 27.1474 46.9485 26.2455 47.113 25.351C47.3765 23.9225 48.0493 22.8052 49.1804 22.0388C50.2295 21.3279 51.3985 21.0984 52.5961 21.0264C53.3393 20.9819 54.0858 21.0185 54.8571 21.0185L54.8312 20.8739C54.3515 19.7615 53.9032 18.6302 53.3783 17.544C52.6379 16.0112 51.6906 14.629 50.6354 13.3476C49.8537 12.3987 49.0071 11.5182 48.0796 10.7402C47.1675 9.97438 46.2064 9.29034 45.181 8.73078C43.9581 8.06382 42.6845 7.5482 41.3483 7.2193C40.0643 6.90321 38.7721 6.70978 37.4551 6.69391C36.3317 6.68049 35.2155 6.73663 34.1213 7.01793C32.4699 7.44202 30.9592 8.19624 29.645 9.41787C28.9179 10.0943 28.2681 10.8668 27.7102 11.7184C27.0522 12.7209 26.5214 13.8034 26.0675 14.9384C25.4448 16.4957 25.0173 18.1164 24.7252 19.7822C24.5789 20.6127 24.4645 21.4505 24.3478 22.2877C24.3071 22.5806 24.3038 22.8802 24.2802 23.2159C24.4832 23.0987 24.6295 23.0084 24.7791 22.9278L25.266 22.6856C26.9125 21.8502 28.6184 21.3126 30.452 21.3743C31.231 21.4005 31.9764 21.5714 32.669 21.9497C33.9975 22.6764 34.7749 23.9121 35.1126 25.4761C35.3459 26.5555 35.5054 27.6563 35.6606 28.7541C35.7821 29.6114 35.9065 30.4779 35.9208 31.3426C35.9411 32.6063 35.8834 33.8725 35.8212 35.1356C35.7678 36.2097 35.5675 37.2685 35.2271 38.2758C34.6109 40.1021 33.9244 41.8985 33.2829 43.7145C33.0711 44.3144 32.9083 44.9355 32.7081 45.5952C33.0172 45.5952 33.2681 45.5927 33.5189 45.5964C33.6169 45.5982 33.717 45.6013 33.8116 45.6263C34.5488 45.8191 35.188 46.1895 35.7123 46.8186C36.4115 47.6558 36.7784 48.6328 36.7971 49.7635C36.8076 50.3902 36.7482 51.0187 36.7509 51.6454C36.7625 54.5658 36.7823 57.4863 36.8043 60.4061C36.8081 60.8833 36.8296 61.3611 36.8604 61.8376C36.9247 62.8353 36.9897 63.8336 37.0777 64.8289C37.1393 65.5349 37.2251 66.2397 37.3258 66.9408C37.4683 67.9342 37.8759 68.8184 38.3386 69.6635C38.7368 70.3903 39.2545 71.0078 39.9367 71.4338C41.0958 72.1575 42.344 72.2179 43.6021 71.9512C44.4521 71.7712 45.2866 71.482 46.1118 71.1836C46.9233 70.8948 47.6642 70.4034 48.2776 69.7471C48.8558 69.1253 49.2662 68.3675 49.5429 67.5309C50.0798 65.9083 50.2471 64.1998 50.4693 62.5046C50.5524 61.87 50.6244 61.2335 50.7004 60.5977C50.7867 59.874 50.8742 59.1509 50.9578 58.4278C51.0194 57.889 51.0755 57.349 51.135 56.8102C51.2197 56.0364 51.3093 55.2633 51.3902 54.4889C51.4524 53.8903 51.5052 53.2893 51.5602 52.6894C51.6312 51.923 51.7076 51.1566 51.7687 50.389C51.816 49.8062 51.7968 49.2131 51.8897 48.6413C52.0608 47.593 52.5075 46.7009 53.3453 46.1242C53.6958 45.8832 54.0913 45.7245 54.4802 45.5207L54.4142 45.4072V45.4072ZM22.7288 41.1041C22.311 40.0142 22.0593 38.8549 21.984 37.6735C21.9136 36.5599 22.0329 35.4505 22.1358 34.3418C22.2359 33.2678 22.319 32.1889 22.3482 31.1101C22.3966 29.3368 22.2887 27.566 22.2123 25.794C22.1661 24.7389 22.2766 23.6711 22.3614 22.6136C22.4378 21.6611 22.533 20.7061 22.6953 19.7676C22.9676 18.1926 23.329 16.6403 23.8428 15.1355C24.3308 13.7088 24.8914 12.3194 25.683 11.0685C26.2254 10.2105 26.841 9.40872 27.4324 8.5703L27.2569 8.50134C25.3326 7.8234 23.3769 7.29374 21.3656 7.06248C20.4145 6.95325 19.46 6.88918 18.5061 6.82633C18.2134 6.8068 17.9164 6.85073 17.6226 6.88185C16.8953 6.95874 16.1593 6.98925 15.4436 7.14058C14.2256 7.39748 13.0571 7.82951 11.975 8.53307C11.0035 9.16464 10.1877 9.98109 9.50445 10.9605C8.74968 12.0418 8.24192 13.2646 7.87718 14.5686C7.44644 16.107 7.24124 17.6898 7.18568 19.2873C7.13727 20.6878 7.11306 22.0961 7.33091 23.4911C7.4932 24.5296 7.60157 25.5792 7.78036 26.6135C8.02407 28.0237 8.28537 29.4308 8.58739 30.8264C9.01924 32.8242 9.45053 34.825 9.96215 36.7984C10.4518 38.6895 11.0041 40.5634 11.6026 42.4148C12.0922 43.9257 12.6583 45.4085 13.2546 46.8717C13.643 47.8249 14.1134 48.742 14.6063 49.6347C15.1305 50.5824 15.7269 51.4818 16.5361 52.1695C17.5571 53.0379 18.3477 53.1727 19.3852 52.2202C19.8297 51.812 20.2054 51.3079 20.5922 50.8277C21.2066 50.0649 21.7997 49.2814 22.4114 48.5162C23.1904 47.5411 23.9793 46.5764 24.7621 45.6062C24.9277 45.4011 25.0867 45.19 25.2478 44.9825L24.9816 44.7232C24.0148 43.701 23.248 42.4691 22.7288 41.1041V41.1041ZM52.2638 12.0772C52.9039 12.9026 53.5112 13.7585 54.0842 14.6425C55.1844 16.3565 56.0635 18.2073 56.711 20.1874C56.9976 21.06 57.2265 21.9411 57.1241 22.8961C57.0532 23.5649 57.0592 24.2434 57.0059 24.9159C56.9613 25.4755 56.8815 26.032 56.8161 26.5897C56.7181 27.4306 56.5762 28.269 56.5339 29.1135C56.4937 29.9171 56.5355 30.7293 56.5812 31.5348C56.6274 32.3531 56.7269 33.1677 56.7946 33.9848C56.8711 34.9111 56.974 35.8374 56.9976 36.7655C57.0169 37.5276 56.9558 38.2947 56.8958 39.0556C56.8243 39.9721 56.6147 40.8594 56.3023 41.7106C56.0828 42.3098 55.8203 42.8907 55.5722 43.4906L55.6718 43.6077L55.8231 43.7377L55.9755 43.435C57.2623 41.1886 58.4061 38.8452 59.3983 36.4219C60.0332 34.8577 60.6361 33.2776 61.2066 31.6831C62.1 29.2032 62.8069 26.6538 63.3537 24.0537C63.5991 22.8863 63.7867 21.7013 63.9534 20.5163C64.0832 19.59 64.1916 18.6527 64.2158 17.7179C64.2416 16.7263 64.1921 15.7268 64.1096 14.7377C64.048 13.9908 63.8818 13.239 63.4599 12.6318C62.7816 11.6543 62.0494 10.7194 61.1488 9.97987C60.3908 9.35685 59.6354 8.71797 58.8218 8.1938C57.5318 7.36392 56.1356 6.81107 54.6766 6.43457C53.2529 6.06662 51.8105 5.90797 50.3587 5.8744C49.5027 5.85427 48.6429 5.95617 47.7886 6.04526C47.0145 6.12581 46.2455 6.26311 45.4659 6.3766C46.3021 6.89833 47.1268 7.36209 47.9046 7.90883C49.5401 9.05785 51.0057 10.4406 52.2638 12.0772V12.0772ZM31.0153 44.2485C31.544 42.3733 32.2641 40.5829 32.9617 38.7816C33.5272 37.3208 33.8364 35.7818 33.9392 34.2014C33.9904 33.4222 33.9761 32.6332 33.9414 31.8515C33.907 30.9819 33.8351 30.1146 33.7258 29.2526C33.5795 28.1536 33.4128 27.0541 33.1784 25.9752C32.9243 24.8079 32.2834 23.9951 31.1853 23.6955C30.5164 23.513 29.8518 23.5204 29.1757 23.6387C27.5243 23.9274 26.0125 24.6022 24.6042 25.5908C24.3209 25.7897 24.1652 25.9502 24.2142 26.4011C24.3176 27.3561 24.3401 28.3263 24.3363 29.2905C24.3308 30.6549 24.2785 32.0193 24.2318 33.3831C24.2164 33.8273 24.1586 34.2691 24.1157 34.7115C24.0497 35.3889 23.9226 36.0656 23.9265 36.7417C23.9303 37.4385 23.9947 38.1519 24.1471 38.8268C24.6312 40.9668 25.6566 42.7181 27.3372 43.9537C28.3709 44.7134 29.5146 45.0966 30.77 45.1693C30.8552 44.8495 30.9312 44.5475 31.0153 44.2485ZM29.0426 25.8892C28.8214 25.3742 28.948 24.9476 29.4607 24.7499C29.5856 24.7011 29.7143 24.6492 29.8441 24.6352C30.0224 24.6157 30.2039 24.6303 30.3843 24.6303C31.0346 24.634 31.6601 24.7347 32.197 25.1935C32.5414 25.4877 32.6338 25.8782 32.411 26.2791C32.0947 26.8478 31.6122 27.1334 31.0197 27.1883C30.0862 27.2743 29.431 26.7917 29.0426 25.8892ZM54.9203 25.7012C54.9952 25.0154 55.0551 24.3277 55.1316 23.6418C55.1624 23.366 55.0315 23.2915 54.823 23.2848C54.1672 23.2647 53.5115 23.239 52.8557 23.2256C52.1164 23.211 51.3968 23.3428 50.7125 23.6546C49.9533 24.0012 49.3751 24.5565 49.1391 25.473C48.9664 26.1489 48.9117 26.8552 48.9779 27.5538C49.0698 28.6342 49.2905 29.6963 49.6342 30.7122C50.093 32.0675 50.5733 33.4222 51.1471 34.7207C51.9244 36.4787 52.804 38.1806 53.6298 39.9117C53.8504 40.3736 54.0357 40.8557 54.2657 41.3951C54.7293 40.3227 54.9826 39.1535 55.0089 37.9645C55.0315 36.9821 54.9605 35.9954 54.9088 35.0124C54.8763 34.4107 54.7999 33.8127 54.7471 33.2123C54.6733 32.3757 54.5617 31.5397 54.5446 30.7013C54.5276 29.8488 54.582 28.9915 54.648 28.1402C54.7102 27.3238 54.8318 26.514 54.9203 25.7012V25.7012ZM53.4411 25.041C53.1974 25.7873 52.6764 26.2083 52.0008 26.3322C51.371 26.4469 50.8192 26.1888 50.4088 25.6317C50.1167 25.235 50.2283 24.7652 50.6662 24.4973C51.1691 24.1885 51.7219 24.1104 52.3738 24.0634C52.551 24.0994 52.8178 24.1293 53.0714 24.2099C53.4394 24.3252 53.5753 24.6321 53.4411 25.041ZM33.9546 48.0214C33.5943 47.6949 33.1179 47.676 32.7752 48.0342C32.3499 48.4796 31.9758 48.9891 31.6018 49.4913C31.1699 50.0717 30.765 50.6751 30.2078 51.1249C29.3969 51.7784 28.4518 52.0493 27.5017 52.3056C26.7464 52.5094 25.9878 52.6986 25.2302 52.8945L25.2209 53.0031C25.4459 53.1184 25.6637 53.2624 25.8981 53.3448C27.0533 53.7506 28.2284 53.9526 29.4491 53.8378C30.3304 53.7549 31.1699 53.5419 31.9654 53.1233C33.0601 52.5479 33.9024 51.6362 34.6186 50.5757C34.7386 50.3987 34.793 50.1369 34.8073 49.9087C34.8563 49.1026 34.4872 48.5034 33.9546 48.0214V48.0214ZM62.424 48.3423C61.4943 48.4528 60.5635 48.5699 59.631 48.6291C59.181 48.6578 58.7244 48.5626 58.27 48.5217C57.5081 48.4534 56.7644 48.2654 56.1202 47.8139C55.7472 47.5533 55.4375 47.524 55.0414 47.6717C54.4758 47.8828 54.0143 48.2038 53.8779 48.8836C53.7849 49.3431 53.7513 49.819 53.7139 50.2895C53.7068 50.3725 53.8003 50.525 53.8718 50.5458C54.3081 50.6733 54.7465 50.824 55.1927 50.8686C55.7406 50.9235 56.2984 50.9058 56.8502 50.8753C57.446 50.8423 58.0456 50.7996 58.6326 50.6898C60.0161 50.4323 61.3546 50.0125 62.5434 49.1423C62.9719 48.828 63.3966 48.5071 63.8224 48.1892L63.7872 48.122C63.3328 48.1971 62.8806 48.2886 62.424 48.3423V48.3423Z" fill="#336791"/>
</svg>
