<svg width="72" height="79" viewBox="0 0 72 79" fill="none" xmlns="http://www.w3.org/2000/svg">
<path d="M53.6875 25.2178H53.4069C50.5337 25.1962 47.7362 26.2392 45.4581 28.1814C43.1799 30.1236 41.5515 32.8538 40.8311 35.9391H40.7651C40.2531 38.9431 38.748 41.6267 36.545 43.4639C34.342 45.3011 31.5999 46.1594 28.856 45.8707C26.1121 45.582 23.5644 44.1671 21.7121 41.9032C19.8598 39.6393 18.8365 36.6898 18.8428 33.6326C18.8438 33.1813 18.8732 32.7307 18.9308 32.284C18.9308 32.1925 18.9308 32.1009 18.9638 32.0094C18.9968 31.9179 19.0188 31.6616 19.0518 31.4907C20.1383 25.8209 22.3555 20.4929 25.5407 15.8975C28.7259 11.3022 32.7982 7.55628 37.4589 4.93456C33.6305 3.68871 29.6002 3.40226 25.6598 4.09594C21.7193 4.78961 17.9671 6.44607 14.6745 8.94548C11.3819 11.4449 8.63131 14.7248 6.62163 18.5479C4.61196 22.3711 3.39345 26.6419 3.05425 31.0514C3.02124 31.1612 2.97173 31.265 2.93872 31.3748V75.0351H18.8923V60.921C23.5914 63.2477 28.7928 64.0338 33.8818 63.1864C38.9708 62.339 43.7348 59.8935 47.6109 56.1389C51.487 52.3843 54.3132 47.4774 55.7556 41.9981C57.1979 36.5188 57.1961 30.696 55.7505 25.2178H53.66H53.6875Z" fill="#FA930D"/>
<path d="M38.1026 35.3777L38.1521 35.2862C38.9883 31.5548 40.926 28.2409 43.6565 25.8723C46.3871 23.5037 49.7536 22.2164 53.22 22.2156H60.8392C62.015 22.1799 63.1705 21.8657 64.2279 21.2942C63.9639 21.2576 63.6778 21.2148 63.4357 21.1538C61.527 20.731 59.7552 19.7491 58.3041 18.3102C56.8531 16.8713 55.7757 15.0277 55.1839 12.9709C56.7884 15.301 59.101 16.9056 61.6919 17.4865C63.8946 17.972 66.179 17.684 68.2273 16.6627C68.7778 15.2603 69.0056 13.7281 68.8901 12.2038C68.7746 10.6796 68.3195 9.21102 67.5657 7.93017C66.8118 6.64932 65.7829 5.59628 64.5714 4.8657C63.3598 4.13512 62.0036 3.74989 60.6246 3.74463H53.22C45.8744 3.746 38.75 6.53279 33.0286 11.6427C27.3071 16.7526 23.3325 23.8786 21.764 31.8385C21.637 32.4392 21.5652 33.0525 21.5494 33.6691C21.5481 35.9751 22.3223 38.1987 23.7205 39.9052C25.1187 41.6116 27.0405 42.6782 29.1101 42.8964C31.1797 43.1146 33.2482 42.4687 34.9113 41.085C36.5743 39.7013 37.7123 37.6793 38.1026 35.4143V35.3777ZM58.0335 9.07783C58.1327 8.52111 58.3786 8.00953 58.74 7.60786C59.1014 7.20618 59.5621 6.93246 60.0638 6.82134C60.5655 6.71021 61.0856 6.76669 61.5584 6.98361C62.0312 7.20053 62.4353 7.56815 62.7196 8.03993C63.0039 8.51172 63.1557 9.06646 63.1556 9.63395C63.1556 10.2014 63.0038 10.7562 62.7194 11.2279C62.4351 11.6997 62.0309 12.0672 61.5581 12.2841C61.0853 12.5009 60.5652 12.5574 60.0635 12.4462C59.3937 12.2945 58.8051 11.8554 58.4259 11.2244C58.0467 10.5935 57.9077 9.82196 58.039 9.07783H58.0335ZM68.9535 65.9369C68.9535 67.1509 68.7379 68.353 68.3191 69.4746C67.9002 70.5962 67.2863 71.6154 66.5124 72.4738C65.7385 73.3322 64.8197 74.0132 63.8085 74.4778C62.7974 74.9424 61.7136 75.1815 60.6191 75.1815H53.22C45.474 75.1863 37.9887 72.0776 32.1503 66.4311C39.3774 65.8357 46.1552 62.3155 51.1955 56.5397C51.8667 56.6399 52.5428 56.6929 53.22 56.6983H60.6191C62.8281 56.7 64.9463 57.6736 66.5088 59.4056C68.0714 61.1377 68.9506 63.4866 68.9535 65.9369V65.9369Z" fill="#4D8548"/>
</svg>
