<svg width="72" height="79" viewBox="0 0 72 79" fill="none" xmlns="http://www.w3.org/2000/svg">
<path d="M35.6111 7.47387C33.2885 7.48608 31.0715 7.70514 29.1196 8.08835C23.3709 9.21479 22.3278 11.5726 22.3278 15.9216V21.6642H35.912V23.5784H17.2293C13.2816 23.5784 9.82466 26.2103 8.74312 31.2188C7.49544 36.9578 7.44043 40.5397 8.74312 46.5326C9.70858 50.9938 12.0147 54.1717 15.9629 54.1717H20.634V47.2874C20.634 42.3136 24.5129 37.9268 29.1202 37.9268H42.689C46.4661 37.9268 49.4808 34.4767 49.4808 30.27V15.9222C49.4808 11.8381 46.3748 8.77056 42.689 8.08896C40.3542 7.65816 37.9332 7.46228 35.6111 7.47387V7.47387ZM28.2648 12.0925C29.6676 12.0925 30.814 13.3843 30.814 14.9733C30.814 16.5556 29.6681 17.8352 28.2648 17.8352C26.8564 17.8352 25.716 16.5556 25.716 14.9733C25.7155 13.3843 26.8564 12.0925 28.2648 12.0925V12.0925Z" fill="url(#paint0_linear_221_1340)"/>
<path d="M51.1746 23.5785V30.27C51.1746 35.4568 47.2094 39.8228 42.6885 39.8228H29.1197C25.4031 39.8228 22.3279 43.3516 22.3279 47.4803V61.8293C22.3279 65.9122 25.5285 68.3145 29.1197 69.4855C33.4194 70.8872 37.5432 71.141 42.6885 69.4855C46.108 68.3866 49.4803 66.1764 49.4803 61.8293V56.086H35.9121V54.1712H56.2732C60.2209 54.1712 61.693 51.1171 63.0661 46.532C64.4843 41.8121 64.4232 37.2727 63.0661 31.2183C62.0902 26.8584 60.2269 23.5779 56.2732 23.5779H51.1746V23.5785ZM43.5428 59.9144C44.9517 59.9144 46.0921 61.1941 46.0921 62.7775C46.0921 64.3653 44.9511 65.6571 43.5428 65.6571C42.14 65.6571 40.9941 64.3653 40.9941 62.7775C40.9941 61.1941 42.14 59.9144 43.5428 59.9144V59.9144Z" fill="url(#paint1_linear_221_1340)"/>
<path opacity="0.444" d="M54.2701 72.9789C54.2701 75.1409 46.1195 76.894 36.066 76.894C26.0119 76.894 17.8613 75.1409 17.8613 72.9789C17.8613 70.8164 26.0114 69.0632 36.066 69.0632C46.1195 69.0632 54.2701 70.8157 54.2701 72.9789Z" fill="url(#paint2_radial_221_1340)"/>
<defs>
<linearGradient id="paint0_linear_221_1340" x1="6.42484" y1="9.26949" x2="40.4378" y2="35.4195" gradientUnits="userSpaceOnUse">
<stop stop-color="#5A9FD4"/>
<stop offset="1" stop-color="#306998"/>
</linearGradient>
<linearGradient id="paint1_linear_221_1340" x1="49.5446" y1="57.3304" x2="36.7163" y2="41.1123" gradientUnits="userSpaceOnUse">
<stop stop-color="#FFD43B"/>
<stop offset="1" stop-color="#FFE873"/>
</linearGradient>
<radialGradient id="paint2_radial_221_1340" cx="0" cy="0" r="1" gradientUnits="userSpaceOnUse" gradientTransform="translate(35.9924 72.8668) rotate(-90) scale(3.9165 15.5211)">
<stop stop-color="#B8B8B8" stop-opacity="0.498"/>
<stop offset="1" stop-color="#7F7F7F" stop-opacity="0"/>
</radialGradient>
</defs>
</svg>
