<svg width="72" height="79" viewBox="0 0 72 79" fill="none" xmlns="http://www.w3.org/2000/svg">
<path d="M24.1835 3.05217C23.8501 3.06316 23.4914 3.19801 23.0844 3.54888C22.087 3.12845 21.1204 2.98261 20.2556 3.83812C18.9205 3.64895 18.4864 4.03949 18.1575 4.49531C17.8648 4.4886 15.9647 4.1658 15.0933 5.58636C12.9038 5.30322 12.2112 6.99349 12.9951 8.56966C12.5484 9.32631 12.0847 10.0732 13.1304 11.5151C12.7608 12.3188 12.9902 13.1895 13.8621 14.2446C13.6316 15.3735 14.0838 16.1698 14.8947 16.791C14.7429 18.3354 16.1913 19.2342 16.6237 19.554C16.7899 20.454 17.1364 21.3041 18.7912 21.7733C19.0635 23.1158 20.0581 23.347 21.0208 23.6283C17.8384 25.6499 15.1092 28.3086 15.1279 34.8335L14.6614 35.7428C11.0125 38.1671 7.72934 45.9594 12.8631 52.2934C13.1987 54.2766 13.7609 55.7002 14.2615 57.2763C15.0108 63.628 19.8986 66.6015 21.1875 66.9536C23.0772 68.5255 25.089 70.0168 27.8121 71.0621C30.3784 73.9545 33.1593 75.0565 35.9556 75.0553H36.0788C38.8751 75.0571 41.6559 73.9545 44.2223 71.0621C46.9454 70.0174 48.9572 68.5255 50.8463 66.9536C52.1358 66.6015 57.0236 63.628 57.7723 57.2757C58.2729 55.7002 58.8357 54.2766 59.1713 52.2934C64.305 45.9594 61.0219 38.1659 57.3724 35.7409L56.9059 34.8329C56.9246 28.3086 54.1954 25.6493 51.013 23.6277C51.9757 23.3464 52.9703 23.1145 53.2432 21.7727C54.8974 21.3028 55.2434 20.4534 55.4095 19.5534C55.8425 19.233 57.291 18.3348 57.1391 16.7891C57.95 16.1692 58.4022 15.3722 58.1723 14.2434C59.0436 13.1889 59.2725 12.3175 58.9028 11.5145C59.9491 10.0732 59.4848 9.3257 59.0381 8.56905C59.8221 6.99288 59.1306 5.30261 56.94 5.58575C56.0686 4.1658 54.169 4.4886 53.8758 4.4947C53.5468 4.03888 53.1128 3.64834 51.7776 3.83751C50.9134 2.98261 49.9463 3.12845 48.9489 3.54888C47.765 2.528 46.9811 3.34629 46.0861 3.65567C44.6524 3.14309 44.3246 3.84483 43.6204 4.13041C42.057 3.76916 41.5817 4.55511 40.8318 5.38499L39.9599 5.36607C37.6021 6.88427 36.4303 9.97618 36.0155 11.5658C35.5996 9.97557 34.4312 6.88366 32.0734 5.36607L31.2014 5.38438C30.451 4.5545 29.9757 3.76916 28.4123 4.13041C27.7081 3.84483 27.3808 3.1437 25.9461 3.65567C25.3586 3.45247 24.8183 3.0302 24.1824 3.05156L24.1835 3.05217" fill="#050606"/>
<path d="M19.5355 9.73285C25.792 13.2562 29.4289 16.1077 31.4214 18.5357C30.4015 23.0042 25.0779 23.208 23.1311 23.0823C23.5299 22.8797 23.8627 22.6369 23.9804 22.2647C23.4919 21.8851 21.7601 22.2244 20.551 21.4818C21.0153 21.3768 21.2326 21.2743 21.4499 20.9002C20.3073 20.5018 19.0772 20.1588 18.3532 19.4992C18.7438 19.5053 19.1086 19.595 19.6185 19.2081C18.5953 18.6059 17.5033 18.1287 16.6556 17.2079C17.1837 17.1938 17.7547 17.2018 17.9208 16.9894C16.984 16.356 16.1935 15.6506 15.5399 14.8799C16.2804 14.9776 16.5928 14.8934 16.7722 14.7518C16.0636 13.9604 15.168 13.2916 14.7406 12.3152C15.2907 12.5227 15.7935 12.602 16.1561 12.2969C15.9151 11.7038 14.8847 11.3542 14.2911 9.969C14.8699 10.03 15.4838 10.1069 15.6065 9.969C15.338 8.773 14.877 8.10116 14.4248 7.40492C15.6631 7.38478 17.5396 7.4098 17.4549 7.29508L16.6891 6.44079C17.8988 6.08504 19.1366 6.49815 20.0355 6.80447C20.4388 6.45665 20.0284 6.01731 19.536 5.56758C20.5642 5.71769 21.4928 5.97642 22.3323 6.33156C22.7812 5.88916 22.0413 5.44676 21.6831 5.00375C23.2719 5.33327 23.9447 5.7958 24.6131 6.25895C25.0988 5.75065 24.6406 5.31923 24.3138 4.87683C25.5114 5.36133 26.1281 5.98741 26.7778 6.60432C26.9979 6.2797 27.3367 6.04171 26.9274 5.25821C27.7774 5.79397 28.4183 6.42492 28.8914 7.13154C29.4179 6.76542 29.205 6.26505 29.2083 5.80434C30.0917 6.58968 30.6529 7.42505 31.3394 8.24151C31.477 8.13167 31.598 7.75822 31.7053 7.16816C33.8133 9.40273 36.7922 15.0313 32.471 17.2628C28.7935 13.9494 24.4007 11.5403 19.5338 9.73285H19.5349M52.6737 9.73285C46.4172 13.2568 42.7803 16.1071 40.7878 18.5357C41.8083 23.0042 47.1318 23.208 49.0781 23.0823C48.6793 22.8797 48.347 22.6369 48.2293 22.2647C48.7178 21.8851 50.4496 22.2244 51.6587 21.4818C51.1944 21.3768 50.9766 21.2743 50.7598 20.9002C51.9019 20.5018 53.1325 20.1588 53.8559 19.4992C53.4653 19.5053 53.1006 19.595 52.5906 19.2081C53.6139 18.6059 54.7059 18.1287 55.5542 17.2079C55.0249 17.1938 54.455 17.2018 54.2889 16.9894C55.2257 16.356 56.0157 15.6506 56.6698 14.8799C55.9293 14.9776 55.6169 14.8934 55.4375 14.7518C56.1455 13.9604 57.0417 13.2916 57.4686 12.3152C56.919 12.5227 56.4162 12.602 56.0537 12.2969C56.2941 11.7038 57.3244 11.3542 57.9186 9.969C57.3393 10.03 56.7259 10.1069 56.6027 9.969C56.8722 8.773 57.3327 8.10055 57.7849 7.40431C56.5466 7.38417 54.6701 7.40919 54.7548 7.29508L55.5212 6.44079C54.3109 6.08443 53.0731 6.49754 52.1748 6.80386C51.771 6.45604 52.1819 6.0167 52.6737 5.56697C51.6461 5.71708 50.7169 5.97581 49.8774 6.33095C49.4285 5.88855 50.1685 5.44615 50.5266 5.00314C48.9384 5.33266 48.2656 5.79519 47.5966 6.25834C47.1114 5.75004 47.5691 5.31862 47.8959 4.87622C46.6983 5.36072 46.0816 5.9868 45.4325 6.60371C45.2124 6.27908 44.873 6.0411 45.2823 5.2576C44.4323 5.79336 43.7914 6.42431 43.3183 7.13093C42.7919 6.76481 43.0048 6.26444 43.0015 5.80373C42.118 6.58907 41.5568 7.42505 40.8708 8.2409C40.7328 8.13106 40.6117 7.75761 40.5045 7.16755C38.3964 9.40212 35.4175 15.0307 39.7387 17.2622C43.4146 13.9475 47.8062 11.5391 52.6743 9.73224H52.6737" fill="#63C54D"/>
<path d="M43.671 55.2359C43.693 59.4054 40.3549 62.8037 36.2163 62.8256C32.0772 62.8476 28.7044 59.4854 28.6824 55.3152V55.2359C28.6604 51.0657 31.998 47.6675 36.1371 47.6455C40.2762 47.6236 43.649 50.9858 43.671 55.156V55.2353M31.9858 33.6669C35.0913 35.8893 35.6508 40.9284 33.2363 44.9203C30.8212 48.9129 26.3465 50.3475 23.2411 48.1245C20.1362 45.9022 19.5762 40.8631 21.9907 36.8711C24.4057 32.8785 28.8804 31.4439 31.9858 33.6669M40.3675 33.2642C37.2621 35.4872 36.702 40.5256 39.1171 44.5182C41.5321 48.5102 46.0068 49.9454 49.1117 47.7218C52.2171 45.4994 52.7772 40.461 50.3621 36.4684C47.9471 32.4764 43.473 31.0418 40.3675 33.2648M16.6578 37.3239C20.0102 36.3421 17.7894 52.4784 15.0619 51.1542C12.061 48.5175 11.0944 40.7947 16.6572 37.3239M55.4024 37.1231C52.0494 36.1413 54.2702 52.2776 56.9983 50.9541C59.9992 48.3168 60.9652 40.594 55.4024 37.1231ZM44.1579 25.0838C49.9435 24.0159 54.7576 27.7717 54.5634 34.6268C54.3731 37.2543 42.0261 25.4749 44.1579 25.0832M28.1718 24.8824C22.3851 23.8145 17.571 27.5716 17.7657 34.426C17.9561 37.0536 30.303 25.2735 28.1718 24.8824ZM36.1426 23.2837C32.6895 23.186 29.3755 26.0845 29.3673 27.765C29.3579 29.808 32.0975 31.8992 36.1668 31.9522C40.3213 31.9846 42.9723 30.2784 42.9861 28.1702C43.0009 25.7818 39.2068 23.247 36.1426 23.2837ZM36.4094 65.1713C39.4202 65.0273 43.4603 66.2306 43.468 67.8263C43.5181 69.3762 39.8042 72.8776 36.2097 72.8104C32.487 72.9856 28.8369 69.4787 28.8848 68.2632C28.8292 66.4808 33.4178 65.0895 36.4094 65.1713M25.2672 55.7119C27.4105 58.5341 28.3875 63.4908 26.5991 64.9516C24.9069 66.0677 20.7969 65.6082 17.8752 61.0231C15.9058 57.1763 16.1594 53.2613 17.5429 52.111C19.6114 50.7344 22.8076 52.5937 25.2667 55.7119M46.8491 54.8179C44.5292 57.7859 43.2375 63.1991 44.9297 64.9424C46.547 66.2971 50.8897 66.1079 54.098 61.2446C56.4272 57.9788 55.6466 52.5247 54.3164 51.0761C52.3398 49.4054 49.5028 51.5429 46.8485 54.8167V54.8179" fill="#C51850"/>
</svg>
