<svg width="71" height="79" viewBox="0 0 71 79" fill="none" xmlns="http://www.w3.org/2000/svg">
<path d="M35.4815 46.5741C38.9451 46.5741 41.7529 43.4596 41.7529 39.6177C41.7529 35.7758 38.9451 32.6614 35.4815 32.6614C32.0179 32.6614 29.2101 35.7758 29.2101 39.6177C29.2101 43.4596 32.0179 46.5741 35.4815 46.5741Z" fill="#61DAFB"/>
<path d="M59.3018 28.1457C58.0915 27.6576 56.8262 27.1694 55.5059 26.7423C55.836 25.2778 56.1111 23.8133 56.3311 22.4098C57.4864 14.3551 56.2211 8.68015 52.7003 6.48341C51.6551 5.81218 50.4998 5.50708 49.1795 5.50708C45.3287 5.50708 40.4326 8.68015 35.4815 13.9889C30.5304 8.68015 25.6343 5.50708 21.7834 5.50708C20.4631 5.50708 19.3079 5.81218 18.2627 6.48341C14.7419 8.74117 13.4766 14.4161 14.6318 22.4098C14.8519 23.8133 15.127 25.2778 15.457 26.7423C14.1367 27.1694 12.8715 27.5965 11.6612 28.1457C4.78466 31.0747 1.04382 35.1021 1.04382 39.6176C1.04382 44.1331 4.83967 48.1605 11.6612 51.0895C12.8715 51.5777 14.1367 52.0658 15.457 52.493C15.127 53.9575 14.8519 55.422 14.6318 56.8254C13.4766 64.8802 14.7419 70.5551 18.2627 72.7518C19.3079 73.423 20.4631 73.7281 21.7834 73.7281C25.6893 73.7281 30.5854 70.5551 35.4815 65.2463C40.4326 70.5551 45.3287 73.7281 49.1795 73.7281C50.4998 73.7281 51.6551 73.423 52.7003 72.7518C56.2211 70.4941 57.4864 64.8191 56.3311 56.8254C56.1111 55.422 55.836 53.9575 55.5059 52.493C56.8262 52.0658 58.0915 51.6387 59.3018 51.0895C66.1783 48.1605 69.9191 44.1331 69.9191 39.6176C69.9191 35.1021 66.1783 31.0747 59.3018 28.1457V28.1457ZM51.16 9.53444C53.4155 10.9989 54.1856 15.5145 53.2504 21.9216C53.0854 23.2031 52.8103 24.5455 52.4803 25.949C49.6196 25.2167 46.5939 24.7286 43.4032 24.4235C41.5328 21.4945 39.6074 18.8706 37.682 16.4908C41.7529 12.0363 45.8788 8.98526 49.2345 8.98526C49.9497 8.98526 50.6098 9.16832 51.16 9.53444V9.53444ZM44.9986 45.7197C44.0084 47.6723 42.8531 49.625 41.6428 51.5777C39.6074 51.7607 37.5719 51.8217 35.4815 51.8217C33.336 51.8217 31.3005 51.7607 29.3201 51.5777C28.1098 49.625 27.0096 47.6723 26.0194 45.7197C24.9741 43.706 23.9839 41.6313 23.1037 39.6176C23.9839 37.6039 24.9741 35.5292 26.0194 33.5156C27.0096 31.5629 28.1649 29.6102 29.3751 27.6576C31.4106 27.4745 33.446 27.4135 35.5365 27.4135C37.682 27.4135 39.7174 27.4745 41.6979 27.6576C42.9081 29.6102 44.0084 31.5629 44.9986 33.5156C46.0438 35.5292 47.034 37.6039 47.9142 39.6176C46.979 41.6313 46.0438 43.645 44.9986 45.7197ZM49.5646 43.706C50.3898 45.8417 51.0499 47.9164 51.6551 49.9911C49.7847 50.4793 47.8042 50.8454 45.7137 51.1505C46.3739 49.9911 47.0891 48.7707 47.6942 47.4893C48.3543 46.2078 48.9595 44.9264 49.5646 43.706ZM35.4815 60.2426C34.1612 58.6561 32.8959 56.9475 31.6856 55.1779C32.9509 55.2389 34.2162 55.2999 35.4815 55.2999C36.7468 55.2999 38.012 55.2389 39.2773 55.1779C38.0671 56.9475 36.8018 58.6561 35.4815 60.2426ZM25.2492 51.0895C23.1587 50.7844 21.1783 50.4183 19.3079 49.9301C19.913 47.9164 20.5732 45.7807 21.3983 43.645C22.0035 44.8654 22.6086 46.1468 23.2688 47.3672C23.9289 48.7097 24.5891 49.8691 25.2492 51.0895V51.0895ZM21.3983 35.5292C20.5732 33.3935 19.913 31.3188 19.3079 29.2441C21.1783 28.7559 23.1587 28.3898 25.2492 28.0847C24.5891 29.2441 23.8739 30.4645 23.2688 31.746C22.6086 33.0274 22.0035 34.3088 21.3983 35.5292V35.5292ZM35.4815 18.9926C36.8018 20.5792 38.0671 22.2878 39.2773 24.0574C38.012 23.9963 36.7468 23.9353 35.4815 23.9353C34.2162 23.9353 32.9509 23.9963 31.6856 24.0574C32.8959 22.2878 34.1612 20.5792 35.4815 18.9926ZM47.6942 31.807L45.7137 28.1457C47.8042 28.4508 49.7847 28.817 51.6551 29.3051C51.0499 31.3188 50.3898 33.4545 49.5646 35.5903C48.9595 34.3088 48.3543 33.0274 47.6942 31.807ZM17.7125 21.9216C16.7773 15.5145 17.5475 10.9989 19.803 9.53444C20.3531 9.16832 21.0133 8.98526 21.7284 8.98526C25.0292 8.98526 29.1551 11.9753 33.281 16.4908C31.3556 18.8096 29.4301 21.4945 27.5597 24.4235C24.369 24.7286 21.3433 25.2778 18.4827 25.949C18.1526 24.5455 17.9326 23.2031 17.7125 21.9216V21.9216ZM4.12451 39.6176C4.12451 36.7496 7.26021 33.6986 12.7614 31.4408C13.8617 30.9527 15.0719 30.5255 16.2822 30.1594C17.1624 33.2104 18.2626 36.4445 19.5829 39.6786C18.2626 42.9127 17.1074 46.0858 16.2822 49.1368C8.69052 46.696 4.12451 43.0348 4.12451 39.6176ZM19.803 69.7008C17.5475 68.2363 16.7773 63.7208 17.7125 57.3136C17.8776 56.0322 18.1526 54.6897 18.4827 53.2862C21.3433 54.0185 24.369 54.5066 27.5597 54.8118C29.4301 57.7407 31.3556 60.3646 33.281 62.7444C29.2101 67.1989 25.0842 70.25 21.7284 70.25C21.0133 70.25 20.3531 70.0669 19.803 69.7008ZM53.2504 57.3136C54.1856 63.7208 53.4155 68.2363 51.16 69.7008C50.6098 70.0669 49.9497 70.25 49.2345 70.25C45.9338 70.25 41.8079 67.26 37.682 62.7444C39.6074 60.4256 41.5328 57.7407 43.4032 54.8118C46.5939 54.5066 49.6196 53.9575 52.4803 53.2862C52.8103 54.6897 53.0304 56.0322 53.2504 57.3136V57.3136ZM58.2015 47.7944C57.1013 48.2825 55.891 48.7097 54.6807 49.0758C53.8005 46.0248 52.7003 42.7907 51.38 39.5566C52.7003 36.3225 53.8556 33.1494 54.6807 30.0984C62.2724 32.5392 66.8384 36.2005 66.8384 39.6176C66.8384 42.4856 63.6477 45.5366 58.2015 47.7944Z" fill="#61DAFB"/>
</svg>
