<svg width="72" height="79" viewBox="0 0 72 79" fill="none" xmlns="http://www.w3.org/2000/svg">
<path d="M17.2653 7.84127L36.1786 5.63843L55.0918 7.84127L69.736 29.467L36.1786 72.4682L2.62109 29.467L17.2653 7.84127Z" fill="#FDB300"/>
<path d="M16.2146 29.4668L36.1786 72.468L2.62109 29.4668H16.2146ZM56.1425 29.4668L36.1786 72.468L69.736 29.4668H56.1425V29.4668Z" fill="#EA6C00"/>
<path d="M16.2146 29.4668H56.1425L36.1785 72.468L16.2146 29.4668Z" fill="#FDAD00"/>
<path d="M36.1785 5.63843L17.2653 7.84127L16.2146 29.467L36.1785 5.63843ZM36.1785 5.63843L55.0917 7.84127L56.1425 29.467L36.1785 5.63843Z" fill="#FDD231"/>
<path d="M69.7359 29.4668L55.0917 7.84106L56.1424 29.4668H69.7359Z" fill="#FDAD00"/>
<path d="M36.1785 5.63843L16.2146 29.467H56.1425L36.1785 5.63843Z" fill="#FEEEB7"/>
<path d="M2.62109 29.4668L17.2653 7.84106L16.2146 29.4668H2.62109Z" fill="#FDAD00"/>
</svg>
