<svg width="72" height="79" viewBox="0 0 72 79" fill="none" xmlns="http://www.w3.org/2000/svg">
<path d="M64.6397 4.66395C63.6536 7.28825 62.3911 9.774 60.8786 12.0694C54.2518 4.72308 45.2665 0.595745 35.8975 0.594482C16.5216 0.594482 0.576904 18.2954 0.576904 39.8112C0.576698 45.1243 1.54908 50.3822 3.43512 55.266C5.32116 60.1499 8.08159 64.5582 11.5491 68.2237L12.8518 69.5051C19.2183 75.4591 27.2763 78.7272 35.6037 78.7326C54.0257 78.7326 69.5116 62.7208 70.8231 42.3137C71.7864 32.324 69.1447 19.6891 64.6397 4.66395V4.66395ZM16.5673 68.447C16.2837 68.8346 15.9257 69.1471 15.5195 69.3618C15.1132 69.5765 14.6689 69.688 14.2188 69.6882C12.5586 69.6882 11.2003 68.1724 11.2003 66.3308C11.2003 64.4898 12.5674 62.9741 14.2188 62.9741C14.9065 62.9741 15.5859 63.2383 16.1179 63.727C17.4112 64.8864 17.6131 67.0124 16.5673 68.447ZM64.4934 56.7078C55.7778 69.5966 37.1633 65.2526 25.2279 65.8731C25.2279 65.8731 23.1088 66.0159 20.9804 66.4022C20.9804 66.4022 21.7781 66.0257 22.815 65.5882C31.1912 62.3535 35.1543 61.7225 40.2457 58.8234C49.8327 53.4115 59.3096 41.5705 61.2823 29.251C57.6312 41.1024 46.5666 51.2856 36.4845 55.4258C29.5766 58.2541 17.0993 61.0006 17.0993 61.0006L16.5948 60.7053C8.09983 56.1178 7.84237 35.7009 23.2826 29.1088C30.0442 26.2195 36.512 27.8066 43.8149 25.8735C51.6128 23.8189 60.631 17.3282 64.3003 8.86461C68.4103 22.4051 73.3553 43.6049 64.4929 56.7078H64.4934Z" fill="#77BC1F"/>
</svg>
