<svg width="71" height="79" viewBox="0 0 71 79" fill="none" xmlns="http://www.w3.org/2000/svg">
<path d="M38.5071 60.9184C38.4747 60.473 38.4554 60.1862 38.4554 60.1862C38.4554 60.1862 37.2418 51.1008 35.795 48.3885C35.5673 47.957 35.8187 46.1954 36.459 43.58C36.8331 44.2934 38.4065 47.3584 38.7244 48.3457C39.0809 49.4588 39.1535 49.7779 39.1535 49.7779C39.1535 49.7779 38.2898 44.8462 36.8738 41.9691C37.218 40.6866 37.5855 39.4121 37.9763 38.1461C38.5115 39.1896 39.7988 41.7213 40.0821 42.6006C40.1382 42.7794 40.1877 42.932 40.2307 43.0729C40.2433 42.9893 40.2582 42.9057 40.2714 42.8203C39.9468 41.2924 39.3087 38.6343 38.4362 36.6682C40.3726 25.4844 46.9801 10.5367 53.7516 3.86719H9.57069C6.60718 3.86719 4.18555 6.55576 4.18555 9.8405V63.8865C4.18555 67.1712 6.60939 69.8598 9.57124 69.8598H38.6711C38.4506 66.8861 38.396 63.9002 38.5077 60.919" fill="#0B7FCC"/>
<path d="M36.459 43.5801C36.8331 44.2928 38.4065 47.356 38.7239 48.3452C39.0809 49.4582 39.1535 49.7773 39.1535 49.7773C39.1535 49.7773 38.2898 44.8456 36.8738 41.9685C37.2183 40.6852 37.5858 39.4096 37.9763 38.1425C38.4642 39.0987 39.5837 41.2967 39.9853 42.3359L40.0304 41.7495C39.674 40.2264 39.1321 38.231 38.4362 36.6677C40.2197 26.3729 45.9619 12.8879 52.1485 5.60938H9.57016C8.55885 5.61034 7.58919 6.05635 6.87403 6.84951C6.15887 7.64267 5.75663 8.71816 5.75562 9.83994V59.944C15.3976 55.8367 27.0255 52.0845 37.0328 52.2468C36.6631 50.6572 36.2401 49.2202 35.795 48.3879C35.5673 47.9565 35.8187 46.193 36.459 43.5801" fill="url(#paint0_linear_221_1334)"/>
<path d="M64.0604 2.09767C61.0347 -0.896007 57.3687 0.30793 53.7544 3.86665C53.1962 4.42058 52.6613 5.00272 52.1513 5.61123C45.9625 12.8886 40.2225 26.3723 38.439 36.6677C39.1332 38.2316 39.6768 40.2264 40.031 41.7495C40.1235 42.14 40.2071 42.5074 40.2742 42.8198C40.431 43.5563 40.5146 44.0378 40.5146 44.0378C40.5146 44.0378 40.459 43.804 40.2313 43.0724C40.1884 42.9321 40.1389 42.7771 40.0827 42.6007C40.0591 42.5244 40.025 42.4335 39.9881 42.3359C39.5843 41.2967 38.467 39.0987 37.9769 38.1456C37.5577 39.5186 37.1864 40.8061 36.8744 41.9685C38.2926 44.8457 39.1569 49.7774 39.1569 49.7774C39.1569 49.7774 39.0815 49.4582 38.7267 48.3452C38.4087 47.3561 36.8337 44.2934 36.4618 43.5801C35.8215 46.1924 35.5679 47.9565 35.7978 48.3885C36.2429 49.2196 36.6637 50.6597 37.0356 52.2469C37.874 55.8269 38.4582 60.1869 38.4582 60.1869C38.4582 60.1869 38.4753 60.4731 38.5099 60.9191C38.3983 63.9001 38.4529 66.8858 38.6733 69.8593C38.9506 73.5876 39.4727 76.793 40.1389 78.5071L40.5944 78.2331C39.6146 74.8556 39.2169 70.4267 39.3907 65.3236C39.6548 57.5172 41.2732 48.1066 44.2626 38.2982C49.3187 23.4884 56.3312 11.609 62.7478 5.93586C56.8983 11.7951 48.9821 30.7615 46.6116 37.7856C43.96 45.6518 42.0797 53.031 40.9448 60.1033C42.8977 53.4746 49.2225 50.6268 49.2225 50.6268C49.2225 50.6268 52.3235 46.3809 55.9488 40.3216C53.7758 40.8726 50.211 41.8117 49.0184 42.367C47.258 43.1871 46.781 43.4654 46.781 43.4654C46.781 43.4654 52.4864 39.6138 57.3819 37.8692C64.1121 26.1105 71.4441 9.40428 64.0609 2.09828" fill="#003956"/>
<defs>
<linearGradient id="paint0_linear_221_1334" x1="32.5054" y1="6.71642" x2="32.5054" y2="56.9197" gradientUnits="userSpaceOnUse">
<stop stop-color="#95D7F4"/>
<stop offset="0.92" stop-color="#0F7FCC"/>
<stop offset="1" stop-color="#0F7FCC"/>
</linearGradient>
</defs>
</svg>
