<svg width="71" height="79" viewBox="0 0 71 79" fill="none" xmlns="http://www.w3.org/2000/svg">
<path d="M69.6998 21.4837C69.6993 19.879 69.5538 18.2783 69.2652 16.7058C68.9765 15.0961 68.4858 13.5391 67.8074 12.0805C67.0984 10.6676 66.2172 9.36992 65.1888 8.22396C64.1281 7.07274 62.896 6.13345 61.547 5.44752C60.2157 4.70289 58.7917 4.18256 57.3221 3.9037C55.8642 3.59249 54.2634 3.59249 52.8055 3.43994H16.8441C15.7223 3.4602 14.603 3.56417 13.4938 3.75115C12.3931 3.89488 11.3156 4.20702 10.2921 4.67866C10.0005 4.83121 9.56593 4.98987 9.27437 5.14242C8.30602 5.71818 7.38555 6.38796 6.52376 7.14389C6.23219 7.4551 5.94063 7.60765 5.64906 7.91275C4.57691 9.01581 3.69023 10.3217 3.03048 11.7693C2.31 13.2074 1.81693 14.7718 1.57266 16.3946C1.35587 17.9782 1.21082 19.5728 1.13806 21.1725V58.0229C1.13851 59.6277 1.28411 61.2283 1.57266 62.8008C1.86135 64.4106 2.35207 65.9675 3.03048 67.4262C3.73947 68.839 4.62062 70.1367 5.64906 71.2827C6.70979 72.4339 7.94184 73.3732 9.29087 74.0591C10.6222 74.8038 12.0462 75.3241 13.5158 75.6029C14.9736 75.9142 16.5745 75.9142 18.0323 76.0667H52.811C54.3262 76.0655 55.838 75.9102 57.3275 75.6029C58.7972 75.3241 60.2212 74.8038 61.5525 74.0591C62.8727 73.3181 64.0975 72.3843 65.1943 71.2827C66.2665 70.1796 67.1531 68.8738 67.8129 67.4262C68.5334 65.988 69.0264 64.4236 69.2707 62.8008C69.4875 61.2172 69.6326 59.6226 69.7053 58.0229V21.4837H69.6998Z" fill="#F05138"/>
<path d="M46.9632 59.585C40.8514 63.3256 32.451 63.71 23.9956 59.8718C17.4031 56.9048 11.7663 51.8089 7.81653 45.2452C9.65213 46.8038 11.6576 48.0995 13.7854 49.1017C22.5158 53.4342 31.2407 53.1352 37.3856 49.1017C28.6387 41.9867 21.212 32.736 15.6778 25.1816C14.5857 23.9049 13.6108 22.5109 12.7676 21.02C19.4571 27.4943 30.0965 35.665 33.8813 37.9776C28.4773 31.8358 23.5113 25.238 19.028 18.2436C26.4806 26.2768 34.6812 33.4095 43.492 39.5215C43.8825 39.7533 44.1851 39.9486 44.4272 40.1317C44.6854 39.4323 44.9077 38.7172 45.0928 37.9898C47.1338 30.1243 44.8012 21.1848 39.7071 13.783C51.5017 21.3312 58.5158 35.5124 55.5781 47.387C55.5011 47.7104 55.4186 47.9972 55.3306 48.3328L55.4351 48.4671C61.2609 56.174 59.6601 64.3325 58.9284 62.8069C55.7652 56.2289 49.9174 58.2609 46.9632 59.585Z" fill="#FEFEFE"/>
</svg>
