<svg width="72" height="79" viewBox="0 0 72 79" fill="none" xmlns="http://www.w3.org/2000/svg">
<path fill-rule="evenodd" clip-rule="evenodd" d="M56.1572 44.5698C55.5724 47.6947 52.9747 55.7159 44.686 60.0563L41.3578 55.9069L35.7399 62.1682C32.5444 62.1208 29.402 61.2542 26.5584 59.6361C23.7149 58.0181 21.2473 55.6925 19.3485 52.8412C19.9459 53.0487 20.5604 53.1774 21.1837 53.2256C22.1035 53.2439 23.1009 52.8699 23.1009 51.1564V34.2567C23.1139 33.8222 23.0351 33.3904 22.8709 32.9956C22.7066 32.6009 22.4615 32.2542 22.1549 31.9833C21.8484 31.7124 21.489 31.5247 21.1055 31.4352C20.7219 31.3458 20.3248 31.357 19.9459 31.4681C17.346 32.1326 15.2677 39.3288 15.2677 39.3288C15.239 36.0061 15.8628 32.7163 17.0959 29.688C18.329 26.6597 20.1418 23.9655 22.4083 21.7927C25.3913 18.9303 29.0428 17.0612 32.942 16.4009C30.1034 18.1961 28.5091 21.1233 28.5091 23.5781C28.5091 27.5304 30.6535 27.0514 31.2894 26.4699V49.2788C31.3973 49.5644 31.5386 49.8341 31.7086 50.0818C31.9927 50.5169 32.3664 50.8704 32.7985 51.1129C33.2306 51.3554 33.7087 51.4799 34.193 51.4761C36.3396 51.4761 39.1265 48.7565 39.1265 48.7565V30.2928C39.1265 28.4146 37.8502 26.1477 36.5717 25.3685C36.5717 25.3685 38.9372 24.9035 40.7642 26.4528C41.1069 25.9881 41.4712 25.5434 41.8556 25.1207C46.1174 20.4844 50.1295 19.1639 53.4726 18.5037C53.4726 18.5037 47.3954 23.8021 47.3954 30.9104C47.3954 36.1972 47.518 49.0878 47.518 49.0878C49.7724 51.5024 53.1265 48.0151 56.1566 44.5704L56.1572 44.5698Z" fill="black"/>
<path fill-rule="evenodd" clip-rule="evenodd" d="M36.0171 1.55518C17.2981 1.55518 2.12024 18.3908 2.12024 39.1543C2.12024 59.9178 17.2981 76.7533 36.0171 76.7533C54.7361 76.7533 69.914 59.9178 69.914 39.1543C69.914 18.3908 54.7361 1.55518 36.0171 1.55518ZM36.0171 75.2498C18.0457 75.2498 3.47629 59.0891 3.47629 39.1543C3.47849 19.2207 18.0479 3.05994 36.0193 3.06239C53.9907 3.06239 68.558 19.2231 68.558 39.1573C68.558 59.0915 53.9885 75.2522 36.0171 75.2522V75.2498Z" fill="black"/>
</svg>
