<svg width="71" height="79" viewBox="0 0 71 79" fill="none" xmlns="http://www.w3.org/2000/svg">
<path d="M2.05257 27.75C2.05257 27.75 0.387349 26.413 2.38814 24.63L7.04658 19.9961C7.04658 19.9961 8.38118 18.4346 9.79114 19.796L52.7969 55.9983V73.3587C52.7969 73.3587 52.7755 76.0851 49.6299 75.7848L2.05257 27.75Z" fill="#2489CA"/>
<path d="M13.1392 38.939L2.05262 50.1442C2.05262 50.1442 0.913868 51.0857 2.05262 52.7711L7.19957 57.9743C7.19957 57.9743 8.42194 59.4358 10.2296 57.7742L21.9797 47.8657L13.1392 38.939Z" fill="#1070B3"/>
<path d="M32.5998 39.0316L52.9285 21.7719L52.797 4.50494C52.797 4.50494 51.9289 0.736301 49.0325 2.69933L21.9797 30.0738L32.5998 39.0316Z" fill="#0877B9"/>
<path d="M49.6294 75.8062C50.8094 77.1505 52.2408 76.7093 52.2408 76.7093L68.0827 68.031C70.111 66.4932 69.8271 64.5863 69.8271 64.5863V12.7524C69.8271 10.4732 67.73 9.68668 67.73 9.68668L53.9984 2.32698C50.9986 0.265096 49.0325 2.69921 49.0325 2.69921C49.0325 2.69921 51.5592 0.675154 52.797 4.50542V73.042C52.797 73.5137 52.7067 73.9756 52.5263 74.393C52.1654 75.2058 51.3787 75.9612 49.4984 75.6445L49.6294 75.8062Z" fill="#3C99D4"/>
</svg>
