<svg width="72" height="79" viewBox="0 0 72 79" fill="none" xmlns="http://www.w3.org/2000/svg">
<path d="M65.3332 60.2618L37.2495 77.8967V64.161L54.7214 53.4885L65.3332 60.2618V60.2618ZM67.2587 58.3335V21.4832L56.9824 28.0734V51.7555L67.2531 58.3274L67.2587 58.3335ZM6.70118 60.2618L34.7574 77.8845V64.161L17.28 53.4885L6.70118 60.2618ZM4.77576 58.3335V21.4832L15.052 28.0734V51.7555L4.77576 58.3335ZM5.98052 19.0973L34.7849 1.01074V14.2888L16.3283 25.5471L16.1798 25.6387L5.98052 19.0973ZM66.0429 19.0973L37.2495 1.01074V14.2888L55.7061 25.541L55.8546 25.6326L66.0539 19.0973H66.0429Z" fill="#8ED6FB"/>
<path d="M34.7849 61.0368L17.5166 50.4985V29.6417L34.7849 40.6742V61.0368ZM37.2495 61.0368L54.5178 50.5107V29.6417L37.2495 40.6742V61.0368ZM18.6884 27.2497L36.0172 16.6687L53.3461 27.2497L36.0172 38.331L18.6884 27.2497Z" fill="#1C78C0"/>
</svg>
