<svg width="15" height="19" viewBox="0 0 15 19" fill="none" xmlns="http://www.w3.org/2000/svg">
<path d="M14.2832 0.370011H1.42606C1.0745 0.370011 0.783203 0.661307 0.783203 1.01287V17.7272C0.783203 18.0787 1.0745 18.37 1.42606 18.37H14.2832C14.6348 18.37 14.9261 18.0787 14.9261 17.7272V1.01287C14.9261 0.661307 14.6348 0.370011 14.2832 0.370011ZM5.92606 3.26287C5.92606 3.08207 6.06669 2.94144 6.24749 2.94144H6.89035C7.07115 2.94144 7.21177 3.08207 7.21177 3.26287V3.90573C7.21177 4.08653 7.07115 4.22715 6.89035 4.22715H6.24749C6.06669 4.22715 5.92606 4.08653 5.92606 3.90573V3.26287ZM5.92606 5.8343C5.92606 5.65349 6.06669 5.51287 6.24749 5.51287H6.89035C7.07115 5.51287 7.21177 5.65349 7.21177 5.8343V6.47715C7.21177 6.65796 7.07115 6.79858 6.89035 6.79858H6.24749C6.06669 6.79858 5.92606 6.65796 5.92606 6.47715V5.8343ZM5.92606 8.40573C5.92606 8.22492 6.06669 8.0843 6.24749 8.0843H6.89035C7.07115 8.0843 7.21177 8.22492 7.21177 8.40573V9.04858C7.21177 9.22939 7.07115 9.37001 6.89035 9.37001H6.24749C6.06669 9.37001 5.92606 9.22939 5.92606 9.04858V8.40573ZM5.92606 10.9772C5.92606 10.7964 6.06669 10.6557 6.24749 10.6557H6.89035C7.07115 10.6557 7.21177 10.7964 7.21177 10.9772V11.62C7.21177 11.8008 7.07115 11.9414 6.89035 11.9414H6.24749C6.06669 11.9414 5.92606 11.8008 5.92606 11.62V10.9772ZM4.64035 14.1914C4.64035 14.3722 4.49972 14.5129 4.31892 14.5129H3.67606C3.49526 14.5129 3.35463 14.3722 3.35463 14.1914V13.5486C3.35463 13.3678 3.49526 13.2272 3.67606 13.2272H4.31892C4.49972 13.2272 4.64035 13.3678 4.64035 13.5486V14.1914ZM4.64035 11.62C4.64035 11.8008 4.49972 11.9414 4.31892 11.9414H3.67606C3.49526 11.9414 3.35463 11.8008 3.35463 11.62V10.9772C3.35463 10.7964 3.49526 10.6557 3.67606 10.6557H4.31892C4.49972 10.6557 4.64035 10.7964 4.64035 10.9772V11.62ZM4.64035 9.04858C4.64035 9.22939 4.49972 9.37001 4.31892 9.37001H3.67606C3.49526 9.37001 3.35463 9.22939 3.35463 9.04858V8.40573C3.35463 8.22492 3.49526 8.0843 3.67606 8.0843H4.31892C4.49972 8.0843 4.64035 8.22492 4.64035 8.40573V9.04858ZM4.64035 6.47715C4.64035 6.65796 4.49972 6.79858 4.31892 6.79858H3.67606C3.49526 6.79858 3.35463 6.65796 3.35463 6.47715V5.8343C3.35463 5.65349 3.49526 5.51287 3.67606 5.51287H4.31892C4.49972 5.51287 4.64035 5.65349 4.64035 5.8343V6.47715ZM4.64035 3.90573C4.64035 4.08653 4.49972 4.22715 4.31892 4.22715H3.67606C3.49526 4.22715 3.35463 4.08653 3.35463 3.90573V3.26287C3.35463 3.08207 3.49526 2.94144 3.67606 2.94144H4.31892C4.49972 2.94144 4.64035 3.08207 4.64035 3.26287V3.90573ZM9.7832 16.7629C9.7832 16.9437 9.64258 17.0843 9.46177 17.0843H6.24749C6.06669 17.0843 5.92606 16.9437 5.92606 16.7629V14.8343C5.92606 14.6535 6.06669 14.5129 6.24749 14.5129H9.46177C9.64258 14.5129 9.7832 14.6535 9.7832 14.8343V16.7629ZM9.7832 11.62C9.7832 11.8008 9.64258 11.9414 9.46177 11.9414H8.81892C8.63811 11.9414 8.49749 11.8008 8.49749 11.62V10.9772C8.49749 10.7964 8.63811 10.6557 8.81892 10.6557H9.46177C9.64258 10.6557 9.7832 10.7964 9.7832 10.9772V11.62ZM9.7832 9.04858C9.7832 9.22939 9.64258 9.37001 9.46177 9.37001H8.81892C8.63811 9.37001 8.49749 9.22939 8.49749 9.04858V8.40573C8.49749 8.22492 8.63811 8.0843 8.81892 8.0843H9.46177C9.64258 8.0843 9.7832 8.22492 9.7832 8.40573V9.04858ZM9.7832 6.47715C9.7832 6.65796 9.64258 6.79858 9.46177 6.79858H8.81892C8.63811 6.79858 8.49749 6.65796 8.49749 6.47715V5.8343C8.49749 5.65349 8.63811 5.51287 8.81892 5.51287H9.46177C9.64258 5.51287 9.7832 5.65349 9.7832 5.8343V6.47715ZM9.7832 3.90573C9.7832 4.08653 9.64258 4.22715 9.46177 4.22715H8.81892C8.63811 4.22715 8.49749 4.08653 8.49749 3.90573V3.26287C8.49749 3.08207 8.63811 2.94144 8.81892 2.94144H9.46177C9.64258 2.94144 9.7832 3.08207 9.7832 3.26287V3.90573ZM12.3546 14.1914C12.3546 14.3722 12.214 14.5129 12.0332 14.5129H11.3903C11.2095 14.5129 11.0689 14.3722 11.0689 14.1914V13.5486C11.0689 13.3678 11.2095 13.2272 11.3903 13.2272H12.0332C12.214 13.2272 12.3546 13.3678 12.3546 13.5486V14.1914ZM12.3546 11.62C12.3546 11.8008 12.214 11.9414 12.0332 11.9414H11.3903C11.2095 11.9414 11.0689 11.8008 11.0689 11.62V10.9772C11.0689 10.7964 11.2095 10.6557 11.3903 10.6557H12.0332C12.214 10.6557 12.3546 10.7964 12.3546 10.9772V11.62ZM12.3546 9.04858C12.3546 9.22939 12.214 9.37001 12.0332 9.37001H11.3903C11.2095 9.37001 11.0689 9.22939 11.0689 9.04858V8.40573C11.0689 8.22492 11.2095 8.0843 11.3903 8.0843H12.0332C12.214 8.0843 12.3546 8.22492 12.3546 8.40573V9.04858ZM12.3546 6.47715C12.3546 6.65796 12.214 6.79858 12.0332 6.79858H11.3903C11.2095 6.79858 11.0689 6.65796 11.0689 6.47715V5.8343C11.0689 5.65349 11.2095 5.51287 11.3903 5.51287H12.0332C12.214 5.51287 12.3546 5.65349 12.3546 5.8343V6.47715ZM12.3546 3.90573C12.3546 4.08653 12.214 4.22715 12.0332 4.22715H11.3903C11.2095 4.22715 11.0689 4.08653 11.0689 3.90573V3.26287C11.0689 3.08207 11.2095 2.94144 11.3903 2.94144H12.0332C12.214 2.94144 12.3546 3.08207 12.3546 3.26287V3.90573Z" fill="#151439" fill-opacity="0.4"/>
</svg>
