<svg width="20" height="19" viewBox="0 0 20 19" fill="none" xmlns="http://www.w3.org/2000/svg">
<path d="M9.3584 9.37123C9.3584 10.7875 8.20326 11.9427 6.78697 11.9427C5.37068 11.9427 4.21554 10.7875 4.21554 9.37123C4.21554 7.95494 5.37068 6.7998 6.78697 6.7998C8.20326 6.7998 9.3584 7.95494 9.3584 9.37123ZM17.0727 14.5141C17.0727 15.2172 16.5001 15.7998 15.787 15.7998C15.0838 15.7998 14.5013 15.2273 14.5013 14.5141C14.5013 13.811 15.0838 13.2284 15.787 13.2284C16.4901 13.2284 17.0727 13.811 17.0727 14.5141ZM17.0727 4.22838C17.0727 4.9315 16.5001 5.51409 15.787 5.51409C15.0838 5.51409 14.5013 4.94155 14.5013 4.22838C14.5013 3.52525 15.0838 2.94266 15.787 2.94266C16.4901 2.94266 17.0727 3.52525 17.0727 4.22838ZM13.2155 8.45717C13.2155 8.31655 13.1151 8.18596 12.9745 8.15583L11.4477 7.9248C11.3573 7.64355 11.2367 7.37235 11.1062 7.10114C11.3874 6.7094 11.6888 6.3478 11.9801 5.95605C12.0202 5.89579 12.0504 5.83552 12.0504 5.76521C12.0504 5.48396 10.8651 4.39913 10.6039 4.15806C10.5437 4.10784 10.4734 4.07771 10.393 4.07771C10.3227 4.07771 10.2524 4.0978 10.1921 4.14802L9.00684 5.04199C8.76576 4.92146 8.51465 4.81096 8.25349 4.73061L8.02246 3.19378C8.00237 3.05315 7.86175 2.94266 7.72112 2.94266H5.85282C5.71219 2.94266 5.59166 3.04311 5.55148 3.18373C5.4209 3.67592 5.37068 4.22838 5.32045 4.73061C5.04925 4.82101 4.79813 4.92146 4.54701 5.05204L3.39188 4.14802C3.33161 4.10784 3.2613 4.07771 3.18094 4.07771C2.88965 4.07771 1.76465 5.29311 1.56376 5.56431C1.51353 5.62458 1.49344 5.69489 1.49344 5.76521C1.49344 5.83552 1.52358 5.90583 1.56376 5.9661C1.88518 6.3478 2.18652 6.71945 2.46777 7.12123C2.33719 7.37235 2.2267 7.62346 2.14634 7.88463L0.589425 8.1257C0.458845 8.14579 0.358398 8.29646 0.358398 8.42704V10.2853C0.358398 10.4259 0.458845 10.5565 0.59947 10.5766L2.12626 10.8177C2.21666 11.0989 2.33719 11.3701 2.47782 11.6413C2.18652 12.0331 1.88518 12.4047 1.59389 12.7864C1.55371 12.8467 1.52358 12.9069 1.52358 12.9773C1.52358 13.2686 2.70885 14.3433 2.97001 14.5844C3.03027 14.6346 3.10059 14.6648 3.18094 14.6648C3.25126 14.6648 3.33161 14.6447 3.38184 14.5944L4.5671 13.7005C4.80818 13.821 5.05929 13.9315 5.32045 14.0119L5.55148 15.5487C5.57157 15.6893 5.71219 15.7998 5.85282 15.7998H7.72112C7.86175 15.7998 7.98228 15.6994 8.02246 15.5587C8.15304 15.0665 8.20326 14.5141 8.25349 14.0018C8.52469 13.9215 8.77581 13.821 9.02693 13.6904L10.1821 14.5944C10.2423 14.6346 10.3126 14.6648 10.393 14.6648C10.6843 14.6648 11.8093 13.4393 12.0102 13.1681C12.0604 13.1179 12.0805 13.0476 12.0805 12.9773C12.0805 12.8969 12.0504 12.8366 12.0102 12.7764C11.6888 12.3947 11.3874 12.023 11.1062 11.6212C11.2367 11.3701 11.3472 11.119 11.4276 10.8578L12.9845 10.6168C13.1151 10.5967 13.2155 10.446 13.2155 10.3154V8.45717ZM19.6441 13.811C19.6441 13.6603 18.3484 13.5197 18.1475 13.4996C18.0671 13.3188 17.9667 13.138 17.8461 12.9773C17.9365 12.7764 18.3584 11.7719 18.3584 11.5911C18.3584 11.571 18.3484 11.5409 18.3182 11.5208C18.1977 11.4505 17.1229 10.8177 17.0727 10.8177L17.0124 10.8378C16.6709 11.1793 16.3696 11.571 16.0883 11.9628C15.9879 11.9527 15.8874 11.9427 15.787 11.9427C15.6865 11.9427 15.5861 11.9527 15.4856 11.9628C15.3852 11.8121 14.6318 10.8177 14.5013 10.8177C14.451 10.8177 13.3763 11.4605 13.2557 11.5208C13.2256 11.5409 13.2155 11.571 13.2155 11.5911C13.2155 11.7619 13.6374 12.7764 13.7278 12.9773C13.6073 13.138 13.5068 13.3188 13.4265 13.4996C13.2256 13.5197 11.9298 13.6603 11.9298 13.811V15.2172C11.9298 15.3679 13.2256 15.5085 13.4265 15.5286C13.5068 15.7194 13.6073 15.8902 13.7278 16.0509C13.6374 16.2518 13.2155 17.2663 13.2155 17.4371C13.2155 17.4572 13.2256 17.4873 13.2557 17.5074C13.3763 17.5777 14.451 18.2206 14.5013 18.2206C14.6318 18.2206 15.3852 17.2161 15.4856 17.0654C15.5861 17.0755 15.6865 17.0855 15.787 17.0855C15.8874 17.0855 15.9879 17.0755 16.0883 17.0654C16.1888 17.2161 16.9421 18.2206 17.0727 18.2206C17.1229 18.2206 18.1977 17.5777 18.3182 17.5074C18.3484 17.4873 18.3584 17.4672 18.3584 17.4371C18.3584 17.2563 17.9365 16.2518 17.8461 16.0509C17.9667 15.8902 18.0671 15.7194 18.1475 15.5286C18.3484 15.5085 19.6441 15.3679 19.6441 15.2172V13.811ZM19.6441 3.52525C19.6441 3.37458 18.3484 3.23396 18.1475 3.21387C18.0671 3.03306 17.9667 2.85226 17.8461 2.69155C17.9365 2.49065 18.3584 1.48619 18.3584 1.30538C18.3584 1.2853 18.3484 1.25516 18.3182 1.23507C18.1977 1.16476 17.1229 0.531947 17.0727 0.531947L17.0124 0.552037C16.6709 0.893554 16.3696 1.2853 16.0883 1.67704C15.9879 1.66699 15.8874 1.65695 15.787 1.65695C15.6865 1.65695 15.5861 1.66699 15.4856 1.67704C15.3852 1.52637 14.6318 0.531947 14.5013 0.531947C14.451 0.531947 13.3763 1.1748 13.2557 1.23507C13.2256 1.25516 13.2155 1.2853 13.2155 1.30538C13.2155 1.47614 13.6374 2.49065 13.7278 2.69155C13.6073 2.85226 13.5068 3.03306 13.4265 3.21387C13.2256 3.23396 11.9298 3.37458 11.9298 3.52525V4.9315C11.9298 5.08217 13.2256 5.2228 13.4265 5.24288C13.5068 5.43373 13.6073 5.60449 13.7278 5.76521C13.6374 5.9661 13.2155 6.98061 13.2155 7.15137C13.2155 7.17146 13.2256 7.20159 13.2557 7.22168C13.3763 7.29199 14.451 7.93485 14.5013 7.93485C14.6318 7.93485 15.3852 6.93038 15.4856 6.77971C15.5861 6.78976 15.6865 6.7998 15.787 6.7998C15.8874 6.7998 15.9879 6.78976 16.0883 6.77971C16.1888 6.93038 16.9421 7.93485 17.0727 7.93485C17.1229 7.93485 18.1977 7.29199 18.3182 7.22168C18.3484 7.20159 18.3584 7.1815 18.3584 7.15137C18.3584 6.97056 17.9365 5.9661 17.8461 5.76521C17.9667 5.60449 18.0671 5.43373 18.1475 5.24288C18.3484 5.2228 19.6441 5.08217 19.6441 4.9315V3.52525Z" fill="#151439" fill-opacity="0.4"/>
</svg>
