<svg width="20" height="14" viewBox="0 0 20 14" fill="none" xmlns="http://www.w3.org/2000/svg">
<path d="M6.55594 11.4237C6.68652 11.2931 6.68652 11.0922 6.55594 10.9616L2.6084 7.01409L6.55594 3.06655C6.68652 2.93596 6.68652 2.73507 6.55594 2.60449L6.05371 2.10226C5.92313 1.97168 5.72224 1.97168 5.59166 2.10226L0.910854 6.78306C0.780273 6.91364 0.780273 7.11454 0.910854 7.24512L5.59166 11.9259C5.72224 12.0565 5.92313 12.0565 6.05371 11.9259L6.55594 11.4237ZM12.4923 0.706054C12.5426 0.535296 12.4421 0.354491 12.2713 0.304268L11.6486 0.133509C11.4879 0.0832865 11.3071 0.183733 11.2568 0.354491L7.51018 13.3221C7.45996 13.4929 7.56041 13.6737 7.73117 13.7239L8.35393 13.8947C8.51465 13.9449 8.69545 13.8444 8.74568 13.6737L12.4923 0.706054ZM19.0917 7.24512C19.2222 7.11454 19.2222 6.91364 19.0917 6.78306L14.4109 2.10226C14.2803 1.97168 14.0794 1.97168 13.9488 2.10226L13.4466 2.60449C13.316 2.73507 13.316 2.93596 13.4466 3.06655L17.3941 7.01409L13.4466 10.9616C13.316 11.0922 13.316 11.2931 13.4466 11.4237L13.9488 11.9259C14.0794 12.0565 14.2803 12.0565 14.4109 11.9259L19.0917 7.24512Z" fill="#151439" fill-opacity="0.4"/>
</svg>
