<svg width="18" height="19" viewBox="0 0 18 19" fill="none" xmlns="http://www.w3.org/2000/svg">
<path d="M13.5882 10.053C13.7087 9.92247 13.7087 9.72157 13.5882 9.60104L13.1261 9.13899C13.0056 9.01845 12.8047 9.01845 12.6741 9.13899L8.21429 13.5988L6.00446 11.389C5.87388 11.2684 5.67299 11.2684 5.55246 11.389L5.0904 11.851C4.96987 11.9716 4.96987 12.1725 5.0904 12.303L7.98326 15.1959C8.11384 15.3164 8.31473 15.3164 8.44531 15.1959L13.5882 10.053ZM1.78571 17.0843V6.79858H15.9286V17.0843H1.78571ZM5.64286 4.87001C5.64286 5.05082 5.50223 5.19144 5.32143 5.19144H4.67857C4.49777 5.19144 4.35714 5.05082 4.35714 4.87001V1.97715C4.35714 1.79635 4.49777 1.65573 4.67857 1.65573H5.32143C5.50223 1.65573 5.64286 1.79635 5.64286 1.97715V4.87001ZM13.3571 4.87001C13.3571 5.05082 13.2165 5.19144 13.0357 5.19144H12.3929C12.2121 5.19144 12.0714 5.05082 12.0714 4.87001V1.97715C12.0714 1.79635 12.2121 1.65573 12.3929 1.65573H13.0357C13.2165 1.65573 13.3571 1.79635 13.3571 1.97715V4.87001ZM17.2143 4.22715C17.2143 3.52403 16.6317 2.94144 15.9286 2.94144H14.6429V1.97715C14.6429 1.09323 13.9196 0.370011 13.0357 0.370011H12.3929C11.5089 0.370011 10.7857 1.09323 10.7857 1.97715V2.94144H6.92857V1.97715C6.92857 1.09323 6.20536 0.370011 5.32143 0.370011H4.67857C3.79464 0.370011 3.07143 1.09323 3.07143 1.97715V2.94144H1.78571C1.08259 2.94144 0.5 3.52403 0.5 4.22715V17.0843C0.5 17.7874 1.08259 18.37 1.78571 18.37H15.9286C16.6317 18.37 17.2143 17.7874 17.2143 17.0843V4.22715Z" fill="#151439" fill-opacity="0.4"/>
</svg>
