<svg width="366" height="235" viewBox="0 0 366 235" fill="none" xmlns="http://www.w3.org/2000/svg">
<g clip-path="url(#clip0_105_1325)">
<path d="M299.433 137.522C288.119 137.522 279.548 130.126 278.344 128.642L285.741 120.72C288.729 122.972 292.702 125.271 298.351 126.202C302.832 126.941 306.109 125.858 306.988 124.557C307.73 123.453 307.776 122.071 306.445 121.008C305.139 119.965 302.832 119.135 299.047 118.259L298.615 118.158C291.345 116.452 280.595 113.182 280.595 102.9C280.595 96.5058 285.055 91.4838 292.834 89.1196C299.911 86.9681 311.886 88.9677 318.465 93.3923L311.942 102.971C307.166 99.4622 298.748 98.5156 296.162 100.055C294.678 100.94 294.505 102.971 295.989 103.983C299.083 106.094 314.101 109.233 318.176 114.68C321.625 119.292 321.549 124.81 317.993 129.604C314.426 134.408 307.308 137.517 299.433 137.517" fill="white"/>
<path d="M89.3773 89.5605H71.5801V136.257H89.3773C103.43 136.257 113.246 126.729 113.246 113.086V112.909C113.246 99.1641 103.43 89.5605 89.3773 89.5605ZM101.921 113.086C101.921 120.416 97.115 124.967 89.3773 124.967H82.9047V100.85H89.3773C97.115 100.85 101.921 105.472 101.921 112.909V113.086Z" fill="white"/>
<path d="M304.245 146.776C304.245 144.179 302.131 142.073 299.525 142.073C296.918 142.073 294.805 144.179 294.805 146.776C294.805 149.373 296.918 151.479 299.525 151.479C302.131 151.479 304.245 149.373 304.245 146.776Z" fill="white"/>
<path d="M202.395 108.817V117.793H210.437C208.512 122.364 203.98 125.589 198.696 125.589C191.68 125.589 185.974 119.904 185.974 112.913C185.974 105.921 191.68 100.236 198.696 100.236C202.283 100.236 205.722 101.755 208.131 104.408L217.037 96.3736C212.352 91.225 205.672 88.2686 198.696 88.2686C185.06 88.2686 173.964 99.325 173.964 112.913C173.964 126.5 185.06 137.557 198.696 137.557C212.332 137.557 223.428 126.505 223.428 112.913V108.817H202.389H202.395Z" fill="white"/>
<path d="M205.9 76.1494H191.619V83.7482H205.9V76.1494Z" fill="white"/>
<path d="M274.381 89.5903H262.386V113.642L262.396 113.931C262.396 120.168 257.818 125.61 251.559 125.61C245.3 125.61 241.022 120.168 241.022 113.931V89.5903H229.027V113.931C229.027 126.759 238.563 137.562 251.437 137.562C264.311 137.562 274.386 126.759 274.386 113.931C274.386 113.779 274.386 113.627 274.376 113.516V89.5903H274.381Z" fill="white"/>
<path d="M150.933 135.644C150.806 134.14 150.263 132.495 149.45 131.128C148.962 130.313 147.631 128.369 145.782 127.868C145.131 127.69 144.38 127.65 143.612 127.716C143.297 127.741 142.957 127.787 142.576 127.852C141.265 128.08 139.777 128.414 138.694 129.493C137.683 130.505 136.347 133.295 136.362 137.243C137.14 137.466 137.927 137.648 138.725 137.795C138.613 133.588 139.873 131.68 140.386 131.168C140.976 130.576 141.997 130.358 142.993 130.186C143.308 130.131 143.577 130.095 143.826 130.075C144.308 130.034 144.786 130.05 145.162 130.151C145.833 130.333 146.732 131.209 147.408 132.338C148.038 133.386 148.469 134.692 148.566 135.831C148.602 136.231 148.515 136.692 148.424 137.183C148.388 137.365 148.358 137.552 148.327 137.745C149.176 137.577 150.024 137.365 150.857 137.112C150.934 136.651 150.984 136.155 150.944 135.628" fill="white"/>
<path d="M156.095 130.769C155.399 128.308 153.926 126.045 151.95 124.395C151.274 123.833 150.578 123.448 149.897 123.079C149.526 122.876 149.176 122.679 148.835 122.466C147.636 121.697 146.407 121.59 145.36 121.59C145.025 121.59 144.689 121.6 144.339 121.616C143.048 121.661 141.585 121.717 140.158 122.117C139.025 122.441 137.968 122.967 136.942 123.479L136.51 123.691C135.844 124.02 135.087 124.395 134.432 124.977C134.036 125.332 133.715 125.721 133.456 126.06C131.836 128.172 130.86 131.518 130.698 134.864C131.46 135.3 132.237 135.689 133.03 136.039C133.065 134.535 133.075 133.178 133.299 132.141C133.761 129.974 133.995 129.27 135.351 127.503C135.544 127.25 135.773 126.967 136.022 126.749C136.439 126.379 137.013 126.096 137.572 125.823L138.014 125.605C138.938 125.144 139.898 124.663 140.813 124.405C141.956 124.081 143.211 124.036 144.425 123.995C144.745 123.985 145.055 123.97 145.36 123.97C146.209 123.97 146.905 124.056 147.545 124.466C147.951 124.724 148.358 124.947 148.744 125.164C149.348 125.494 149.922 125.807 150.415 126.222C152.031 127.569 153.23 129.417 153.794 131.422C154.058 132.343 154.19 133.305 154.19 134.272V135.861C155.003 135.487 155.796 135.062 156.573 134.596V134.272C156.573 133.087 156.41 131.908 156.09 130.779" fill="white"/>
<path d="M155.44 121.615C153.652 119.788 151.691 118.446 149.597 117.636C147.829 116.948 145.863 116.604 143.755 116.604H143.658C143.511 116.604 143.363 116.604 143.216 116.609C141.712 116.654 140.391 116.862 139.182 117.246C137.475 117.793 135.976 118.699 134.528 119.575C133.609 120.132 132.572 120.76 131.719 121.636C130.972 122.405 130.418 123.316 129.976 124.101C129.336 125.24 128.823 126.308 128.416 127.351C127.792 128.961 127.339 130.652 127.065 132.317C127.675 132.829 128.3 133.305 128.94 133.75C129.153 132.226 129.798 129.812 130.525 127.943C130.891 127.002 131.312 126.091 131.897 125.048C132.283 124.359 132.755 123.762 133.309 123.19C133.949 122.532 134.93 122.106 135.763 121.6C137.094 120.795 138.466 119.965 139.904 119.504C140.894 119.185 142.002 119.013 143.272 118.978C143.404 118.978 143.531 118.973 143.663 118.973H143.744C145.553 118.973 147.23 119.266 148.718 119.843C150.491 120.532 152.173 121.681 153.718 123.266C156.039 125.645 157.528 128.526 157.904 131.381C158.001 132.115 158.077 132.409 158.168 133.532C158.915 133.006 159.642 132.439 160.338 131.821C160.317 131.573 160.297 131.325 160.267 131.072C159.824 127.711 158.102 124.349 155.425 121.605" fill="white"/>
<path d="M160.073 116.437C158.427 114.888 156.121 113.967 154.083 113.152C153.626 112.969 153.179 112.792 152.747 112.61L150.471 111.648C149.135 111.081 147.748 110.499 146.244 110.18C145.426 110.008 144.583 109.886 143.739 109.821C140.046 109.527 137.196 109.977 134.833 111.203C130.484 113.46 127.431 116.351 125.373 119.561C124.794 120.462 123.133 123.266 122.071 126.689C122.071 126.689 123.143 128.248 123.752 128.992C124.951 124.947 126.867 121.717 127.431 120.755C129.128 117.86 131.988 115.354 135.931 113.309C137.882 112.296 140.325 111.932 143.541 112.19C144.288 112.251 145.03 112.357 145.746 112.504C147.021 112.772 148.241 113.288 149.531 113.83L151.807 114.792C152.249 114.979 152.712 115.167 153.189 115.354C155.115 116.123 157.106 116.918 158.427 118.158C160.124 119.758 161.491 121.788 162.273 123.884C162.802 125.297 163.203 126.836 163.493 128.537C164.184 127.676 164.809 126.78 165.367 125.858C165.124 124.876 164.839 123.945 164.504 123.054C163.594 120.624 162.019 118.27 160.058 116.432" fill="white"/>
<path d="M160.724 108.206C159.469 107.456 158.128 106.834 156.969 106.307C154.703 105.275 152.051 104.13 149.247 103.558C147.596 103.224 145.828 103.057 143.673 103.042H143.353H142.947C138.049 103.082 133.162 104.414 128.803 106.9C128.142 107.279 127.624 107.715 127.126 108.135C126.801 108.408 126.501 108.666 126.166 108.894C125.023 109.684 124.073 110.378 123.158 111.182C121.172 112.934 119.586 114.888 118.453 116.994C118.428 117.04 118.403 117.09 118.382 117.136C118.591 118.391 118.89 119.632 119.287 120.852C119.312 120.791 119.343 120.73 119.368 120.67C119.754 119.773 120.12 118.933 120.557 118.118C121.553 116.265 122.96 114.529 124.738 112.964C125.566 112.235 126.45 111.593 127.527 110.848C127.954 110.555 128.315 110.246 128.665 109.952C129.102 109.583 129.514 109.238 129.986 108.965C133.99 106.682 138.476 105.457 142.962 105.421H143.348H143.648C145.64 105.431 147.265 105.583 148.759 105.887C151.315 106.409 153.824 107.497 155.968 108.474C157.117 108.995 158.336 109.562 159.484 110.251C163.051 112.382 165.891 115.658 167.481 119.485C167.562 119.677 167.638 119.87 167.715 120.062C167.76 120.178 167.806 120.295 167.852 120.411C168.248 119.171 168.553 117.91 168.751 116.64C166.886 113.182 164.087 110.236 160.703 108.216" fill="white"/>
<path d="M165.057 105.234C162.593 103.244 159.819 101.898 157.045 100.845C155.308 100.186 153.149 99.7207 151.198 99.2195C148.668 98.5664 146.325 98.0045 143.684 97.9741H143.323C141.098 97.9741 138.832 98.4753 136.662 98.9208C131.759 99.9282 127.253 101.994 123.209 105.158C121.481 106.509 118.245 109.901 118.225 110.099C118.088 111.278 118.037 112.468 118.067 113.653C119.861 111.126 122.02 108.838 124.509 106.889C128.264 103.948 132.649 101.903 137.191 100.966C139.197 100.551 141.265 100.343 143.328 100.343H143.663C146.117 100.374 148.546 100.693 150.893 101.3C152.732 101.776 154.536 102.429 156.207 103.062C158.803 104.049 161.516 105.158 163.706 106.925C165.865 108.671 167.562 110.458 169.086 113.369C169.127 112.063 169.066 110.757 168.903 109.461C168.878 109.274 166.465 106.353 165.073 105.229" fill="white"/>
<path d="M155.857 95.8883C154.536 95.4833 153.138 95.2302 152.021 95.0277C149.237 94.5215 146.508 94.0557 143.709 93.9241C142.302 93.8583 140.965 93.8836 139.711 94.0051C135.214 94.4303 131.038 96.0756 126.994 97.6653C124.555 98.6221 122.548 100.146 120.674 101.766C119.891 103.35 119.282 104.996 118.85 106.682C120.516 104.469 125.063 100.991 127.756 99.7561C131.51 98.0348 135.773 96.7743 139.934 96.3743C141.077 96.268 142.297 96.2427 143.592 96.3034C146.244 96.4249 148.886 96.8806 151.589 97.3716C152.935 97.6146 154.053 97.8323 155.155 98.1664C156.238 98.4955 159.637 99.9383 160.978 100.617C164.605 102.444 166.846 104.464 168.146 105.821C167.776 104.495 167.293 103.188 166.698 101.923C164.58 100.252 162.263 98.7689 159.784 97.5235C158.316 96.7844 157.066 96.268 155.851 95.8984" fill="white"/>
<path d="M146.849 87.6009C143.348 87.1756 139.766 87.4693 136.347 88.4969C132.806 89.5601 129.438 91.4028 126.511 94.0454C125.8 94.6883 125.139 95.3616 124.515 96.0603C124.489 96.0906 124.499 96.116 124.53 96.0957C125.063 95.797 125.602 95.468 126.15 95.1186C128.564 93.5948 133.126 91.7015 135.748 91.0332C138.415 90.3498 140.147 89.8891 143.709 89.8891C144.161 89.8891 144.608 89.8689 145.06 89.8739C146.64 89.9043 148.307 90.1068 150.161 90.5017C154.277 91.3674 158.219 92.9215 161.902 95.1186C161.979 95.1642 161.999 95.1186 161.933 95.0528C157.767 90.775 152.412 88.2742 146.844 87.6009" fill="white"/>
<path d="M5.25839 52.9229L28.9084 58.6333L27.5824 64.0856L17.8836 61.7417L15.2773 72.4488L24.9761 74.7927L23.65 80.245L0 74.5345L1.32603 69.0823L10.6489 71.3351L13.2552 60.6279L3.93236 58.3751L5.25839 52.9229Z" fill="white"/>
<path d="M39.7097 35.4378L43.2356 38.2526L31.4538 52.9084L12.4626 37.7463L23.96 23.4448L27.4859 26.2596L19.4891 36.2073L23.6145 39.4979L30.6765 30.7095L34.0957 33.4381L27.0337 42.2266L31.4284 45.7349L39.7097 35.4328V35.4378Z" fill="white"/>
<path d="M61.9728 28.5732L54.6923 24.7105L54.4434 24.8371L50.0842 27.0747L53.1885 33.0788L48.1841 35.6506L37.0323 14.0996L46.3957 9.29026C48.3111 8.30814 50.1401 7.77151 51.8777 7.68039C53.6152 7.59433 55.1699 7.93858 56.5416 8.71313C57.9083 9.49275 59.0057 10.6824 59.8338 12.2822C60.662 13.8819 60.9922 15.4614 60.8195 17.0207C60.6467 18.5799 60.0066 20.0278 58.9041 21.3744L67.3378 25.8091L61.9626 28.5732H61.9728ZM52.1571 12.7074C51.0394 12.4644 49.7286 12.7277 48.2247 13.4972L44.1451 15.593L48.0317 23.1057L52.1114 21.0099C53.6152 20.2353 54.5907 19.3241 55.0327 18.261C55.4747 17.2029 55.3883 16.079 54.7736 14.8843C54.1487 13.6744 53.2748 12.9454 52.1571 12.7024V12.7074Z" fill="white"/>
<path d="M101.225 12.9001L106.311 13.6696L104.832 23.3946C103.379 24.1793 101.749 24.7058 99.95 24.9691C98.1515 25.2374 96.3834 25.2374 94.6408 24.9691C92.1412 24.5944 89.9769 23.7237 88.1478 22.3619C86.3138 21.0001 84.9776 19.289 84.1291 17.2336C83.2807 15.1782 83.0368 12.9659 83.3975 10.5866C83.7582 8.21228 84.6473 6.16704 86.0699 4.45592C87.4925 2.74481 89.291 1.50956 91.4655 0.750194C93.645 0.000948121 95.9922 -0.186363 98.5122 0.193322C100.621 0.512258 102.48 1.15519 104.091 2.12212C105.701 3.08906 106.992 4.33442 107.952 5.85823L103.877 8.60715C102.434 6.54166 100.494 5.33173 98.0651 4.96217C96.5308 4.7293 95.1184 4.84573 93.8279 5.30642C92.5375 5.7671 91.4756 6.52647 90.6322 7.58959C89.7889 8.65271 89.2554 9.93858 89.0268 11.4472C88.8032 12.9305 88.9303 14.3075 89.418 15.5731C89.9057 16.8387 90.6881 17.8867 91.7703 18.7118C92.8525 19.5421 94.148 20.0686 95.662 20.2964C97.2675 20.5394 98.7612 20.4128 100.148 19.9218L101.215 12.9001H101.225Z" fill="white"/>
<path d="M112.794 28.375C112.275 25.7071 113.022 22.9025 115.029 19.9612L122.701 8.73768L127.355 11.8967L119.805 22.948C117.351 26.5373 117.62 29.347 120.608 31.372C122.066 32.3592 123.473 32.6781 124.83 32.3288C126.191 31.9795 127.502 30.8809 128.767 29.0281L136.317 17.9767L140.915 21.0952L133.243 32.3187C131.236 35.26 128.889 36.9762 126.206 37.4773C123.524 37.9785 120.745 37.2495 117.874 35.3005C114.999 33.3514 113.307 31.0429 112.789 28.37L112.794 28.375ZM129.092 9.65905C128.965 9.02624 129.092 8.42381 129.483 7.85175C129.875 7.27969 130.388 6.93544 131.028 6.82407C131.668 6.71269 132.273 6.84938 132.847 7.23919C133.421 7.629 133.766 8.13525 133.888 8.76299C134.005 9.39074 133.873 9.98811 133.482 10.5602C133.091 11.1322 132.582 11.4765 131.952 11.598C131.322 11.7195 130.723 11.5828 130.149 11.193C129.575 10.8032 129.224 10.2919 129.092 9.65905ZM134.909 13.6078C134.787 12.98 134.925 12.3827 135.316 11.8106C135.707 11.2385 136.215 10.8943 136.845 10.7728C137.475 10.6564 138.075 10.788 138.649 11.1778C139.223 11.5676 139.573 12.0789 139.705 12.7117C139.832 13.3445 139.705 13.947 139.309 14.519C138.918 15.0911 138.405 15.4353 137.765 15.5467C137.125 15.6581 136.52 15.5214 135.946 15.1316C135.372 14.7418 135.026 14.2355 134.904 13.6078H134.909Z" fill="white"/>
<path d="M163.406 53.2627L142.22 65.1899L139.944 61.1804L146.839 43.4111L133.975 50.6555L131.236 45.831L152.422 33.9038L154.713 37.9437L147.799 55.6826L160.663 48.4382L163.401 53.2627H163.406Z" fill="white"/>
<path d="M205.875 179.364L197.924 182.69L195.744 177.516L203.756 174.164L214.532 159.473L216.849 164.966L209.396 175.111L221.884 176.913L224.023 181.991L205.875 179.364Z" fill="white"/>
<path d="M226.944 212.7L223.763 215.899L210.386 202.676L227.523 185.458L240.58 198.363L237.4 201.562L228.316 192.586L224.597 196.323L232.619 204.25L229.535 207.349L221.513 199.421L217.545 203.405L226.949 212.7H226.944Z" fill="white"/>
<path d="M267.964 211.055L259.459 233.775L255.126 232.165L248.922 214.143L243.755 227.938L238.543 225.999L247.048 203.279L251.412 204.904L257.58 222.911L262.747 209.116L267.959 211.055H267.964Z" fill="white"/>
<path d="M274.208 234.848L274.803 210.598L280.996 210.75L280.402 235L274.208 234.848ZM278.1 202.154C279.03 202.18 279.782 202.493 280.361 203.096C280.94 203.703 281.22 204.468 281.194 205.394C281.174 206.321 280.854 207.075 280.249 207.657C279.64 208.239 278.872 208.523 277.943 208.498C277.013 208.477 276.266 208.158 275.692 207.546C275.118 206.933 274.843 206.164 274.864 205.242C274.884 204.316 275.199 203.567 275.804 202.99C276.408 202.412 277.17 202.134 278.1 202.159V202.154Z" fill="white"/>
<path d="M289.181 210.796L299.733 207.515C302.253 206.731 304.636 206.518 306.871 206.873C309.107 207.227 311.032 208.113 312.653 209.52C314.274 210.928 315.442 212.791 316.169 215.104C316.895 217.418 316.992 219.615 316.463 221.69C315.935 223.766 314.853 225.583 313.217 227.143C311.581 228.702 309.503 229.876 306.983 230.661L296.431 233.942L289.176 210.796H289.181ZM305.342 226.343C307.664 225.619 309.315 224.399 310.296 222.678C311.276 220.956 311.418 218.997 310.727 216.79C310.037 214.588 308.797 213.054 307.014 212.193C305.225 211.333 303.173 211.267 300.851 211.986L295.938 213.514L300.434 227.867L305.347 226.338L305.342 226.343Z" fill="white"/>
<path d="M343.487 203.365L346.474 206.741L332.345 219.16L316.245 200.975L330.039 188.851L333.026 192.227L323.429 200.661L326.924 204.61L335.399 197.163L338.295 200.439L329.82 207.885L333.544 212.092L343.477 203.36L343.487 203.365Z" fill="white"/>
<path d="M343.147 161.974L365.323 171.963L363.418 176.159L344.955 181.11L358.419 187.175L356.127 192.228L333.951 182.239L335.871 178.007L354.319 173.086L340.855 167.022L343.147 161.969V161.974Z" fill="white"/>
</g>
<defs>
<clipPath id="clip0_105_1325">
<rect width="365.318" height="235" fill="white"/>
</clipPath>
</defs>
</svg>
