<svg width="411" height="410" viewBox="0 0 411 410" fill="none" xmlns="http://www.w3.org/2000/svg">
<g clip-path="url(#clip0_41_1283)">
<path d="M149.377 54.4904C148.36 52.7721 143.961 54.6119 143.152 53.0525C142.346 51.4987 146.434 49.1312 148.769 43.723C149.19 42.7477 151.844 36.6016 149.879 34.7051C146.155 31.1104 129.115 45.9449 123.151 41.0904C121.842 40.025 120.928 37.8982 116.967 34.4451C115.391 33.0714 114.438 32.4512 113.516 32.6819C112.208 33.0094 112.104 34.7642 110.701 38.2146C108.597 43.3891 107.352 43.0767 106.126 47.2051C105.216 50.2699 105.424 52.0517 104.353 52.3988C102.838 52.89 101.443 49.6393 99.5219 49.9304C97.562 50.2274 96.3771 54.0123 96.0028 56.8462C95.3004 62.1641 97.2494 65.6732 98.3296 69.363C99.5035 73.3729 100.2 79.4711 97.4893 88.104L70.657 163.86C76.5807 148.315 93.7328 105.702 100.94 89.8672C103.021 85.2959 105.318 80.6593 110.035 78.8293C114.576 77.0674 120.813 78.1194 128.765 76.1998C129.694 75.9757 132.271 75.3187 132.595 73.7998C132.863 72.5442 131.347 71.8432 131.58 70.6672C131.893 69.0897 134.873 69.0703 138.536 67.2504C141.119 65.967 142.729 64.4408 144.112 63.1283C144.53 62.7326 150.731 56.7777 149.377 54.4904Z" fill="#F2F2F2"/>
<path d="M43.8109 94.3713C42.6759 94.3757 42.3077 97.0702 41.3105 97.018C40.3169 96.9661 40.3367 94.2727 38.3616 91.5637C38.0054 91.0752 35.7608 87.9966 34.265 88.4157C31.4299 89.2099 33.779 101.871 29.6806 103.403C28.7812 103.74 27.4756 103.576 24.6414 104.527C23.5139 104.906 22.9352 105.196 22.7822 105.716C22.565 106.454 23.3946 107.011 24.6797 108.697C26.6071 111.225 26.0949 111.747 27.7633 113.541C29.0018 114.873 29.9345 115.285 29.7955 115.911C29.5989 116.798 27.6042 116.547 27.1926 117.575C26.7726 118.625 28.2845 120.3 29.5645 121.301C31.9666 123.181 34.2477 123.235 36.3666 123.768C38.6694 124.348 41.8573 125.765 45.3035 129.589L74.6666 164.644C68.7619 157.245 52.8393 136.514 47.1628 128.401C45.5241 126.059 43.9159 123.591 44.3806 120.743C44.828 118.001 47.1428 115.237 48.4969 110.773C48.6551 110.251 49.0768 108.794 48.4265 108.196C47.8888 107.702 47.1082 108.246 46.5993 107.792C45.9168 107.183 46.7674 105.711 46.9328 103.385C47.0495 101.744 46.7663 100.512 46.5227 99.4529C46.4492 99.1336 45.3219 94.3655 43.8109 94.3713Z" fill="#F2F2F2"/>
<path d="M66.4546 99.4648L65.7708 93.3477L66.0832 92.884C67.529 90.7396 68.2659 88.6455 68.2747 86.6577C68.2762 86.3416 68.2614 86.0256 68.2467 85.7036C68.1877 84.4277 68.1141 82.8416 68.9394 80.9926C69.4022 79.9618 70.7021 77.5752 72.6563 77.8706C73.1825 77.9444 73.5804 78.1866 73.8825 78.4701C73.9268 78.3992 73.9724 78.3283 74.0211 78.2515C74.6297 77.3211 75.1117 76.9224 75.5759 76.5384C75.9326 76.2431 76.301 75.9389 76.8788 75.2181C77.1322 74.9021 77.3297 74.6245 77.4963 74.3911C78.0018 73.6852 78.662 72.8434 79.8263 72.8582C81.0702 72.9172 81.7216 73.9481 82.1535 74.6304C82.9243 75.8472 83.2735 76.7245 83.5049 77.3064C83.589 77.519 83.6847 77.7583 83.7334 77.8321C84.1343 78.4229 87.3929 77.8705 88.6205 77.6696C91.378 77.2089 93.7641 76.8101 94.7471 78.5528C95.4516 79.7992 94.9284 81.4474 93.1451 83.5829C92.5894 84.2475 91.9984 84.7525 91.4738 85.1483C91.9085 85.4083 92.2976 85.807 92.4553 86.4332C92.8267 87.9159 91.5549 89.4016 88.6765 90.8548C87.9617 91.2181 86.9993 91.7025 85.6508 91.9359C85.0156 92.0452 84.4437 92.0718 83.9545 92.0865C83.9441 92.3701 83.8778 92.6772 83.7054 92.9933C83.1999 93.9237 82.1476 94.3667 80.5618 94.2604C78.8168 94.1688 77.3799 93.8351 76.1124 93.5426C75.0056 93.2886 74.052 93.073 73.3033 93.1232C71.915 93.2354 70.845 94.349 69.5894 95.7933L66.4546 99.4648Z" fill="#F2F2F2"/>
<path d="M69.6268 63.0439L63.8954 65.2583L63.3685 65.0731C60.9318 64.2156 58.7234 64.0325 56.8023 64.5282C56.4969 64.6069 56.1955 64.7014 55.8885 64.7973C54.6718 65.1781 53.1593 65.6518 51.1652 65.3209C50.0527 65.1338 47.4192 64.4792 47.2086 62.51C47.1465 61.9813 47.2793 61.5342 47.4764 61.1694C47.3968 61.1445 47.3167 61.1182 47.2303 61.0906C46.1778 60.7366 45.6706 60.3706 45.1822 60.018C44.8066 59.7472 44.4195 59.4672 43.5772 59.0901C43.2079 58.9245 42.8898 58.8035 42.6223 58.7013C41.8126 58.3904 40.8326 57.9639 40.5515 56.8316C40.293 55.6109 41.1229 54.7181 41.672 54.1264C42.6511 53.0706 43.4093 52.5096 43.9123 52.1377C44.0963 52.0023 44.303 51.8488 44.3619 51.7829C44.8305 51.2445 43.4708 48.2261 42.9655 47.0871C41.8213 44.5312 40.8311 42.3196 42.264 40.9247C43.2885 39.9257 45.0122 40.0148 47.526 41.2017C48.3084 41.5716 48.9459 42.0164 49.461 42.4245C49.6017 41.9372 49.8879 41.4589 50.4523 41.1473C51.7894 40.4112 53.5462 41.2671 55.6791 43.6884C56.2111 44.2891 56.9228 45.0991 57.4901 46.347C57.7567 46.935 57.9274 47.4825 58.0658 47.953C58.3421 47.8911 58.6555 47.8775 59.0043 47.9644C60.0306 48.2185 60.7253 49.126 61.0248 50.6901C61.3791 52.4047 61.4214 53.8822 61.4606 55.1849C61.4961 56.3222 61.5298 57.3011 61.7682 58.0141C62.2287 59.3312 63.575 60.0859 65.2878 60.9367L69.6268 63.0439Z" fill="#F2F2F2"/>
<path d="M66.4546 45.0229L65.7708 38.9059L66.0832 38.4422C67.529 36.2978 68.2659 34.2037 68.2747 32.2159C68.2762 31.8998 68.2614 31.5838 68.2467 31.2618C68.1877 29.9859 68.1141 28.3997 68.9394 26.5508C69.4022 25.5199 70.7021 23.1334 72.6563 23.4287C73.1825 23.5026 73.5804 23.7448 73.8825 24.0283C73.9268 23.9574 73.9724 23.8865 74.0211 23.8097C74.6297 22.8793 75.1117 22.4806 75.5759 22.0966C75.9326 21.8013 76.301 21.4971 76.8788 20.7763C77.1322 20.4603 77.3297 20.1827 77.4963 19.9493C78.0018 19.2434 78.662 18.4016 79.8263 18.4164C81.0702 18.4754 81.7216 19.5063 82.1535 20.1886C82.9243 21.4054 83.2735 22.2827 83.5049 22.8646C83.589 23.0772 83.6847 23.3165 83.7334 23.3903C84.1343 23.9811 87.3929 23.4287 88.6205 23.2278C91.378 22.7671 93.7641 22.3683 94.7471 24.111C95.4516 25.3574 94.9284 27.0056 93.1451 29.1411C92.5894 29.8057 91.9984 30.3107 91.4738 30.7065C91.9085 30.9665 92.2976 31.3652 92.4553 31.9914C92.8267 33.4741 91.5549 34.9598 88.6765 36.413C87.9617 36.7763 86.9993 37.2607 85.6508 37.4941C85.0156 37.6034 84.4437 37.63 83.9545 37.6447C83.9441 37.9283 83.8778 38.2355 83.7054 38.5515C83.1999 39.4819 82.1476 39.9249 80.5618 39.8186C78.8168 39.727 77.3799 39.3933 76.1124 39.1009C75.0056 38.8469 74.052 38.6312 73.3033 38.6814C71.915 38.7937 70.845 39.9072 69.5894 41.3515L66.4546 45.0229Z" fill="#F2F2F2"/>
<path d="M72.7005 163.76L71.4212 162.957L69.9298 163.128C69.9062 162.989 69.8251 162.67 69.7028 162.171C69.0352 159.436 66.9999 151.112 65.302 138.004C64.1171 128.854 63.4465 119.446 63.308 110.039C63.1694 100.617 63.6145 93.4835 63.9712 87.7505C64.2409 83.4264 64.5681 79.309 64.8894 75.2979C65.7442 64.582 66.5503 54.4598 65.9505 43.2537C65.8179 40.7519 65.5393 35.5446 62.5033 30.0036C60.7421 26.79 58.3162 23.9368 55.292 21.5266L57.1725 19.1578C60.5107 21.822 63.1945 24.9824 65.1502 28.5504C68.5164 34.694 68.82 40.368 68.9659 43.0942C69.576 54.4983 68.761 64.718 67.8974 75.5372C67.579 79.5335 67.2519 83.6332 66.9836 87.9396C66.6299 93.6195 66.1893 100.691 66.3263 109.992C66.4619 119.287 67.1251 128.579 68.2939 137.614C69.971 150.557 71.9769 158.756 72.6357 161.45C72.9864 162.889 73.0601 163.19 72.7005 163.76Z" fill="#F2F2F2"/>
<path d="M49.7564 26.3322C49.6326 26.3322 49.5074 26.3293 49.3806 26.3204C46.8103 26.1816 44.4301 24.6398 42.3049 21.7393C41.3086 20.3747 40.7987 18.8181 39.7818 15.7138C39.6241 15.2353 38.8577 12.8074 38.392 9.46682C38.0869 7.28404 38.1252 6.3714 38.557 5.56504C39.036 4.66712 39.8112 4.04096 40.6837 3.61859C40.6454 3.32912 40.6763 3.03081 40.8016 2.72657C41.316 1.46536 42.6837 1.63078 43.4235 1.71053C43.7979 1.75778 44.265 1.81981 44.7691 1.79322C45.562 1.75484 45.988 1.51852 46.6335 1.16407C47.251 0.82439 48.0188 0.402028 49.1581 0.168685C51.4042 -0.300941 53.2862 0.337051 53.9066 0.546743C57.1711 1.63663 58.7805 4.17975 60.6434 7.12452C61.0148 7.71525 62.2896 9.8655 63.1311 12.8133C63.7383 14.9399 63.6529 15.8851 63.4701 16.588C63.0987 18.0324 62.2218 18.8594 59.9949 20.6848C57.6692 22.5958 56.502 23.5528 55.4998 24.1346C53.1668 25.4845 51.7018 26.3322 49.7564 26.3322Z" fill="#F2F2F2"/>
<path d="M175.306 406.517C175.306 406.921 175.63 407.246 176.033 407.246H327.238C327.642 407.246 327.966 406.921 327.966 406.517C327.966 406.321 327.892 406.149 327.77 406.021H272.911C271.743 406.021 270.6 405.941 269.475 405.788H176.033C175.63 405.788 175.306 406.112 175.306 406.517Z" fill="#3F3D56"/>
<path d="M102.252 277.521H186.43C200.691 277.521 212.251 289.105 212.251 303.396V371.058C212.251 385.348 200.691 396.933 186.43 396.933H102.252C87.9917 396.933 76.431 385.348 76.431 371.058V303.396C76.431 289.105 87.9917 277.521 102.252 277.521Z" fill="white"/>
<path d="M75.8196 371.058V303.396C75.8196 288.791 87.6774 276.909 102.252 276.909H186.43C201.005 276.909 212.863 288.791 212.863 303.396V371.058C212.863 385.663 201.005 397.545 186.43 397.545H102.252C87.6774 397.545 75.8196 385.663 75.8196 371.058ZM102.252 278.134C88.3516 278.134 77.0425 289.466 77.0425 303.396V371.058C77.0425 384.988 88.3516 396.32 102.252 396.32H186.43C200.331 396.32 211.64 384.988 211.64 371.058V303.396C211.64 289.466 200.331 278.134 186.43 278.134H102.252Z" fill="#3F3D56"/>
<path d="M26.4329 126.796H110.61C124.871 126.796 136.432 138.38 136.432 152.67V220.333C136.432 234.623 124.871 246.208 110.61 246.208H26.4329C12.1721 246.208 0.611511 234.623 0.611511 220.333V152.67C0.611511 138.38 12.1721 126.796 26.4329 126.796Z" fill="white"/>
<path d="M0 220.333V152.671C0 138.066 11.8578 126.183 26.4329 126.183H110.61C125.185 126.183 137.043 138.066 137.043 152.671V220.333C137.043 234.938 125.185 246.82 110.61 246.82H26.4329C11.8578 246.82 0 234.938 0 220.333ZM26.4329 127.409C12.532 127.409 1.2229 138.741 1.2229 152.671V220.333C1.2229 234.263 12.532 245.595 26.4329 245.595H110.61C124.511 245.595 135.82 234.263 135.82 220.333V152.671C135.82 138.741 124.511 127.409 110.61 127.409L26.4329 127.409Z" fill="#3F3D56"/>
<path d="M261.963 171.858C261.351 171.245 256.46 158.379 256.46 158.379L244.842 157.766L239.527 170.324L261.963 171.858Z" fill="#FFB6B6"/>
<path d="M245.481 163.694C254.117 163.694 261.119 156.678 261.119 148.023C261.119 139.369 254.117 132.353 245.481 132.353C236.844 132.353 229.843 139.369 229.843 148.023C229.843 156.678 236.844 163.694 245.481 163.694Z" fill="#FFB6B6"/>
<path d="M275.109 256.718L280.612 275.099L265.937 381.71H256.002L250.651 301.445L244.537 329.017L275.72 368.843L267.772 378.033L222.83 334.225L223.747 266.521L227.416 256.105L275.109 256.718Z" fill="#2F2E41"/>
<path d="M258.591 160.896L257.37 160.957C257.37 160.957 256.278 151.195 255.637 150.614C254.996 150.032 253.835 151.316 253.835 151.316C253.835 151.316 248.799 148.497 248.648 145.438C248.498 142.378 248.377 139.93 246.545 140.02C244.713 140.111 234.452 143.071 232.009 143.192C229.566 143.312 225.691 139.209 229.785 135.327C233.88 131.444 237.484 130.039 238.065 129.397C238.645 128.755 242.468 126.112 245.808 128.401C249.148 130.69 253.423 130.479 253.423 130.479C253.423 130.479 261.452 131.923 260.411 135.655C259.37 139.387 263.395 146.55 261.744 150.312C260.092 154.074 258.591 160.896 258.591 160.896Z" fill="#2F2E41"/>
<path d="M255.543 379.871L266.549 381.097L267.772 401.316C267.772 401.316 267.16 411.119 256.766 409.894C246.371 408.669 249.428 398.865 249.428 398.865L255.543 379.871Z" fill="#2F2E41"/>
<path d="M269.912 365.473C269.912 365.473 277.861 361.797 279.083 366.086L281.529 374.663C281.529 374.663 281.529 383.241 282.141 383.854C282.752 384.467 294.37 400.397 283.975 408.975C283.975 408.975 278.472 409.588 275.415 401.01C272.357 392.432 263.186 383.854 263.186 383.854C263.186 383.854 261.409 379.565 264.438 379.871C267.466 380.178 271.746 372.825 270.523 370.375C269.3 367.924 269.912 365.473 269.912 365.473Z" fill="#2F2E41"/>
<path d="M168.961 285.426C166.116 284.225 165.336 279.621 167.22 275.14C167.947 273.34 169.095 271.74 170.566 270.476L172.763 265.425L172.685 265.372L179.003 240.139C180.472 234.272 184.517 229.323 190.072 226.955C193.377 225.547 196.512 225.292 197.424 228.667C198.937 234.265 189.082 252.3 183.141 262.447L178.511 273.829C178.637 275.768 178.296 277.709 177.519 279.489C175.637 283.968 171.805 286.626 168.961 285.426Z" fill="#FFB6B6"/>
<path d="M239.951 168.182L260.129 168.795L279.695 177.372L276.638 228.227C276.638 228.227 280.306 239.868 278.472 241.706C276.638 243.545 278.472 251.785 277.249 251.954C276.026 252.122 277.249 260.985 277.249 260.985C277.249 260.985 260.129 255.186 245.454 258.862C230.779 262.538 225.887 256.411 225.887 256.411C225.887 256.411 222.219 241.706 222.219 238.643V175.997L239.951 168.182Z" fill="#4796FF"/>
<path d="M225.582 175.841C225.582 175.841 217.021 173.39 212.741 179.517C208.461 185.644 206.015 185.644 206.015 193.609C206.015 193.609 180.946 229.146 182.169 232.822L176.36 242.319L191.035 250.284C191.035 250.284 196.232 245.076 196.232 240.175C196.232 235.273 210.907 221.794 210.907 221.794C210.907 221.794 223.747 205.251 224.359 199.123C224.97 192.996 225.582 175.841 225.582 175.841Z" fill="#4796FF"/>
<path d="M300.973 288.55H385.15C399.411 288.55 410.972 300.134 410.972 314.424V382.087C410.972 396.377 399.411 407.961 385.15 407.961H300.973C286.712 407.961 275.152 396.377 275.152 382.087V314.424C275.152 300.134 286.712 288.55 300.973 288.55Z" fill="white"/>
<path d="M273.929 381.475V313.812C273.929 299.207 285.786 287.325 300.361 287.325H384.539C399.114 287.325 410.972 299.207 410.972 313.812V381.475C410.972 396.08 399.114 407.961 384.539 407.961H300.361C285.786 407.961 273.929 396.08 273.929 381.475ZM300.361 288.55C286.461 288.55 275.151 299.882 275.151 313.812V381.475C275.151 395.404 286.461 406.736 300.361 406.736H384.539C398.44 406.736 409.749 395.404 409.749 381.475V313.812C409.749 299.882 398.44 288.55 384.539 288.55H300.361Z" fill="#3F3D56"/>
<path d="M291.974 299.29C295.057 299.128 297.35 295.063 297.096 290.207C297.021 288.266 296.483 286.372 295.528 284.682L295.171 279.183L295.263 279.16L297.866 253.276C298.471 247.258 296.343 241.227 291.92 237.111C289.288 234.662 286.425 233.356 284.425 236.22C281.105 240.972 284.266 261.287 286.419 272.853L286.918 285.134C286.144 286.915 285.806 288.856 285.934 290.795C286.187 295.649 288.892 299.452 291.974 299.29Z" fill="#FFB6B6"/>
<path d="M275.83 176.953C275.83 176.953 284.712 177.559 286.663 184.778C288.614 191.997 290.914 192.829 288.217 200.322C288.217 200.322 299.762 242.275 297.367 245.317L299.614 256.226L283.112 258.727C283.112 258.727 279.988 252.061 281.648 247.45C283.308 242.84 274.07 225.17 274.07 225.17C274.07 225.17 267.594 205.242 269.094 199.27C270.594 193.299 275.83 176.953 275.83 176.953Z" fill="#4796FF"/>
</g>
<defs>
<clipPath id="clip0_41_1283">
<rect width="410.972" height="410" fill="white"/>
</clipPath>
</defs>
</svg>
