<svg width="585" height="410" viewBox="0 0 585 410" fill="none" xmlns="http://www.w3.org/2000/svg">
<g clip-path="url(#clip0_43_1424)">
<path d="M516.052 399.693L506.276 399.692L501.625 361.889L516.054 361.89L516.052 399.693Z" fill="#FFB8B8"/>
<path d="M518.545 409.193L487.022 409.192V408.792C487.022 405.53 488.315 402.402 490.616 400.095C492.917 397.788 496.038 396.492 499.292 396.492H499.293L518.546 396.493L518.545 409.193Z" fill="#2F2E41"/>
<path d="M559.2 375.598L552.855 383.053L521.15 362.062L530.516 351.059L559.2 375.598Z" fill="#FFB8B8"/>
<path d="M568.028 379.863L547.566 403.902L547.262 403.643C544.787 401.525 543.252 398.509 542.996 395.257C542.739 392.005 543.781 388.784 545.893 386.302L545.894 386.301L558.391 371.619L568.028 379.863Z" fill="#2F2E41"/>
<path d="M446.636 213.783L443.593 241.919L566.613 240.16L512.963 152.524L469.159 150.947L446.636 213.783Z" fill="#2F2E41"/>
<path opacity="0.28" d="M446.636 213.783L443.593 241.919L566.613 240.16L512.963 152.524L469.159 150.947L446.636 213.783Z" fill="black"/>
<path d="M470.826 218.613L466.483 244.357V267.369L501.5 278.828C501.5 278.828 497.401 368.209 502.866 373.902L502.731 387.645L518.007 388.341L518.132 378.669L524.608 306.376L528.423 253.298L522.238 213.056L470.826 218.613Z" fill="#2F2E41"/>
<path d="M497.955 240.774L466.483 267.369C466.483 267.369 464.641 315.352 469.319 320.979C473.337 325.812 525.588 367.501 525.588 367.501C525.588 367.501 534.875 376.04 540.079 376.176C545.283 376.313 551.336 365.37 551.336 365.37L539.284 356.189C539.284 356.189 508.059 326.97 498.788 315.352C495.046 310.663 495.046 310.194 495.046 310.194L496.324 290.693L509.187 254.502L497.955 240.774Z" fill="#2F2E41"/>
<path d="M464.542 113.383L450.973 112.126L438.665 114.183L412.603 114.191L410.382 133.128L434.166 138.463L439.962 135.615L464.122 144.844L464.542 113.383Z" fill="#2F2E41"/>
<path d="M480.749 113.324C480.749 113.324 509.546 110.619 516.095 115.777C522.643 120.935 536.676 223.161 536.676 223.161L480.749 226.326L470.722 219.41L473.568 168.375L480.749 113.324Z" fill="#CCCCCC"/>
<path d="M489.539 112.687L457.773 113.386L428.156 247.545L451.544 252.704L489.539 112.687Z" fill="#2F2E41"/>
<path d="M512.121 111.553L537.143 119.405L535.722 174.526L566.613 240.429L530.298 244.263L501.594 173.102L512.121 111.553Z" fill="#2F2E41"/>
<path d="M553.383 247.123C554.26 246.348 554.957 245.391 555.425 244.317C555.894 243.244 556.121 242.08 556.092 240.909C556.063 239.738 555.779 238.587 555.258 237.538C554.738 236.489 553.994 235.567 553.08 234.837L558.114 217.232L548.188 211.556L541.427 236.518C540.306 238.139 539.817 240.116 540.053 242.074C540.289 244.033 541.233 245.837 542.707 247.144C544.18 248.451 546.081 249.171 548.049 249.167C550.016 249.163 551.914 248.435 553.383 247.123Z" fill="#FFB8B8"/>
<path d="M522.643 120.936L537.449 119.648C537.449 119.648 550.741 133.585 553.765 144.376C556.789 155.167 560.064 188.93 560.064 188.93L558.698 238.321L541.391 226.539L540.23 184.056L522.643 120.936Z" fill="#2F2E41"/>
<path d="M519.072 96.1101C524.631 85.9137 520.894 73.1294 510.723 67.5556C500.552 61.9817 487.799 65.729 482.239 75.9254C476.679 86.1218 480.417 98.9061 490.588 104.48C500.759 110.054 513.512 106.306 519.072 96.1101Z" fill="#FFB8B8"/>
<path d="M498.315 77.2338C495.562 76.5959 492.703 77.3028 489.914 77.761C487.125 78.2192 484.051 78.3703 481.692 76.8102C479.95 75.6581 478.879 73.7521 477.873 71.9187C477.453 71.2639 477.173 70.529 477.051 69.7604C476.933 68.4044 477.793 67.1673 478.707 66.1605C482.951 61.4838 489.152 58.9241 495.407 58.111C500.564 57.3404 505.834 57.9855 510.656 59.9778C515.403 62.0653 519.484 65.8882 521.351 70.7368C522.211 73.2184 522.748 75.8008 522.948 78.4201C523.23 80.3472 523.267 82.3025 523.056 84.2388C522.805 85.6742 522.428 87.0848 521.931 88.4543L518.839 97.814C518.617 98.6985 518.202 99.5225 517.623 100.227C517.326 100.572 516.926 100.811 516.482 100.908C516.038 101.006 515.574 100.956 515.16 100.768C515.408 99.751 515.445 98.6945 515.271 97.6627C515.174 97.1485 514.926 96.6752 514.559 96.3036C514.191 95.932 513.721 95.6793 513.209 95.578C512.069 95.4567 511.096 96.3424 510.015 96.7238C509.52 96.8709 509.001 96.9188 508.488 96.8648C507.975 96.8108 507.477 96.656 507.023 96.4093C506.57 96.1625 506.169 95.8286 505.844 95.4266C505.52 95.0246 505.277 94.5624 505.13 94.0664C505.101 93.9664 505.075 93.8653 505.053 93.7632C504.883 92.6932 505.169 91.5476 504.765 90.5427C504.291 89.3654 503.034 88.7485 502.089 87.9025C501.228 87.1053 500.611 86.0781 500.312 84.9415C500.012 83.805 500.043 82.6065 500.4 81.4868C500.653 80.7078 501.367 80.3537 501.224 79.4588C501.036 78.2849 499.31 77.4641 498.315 77.2338Z" fill="#2F2E41"/>
<path d="M264.975 166.175H0V0H264.975V166.175Z" fill="white"/>
<path d="M264.975 166.175H0V0H264.975V166.175ZM1.20993 164.962H263.765V1.21296H1.20993V164.962Z" fill="#3F3D56"/>
<path d="M232.609 396.335H81.3679V230.159H232.609V396.335Z" fill="white"/>
<path d="M232.609 396.335H81.3679V230.159H232.609V396.335ZM82.5779 395.122H231.399V231.372H82.5779V395.122Z" fill="#3F3D56"/>
<path d="M212.041 380.64H180.582V381.918H212.041V380.64Z" fill="#3F3D56"/>
<path d="M212.041 384.475H180.582V385.754H212.041V384.475Z" fill="#3F3D56"/>
<path d="M212.041 388.311H180.582V389.59H212.041V388.311Z" fill="#3F3D56"/>
<path d="M156.989 259.877V273.219C164.886 273.219 172.605 275.567 179.171 279.965C185.737 284.363 190.855 290.615 193.877 297.929C196.899 305.243 197.69 313.291 196.149 321.056C194.609 328.821 190.806 335.953 185.222 341.551L194.633 350.985C202.078 343.521 207.149 334.012 209.203 323.659C211.257 313.306 210.203 302.575 206.173 292.823C202.144 283.071 195.32 274.736 186.566 268.871C177.811 263.007 167.518 259.877 156.989 259.877Z" fill="#E6E6E6"/>
<path d="M194.633 350.985L185.222 341.551C178.396 348.395 169.326 352.528 159.693 353.183C150.06 353.838 140.517 350.97 132.832 345.112L124.776 355.738C135.025 363.547 147.75 367.368 160.594 366.495C173.437 365.621 185.53 360.111 194.633 350.985Z" fill="#575A89"/>
<path d="M117.061 313.247C117.061 307.99 118.094 302.785 120.1 297.929C122.107 293.073 125.048 288.66 128.755 284.943C132.463 281.226 136.865 278.278 141.709 276.266C146.553 274.255 151.745 273.219 156.989 273.219V259.877C145.844 259.877 134.98 263.383 125.929 269.901C116.878 276.419 110.095 285.621 106.537 296.208C102.979 306.796 102.826 318.236 106.098 328.916C109.37 339.596 115.903 348.978 124.776 355.738L132.832 345.112C127.927 341.382 123.95 336.564 121.214 331.036C118.478 325.507 117.056 319.418 117.061 313.247Z" fill="#4796FF"/>
<path d="M456.447 293.233H305.205V127.057H456.447V293.233Z" fill="white"/>
<path d="M456.447 293.233H305.205V127.057H456.447V293.233ZM306.415 292.02H455.237V128.27H306.415V292.02Z" fill="#3F3D56"/>
<path d="M354.208 228.643H326.984V272.309H354.208V228.643Z" fill="#575A89"/>
<path d="M393.53 198.925H366.307V272.309H393.53V198.925Z" fill="#E6E6E6"/>
<path d="M432.853 164.356H405.63V272.309H432.853V164.356Z" fill="#4796FF"/>
<path d="M441.927 273.523H319.725V146.768H320.934V272.31H441.927V273.523Z" fill="#3F3D56"/>
<path d="M412.465 131.482C417.067 131.482 420.797 127.742 420.797 123.129C420.797 118.515 417.067 114.775 412.465 114.775C407.863 114.775 404.133 118.515 404.133 123.129C404.133 127.742 407.863 131.482 412.465 131.482Z" fill="#FFB8B8"/>
<path d="M583.67 410H453.825C453.641 410 453.465 409.927 453.334 409.796C453.204 409.666 453.131 409.488 453.131 409.304C453.131 409.119 453.204 408.942 453.334 408.812C453.465 408.681 453.641 408.608 453.825 408.608H583.67C583.854 408.608 584.031 408.681 584.161 408.812C584.292 408.942 584.365 409.119 584.365 409.304C584.365 409.488 584.292 409.666 584.161 409.796C584.031 409.927 583.854 410 583.67 410Z" fill="#CCCCCC"/>
<path d="M228.176 131.422H36.7987C36.6398 131.422 36.4875 131.359 36.3752 131.246C36.2629 131.133 36.1998 130.981 36.1998 130.821V38.8646C36.1998 38.7053 36.2629 38.5526 36.3752 38.44C36.4875 38.3274 36.6398 38.2642 36.7987 38.2642C36.9575 38.2642 37.1099 38.3274 37.2222 38.44C37.3345 38.5526 37.3976 38.7053 37.3976 38.8646V130.221H228.176C228.255 130.221 228.333 130.236 228.406 130.266C228.479 130.296 228.545 130.34 228.601 130.396C228.657 130.452 228.701 130.518 228.732 130.591C228.762 130.664 228.777 130.742 228.777 130.821C228.777 130.9 228.762 130.979 228.732 131.052C228.701 131.125 228.657 131.191 228.601 131.247C228.545 131.302 228.479 131.347 228.406 131.377C228.333 131.407 228.255 131.422 228.176 131.422Z" fill="#3F3D56"/>
<path d="M77.6877 124.817H60.2812C59.8099 124.817 59.358 124.629 59.0247 124.295C58.6914 123.96 58.5039 123.507 58.5033 123.035V98.9798C58.5039 98.5073 58.6914 98.0543 59.0247 97.7202C59.358 97.3861 59.8099 97.1982 60.2812 97.1976H77.6877C78.1591 97.1982 78.611 97.3861 78.9443 97.7202C79.2776 98.0543 79.4651 98.5073 79.4657 98.9798V123.035C79.4651 123.507 79.2776 123.96 78.9443 124.295C78.611 124.629 78.1591 124.817 77.6877 124.817Z" fill="#4796FF"/>
<path d="M109.431 124.817H92.0243C91.5529 124.817 91.101 124.629 90.7677 124.295C90.4344 123.96 90.2469 123.507 90.2463 123.035V76.1638C90.2469 75.6913 90.4344 75.2383 90.7677 74.9042C91.101 74.5701 91.5529 74.3821 92.0243 74.3816H109.431C109.902 74.3821 110.354 74.5701 110.687 74.9042C111.021 75.2383 111.208 75.6913 111.209 76.1638V123.035C111.208 123.507 111.021 123.96 110.687 124.295C110.354 124.629 109.902 124.817 109.431 124.817Z" fill="#4796FF"/>
<path d="M141.174 124.817H123.767C123.296 124.817 122.844 124.629 122.511 124.295C122.177 123.96 121.99 123.507 121.989 123.035V98.9798C121.99 98.5073 122.177 98.0543 122.511 97.7202C122.844 97.3861 123.296 97.1982 123.767 97.1976H141.174C141.645 97.1982 142.097 97.3861 142.43 97.7202C142.764 98.0543 142.951 98.5073 142.952 98.9798V123.035C142.951 123.507 142.764 123.96 142.43 124.295C142.097 124.629 141.645 124.817 141.174 124.817Z" fill="#4796FF"/>
<path d="M172.917 124.817H155.51C155.05 124.827 154.604 124.653 154.271 124.335C153.937 124.016 153.744 123.577 153.732 123.116V67.0766C153.744 66.6149 153.937 66.1766 154.271 65.8576C154.604 65.5387 155.05 65.3652 155.51 65.3752H172.917C173.377 65.3652 173.823 65.5387 174.156 65.8576C174.49 66.1766 174.683 66.6149 174.695 67.0766V123.116C174.683 123.577 174.49 124.016 174.156 124.335C173.823 124.653 173.377 124.827 172.917 124.817Z" fill="#4796FF"/>
<path d="M204.66 124.817H187.253C186.782 124.817 186.33 124.629 185.997 124.295C185.663 123.96 185.476 123.507 185.475 123.035V50.946C185.476 50.4735 185.663 50.0205 185.997 49.6864C186.33 49.3523 186.782 49.1643 187.253 49.1638H204.66C205.131 49.1643 205.583 49.3523 205.916 49.6864C206.25 50.0205 206.437 50.4735 206.438 50.946V123.035C206.437 123.507 206.25 123.96 205.916 124.295C205.583 124.629 205.131 124.817 204.66 124.817Z" fill="#4796FF"/>
<path d="M68.9845 89.9926C70.9692 89.9926 72.5781 88.3796 72.5781 86.39C72.5781 84.4004 70.9692 82.7875 68.9845 82.7875C66.9999 82.7875 65.391 84.4004 65.391 86.39C65.391 88.3796 66.9999 89.9926 68.9845 89.9926Z" fill="#3F3D56"/>
<path d="M100.727 66.5761C102.712 66.5761 104.321 64.9631 104.321 62.9735C104.321 60.9839 102.712 59.371 100.727 59.371C98.7428 59.371 97.1339 60.9839 97.1339 62.9735C97.1339 64.9631 98.7428 66.5761 100.727 66.5761Z" fill="#3F3D56"/>
<path d="M132.47 89.9926C134.455 89.9926 136.064 88.3796 136.064 86.39C136.064 84.4004 134.455 82.7875 132.47 82.7875C130.486 82.7875 128.877 84.4004 128.877 86.39C128.877 88.3796 130.486 89.9926 132.47 89.9926Z" fill="#3F3D56"/>
<path d="M164.214 55.168C166.198 55.168 167.807 53.5551 167.807 51.5654C167.807 49.5758 166.198 47.9629 164.214 47.9629C162.229 47.9629 160.62 49.5758 160.62 51.5654C160.62 53.5551 162.229 55.168 164.214 55.168Z" fill="#3F3D56"/>
<path d="M195.957 41.9587C197.941 41.9587 199.55 40.3458 199.55 38.3562C199.55 36.3666 197.941 34.7537 195.957 34.7537C193.972 34.7537 192.363 36.3666 192.363 38.3562C192.363 40.3458 193.972 41.9587 195.957 41.9587Z" fill="#3F3D56"/>
<path d="M132.546 87.1971L100.728 63.305L69.3435 86.8706L68.6255 85.9093L100.728 61.8042L132.395 85.5828L163.864 51.06L163.99 51.0085L195.733 38.1864L196.18 39.3008L164.563 52.0714L132.546 87.1971Z" fill="#3F3D56"/>
</g>
<defs>
<clipPath id="clip0_43_1424">
<rect width="584.365" height="410" fill="white"/>
</clipPath>
</defs>
</svg>
