<svg width="499" height="410" viewBox="0 0 499 410" fill="none" xmlns="http://www.w3.org/2000/svg">
<g clip-path="url(#clip0_43_1471)">
<path d="M498.782 397.465C498.934 413.438 398.362 414.902 396.446 397.466C396.293 381.494 496.866 380.03 498.782 397.465Z" fill="#E6E6E6"/>
<path d="M420.095 342.013L412.62 346.093L417.377 361.735L424.851 362.415L428.928 353.574L420.095 342.013Z" fill="#9F616A"/>
<path d="M443.197 373.295V380.776L454.748 380.096L454.587 373.935L443.197 373.295Z" fill="#9F616A"/>
<path d="M417.377 252.245L421.453 303.25L434.364 378.055L454.748 375.335L447.954 316.171L450.672 261.767L417.377 252.245Z" fill="#2F2E41"/>
<path d="M471.736 214.163L422.812 214.843L417.376 252.246L450.671 267.887L458.825 297.81L417.377 342.013L433.684 362.415C433.684 362.415 456.787 331.132 473.774 313.451C490.761 295.769 482.608 242.045 482.608 242.045L471.736 214.163Z" fill="#2F2E41"/>
<path d="M442.518 117.595C450.774 117.595 457.466 110.897 457.466 102.634C457.466 94.371 450.774 87.6726 442.518 87.6726C434.262 87.6726 427.569 94.371 427.569 102.634C427.569 110.897 434.262 117.595 442.518 117.595Z" fill="#9F616A"/>
<path d="M437.082 112.835V127.796L447.274 144.117C447.274 144.117 462.902 132.556 459.505 129.836C456.107 127.116 455.428 106.034 455.428 106.034L437.082 112.835Z" fill="#9F616A"/>
<path d="M437.082 125.076L426.889 137.316L430.967 222.323L462.902 221.643L468.338 147.517L461.544 128.476L456.883 122.129L448.633 134.596L437.082 125.076Z" fill="#D0CDE1"/>
<path d="M420.774 169.279L413.3 197.841L420.774 226.404L408.543 242.725L397.671 191.041C397.671 191.041 405.825 148.877 406.505 144.117C407.184 139.357 408.543 138.677 408.543 138.677L413.979 139.357L420.774 169.279Z" fill="#2F2E41"/>
<path d="M475.133 180.159L479.889 189.001L481.249 203.962L478.531 220.963L488.043 236.604L497.556 193.761L487.364 138.676H483.287L475.133 180.159Z" fill="#2F2E41"/>
<path d="M417.377 341.333C417.377 341.333 407.864 344.053 404.466 344.733C401.069 345.413 406.505 358.334 406.505 358.334C406.505 358.334 409.902 376.016 410.582 379.416C411.261 382.816 416.018 394.377 422.133 395.737C428.248 397.097 424.171 371.935 424.171 371.935C424.171 371.935 426.889 363.775 426.889 361.055C426.889 358.334 422.812 359.694 422.812 359.694C411.941 358.334 417.377 341.333 417.377 341.333Z" fill="#2F2E41"/>
<path d="M439.8 393.697C440.479 397.778 439.12 397.778 449.992 399.138C460.864 400.498 458.146 391.657 458.146 391.657C457.691 387.489 456.78 383.384 455.428 379.416C453.39 373.976 442.518 380.776 442.518 380.776C442.518 380.776 439.12 389.617 439.8 393.697Z" fill="#2F2E41"/>
<path d="M455.446 106.509L455.8 112.557C455.8 112.557 460.184 102.634 460.864 92.4328C461.543 82.232 449.992 80.1918 443.197 79.5117C436.402 78.8317 424.851 83.5921 424.851 89.0325C424.851 94.473 437.082 93.1128 441.838 91.7527C446.595 90.3926 448.633 101.954 448.633 101.954L451.351 102.634L455.446 106.509Z" fill="#2F2E41"/>
<path d="M433.071 129.892L437.082 125.076L448.633 134.596L437.082 142.757L433.071 129.892Z" fill="#D0CDE1"/>
<path d="M461.544 128.476L456.787 122.355L448.633 134.596L458.826 142.077L461.544 128.476Z" fill="#D0CDE1"/>
<path d="M418.735 178.8L421.453 204.642L416.018 220.283L412.62 235.244C412.62 235.244 412.62 249.526 426.21 250.206C439.8 250.886 451.351 207.362 451.351 207.362C451.351 207.362 453.389 216.883 454.748 222.323C456.107 227.764 479.21 249.526 479.21 249.526C479.21 249.526 484.646 248.846 489.402 237.965C494.159 227.084 479.889 216.883 479.889 216.883L475.813 202.602L477.172 184.92L486.684 138.677L458.486 124.055L461.543 163.159L451.351 193.761L436.062 126.096L430.966 129.836L409.223 138.677L418.735 178.8Z" fill="#2F2E41"/>
<path d="M150.195 281.659C148.851 281.649 147.492 281.64 146.158 281.598L146.199 280.251C147.52 280.292 148.871 280.31 150.195 280.312C151.526 280.312 152.882 280.29 154.226 280.246L154.27 281.593C152.91 281.637 151.54 281.659 150.195 281.659ZM138.063 281.09C135.383 280.836 132.676 280.492 130.018 280.067L130.23 278.737C132.86 279.157 135.538 279.498 138.19 279.749L138.063 281.09ZM162.363 281.076L162.235 279.735C164.886 279.48 167.564 279.136 170.194 278.713L170.408 280.043C167.75 280.472 165.043 280.819 162.363 281.076ZM122.053 278.53C119.428 277.934 116.788 277.245 114.204 276.481L114.586 275.188C117.142 275.944 119.754 276.626 122.351 277.215L122.053 278.53ZM178.371 278.496L178.072 277.183C180.674 276.588 183.286 275.903 185.834 275.146L186.217 276.438C183.642 277.204 181.002 277.896 178.371 278.496ZM106.503 273.93C103.97 272.999 101.436 271.974 98.9714 270.882L99.5164 269.65C101.955 270.729 104.461 271.744 106.967 272.665L106.503 273.93ZM193.915 273.877L193.449 272.613C195.94 271.695 198.438 270.681 200.874 269.599L201.42 270.831C198.957 271.924 196.432 272.95 193.915 273.877ZM91.6545 267.355C89.2712 266.11 86.891 264.768 84.581 263.366L85.2792 262.213C87.565 263.601 89.9194 264.928 92.2775 266.16L91.6545 267.355ZM208.717 267.306L208.094 266.111C210.446 264.88 212.795 263.553 215.075 262.166L215.774 263.318C213.47 264.72 211.096 266.061 208.717 267.306ZM77.7793 258.932C75.5718 257.39 73.384 255.755 71.2761 254.073L72.1157 253.019C74.2012 254.684 76.366 256.301 78.5498 257.827L77.7793 258.932ZM222.565 258.884L221.793 257.78C223.976 256.253 226.138 254.635 228.219 252.972L229.059 254.025C226.956 255.706 224.771 257.34 222.565 258.884ZM65.0967 248.808C63.1012 246.995 61.1393 245.096 59.2664 243.163L60.2329 242.225C62.0861 244.137 64.0273 246.016 66.002 247.811L65.0967 248.808ZM235.232 248.762L234.326 247.764C236.296 245.973 238.235 244.093 240.091 242.176L241.058 243.113C239.183 245.051 237.222 246.951 235.232 248.762ZM53.808 237.159C52.0607 235.109 50.3572 232.976 48.744 230.82L49.822 230.012C51.418 232.146 53.1035 234.256 54.8324 236.284L53.808 237.159ZM246.515 237.103L245.491 236.229C247.219 234.199 248.905 232.086 250.501 229.95L251.579 230.757C249.966 232.916 248.263 235.051 246.515 237.103ZM44.0953 224.172C42.6222 221.914 41.2046 219.582 39.8818 217.242L41.0541 216.578C42.3625 218.894 43.7652 221.201 45.2229 223.435L44.0953 224.172ZM256.229 224.098L255.101 223.363C256.559 221.125 257.962 218.814 259.271 216.493L260.444 217.155C259.121 219.501 257.703 221.837 256.229 224.098ZM36.1216 210.057C34.95 207.632 33.8431 205.139 32.8319 202.648L34.0791 202.141C35.0798 204.605 36.1749 207.071 37.334 209.47L36.1216 210.057ZM264.205 209.952L262.993 209.366C264.152 206.963 265.247 204.49 266.249 202.015L267.497 202.52C266.484 205.023 265.377 207.523 264.205 209.952ZM30.0211 195.032C29.1694 192.473 28.3912 189.854 27.7081 187.25L29.0106 186.908C29.6862 189.484 30.4561 192.075 31.2986 194.606L30.0211 195.032ZM270.302 194.89L269.024 194.466C269.862 191.937 270.629 189.346 271.303 186.764L272.606 187.105C271.924 189.715 271.149 192.334 270.302 194.89ZM25.9017 179.336C25.3872 176.692 24.9519 173.996 24.6077 171.323L25.9431 171.15C26.2837 173.796 26.7143 176.463 27.2232 179.079L25.9017 179.336ZM274.403 179.188L273.081 178.933C273.586 176.318 274.014 173.65 274.352 171.002L275.688 171.174C275.346 173.849 274.914 176.546 274.403 179.188ZM23.8293 163.244C23.6567 160.557 23.5676 157.827 23.5646 155.129L24.9112 155.127C24.9141 157.798 25.0022 160.499 25.1732 163.157L23.8293 163.244ZM276.457 163.093L275.113 163.007C275.281 160.352 275.366 157.651 275.366 154.98L275.365 154.685H276.711L276.712 154.975C276.712 157.679 276.626 160.409 276.457 163.093ZM25.1544 147.099L23.8105 147.017C23.9775 144.325 24.233 141.606 24.5699 138.935L25.9059 139.103C25.5723 141.747 25.3195 144.437 25.1544 147.099ZM275.095 146.657C274.92 143.993 274.657 141.304 274.315 138.664L275.65 138.49C275.996 141.159 276.262 143.876 276.439 146.569L275.095 146.657ZM27.167 131.172L25.8448 130.918C26.3527 128.273 26.9544 125.609 27.6322 123L28.9353 123.338C28.2647 125.92 27.6697 128.555 27.167 131.172ZM273.024 130.738C272.511 128.119 271.907 125.486 271.228 122.91L272.53 122.567C273.216 125.17 273.827 127.832 274.346 130.478L273.024 130.738ZM31.2056 115.635L29.9268 115.212C30.772 112.652 31.7129 110.083 32.7237 107.578L33.9723 108.082C32.9723 110.561 32.0416 113.102 31.2056 115.635ZM268.932 115.215C268.087 112.685 267.148 110.151 266.143 107.684L267.39 107.175C268.406 109.669 269.355 112.231 270.209 114.787L268.932 115.215ZM37.2203 100.725L36.0066 100.141C37.1746 97.711 38.4376 95.2862 39.7602 92.9343L40.9338 93.5957C39.625 95.9222 38.3758 98.321 37.2203 100.725ZM262.88 100.358C261.72 97.965 260.466 95.575 259.151 93.2545L260.323 92.5899C261.652 94.9351 262.919 97.3511 264.091 99.7703L262.88 100.358ZM45.0956 86.7202L43.9667 85.9852C45.4352 83.7262 46.9971 81.4839 48.6086 79.3213L49.6882 80.1267C48.0938 82.2667 46.5484 84.4849 45.0956 86.7202ZM254.974 86.4031C253.517 84.1759 251.968 81.9646 250.367 79.8306L251.444 79.0219C253.062 81.1789 254.628 83.4139 256.101 85.6647L254.974 86.4031ZM54.691 73.8422L53.6653 72.9697C55.4093 70.9163 57.2427 68.8922 59.1146 66.9539L60.083 67.8903C58.2309 69.8081 56.4169 71.8109 54.691 73.8422ZM245.349 73.5645C243.618 71.5388 241.798 69.542 239.942 67.6297L240.907 66.6907C242.784 68.623 244.623 70.6412 246.372 72.6887L245.349 73.5645ZM65.8416 62.2947L64.935 61.2984C66.9275 59.4819 69.0025 57.7082 71.1018 56.0269L71.9434 57.0791C69.8661 58.7426 67.8131 60.4976 65.8416 62.2947ZM234.166 62.0502C232.191 60.2614 230.133 58.5117 228.046 56.8501L228.885 55.7953C230.993 57.4749 233.074 59.2431 235.069 61.0514L234.166 62.0502ZM78.3635 52.264L77.5909 51.1605C79.7941 49.6151 82.0769 48.121 84.3758 46.7194L85.0764 47.8703C82.8021 49.2571 80.5433 50.7354 78.3635 52.264ZM221.606 52.0495C219.414 50.5225 217.149 49.0492 214.872 47.6703L215.569 46.5174C217.87 47.9108 220.16 49.3999 222.376 50.9433L221.606 52.0495ZM92.0536 43.9168L91.4283 42.7232C93.8088 41.4736 96.2625 40.2845 98.7205 39.1892L99.2682 40.4204C96.8362 41.5038 94.409 42.6804 92.0536 43.9168ZM207.869 43.7319C205.504 42.5001 203.067 41.3291 200.626 40.2513L201.17 39.0181C203.637 40.1075 206.1 41.2913 208.491 42.5363L207.869 43.7319ZM106.69 37.3974L106.222 36.1333C108.747 35.1985 111.336 34.3339 113.917 33.5636L114.302 34.8554C111.748 35.617 109.187 36.4725 106.69 37.3974ZM193.172 37.2444C190.669 36.3281 188.105 35.4818 185.55 34.7297L185.93 33.4366C188.512 34.197 191.104 35.0525 193.634 35.979L193.172 37.2444ZM122.062 32.8105L121.761 31.4971C124.381 30.8963 127.059 30.3729 129.722 29.9402L129.937 31.2707C127.303 31.6985 124.653 32.2163 122.062 32.8105ZM177.783 32.7125C175.186 32.1268 172.535 31.6182 169.902 31.2003L170.113 29.8691C172.774 30.2916 175.454 30.8059 178.079 31.3977L177.783 32.7125ZM137.895 30.2393L137.765 28.8982C140.439 28.6386 143.162 28.4613 145.858 28.3715L145.903 29.7184C143.235 29.8073 140.541 29.9826 137.895 30.2393ZM161.94 30.1975C159.291 29.9498 156.596 29.7839 153.931 29.7046L153.971 28.3577C156.664 28.4379 159.388 28.6054 162.065 28.8558L161.94 30.1975Z" fill="#D0CDE1"/>
<path d="M145.425 63.3396C162.902 63.3396 177.069 49.1606 177.069 31.6698C177.069 14.1791 162.902 0 145.425 0C127.949 0 113.782 14.1791 113.782 31.6698C113.782 49.1606 127.949 63.3396 145.425 63.3396Z" fill="#4796FF"/>
<path d="M267.96 149.589C285.436 149.589 299.603 135.41 299.603 117.92C299.603 100.429 285.436 86.2498 267.96 86.2498C250.483 86.2498 236.316 100.429 236.316 117.92C236.316 135.41 250.483 149.589 267.96 149.589Z" fill="#4796FF"/>
<path d="M229.583 281.659C247.06 281.659 261.227 267.48 261.227 249.989C261.227 232.499 247.06 218.32 229.583 218.32C212.107 218.32 197.94 232.499 197.94 249.989C197.94 267.48 212.107 281.659 229.583 281.659Z" fill="#4796FF"/>
<path d="M77.4255 287.05C94.9017 287.05 109.069 272.871 109.069 255.38C109.069 237.889 94.9017 223.71 77.4255 223.71C59.9493 223.71 45.782 237.889 45.782 255.38C45.782 272.871 59.9493 287.05 77.4255 287.05Z" fill="#4796FF"/>
<path d="M31.6435 149.589C49.1197 149.589 63.2869 135.41 63.2869 117.92C63.2869 100.429 49.1197 86.2498 31.6435 86.2498C14.1673 86.2498 0 100.429 0 117.92C0 135.41 14.1673 149.589 31.6435 149.589Z" fill="#4796FF"/>
<path d="M158.985 29.145H147.948C146.944 29.145 145.982 28.7459 145.272 28.0357C144.563 27.3254 144.164 26.362 144.164 25.3576V14.311C144.164 14.2695 144.156 14.2285 144.14 14.1902C144.124 14.1519 144.101 14.1171 144.071 14.0878C144.042 14.0585 144.007 14.0352 143.969 14.0194C143.931 14.0035 143.89 13.9954 143.848 13.9954H136.595C135.257 13.9954 133.974 14.5274 133.028 15.4744C132.081 16.4215 131.55 17.7059 131.55 19.0452V44.2945C131.55 45.6338 132.081 46.9183 133.028 47.8653C133.974 48.8124 135.257 49.3444 136.595 49.3444H154.255C155.593 49.3444 156.877 48.8124 157.823 47.8653C158.769 46.9183 159.301 45.6338 159.301 44.2945V29.4606C159.301 29.4191 159.293 29.3781 159.277 29.3398C159.261 29.3015 159.238 29.2667 159.208 29.2374C159.179 29.2081 159.144 29.1848 159.106 29.169C159.068 29.1531 159.027 29.145 158.985 29.145ZM151.732 41.7696H139.118C138.784 41.7696 138.463 41.6366 138.226 41.3999C137.99 41.1631 137.857 40.842 137.857 40.5071C137.857 40.1723 137.99 39.8512 138.226 39.6145C138.463 39.3777 138.784 39.2447 139.118 39.2447H151.732C152.067 39.2447 152.388 39.3777 152.624 39.6145C152.861 39.8512 152.994 40.1723 152.994 40.5071C152.994 40.842 152.861 41.1631 152.624 41.3999C152.388 41.6366 152.067 41.7696 151.732 41.7696ZM151.732 35.4573H139.118C138.784 35.4573 138.463 35.3243 138.226 35.0875C137.99 34.8508 137.857 34.5296 137.857 34.1948C137.857 33.86 137.99 33.5389 138.226 33.3021C138.463 33.0654 138.784 32.9324 139.118 32.9324H151.732C152.067 32.9324 152.388 33.0654 152.624 33.3021C152.861 33.5389 152.994 33.86 152.994 34.1948C152.994 34.5296 152.861 34.8508 152.624 35.0875C152.388 35.3243 152.067 35.4573 151.732 35.4573Z" fill="white"/>
<path d="M158.293 26.3509L146.955 15.0037C146.933 14.9817 146.905 14.9668 146.875 14.9608C146.844 14.9547 146.813 14.9579 146.784 14.9697C146.755 14.9816 146.731 15.0017 146.713 15.0276C146.696 15.0534 146.687 15.0838 146.687 15.1149V25.3575C146.687 25.6923 146.82 26.0134 147.056 26.2501C147.293 26.4869 147.614 26.6199 147.948 26.6199H158.182C158.213 26.6198 158.244 26.6105 158.269 26.5931C158.295 26.5758 158.315 26.5512 158.327 26.5224C158.339 26.4937 158.342 26.462 158.336 26.4315C158.33 26.401 158.315 26.3729 158.293 26.3509Z" fill="white"/>
<path d="M234.16 243.751C233.772 243.751 233.396 243.886 233.097 244.132C232.797 244.379 232.592 244.722 232.516 245.102C232.441 245.483 232.5 245.879 232.683 246.221C232.866 246.563 233.162 246.832 233.52 246.98C233.879 247.128 234.278 247.148 234.649 247.035C235.02 246.922 235.341 246.684 235.556 246.361C235.771 246.038 235.868 245.65 235.83 245.264C235.792 244.877 235.621 244.516 235.347 244.242C235.191 244.086 235.006 243.962 234.802 243.878C234.599 243.794 234.381 243.751 234.16 243.751Z" fill="white"/>
<path d="M243.496 237.039V237.033C243.443 236.8 243.326 236.587 243.158 236.417C242.99 236.247 242.778 236.127 242.546 236.071C240.673 235.614 237.728 236.101 234.464 237.409C231.325 238.631 228.453 240.451 226.008 242.768C225.34 243.433 224.72 244.144 224.151 244.896C222.895 244.809 221.636 245.011 220.471 245.488C216.843 247.085 215.807 251.175 215.531 252.854C215.491 253.092 215.507 253.337 215.577 253.568C215.647 253.8 215.769 254.012 215.935 254.189C216.1 254.365 216.304 254.501 216.53 254.586C216.756 254.67 216.999 254.702 217.24 254.677H217.248L221.289 254.236C221.294 254.287 221.3 254.335 221.304 254.378C221.356 254.871 221.576 255.331 221.926 255.681L223.899 257.656C224.248 258.007 224.707 258.228 225.2 258.279L225.335 258.294L224.895 262.333V262.342C224.874 262.547 224.893 262.754 224.952 262.952C225.011 263.15 225.108 263.334 225.238 263.495C225.369 263.655 225.529 263.788 225.71 263.886C225.892 263.984 226.091 264.046 226.296 264.067C226.344 264.072 226.393 264.075 226.441 264.075C226.529 264.075 226.616 264.068 226.702 264.054C228.389 263.782 232.473 262.758 234.065 259.107C234.537 257.945 234.74 256.691 234.659 255.439C235.414 254.871 236.126 254.25 236.792 253.581C239.107 251.157 240.927 248.305 242.152 245.184C243.452 241.955 243.942 238.985 243.496 237.039ZM236.77 248.036C236.253 248.553 235.596 248.906 234.879 249.049C234.163 249.192 233.421 249.119 232.746 248.839C232.071 248.56 231.494 248.087 231.088 247.479C230.682 246.872 230.465 246.157 230.465 245.426C230.464 244.695 230.68 243.981 231.086 243.373C231.491 242.765 232.068 242.291 232.742 242.011C233.417 241.731 234.159 241.657 234.876 241.799C235.592 241.942 236.25 242.293 236.767 242.81L236.77 242.812C237.462 243.495 237.855 244.424 237.862 245.397C237.869 246.369 237.491 247.304 236.809 247.997L236.77 248.036Z" fill="white"/>
<path d="M223.673 258.192C223.429 258.162 223.184 258.221 222.981 258.36C222.58 258.635 222.176 258.906 221.769 259.171C221.593 259.285 221.383 259.336 221.173 259.316C220.964 259.296 220.768 259.206 220.616 259.061C220.463 258.916 220.364 258.724 220.334 258.516C220.304 258.308 220.345 258.096 220.45 257.913L221.213 256.593C221.322 256.433 221.383 256.245 221.388 256.052C221.393 255.858 221.343 255.667 221.242 255.502C221.142 255.337 220.996 255.204 220.821 255.119C220.647 255.035 220.453 255.003 220.261 255.026C219.413 255.134 218.626 255.52 218.022 256.124C217.792 256.355 217.093 257.056 216.716 259.725C216.609 260.492 216.542 261.263 216.514 262.037C216.511 262.169 216.533 262.301 216.581 262.424C216.628 262.547 216.699 262.66 216.79 262.756C216.881 262.852 216.99 262.929 217.111 262.982C217.231 263.036 217.361 263.065 217.493 263.069C217.502 263.069 217.511 263.069 217.519 263.069H217.545C218.318 263.042 219.09 262.975 219.857 262.868C222.525 262.491 223.225 261.79 223.455 261.56C224.062 260.955 224.447 260.163 224.548 259.312C224.58 259.048 224.506 258.781 224.342 258.571C224.178 258.361 223.937 258.224 223.673 258.192Z" fill="white"/>
<path d="M66.5353 272.589H64.2426C63.7865 272.589 63.3492 272.408 63.0267 272.085C62.7042 271.763 62.5231 271.325 62.5231 270.868V260.543C62.5231 260.086 62.7042 259.649 63.0267 259.326C63.3492 259.003 63.7865 258.822 64.2426 258.822H66.5353C66.9913 258.822 67.4287 259.003 67.7512 259.326C68.0736 259.649 68.2548 260.086 68.2548 260.543V270.868C68.2548 271.325 68.0736 271.763 67.7512 272.085C67.4287 272.408 66.9913 272.589 66.5353 272.589Z" fill="white"/>
<path d="M82.584 272.59H80.2913C79.8353 272.59 79.3979 272.408 79.0754 272.085C78.7529 271.763 78.5718 271.325 78.5718 270.869V253.659C78.5718 253.203 78.7529 252.765 79.0754 252.442C79.3979 252.12 79.8353 251.938 80.2913 251.938H82.584C83.04 251.938 83.4774 252.12 83.7999 252.442C84.1223 252.765 84.3035 253.203 84.3035 253.659V270.869C84.3035 271.325 84.1223 271.763 83.7999 272.085C83.4774 272.408 83.04 272.59 82.584 272.59Z" fill="white"/>
<path d="M90.6084 272.589H88.3157C87.8597 272.589 87.4223 272.408 87.0998 272.085C86.7774 271.763 86.5962 271.325 86.5962 270.868V245.628C86.5962 245.171 86.7774 244.734 87.0998 244.411C87.4223 244.088 87.8597 243.907 88.3157 243.907H90.6084C91.0644 243.907 91.5018 244.088 91.8243 244.411C92.1467 244.734 92.3279 245.171 92.3279 245.628V270.868C92.3279 271.325 92.1467 271.763 91.8243 272.085C91.5018 272.408 91.0644 272.589 90.6084 272.589Z" fill="white"/>
<path d="M74.5596 272.589H72.267C71.811 272.589 71.3736 272.408 71.0511 272.085C70.7286 271.763 70.5475 271.325 70.5475 270.869V239.892C70.5475 239.435 70.7286 238.997 71.0511 238.675C71.3736 238.352 71.811 238.171 72.267 238.171H74.5597C75.0157 238.171 75.4531 238.352 75.7756 238.675C76.098 238.997 76.2792 239.435 76.2792 239.892V270.869C76.2792 271.095 76.2347 271.318 76.1483 271.527C76.0619 271.736 75.9352 271.926 75.7755 272.085C75.6159 272.245 75.4263 272.372 75.2177 272.458C75.0091 272.545 74.7855 272.589 74.5596 272.589Z" fill="white"/>
<path d="M269.476 117.09L267.838 115.45C267.462 115.075 266.954 114.863 266.423 114.862C265.892 114.86 265.383 115.069 265.006 115.443L253.618 125.961C253.2 126.332 252.944 126.852 252.905 127.409C252.893 127.686 252.939 127.962 253.038 128.221C253.137 128.48 253.289 128.715 253.483 128.912L255.93 131.388L255.934 131.392C256.312 131.769 256.824 131.982 257.358 131.984H257.432C257.708 131.968 257.979 131.898 258.228 131.778C258.478 131.658 258.701 131.489 258.885 131.282L269.469 119.937C269.847 119.562 270.06 119.052 270.063 118.519C270.065 117.986 269.856 117.474 269.481 117.096L269.476 117.09Z" fill="white"/>
<path d="M282.64 113.776L282.62 113.756L280.47 111.626C280.344 111.501 280.195 111.401 280.03 111.334C279.866 111.266 279.69 111.232 279.512 111.233C279.224 111.234 278.943 111.325 278.709 111.493C278.709 111.466 278.713 111.44 278.715 111.417C278.802 110.867 278.686 110.304 278.389 109.833C277.915 109.194 277.395 108.591 276.833 108.029L276.828 108.024C275.256 106.515 273.409 105.322 271.388 104.511C270.331 104.077 269.2 103.854 268.058 103.855C266.579 103.842 265.143 104.345 263.996 105.279C263.669 105.591 263.371 105.932 263.106 106.298C262.979 106.473 262.912 106.684 262.915 106.9C262.918 107.117 262.991 107.326 263.122 107.498C263.254 107.67 263.437 107.794 263.645 107.853C263.853 107.912 264.074 107.903 264.276 107.826C264.452 107.76 264.632 107.705 264.814 107.661C265.195 107.58 265.585 107.556 265.972 107.589C266.775 107.672 267.544 107.955 268.211 108.41C268.585 108.725 268.882 109.121 269.08 109.568C269.279 110.015 269.373 110.502 269.356 110.99C269.078 111.784 268.652 112.519 268.102 113.155C267.955 113.349 267.883 113.589 267.9 113.832C267.917 114.074 268.021 114.302 268.193 114.474L270.351 116.634C270.533 116.816 270.777 116.922 271.034 116.929C271.29 116.936 271.54 116.845 271.731 116.673C272.342 116.127 273.272 115.305 273.596 115.103C273.874 114.917 274.189 114.793 274.519 114.739C274.765 114.715 275.012 114.767 275.227 114.889C275.228 114.899 275.227 114.91 275.224 114.921C275.22 114.931 275.215 114.94 275.208 114.948L275.093 115.057L275.075 115.075C274.821 115.327 274.678 115.671 274.677 116.029C274.677 116.388 274.818 116.732 275.071 116.985L275.078 116.992L277.227 119.121C277.353 119.247 277.502 119.346 277.667 119.413C277.831 119.481 278.008 119.515 278.185 119.514C278.542 119.514 278.885 119.374 279.14 119.124L282.622 115.682C282.634 115.67 282.646 115.658 282.657 115.645C282.891 115.389 283.019 115.054 283.016 114.707C283.012 114.36 282.878 114.027 282.64 113.776Z" fill="white"/>
<path d="M36.6676 116.034C36.4192 116.034 36.1764 115.96 35.9698 115.822C35.7633 115.684 35.6023 115.488 35.5072 115.258C35.4122 115.028 35.3873 114.775 35.4358 114.532C35.4842 114.288 35.6038 114.064 35.7795 113.888L38.6594 111.006L35.7795 108.123C35.5439 107.887 35.4116 107.568 35.4116 107.234C35.4116 106.901 35.5439 106.581 35.7795 106.345C36.015 106.11 36.3345 105.977 36.6676 105.977C37.0007 105.977 37.3202 106.11 37.5558 106.345L41.3239 110.117C41.4405 110.233 41.533 110.372 41.5962 110.525C41.6593 110.677 41.6918 110.841 41.6918 111.006C41.6918 111.171 41.6593 111.334 41.5962 111.487C41.533 111.639 41.4405 111.778 41.3239 111.894L37.5558 115.666C37.4393 115.783 37.3008 115.875 37.1484 115.939C36.996 116.002 36.8326 116.034 36.6676 116.034Z" fill="white"/>
<path d="M16.571 119.805C16.4061 119.805 16.2428 119.773 16.0904 119.71C15.938 119.646 15.7995 119.554 15.6829 119.437C15.5662 119.32 15.4737 119.182 15.4106 119.029C15.3475 118.877 15.315 118.713 15.315 118.548V117.291C15.3249 115.294 16.1215 113.382 17.5319 111.97C18.9423 110.558 20.8525 109.759 22.8475 109.749H39.1797C39.5128 109.749 39.8323 109.881 40.0679 110.117C40.3034 110.352 40.4358 110.672 40.4358 111.006C40.4358 111.339 40.3034 111.659 40.0679 111.895C39.8323 112.13 39.5128 112.263 39.1797 112.263H22.8512C21.5205 112.271 20.2466 112.803 19.306 113.746C18.3654 114.688 17.834 115.963 17.8271 117.295V118.548C17.8271 118.713 17.7946 118.877 17.7315 119.029C17.6684 119.182 17.5758 119.32 17.4592 119.437C17.3426 119.554 17.2041 119.646 17.0517 119.71C16.8993 119.773 16.736 119.805 16.571 119.805Z" fill="white"/>
<path d="M26.6193 129.862C26.4544 129.862 26.291 129.83 26.1385 129.766C25.9861 129.703 25.8477 129.61 25.7312 129.494L21.9631 125.722C21.8464 125.606 21.7539 125.467 21.6908 125.314C21.6276 125.162 21.5952 124.998 21.5952 124.833C21.5952 124.668 21.6276 124.505 21.6908 124.352C21.7539 124.2 21.8464 124.061 21.9631 123.945L25.7312 120.173C25.9668 119.938 26.2862 119.806 26.6191 119.806C26.952 119.806 27.2712 119.938 27.5066 120.174C27.7421 120.41 27.8744 120.729 27.8745 121.062C27.8747 121.396 27.7426 121.715 27.5075 121.951L24.6276 124.833L27.5075 127.716C27.6831 127.892 27.8027 128.116 27.8512 128.359C27.8997 128.603 27.8748 128.856 27.7797 129.086C27.6846 129.315 27.5237 129.512 27.3171 129.65C27.1106 129.788 26.8677 129.862 26.6193 129.862Z" fill="white"/>
<path d="M24.1072 126.091C23.7741 126.091 23.4546 125.958 23.2191 125.722C22.9835 125.487 22.8512 125.167 22.8512 124.834C22.8512 124.5 22.9835 124.18 23.2191 123.945C23.4546 123.709 23.7741 123.576 24.1072 123.576H40.4357C41.7664 123.569 43.0403 123.036 43.9809 122.094C44.9215 121.152 45.4529 119.876 45.4598 118.544V117.291C45.4598 116.958 45.5922 116.638 45.8277 116.402C46.0633 116.166 46.3827 116.034 46.7159 116.034C47.049 116.034 47.3685 116.166 47.604 116.402C47.8396 116.638 47.9719 116.958 47.9719 117.291V118.548C47.9621 120.545 47.1654 122.457 45.755 123.869C44.3447 125.282 42.4345 126.08 40.4394 126.091L24.1072 126.091Z" fill="white"/>
</g>
<defs>
<clipPath id="clip0_43_1471">
<rect width="498.782" height="410" fill="white"/>
</clipPath>
</defs>
</svg>
