<svg width="452" height="410" viewBox="0 0 452 410" fill="none" xmlns="http://www.w3.org/2000/svg">
<g clip-path="url(#clip0_41_1332)">
<path d="M317.9 400.828L310.198 400.827L306.534 371.068L317.902 371.069L317.9 400.828Z" fill="#FFB6B6"/>
<path d="M318.172 408.877L294.487 408.876V408.576C294.487 406.127 295.458 403.778 297.187 402.046C298.916 400.315 301.261 399.342 303.706 399.341L308.032 396.054L316.104 399.342H318.172L318.172 408.877Z" fill="#2F2E41"/>
<path d="M417.759 358.524L412.784 364.413L387.736 347.996L395.078 339.303L417.759 358.524Z" fill="#FFB6B6"/>
<path d="M424.068 363.514L408.771 381.627L408.542 381.433C406.676 379.852 405.513 377.592 405.31 375.151C405.106 372.711 405.879 370.289 407.458 368.419L407.746 362.987L415.466 358.937L416.801 357.356L424.068 363.514Z" fill="#2F2E41"/>
<path d="M43.1753 7.7923H22.1719C21.1403 7.7923 20.151 7.38181 19.4216 6.65114C18.6921 5.92048 18.2823 4.92947 18.2823 3.89615C18.2823 2.86283 18.6921 1.87182 19.4216 1.14115C20.151 0.410483 21.1403 0 22.1719 0H43.1753C44.2069 0 45.1962 0.410483 45.9256 1.14115C46.6551 1.87182 47.0648 2.86283 47.0648 3.89615C47.0648 4.92947 46.6551 5.92048 45.9256 6.65114C45.1962 7.38181 44.2069 7.7923 43.1753 7.7923Z" fill="#E6E6E6"/>
<path d="M180.864 7.40266C182.798 7.40266 184.365 5.83273 184.365 3.89612C184.365 1.95952 182.798 0.389587 180.864 0.389587C178.931 0.389587 177.364 1.95952 177.364 3.89612C177.364 5.83273 178.931 7.40266 180.864 7.40266Z" fill="#E6E6E6"/>
<path d="M191.755 7.40266C193.689 7.40266 195.256 5.83273 195.256 3.89612C195.256 1.95952 193.689 0.389587 191.755 0.389587C189.822 0.389587 188.255 1.95952 188.255 3.89612C188.255 5.83273 189.822 7.40266 191.755 7.40266Z" fill="#E6E6E6"/>
<path d="M202.646 7.40266C204.579 7.40266 206.146 5.83273 206.146 3.89612C206.146 1.95952 204.579 0.389587 202.646 0.389587C200.713 0.389587 199.145 1.95952 199.145 3.89612C199.145 5.83273 200.713 7.40266 202.646 7.40266Z" fill="#E6E6E6"/>
<path d="M65.344 110.643H28.0046C25.4266 110.64 22.9549 109.613 21.132 107.787C19.3091 105.961 18.2837 103.485 18.2808 100.903V63.5C18.2837 60.9176 19.3091 58.4417 21.132 56.6157C22.9549 54.7896 25.4266 53.7625 28.0046 53.7596H65.344C67.9221 53.7625 70.3937 54.7896 72.2166 56.6157C74.0395 58.4417 75.0649 60.9176 75.0678 63.5V100.903C75.0649 103.485 74.0395 105.961 72.2166 107.787C70.3937 109.613 67.9221 110.64 65.344 110.643Z" fill="#F2F2F2"/>
<path d="M196.812 110.643H159.472C156.894 110.64 154.422 109.613 152.6 107.787C150.777 105.961 149.751 103.485 149.748 100.903V63.5C149.751 60.9176 150.777 58.4417 152.6 56.6157C154.422 54.7896 156.894 53.7625 159.472 53.7596H196.812C199.39 53.7625 201.861 54.7896 203.684 56.6157C205.507 58.4417 206.532 60.9176 206.535 63.5V100.903C206.532 103.485 205.507 105.961 203.684 107.787C201.861 109.613 199.39 110.64 196.812 110.643Z" fill="#F2F2F2"/>
<path d="M130.688 110.643H93.3487C90.7707 110.64 88.2991 109.613 86.4761 107.787C84.6532 105.961 83.6278 103.485 83.6249 100.903V63.5C83.6278 60.9176 84.6532 58.4417 86.4761 56.6157C88.2991 54.7896 90.7707 53.7625 93.3487 53.7596H130.688C133.266 53.7625 135.738 54.7896 137.561 56.6157C139.384 58.4417 140.409 60.9176 140.412 63.5V100.903C140.409 103.485 139.384 105.961 137.561 107.787C135.738 109.613 133.266 110.64 130.688 110.643Z" fill="#F2F2F2"/>
<path d="M28.0046 136.358C25.6328 136.361 23.3589 137.306 21.6818 138.985C20.0047 140.665 19.0613 142.943 19.0587 145.319V182.722C19.0614 185.098 20.0048 187.376 21.6819 189.056C23.359 190.736 25.6329 191.681 28.0046 191.683H65.3441C67.7159 191.681 69.9897 190.736 71.6668 189.056C73.3439 187.376 74.2873 185.098 74.29 182.722V145.319C74.2874 142.943 73.344 140.665 71.6669 138.985C69.9898 137.306 67.7159 136.361 65.3441 136.358H28.0046Z" fill="#F2F2F2"/>
<path d="M196.812 192.463H159.472C156.894 192.46 154.422 191.432 152.6 189.606C150.777 187.78 149.751 185.305 149.748 182.722V145.319C149.751 142.737 150.777 140.261 152.6 138.435C154.422 136.609 156.894 135.582 159.472 135.579H196.812C199.39 135.582 201.861 136.609 203.684 138.435C205.507 140.261 206.532 142.737 206.535 145.319V182.722C206.532 185.305 205.507 187.78 203.684 189.606C201.861 191.432 199.39 192.46 196.812 192.463Z" fill="#F2F2F2"/>
<path d="M130.688 192.463H93.3487C90.7707 192.46 88.2991 191.432 86.4761 189.606C84.6532 187.78 83.6278 185.305 83.6249 182.722V145.319C83.6278 142.737 84.6532 140.261 86.4761 138.435C88.2991 136.609 90.7707 135.582 93.3487 135.579H130.688C133.266 135.582 135.738 136.609 137.561 138.435C139.384 140.261 140.409 142.737 140.412 145.319V182.722C140.409 185.305 139.384 187.78 137.561 189.606C135.738 191.432 133.266 192.46 130.688 192.463Z" fill="#F2F2F2"/>
<path d="M65.344 274.282H28.0046C25.4266 274.279 22.9549 273.252 21.132 271.426C19.3091 269.6 18.2837 267.124 18.2808 264.541V227.138C18.2837 224.556 19.3091 222.08 21.132 220.254C22.9549 218.428 25.4266 217.401 28.0046 217.398H65.344C67.9221 217.401 70.3937 218.428 72.2166 220.254C74.0395 222.08 75.0649 224.556 75.0678 227.138V264.541C75.0649 267.124 74.0395 269.6 72.2166 271.426C70.3937 273.252 67.9221 274.279 65.344 274.282Z" fill="#F2F2F2"/>
<path d="M196.812 274.282H159.472C156.894 274.279 154.422 273.252 152.6 271.426C150.777 269.6 149.751 267.124 149.748 264.541V227.138C149.751 224.556 150.777 222.08 152.6 220.254C154.422 218.428 156.894 217.401 159.472 217.398H196.812C199.39 217.401 201.861 218.428 203.684 220.254C205.507 222.08 206.532 224.556 206.535 227.138V264.541C206.532 267.124 205.507 269.6 203.684 271.426C201.861 273.252 199.39 274.279 196.812 274.282Z" fill="#F2F2F2"/>
<path d="M130.688 274.282H93.3487C90.7707 274.279 88.2991 273.252 86.4761 271.426C84.6532 269.6 83.6278 267.124 83.6249 264.541V227.138C83.6278 224.556 84.6532 222.08 86.4761 220.254C88.2991 218.428 90.7707 217.401 93.3487 217.398H130.688C133.266 217.401 135.738 218.428 137.561 220.254C139.384 222.08 140.409 224.556 140.412 227.138V264.541C140.409 267.124 139.384 269.6 137.561 271.426C135.738 273.252 133.266 274.279 130.688 274.282Z" fill="#F2F2F2"/>
<path d="M206.041 253.632H14.1064C10.3664 253.628 6.78089 252.138 4.13635 249.489C1.49181 246.84 0.00422492 243.248 0 239.502V163.346C0.00422491 159.599 1.49181 156.008 4.13635 153.359C6.78089 150.71 10.3664 149.22 14.1064 149.215H206.041C209.781 149.22 213.366 150.71 216.011 153.359C218.655 156.008 220.143 159.599 220.147 163.346V239.502C220.143 243.248 218.655 246.84 216.011 249.489C213.366 252.138 209.781 253.628 206.041 253.632Z" fill="white"/>
<path d="M206.041 253.632H14.1064C10.3664 253.628 6.78089 252.138 4.13635 249.489C1.49181 246.84 0.00422492 243.248 0 239.502V163.346C0.00422491 159.599 1.49181 156.008 4.13635 153.359C6.78089 150.71 10.3664 149.22 14.1064 149.215H206.041C209.781 149.22 213.366 150.71 216.011 153.359C218.655 156.008 220.143 159.599 220.147 163.346V239.502C220.143 243.248 218.655 246.84 216.011 249.489C213.366 252.138 209.781 253.628 206.041 253.632ZM51.2009 150.774C38.0342 150.774 25.4068 156.013 16.0965 165.339C6.78624 174.665 1.55581 187.314 1.55581 200.503V239.502C1.55581 241.153 1.88044 242.788 2.51117 244.313C3.1419 245.838 4.06634 247.224 5.23177 248.391C6.3972 249.559 7.78077 250.485 9.30348 251.117C10.8262 251.748 12.4582 252.074 14.1064 252.074H206.041C207.689 252.074 209.321 251.748 210.844 251.117C212.366 250.485 213.75 249.559 214.915 248.391C216.081 247.224 217.005 245.838 217.636 244.313C218.267 242.788 218.591 241.153 218.591 239.502V163.346C218.591 160.011 217.269 156.814 214.915 154.456C212.562 152.098 209.369 150.774 206.041 150.774H51.2009Z" fill="#E6E6E6"/>
<path d="M355.503 181.943L314.212 186.742L297.938 214.671L295.604 224.022L296.66 230.45L294.048 234.931L295.604 243.502L289.381 311.295L306.495 387.66H322.442L317.385 316.75L330.61 255.97L342.278 315.191L396.242 362.266L408.811 344.216L367.171 308.958L363.282 296.49L368.522 285.948L372.617 216.229L355.503 181.943Z" fill="#2F2E41"/>
<path d="M338 211.164C338 211.164 365.233 212.565 365.615 202.982C365.998 193.4 359.871 183.247 357.059 182.722C354.246 182.197 355.267 173.761 356.746 167.917C358.225 162.073 357.075 159.361 355.316 159.159C353.558 158.956 312.718 103.241 312.718 103.241L303.772 103.63L294.826 97.0069L280.824 102.462L277.712 114.929L269.155 122.721L274.055 156.978C274.055 156.978 279.482 170.805 286.941 184.902C289.262 189.288 291.78 193.7 294.392 197.731C300.544 207.223 307.221 214.596 313.085 214.513C329.443 214.281 338 211.164 338 211.164Z" fill="#4796FF"/>
<path d="M237.004 174.763L232.1 177.031L230.965 177.554L229.148 178.402L191.302 195.906C190.456 196.826 189.33 197.439 188.1 197.65C186.87 197.86 185.604 197.657 184.502 197.07C183.24 196.385 182.302 195.227 181.893 193.849C181.484 192.472 181.637 190.988 182.32 189.724C182.344 189.679 182.372 189.641 182.397 189.596C183.122 188.308 184.321 187.354 185.738 186.936C187.155 186.519 188.679 186.671 189.986 187.36C190.247 187.508 190.497 187.677 190.732 187.864L191.715 187.238L194.797 185.28L197.125 183.801L201.755 180.85L203.552 179.709L209.375 176.006L214.991 172.437L221.797 168.109L227.027 164.779L228.656 166.409L237.004 174.763Z" fill="#FFB6B6"/>
<path d="M246.8 173.965C246.134 174.254 245.438 174.467 244.724 174.6C242.463 174.632 244.463 172.635 240.269 175.857C236.862 178.467 235.791 175.618 235.559 177.01C235.173 179.31 233.35 177.541 232.1 177.031C231.546 176.8 231.112 176.824 230.965 177.554C230.904 177.892 230.889 178.237 230.922 178.579C230.995 179.902 230.252 179.559 229.148 178.402C227.325 176.48 224.524 172.326 222.884 169.786C222.408 169.07 222.035 168.476 221.797 168.109C221.624 167.834 221.53 167.676 221.53 167.676C221.716 166.854 222.19 166.126 222.867 165.625C224.263 164.492 225.892 163.682 227.638 163.253C228.847 162.952 230.084 162.772 231.329 162.716C231.798 162.699 232.253 162.549 232.639 162.283L232.647 162.278C232.853 162.083 233.013 161.845 233.117 161.581C233.22 161.316 233.264 161.033 233.246 160.749C233.319 159.329 235.076 159.048 236.884 159.041C238.587 159.047 240.346 159.284 240.782 159.024C241.41 158.65 255.328 138.116 264.209 124.957C266.16 122.066 269.161 120.051 272.572 119.341C275.984 118.632 279.537 119.284 282.476 121.159L288.694 125.125C291.025 126.051 292.902 127.853 293.924 130.147C294.685 132.114 294.827 134.268 294.33 136.318C293.632 139.202 292.415 141.934 290.738 144.381C282.146 157.736 254.774 170.97 246.8 173.965Z" fill="#4796FF"/>
<path d="M359.975 148.791L363.124 153.186L363.851 154.203L365.026 155.831L389.331 189.755C390.393 190.413 391.207 191.405 391.646 192.575C392.085 193.746 392.124 195.029 391.757 196.224C391.324 197.594 390.365 198.736 389.092 199.398C387.819 200.061 386.335 200.19 384.967 199.758C384.918 199.743 384.876 199.721 384.828 199.706C383.427 199.235 382.265 198.236 381.589 196.921C380.912 195.606 380.773 194.079 381.203 192.663C381.298 192.378 381.416 192.1 381.555 191.833L380.756 190.985L378.255 188.323L376.365 186.312L372.598 182.314L371.14 180.763L366.411 175.734L361.851 170.883L356.323 165.006L352.072 160.49L353.362 158.58L359.975 148.791Z" fill="#FFB6B6"/>
<path d="M357.343 139.305C357.752 139.906 358.092 140.55 358.358 141.227C358.816 143.445 356.48 141.855 360.431 145.372C363.634 148.231 361.042 149.822 362.451 149.788C364.778 149.733 363.389 151.861 363.124 153.186C363.003 153.775 363.108 154.197 363.851 154.203C364.194 154.2 364.535 154.149 364.864 154.052C366.147 153.731 365.952 154.526 365.026 155.831C363.486 157.987 359.943 161.527 357.762 163.62C357.15 164.223 356.638 164.702 356.323 165.006C356.087 165.228 355.949 165.35 355.949 165.35C355.108 165.323 354.305 164.993 353.686 164.422C352.312 163.263 351.21 161.813 350.46 160.177C349.936 159.044 349.527 157.862 349.237 156.647C349.131 156.189 348.898 155.771 348.564 155.44L348.559 155.434C348.328 155.268 348.065 155.155 347.786 155.103C347.507 155.052 347.221 155.062 346.946 155.133C345.541 155.329 344.933 153.655 344.585 151.877C344.269 150.201 344.169 148.426 343.832 148.046C343.118 147.24 322.487 134.957 322.487 134.957L301.554 107.316C302.021 104.849 303.433 102.662 305.489 101.223C307.274 100.103 309.358 99.5572 311.462 99.6588C314.421 99.8006 317.33 100.482 320.044 101.669C334.76 107.6 352.902 132.027 357.343 139.305Z" fill="#4796FF"/>
<path d="M279.632 96.2573C289.537 96.2573 297.567 88.2138 297.567 78.2916C297.567 68.3694 289.537 60.3259 279.632 60.3259C269.727 60.3259 261.697 68.3694 261.697 78.2916C261.697 88.2138 269.727 96.2573 279.632 96.2573Z" fill="#FFB6B6"/>
<path d="M300.061 82.0768C300.061 82.0768 296.359 87.3367 294.048 89.2146C294.072 86.4795 293.62 81.921 293.644 79.1937C293.729 77.7617 293.585 76.3252 293.216 74.9391C293.022 74.2482 292.666 73.6139 292.178 73.0892C291.689 72.5646 291.082 72.1648 290.408 71.9235C289.743 71.7329 289.035 71.7567 288.385 71.9915C287.734 72.2263 287.174 72.6602 286.783 73.2317C286.392 73.8032 286.191 74.4833 286.208 75.1757C286.224 75.8682 286.458 76.5378 286.876 77.0898C285.709 77.3313 284.698 76.2014 284.239 75.0949C283.78 73.9884 283.539 72.7105 282.636 71.9157C282.173 71.5571 281.627 71.323 281.048 71.2357C280.469 71.1484 279.878 71.2108 279.33 71.417C278.237 71.8364 277.25 72.4907 276.436 73.3339C273.986 75.617 271.956 78.3911 269.147 80.23C268.584 80.5993 267.988 80.915 267.366 81.1729C266.869 79.3006 265.746 77.6557 264.184 76.5131C264.501 78.2983 264.482 80.127 264.13 81.9054C262.564 82.0309 261.009 81.5545 259.781 80.5729C258.464 79.3751 257.633 77.7327 257.448 75.9599C257.343 75.1565 257.319 74.3445 257.378 73.5364C257.801 73.3009 258.199 73.0242 258.568 72.7105C259.388 72.0399 260.067 71.2137 260.567 70.2793C259.625 70.5853 258.652 70.784 257.666 70.8715C257.673 70.8092 257.681 70.7546 257.689 70.6923C257.796 69.3512 258.24 68.059 258.98 66.9364C259.805 65.8844 261.368 65.2844 262.527 65.9624C263.186 63.7898 264.27 61.7704 265.717 60.0221C267.163 58.2739 268.943 56.8317 270.952 55.7799C272.96 54.7281 275.158 54.0876 277.417 53.8959C279.676 53.7042 281.95 53.9652 284.107 54.6635C283.649 55.6181 283.382 56.6531 283.321 57.7103C284.195 56.8997 285.171 56.2056 286.222 55.6453C286.738 55.9247 287.181 56.3212 287.516 56.8029C287.851 57.2846 288.069 57.8382 288.152 58.4194C289.637 58.6921 292.485 59.0428 291.473 60.0792C295.386 62.0126 298.435 65.3408 300.024 69.4105C301.613 73.4802 301.626 77.9978 300.061 82.0768Z" fill="#2F2E41"/>
<path d="M97.027 186.077L27.1013 185.259C27.0008 185.259 26.9014 185.239 26.8087 185.2C26.716 185.161 26.6319 185.104 26.5611 185.033C26.4903 184.962 26.4342 184.877 26.3961 184.784C26.3579 184.691 26.3385 184.591 26.3389 184.49C26.3392 184.39 26.3594 184.29 26.3982 184.197C26.4369 184.104 26.4936 184.02 26.5649 183.949C26.6362 183.878 26.7208 183.822 26.8137 183.784C26.9067 183.746 27.0063 183.726 27.1068 183.726L97.0325 184.544C97.2354 184.545 97.4298 184.626 97.5728 184.771C97.7157 184.915 97.7957 185.11 97.7949 185.313C97.7942 185.517 97.7129 185.711 97.5689 185.855C97.4249 185.998 97.23 186.078 97.027 186.077Z" fill="#CCCCCC"/>
<path d="M132.811 198.545L27.1013 197.727C27.0008 197.727 26.9014 197.707 26.8087 197.668C26.716 197.629 26.6319 197.572 26.5611 197.501C26.4903 197.429 26.4342 197.345 26.3961 197.251C26.3579 197.158 26.3385 197.059 26.3389 196.958C26.3392 196.857 26.3594 196.758 26.3982 196.665C26.4369 196.572 26.4936 196.488 26.5649 196.417C26.6362 196.346 26.7208 196.29 26.8137 196.251C26.9067 196.213 27.0063 196.194 27.1068 196.194L132.816 197.012C133.019 197.013 133.213 197.094 133.356 197.238C133.499 197.383 133.579 197.578 133.579 197.781C133.578 197.984 133.497 198.179 133.353 198.322C133.209 198.465 133.014 198.546 132.811 198.545Z" fill="#CCCCCC"/>
<path d="M175.528 208.242C184.55 208.242 191.864 200.916 191.864 191.878C191.864 182.841 184.55 175.514 175.528 175.514C166.506 175.514 159.192 182.841 159.192 191.878C159.192 200.916 166.506 208.242 175.528 208.242Z" fill="#4796FF"/>
<path d="M181.289 195.848L175.527 182.168L169.766 195.848L174.749 193.728V202.008H176.305V193.728L181.289 195.848Z" fill="white"/>
<path d="M191.864 223.437H28.5036C27.9878 223.437 27.4932 223.642 27.1285 224.007C26.7637 224.373 26.5588 224.868 26.5588 225.385C26.5588 225.902 26.7637 226.397 27.1285 226.762C27.4932 227.128 27.9878 227.333 28.5036 227.333H191.864C192.38 227.333 192.874 227.128 193.239 226.762C193.604 226.397 193.808 225.902 193.808 225.385C193.808 224.868 193.604 224.373 193.239 224.007C192.874 223.642 192.38 223.437 191.864 223.437Z" fill="#F2F2F2"/>
<path d="M121.852 223.437V227.333H28.5036C27.9878 227.333 27.4932 227.128 27.1285 226.762C26.7637 226.397 26.5588 225.902 26.5588 225.385C26.5588 224.868 26.7637 224.373 27.1285 224.007C27.4932 223.642 27.9878 223.437 28.5036 223.437H121.852Z" fill="#4796FF"/>
<path d="M407.865 396.494C408.227 396.51 408.585 396.415 408.891 396.221C409.196 396.027 409.435 395.744 409.575 395.409C409.715 395.075 409.748 394.705 409.671 394.351C409.594 393.997 409.41 393.675 409.145 393.429L409.024 392.947C409.04 392.908 409.056 392.87 409.072 392.831C409.436 391.969 410.046 391.235 410.826 390.719C411.606 390.204 412.521 389.931 413.455 389.934C414.389 389.937 415.302 390.217 416.078 390.739C416.854 391.26 417.459 391.999 417.816 392.864C419.247 396.314 421.068 399.771 421.516 403.419C421.714 405.032 421.63 406.667 421.27 408.251C424.629 400.911 426.373 392.933 426.385 384.858C426.385 382.832 426.273 380.807 426.048 378.793C425.862 377.142 425.604 375.503 425.274 373.876C423.474 365.046 419.608 356.77 413.995 349.728C411.278 348.243 409.08 345.959 407.699 343.185C407.199 342.188 406.845 341.123 406.649 340.024C406.955 340.065 407.805 335.389 407.573 335.102C408.001 334.453 408.765 334.13 409.231 333.497C411.551 330.346 414.748 330.896 416.416 335.178C419.981 336.98 420.015 339.968 417.828 342.843C416.437 344.671 416.245 347.146 415.025 349.104C415.15 349.265 415.281 349.421 415.406 349.582C417.703 352.539 419.704 355.715 421.382 359.064C420.974 355.313 421.46 351.518 422.802 347.991C424.162 344.705 426.711 341.938 428.956 339.097C429.55 338.333 430.356 337.764 431.273 337.459C432.19 337.155 433.176 337.13 434.107 337.387C435.038 337.644 435.872 338.172 436.504 338.904C437.136 339.636 437.537 340.539 437.656 341.499C437.661 341.541 437.665 341.583 437.669 341.625C437.336 341.813 437.01 342.013 436.69 342.225C436.289 342.493 435.978 342.877 435.799 343.325C435.619 343.774 435.578 344.266 435.683 344.738C435.787 345.21 436.031 345.639 436.383 345.97C436.735 346.3 437.179 346.516 437.656 346.59L437.705 346.597C437.586 347.801 437.376 348.994 437.077 350.166C439.956 361.321 433.739 365.384 424.862 365.567C424.666 365.667 424.475 365.768 424.279 365.863C425.965 370.648 427.022 375.632 427.425 380.69C427.653 383.675 427.639 386.672 427.385 389.654L427.4 389.548C428.043 386.233 429.809 383.241 432.399 381.078C436.246 377.912 441.681 376.747 445.832 374.202C446.273 373.918 446.786 373.767 447.31 373.766C447.834 373.764 448.348 373.913 448.79 374.195C449.233 374.476 449.586 374.879 449.807 375.354C450.029 375.83 450.11 376.36 450.041 376.88L450.024 376.991C449.406 377.244 448.803 377.535 448.221 377.862C447.887 378.05 447.561 378.25 447.242 378.462C446.84 378.73 446.53 379.114 446.35 379.562C446.17 380.011 446.13 380.503 446.234 380.975C446.338 381.447 446.583 381.876 446.935 382.207C447.287 382.537 447.73 382.753 448.207 382.827L448.256 382.835C448.291 382.84 448.321 382.845 448.356 382.85C447.299 385.378 445.815 387.705 443.97 389.73C442.169 399.468 434.436 400.392 426.164 397.556H426.159C425.251 401.507 423.936 405.352 422.235 409.031H408.217C408.166 408.875 408.121 408.714 408.076 408.558C409.373 408.64 410.676 408.562 411.955 408.326C410.915 407.048 409.875 405.76 408.835 404.481C408.811 404.457 408.789 404.432 408.769 404.406C408.242 403.751 407.709 403.102 407.181 402.448L407.181 402.447C407.153 400.442 407.383 398.44 407.865 396.494Z" fill="#F2F2F2"/>
<path d="M253.113 409.073C253.113 409.195 253.136 409.315 253.183 409.428C253.229 409.541 253.297 409.643 253.383 409.729C253.469 409.815 253.572 409.884 253.684 409.93C253.796 409.977 253.917 410 254.039 410H451.074C451.32 410 451.555 409.902 451.729 409.728C451.902 409.554 452 409.319 452 409.073C452 408.827 451.902 408.591 451.729 408.417C451.555 408.243 451.32 408.145 451.074 408.145H254.039C253.917 408.145 253.796 408.169 253.684 408.215C253.572 408.262 253.469 408.33 253.383 408.416C253.297 408.502 253.229 408.605 253.183 408.717C253.136 408.83 253.113 408.951 253.113 409.073Z" fill="#CCCCCC"/>
</g>
<defs>
<clipPath id="clip0_41_1332">
<rect width="452" height="410" fill="white"/>
</clipPath>
</defs>
</svg>
