<svg width="566" height="410" viewBox="0 0 566 410" fill="none" xmlns="http://www.w3.org/2000/svg">
<g clip-path="url(#clip0_39_886)">
<path d="M329.891 72.2782C340.505 72.2782 349.11 63.7134 349.11 53.1482C349.11 42.583 340.505 34.0182 329.891 34.0182C319.277 34.0182 310.672 42.583 310.672 53.1482C310.672 63.7134 319.277 72.2782 329.891 72.2782Z" fill="#F2F2F2"/>
<path d="M478.977 356.19C507.543 334.532 521.187 298.138 512.645 263.421C512.433 262.558 512.209 261.697 511.973 260.839C506.311 240.231 492.301 220.645 471.882 214.06C454.737 208.531 436.022 212.783 418.136 210.584C383.024 206.268 355.802 177.99 336.649 148.382C317.495 118.774 302.774 85.6316 277.323 61.1711C235.371 20.852 166.936 12.1713 114.921 38.416C62.9065 64.6608 29.7736 122.887 31.1867 180.917C32.5998 238.946 67.2091 294.427 117.47 323.863C135.934 334.676 157.29 342.337 178.543 339.656C196.983 337.33 213.739 327.467 232.093 324.539C260.95 319.935 289.623 332.922 314.582 348.056C339.541 363.19 363.65 381.128 392.012 388.144C419.552 394.956 453.671 375.375 478.977 356.19Z" fill="#F2F2F2"/>
<path d="M437.934 39.6346C437.307 39.219 436.674 38.825 436.048 38.4237C417.946 26.9 398.544 17.5383 378.242 10.5319L373.535 75.171H343.693V1.09615C341.814 0.709257 339.921 0.343863 338.028 -3.8147e-05V75.171H302.564C283.041 75.171 264.318 67.4512 250.513 53.71C236.708 39.9688 228.952 21.3317 228.952 1.89867C227.052 2.30705 225.166 2.74402 223.28 3.20972V75.171H194.396L189.911 13.5339C169.048 21.4983 149.242 31.9718 130.932 44.7214C130.616 44.9364 130.299 45.1585 129.99 45.3734C128.399 46.4839 126.83 47.6159 125.268 48.7623V295.361H210.396L208.892 274.619L200.615 160.738H367.309L359.031 274.619L357.527 295.361H441.712V42.1278C440.46 41.2824 439.2 40.4514 437.934 39.6346ZM223.281 141.931H199.247L194.806 80.8167H223.281V141.931ZM338.028 141.931H297.663V140.72C297.663 140.138 297.547 139.562 297.323 139.024C297.099 138.486 296.771 137.998 296.357 137.586C295.944 137.175 295.452 136.849 294.912 136.627C294.371 136.405 293.792 136.291 293.207 136.292H275.659C275.075 136.292 274.496 136.406 273.956 136.629C273.417 136.851 272.926 137.177 272.513 137.589C272.1 138 271.772 138.488 271.549 139.025C271.325 139.563 271.21 140.138 271.211 140.72V141.931H228.952V80.8167H338.028V141.931ZM343.693 141.931V80.8167H373.125L368.684 141.931H343.693Z" fill="#3F3D56"/>
<path d="M0 311.152C6.25292 318.527 13.0162 325.458 20.2403 331.894L546.098 332.61C553.322 326.174 560.085 319.244 566.338 311.869L0 311.152Z" fill="#3F3D56"/>
<path d="M356.601 244.737V306.14C356.602 306.923 356.915 307.673 357.47 308.226C358.026 308.78 358.78 309.091 359.566 309.091H450.982C451.768 309.091 452.521 308.78 453.077 308.226C453.633 307.673 453.946 306.923 453.946 306.14V244.737C453.945 243.955 453.632 243.206 453.076 242.653C452.52 242.101 451.767 241.79 450.982 241.789H359.566C358.781 241.79 358.028 242.101 357.472 242.653C356.916 243.206 356.603 243.955 356.601 244.737Z" fill="#3F3D56"/>
<path d="M358.746 245.501V305.383C358.747 305.801 358.914 306.202 359.211 306.497C359.508 306.793 359.91 306.959 360.33 306.96H450.221C450.641 306.959 451.043 306.793 451.34 306.497C451.637 306.202 451.804 305.801 451.805 305.383V245.501C451.805 245.082 451.638 244.681 451.341 244.384C451.044 244.088 450.641 243.921 450.221 243.92H360.33C359.91 243.921 359.507 244.088 359.21 244.384C358.913 244.681 358.746 245.082 358.746 245.501Z" fill="#4796FF"/>
<path d="M354.689 318.115C354.857 318.325 355.07 318.493 355.312 318.608C355.554 318.724 355.82 318.783 356.088 318.782H453.973C454.24 318.781 454.505 318.722 454.746 318.607C454.988 318.492 455.201 318.325 455.369 318.118C455.538 317.911 455.658 317.67 455.721 317.411C455.784 317.152 455.788 316.882 455.733 316.621L454.214 309.437C454.151 309.144 454.015 308.871 453.819 308.644C453.624 308.416 453.374 308.241 453.092 308.135C452.889 308.055 452.672 308.014 452.453 308.015H357.602C357.383 308.014 357.166 308.055 356.963 308.135C356.681 308.241 356.431 308.416 356.235 308.644C356.04 308.871 355.904 309.144 355.841 309.437L354.322 316.621C354.268 316.882 354.273 317.151 354.336 317.41C354.4 317.668 354.52 317.909 354.689 318.115Z" fill="#2F2E41"/>
<path d="M449.095 311.109H451.407C451.601 311.109 451.758 310.952 451.758 310.759V309.658C451.758 309.465 451.601 309.308 451.407 309.308H449.095C448.9 309.308 448.743 309.465 448.743 309.658V310.759C448.743 310.952 448.9 311.109 449.095 311.109Z" fill="#3F3D56"/>
<path d="M443.065 311.109H445.377C445.571 311.109 445.729 310.952 445.729 310.759V309.658C445.729 309.465 445.571 309.308 445.377 309.308H443.065C442.871 309.308 442.714 309.465 442.714 309.658V310.759C442.714 310.952 442.871 311.109 443.065 311.109Z" fill="#3F3D56"/>
<path d="M437.035 311.109H439.347C439.541 311.109 439.699 310.952 439.699 310.759V309.658C439.699 309.465 439.541 309.308 439.347 309.308H437.035C436.841 309.308 436.684 309.465 436.684 309.658V310.759C436.684 310.952 436.841 311.109 437.035 311.109Z" fill="#3F3D56"/>
<path d="M431.006 311.109H433.318C433.512 311.109 433.669 310.952 433.669 310.759V309.658C433.669 309.465 433.512 309.308 433.318 309.308H431.006C430.812 309.308 430.655 309.465 430.655 309.658V310.759C430.655 310.952 430.812 311.109 431.006 311.109Z" fill="#3F3D56"/>
<path d="M424.976 311.109H427.288C427.482 311.109 427.64 310.952 427.64 310.759V309.658C427.64 309.465 427.482 309.308 427.288 309.308H424.976C424.782 309.308 424.625 309.465 424.625 309.658V310.759C424.625 310.952 424.782 311.109 424.976 311.109Z" fill="#3F3D56"/>
<path d="M418.947 311.109H421.259C421.453 311.109 421.61 310.952 421.61 310.759V309.658C421.61 309.465 421.453 309.308 421.259 309.308H418.947C418.753 309.308 418.595 309.465 418.595 309.658V310.759C418.595 310.952 418.753 311.109 418.947 311.109Z" fill="#3F3D56"/>
<path d="M412.917 311.109H415.229C415.423 311.109 415.58 310.952 415.58 310.759V309.658C415.58 309.465 415.423 309.308 415.229 309.308H412.917C412.723 309.308 412.566 309.465 412.566 309.658V310.759C412.566 310.952 412.723 311.109 412.917 311.109Z" fill="#3F3D56"/>
<path d="M406.887 311.109H409.199C409.394 311.109 409.551 310.952 409.551 310.759V309.658C409.551 309.465 409.394 309.308 409.199 309.308H406.887C406.693 309.308 406.536 309.465 406.536 309.658V310.759C406.536 310.952 406.693 311.109 406.887 311.109Z" fill="#3F3D56"/>
<path d="M400.858 311.109H403.17C403.364 311.109 403.521 310.952 403.521 310.759V309.658C403.521 309.465 403.364 309.308 403.17 309.308H400.858C400.664 309.308 400.506 309.465 400.506 309.658V310.759C400.506 310.952 400.664 311.109 400.858 311.109Z" fill="#3F3D56"/>
<path d="M394.828 311.109H397.14C397.334 311.109 397.492 310.952 397.492 310.759V309.658C397.492 309.465 397.334 309.308 397.14 309.308H394.828C394.634 309.308 394.477 309.465 394.477 309.658V310.759C394.477 310.952 394.634 311.109 394.828 311.109Z" fill="#3F3D56"/>
<path d="M388.799 311.109H391.111C391.305 311.109 391.462 310.952 391.462 310.759V309.658C391.462 309.465 391.305 309.308 391.111 309.308H388.799C388.605 309.308 388.447 309.465 388.447 309.658V310.759C388.447 310.952 388.605 311.109 388.799 311.109Z" fill="#3F3D56"/>
<path d="M382.769 311.109H385.081C385.275 311.109 385.432 310.952 385.432 310.759V309.658C385.432 309.465 385.275 309.308 385.081 309.308H382.769C382.575 309.308 382.418 309.465 382.418 309.658V310.759C382.418 310.952 382.575 311.109 382.769 311.109Z" fill="#3F3D56"/>
<path d="M376.739 311.109H379.051C379.245 311.109 379.403 310.952 379.403 310.759V309.658C379.403 309.465 379.245 309.308 379.051 309.308H376.739C376.545 309.308 376.388 309.465 376.388 309.658V310.759C376.388 310.952 376.545 311.109 376.739 311.109Z" fill="#3F3D56"/>
<path d="M370.71 311.109H373.022C373.216 311.109 373.373 310.952 373.373 310.759V309.658C373.373 309.465 373.216 309.308 373.022 309.308H370.71C370.516 309.308 370.358 309.465 370.358 309.658V310.759C370.358 310.952 370.516 311.109 370.71 311.109Z" fill="#3F3D56"/>
<path d="M364.68 311.109H366.992C367.186 311.109 367.344 310.952 367.344 310.759V309.658C367.344 309.465 367.186 309.308 366.992 309.308H364.68C364.486 309.308 364.329 309.465 364.329 309.658V310.759C364.329 310.952 364.486 311.109 364.68 311.109Z" fill="#3F3D56"/>
<path d="M358.651 311.109H360.963C361.157 311.109 361.314 310.952 361.314 310.759V309.658C361.314 309.465 361.157 309.308 360.963 309.308H358.651C358.457 309.308 358.299 309.465 358.299 309.658V310.759C358.299 310.952 358.457 311.109 358.651 311.109Z" fill="#3F3D56"/>
<path d="M449.166 314.11H451.478C451.672 314.11 451.829 313.953 451.829 313.76V312.659C451.829 312.466 451.672 312.309 451.478 312.309H449.166C448.972 312.309 448.814 312.466 448.814 312.659V313.76C448.814 313.953 448.972 314.11 449.166 314.11Z" fill="#3F3D56"/>
<path d="M443.136 314.11H445.448C445.642 314.11 445.8 313.953 445.8 313.76V312.659C445.8 312.466 445.642 312.309 445.448 312.309H443.136C442.942 312.309 442.785 312.466 442.785 312.659V313.76C442.785 313.953 442.942 314.11 443.136 314.11Z" fill="#3F3D56"/>
<path d="M437.107 314.11H439.419C439.613 314.11 439.77 313.953 439.77 313.76V312.659C439.77 312.466 439.613 312.309 439.419 312.309H437.107C436.913 312.309 436.755 312.466 436.755 312.659V313.76C436.755 313.953 436.913 314.11 437.107 314.11Z" fill="#3F3D56"/>
<path d="M431.077 314.11H433.389C433.583 314.11 433.74 313.953 433.74 313.76V312.659C433.74 312.466 433.583 312.309 433.389 312.309H431.077C430.883 312.309 430.726 312.466 430.726 312.659V313.76C430.726 313.953 430.883 314.11 431.077 314.11Z" fill="#3F3D56"/>
<path d="M425.048 314.11H427.36C427.554 314.11 427.711 313.953 427.711 313.76V312.659C427.711 312.466 427.554 312.309 427.36 312.309H425.048C424.853 312.309 424.696 312.466 424.696 312.659V313.76C424.696 313.953 424.853 314.11 425.048 314.11Z" fill="#3F3D56"/>
<path d="M419.018 314.11H421.33C421.524 314.11 421.681 313.953 421.681 313.76V312.659C421.681 312.466 421.524 312.309 421.33 312.309H419.018C418.824 312.309 418.666 312.466 418.666 312.659V313.76C418.666 313.953 418.824 314.11 419.018 314.11Z" fill="#3F3D56"/>
<path d="M412.988 314.11H415.3C415.494 314.11 415.652 313.953 415.652 313.76V312.659C415.652 312.466 415.494 312.309 415.3 312.309H412.988C412.794 312.309 412.637 312.466 412.637 312.659V313.76C412.637 313.953 412.794 314.11 412.988 314.11Z" fill="#3F3D56"/>
<path d="M406.959 314.11H409.271C409.465 314.11 409.622 313.953 409.622 313.76V312.659C409.622 312.466 409.465 312.309 409.271 312.309H406.959C406.765 312.309 406.607 312.466 406.607 312.659V313.76C406.607 313.953 406.765 314.11 406.959 314.11Z" fill="#3F3D56"/>
<path d="M400.929 314.11H403.241C403.435 314.11 403.592 313.953 403.592 313.76V312.659C403.592 312.466 403.435 312.309 403.241 312.309H400.929C400.735 312.309 400.578 312.466 400.578 312.659V313.76C400.578 313.953 400.735 314.11 400.929 314.11Z" fill="#3F3D56"/>
<path d="M394.9 314.11H397.212C397.406 314.11 397.563 313.953 397.563 313.76V312.659C397.563 312.466 397.406 312.309 397.212 312.309H394.9C394.706 312.309 394.548 312.466 394.548 312.659V313.76C394.548 313.953 394.706 314.11 394.9 314.11Z" fill="#3F3D56"/>
<path d="M388.87 314.11H391.182C391.376 314.11 391.533 313.953 391.533 313.76V312.659C391.533 312.466 391.376 312.309 391.182 312.309H388.87C388.676 312.309 388.519 312.466 388.519 312.659V313.76C388.519 313.953 388.676 314.11 388.87 314.11Z" fill="#3F3D56"/>
<path d="M382.84 314.11H385.152C385.346 314.11 385.504 313.953 385.504 313.76V312.659C385.504 312.466 385.346 312.309 385.152 312.309H382.84C382.646 312.309 382.489 312.466 382.489 312.659V313.76C382.489 313.953 382.646 314.11 382.84 314.11Z" fill="#3F3D56"/>
<path d="M376.811 314.11H379.123C379.317 314.11 379.474 313.953 379.474 313.76V312.659C379.474 312.466 379.317 312.309 379.123 312.309H376.811C376.617 312.309 376.459 312.466 376.459 312.659V313.76C376.459 313.953 376.617 314.11 376.811 314.11Z" fill="#3F3D56"/>
<path d="M370.781 314.11H373.093C373.287 314.11 373.445 313.953 373.445 313.76V312.659C373.445 312.466 373.287 312.309 373.093 312.309H370.781C370.587 312.309 370.43 312.466 370.43 312.659V313.76C370.43 313.953 370.587 314.11 370.781 314.11Z" fill="#3F3D56"/>
<path d="M364.751 314.11H367.064C367.258 314.11 367.415 313.953 367.415 313.76V312.659C367.415 312.466 367.258 312.309 367.064 312.309H364.751C364.557 312.309 364.4 312.466 364.4 312.659V313.76C364.4 313.953 364.557 314.11 364.751 314.11Z" fill="#3F3D56"/>
<path d="M358.722 314.11H361.034C361.228 314.11 361.385 313.953 361.385 313.76V312.659C361.385 312.466 361.228 312.309 361.034 312.309H358.722C358.528 312.309 358.371 312.466 358.371 312.659V313.76C358.371 313.953 358.528 314.11 358.722 314.11Z" fill="#3F3D56"/>
<path d="M399.12 317.711H422.536C422.73 317.711 422.887 317.554 422.887 317.361V316.26C422.887 316.067 422.73 315.91 422.536 315.91H399.12C398.926 315.91 398.769 316.067 398.769 316.26V317.361C398.769 317.554 398.926 317.711 399.12 317.711Z" fill="#3F3D56"/>
<path d="M374.312 257.021H372.265C371.645 257.021 371.142 257.522 371.142 258.139C371.142 258.757 371.645 259.258 372.265 259.258H374.312C374.933 259.258 375.436 258.757 375.436 258.139C375.436 257.522 374.933 257.021 374.312 257.021Z" fill="white"/>
<path d="M397.722 257.021H395.675C395.054 257.021 394.551 257.522 394.551 258.139C394.551 258.757 395.054 259.258 395.675 259.258H397.722C398.342 259.258 398.845 258.757 398.845 258.139C398.845 257.522 398.342 257.021 397.722 257.021Z" fill="white"/>
<path d="M404.354 257.021H402.307C401.687 257.021 401.184 257.522 401.184 258.139C401.184 258.757 401.687 259.258 402.307 259.258H404.354C404.975 259.258 405.478 258.757 405.478 258.139C405.478 257.522 404.975 257.021 404.354 257.021Z" fill="white"/>
<path d="M391.354 256.834H378.633C378.012 256.834 377.509 257.335 377.509 257.953C377.509 258.571 378.012 259.071 378.633 259.071H391.354C391.975 259.071 392.478 258.571 392.478 257.953C392.478 257.335 391.975 256.834 391.354 256.834Z" fill="white"/>
<path d="M422.567 256.834H409.845C409.225 256.834 408.722 257.335 408.722 257.953C408.722 258.571 409.225 259.071 409.845 259.071H422.567C423.187 259.071 423.69 258.571 423.69 257.953C423.69 257.335 423.187 256.834 422.567 256.834Z" fill="white"/>
<path d="M380.555 262.07H378.508C377.887 262.07 377.384 262.57 377.384 263.188C377.384 263.806 377.887 264.306 378.508 264.306H380.555C381.175 264.306 381.678 263.806 381.678 263.188C381.678 262.57 381.175 262.07 380.555 262.07Z" fill="white"/>
<path d="M403.964 262.07H401.917C401.297 262.07 400.794 262.57 400.794 263.188C400.794 263.806 401.297 264.306 401.917 264.306H403.964C404.585 264.306 405.088 263.806 405.088 263.188C405.088 262.57 404.585 262.07 403.964 262.07Z" fill="white"/>
<path d="M410.597 262.07H408.55C407.929 262.07 407.426 262.57 407.426 263.188C407.426 263.806 407.929 264.306 408.55 264.306H410.597C411.217 264.306 411.72 263.806 411.72 263.188C411.72 262.57 411.217 262.07 410.597 262.07Z" fill="white"/>
<path d="M397.597 261.883H384.875C384.255 261.883 383.752 262.384 383.752 263.002C383.752 263.619 384.255 264.12 384.875 264.12H397.597C398.217 264.12 398.72 263.619 398.72 263.002C398.72 262.384 398.217 261.883 397.597 261.883Z" fill="white"/>
<path d="M428.809 261.883H416.088C415.467 261.883 414.964 262.384 414.964 263.002C414.964 263.619 415.467 264.12 416.088 264.12H428.809C429.43 264.12 429.933 263.619 429.933 263.002C429.933 262.384 429.43 261.883 428.809 261.883Z" fill="white"/>
<path d="M386.797 267.118H384.75C384.13 267.118 383.627 267.619 383.627 268.237C383.627 268.854 384.13 269.355 384.75 269.355H386.797C387.418 269.355 387.921 268.854 387.921 268.237C387.921 267.619 387.418 267.118 386.797 267.118Z" fill="white"/>
<path d="M410.207 267.118H408.16C407.539 267.118 407.036 267.619 407.036 268.237C407.036 268.854 407.539 269.355 408.16 269.355H410.207C410.827 269.355 411.33 268.854 411.33 268.237C411.33 267.619 410.827 267.118 410.207 267.118Z" fill="white"/>
<path d="M416.839 267.118H414.792C414.172 267.118 413.669 267.619 413.669 268.237C413.669 268.854 414.172 269.355 414.792 269.355H416.839C417.46 269.355 417.963 268.854 417.963 268.237C417.963 267.619 417.46 267.118 416.839 267.118Z" fill="white"/>
<path d="M403.839 266.932H391.118C390.497 266.932 389.994 267.432 389.994 268.05C389.994 268.668 390.497 269.169 391.118 269.169H403.839C404.46 269.169 404.963 268.668 404.963 268.05C404.963 267.432 404.46 266.932 403.839 266.932Z" fill="white"/>
<path d="M435.052 266.932H422.33C421.71 266.932 421.207 267.432 421.207 268.05C421.207 268.668 421.71 269.169 422.33 269.169H435.052C435.672 269.169 436.175 268.668 436.175 268.05C436.175 267.432 435.672 266.932 435.052 266.932Z" fill="white"/>
<path d="M393.04 272.167H390.993C390.372 272.167 389.869 272.668 389.869 273.285C389.869 273.903 390.372 274.404 390.993 274.404H393.04C393.66 274.404 394.163 273.903 394.163 273.285C394.163 272.668 393.66 272.167 393.04 272.167Z" fill="white"/>
<path d="M416.449 272.167H414.402C413.782 272.167 413.279 272.668 413.279 273.285C413.279 273.903 413.782 274.404 414.402 274.404H416.449C417.07 274.404 417.573 273.903 417.573 273.285C417.573 272.668 417.07 272.167 416.449 272.167Z" fill="white"/>
<path d="M423.082 272.167H421.035C420.414 272.167 419.911 272.668 419.911 273.285C419.911 273.903 420.414 274.404 421.035 274.404H423.082C423.702 274.404 424.206 273.903 424.206 273.285C424.206 272.668 423.702 272.167 423.082 272.167Z" fill="white"/>
<path d="M410.082 271.98H397.36C396.74 271.98 396.237 272.481 396.237 273.099C396.237 273.717 396.74 274.217 397.36 274.217H410.082C410.702 274.217 411.205 273.717 411.205 273.099C411.205 272.481 410.702 271.98 410.082 271.98Z" fill="white"/>
<path d="M397.722 292.242H395.675C395.054 292.242 394.551 292.743 394.551 293.361C394.551 293.979 395.054 294.479 395.675 294.479H397.722C398.342 294.479 398.845 293.979 398.845 293.361C398.845 292.743 398.342 292.242 397.722 292.242Z" fill="white"/>
<path d="M404.354 292.242H402.307C401.687 292.242 401.184 292.743 401.184 293.361C401.184 293.979 401.687 294.479 402.307 294.479H404.354C404.975 294.479 405.478 293.979 405.478 293.361C405.478 292.743 404.975 292.242 404.354 292.242Z" fill="white"/>
<path d="M422.567 292.429H409.845C409.225 292.429 408.722 292.93 408.722 293.547C408.722 294.165 409.225 294.666 409.845 294.666H422.567C423.187 294.666 423.69 294.165 423.69 293.547C423.69 292.93 423.187 292.429 422.567 292.429Z" fill="white"/>
<path d="M374.312 292.242H372.265C371.645 292.242 371.142 292.743 371.142 293.361C371.142 293.979 371.645 294.479 372.265 294.479H374.312C374.933 294.479 375.436 293.979 375.436 293.361C375.436 292.743 374.933 292.242 374.312 292.242Z" fill="white"/>
<path d="M391.354 292.429H378.633C378.012 292.429 377.509 292.93 377.509 293.547C377.509 294.165 378.012 294.666 378.633 294.666H391.354C391.975 294.666 392.478 294.165 392.478 293.547C392.478 292.93 391.975 292.429 391.354 292.429Z" fill="white"/>
<path d="M380.555 287.194H378.508C377.887 287.194 377.384 287.694 377.384 288.312C377.384 288.93 377.887 289.431 378.508 289.431H380.555C381.175 289.431 381.678 288.93 381.678 288.312C381.678 287.694 381.175 287.194 380.555 287.194Z" fill="white"/>
<path d="M403.964 287.194H401.917C401.297 287.194 400.794 287.694 400.794 288.312C400.794 288.93 401.297 289.431 401.917 289.431H403.964C404.585 289.431 405.088 288.93 405.088 288.312C405.088 287.694 404.585 287.194 403.964 287.194Z" fill="white"/>
<path d="M410.597 287.194H408.55C407.929 287.194 407.426 287.694 407.426 288.312C407.426 288.93 407.929 289.431 408.55 289.431H410.597C411.217 289.431 411.72 288.93 411.72 288.312C411.72 287.694 411.217 287.194 410.597 287.194Z" fill="white"/>
<path d="M397.597 287.38H384.875C384.255 287.38 383.752 287.881 383.752 288.499C383.752 289.116 384.255 289.617 384.875 289.617H397.597C398.217 289.617 398.72 289.116 398.72 288.499C398.72 287.881 398.217 287.38 397.597 287.38Z" fill="white"/>
<path d="M386.797 282.145H384.75C384.13 282.145 383.627 282.646 383.627 283.264C383.627 283.881 384.13 284.382 384.75 284.382H386.797C387.418 284.382 387.921 283.881 387.921 283.264C387.921 282.646 387.418 282.145 386.797 282.145Z" fill="white"/>
<path d="M410.207 282.145H408.16C407.539 282.145 407.036 282.646 407.036 283.264C407.036 283.881 407.539 284.382 408.16 284.382H410.207C410.827 284.382 411.33 283.881 411.33 283.264C411.33 282.646 410.827 282.145 410.207 282.145Z" fill="white"/>
<path d="M416.839 282.145H414.792C414.172 282.145 413.669 282.646 413.669 283.264C413.669 283.881 414.172 284.382 414.792 284.382H416.839C417.46 284.382 417.963 283.881 417.963 283.264C417.963 282.646 417.46 282.145 416.839 282.145Z" fill="white"/>
<path d="M403.839 282.332H391.118C390.497 282.332 389.994 282.832 389.994 283.45C389.994 284.068 390.497 284.568 391.118 284.568H403.839C404.46 284.568 404.963 284.068 404.963 283.45C404.963 282.832 404.46 282.332 403.839 282.332Z" fill="white"/>
<path d="M393.04 277.096H390.993C390.372 277.096 389.869 277.597 389.869 278.215C389.869 278.833 390.372 279.333 390.993 279.333H393.04C393.66 279.333 394.163 278.833 394.163 278.215C394.163 277.597 393.66 277.096 393.04 277.096Z" fill="white"/>
<path d="M416.449 277.096H414.402C413.782 277.096 413.279 277.597 413.279 278.215C413.279 278.833 413.782 279.333 414.402 279.333H416.449C417.07 279.333 417.573 278.833 417.573 278.215C417.573 277.597 417.07 277.096 416.449 277.096Z" fill="white"/>
<path d="M423.082 277.096H421.035C420.414 277.096 419.911 277.597 419.911 278.215C419.911 278.833 420.414 279.333 421.035 279.333H423.082C423.702 279.333 424.206 278.833 424.206 278.215C424.206 277.597 423.702 277.096 423.082 277.096Z" fill="white"/>
<path d="M410.082 277.283H397.36C396.74 277.283 396.237 277.784 396.237 278.401C396.237 279.019 396.74 279.52 397.36 279.52H410.082C410.702 279.52 411.205 279.019 411.205 278.401C411.205 277.784 410.702 277.283 410.082 277.283Z" fill="white"/>
<path d="M363.43 351.411L353.821 336.292L383.982 312.36L396.43 298.632C398.048 296.849 400.107 295.519 402.402 294.776C404.698 294.033 407.149 293.902 409.511 294.397C411.873 294.892 414.063 295.996 415.862 297.598C417.662 299.199 419.007 301.243 419.764 303.524C420.886 306.905 420.645 310.587 419.091 313.794C417.538 317.001 414.793 319.482 411.436 320.713L391.751 327.931L363.43 351.411Z" fill="#FFB6B6"/>
<path d="M137.975 241.792V315.272H189.691V241.792C189.692 241.263 189.523 240.748 189.208 240.323C188.893 239.897 188.449 239.583 187.942 239.427C187.703 239.349 187.452 239.31 187.201 239.313H140.472C140.145 239.312 139.82 239.376 139.518 239.5C139.215 239.624 138.939 239.807 138.708 240.037C138.476 240.267 138.291 240.541 138.166 240.842C138.04 241.143 137.975 241.466 137.975 241.792ZM158.158 267.04C158.171 265.591 158.759 264.206 159.792 263.187C160.826 262.167 162.223 261.595 163.678 261.595C165.134 261.595 166.53 262.167 167.564 263.187C168.598 264.206 169.185 265.591 169.199 267.04V275.566C169.192 277.018 168.607 278.409 167.572 279.433C166.538 280.458 165.138 281.033 163.678 281.033C162.219 281.033 160.819 280.458 159.784 279.433C158.75 278.409 158.165 277.018 158.158 275.566V267.04Z" fill="#2F2E41"/>
<path d="M137.817 312.922V320.008C137.818 320.375 137.964 320.726 138.224 320.987C138.484 321.247 138.837 321.395 139.206 321.398H188.46C188.829 321.396 189.183 321.248 189.443 320.988C189.703 320.728 189.85 320.375 189.85 320.008V312.922H137.817Z" fill="#3F3D56"/>
<path d="M56.618 131.084V265.249C56.6194 266.958 57.3023 268.598 58.5169 269.807C59.7315 271.016 61.3784 271.695 63.0961 271.697H262.835C264.553 271.695 266.2 271.016 267.415 269.807C268.629 268.598 269.312 266.958 269.313 265.249V131.084C269.309 129.376 268.625 127.739 267.411 126.532C266.197 125.324 264.552 124.645 262.835 124.643H63.0961C61.3799 124.645 59.7345 125.325 58.5204 126.532C57.3062 127.739 56.6221 129.376 56.618 131.084Z" fill="#3F3D56"/>
<path d="M61.3038 132.754V263.594C61.3054 264.507 61.6707 265.383 62.3196 266.029C62.9685 266.674 63.8482 267.038 64.766 267.04H261.173C262.09 267.038 262.97 266.675 263.619 266.029C264.268 265.383 264.633 264.507 264.635 263.594V132.754C264.635 131.839 264.27 130.962 263.621 130.314C262.972 129.667 262.092 129.302 261.173 129.3H64.766C63.8471 129.302 62.9666 129.667 62.3175 130.314C61.6685 130.962 61.3039 131.839 61.3038 132.754Z" fill="white"/>
<path d="M97.7535 320.918C97.9534 321.167 98.2075 321.368 98.4967 321.506C98.7859 321.644 99.1027 321.714 99.4234 321.713H216.273C216.592 321.712 216.908 321.641 217.196 321.504C217.485 321.367 217.739 321.168 217.94 320.921C218.141 320.674 218.285 320.385 218.36 320.076C218.435 319.767 218.44 319.445 218.374 319.134L216.561 310.558C216.485 310.208 216.324 309.882 216.09 309.611C215.856 309.339 215.558 309.13 215.222 309.003C214.979 308.908 214.72 308.859 214.459 308.86H101.23C100.969 308.859 100.71 308.908 100.467 309.003C100.131 309.13 99.8329 309.339 99.5991 309.611C99.3653 309.882 99.2034 310.208 99.1282 310.558L97.3144 319.134C97.2499 319.445 97.2558 319.766 97.3317 320.075C97.4077 320.383 97.5517 320.671 97.7535 320.918Z" fill="#2F2E41"/>
<path d="M254.799 147.324H71.0217C70.8306 147.32 70.6489 147.241 70.5153 147.105C70.3817 146.969 70.3069 146.787 70.3069 146.597C70.3069 146.406 70.3817 146.224 70.5153 146.088C70.6489 145.952 70.8306 145.873 71.0217 145.869H254.799C254.99 145.873 255.171 145.952 255.305 146.088C255.439 146.224 255.513 146.406 255.513 146.597C255.513 146.787 255.439 146.969 255.305 147.105C255.171 147.241 254.99 147.32 254.799 147.324Z" fill="#3F3D56"/>
<path d="M83.5315 142.155C85.897 142.155 87.8145 140.204 87.8145 137.797C87.8145 135.39 85.897 133.438 83.5315 133.438C81.1661 133.438 79.2485 135.39 79.2485 137.797C79.2485 140.204 81.1661 142.155 83.5315 142.155Z" fill="#3F3D56"/>
<path d="M98.3274 142.155C100.693 142.155 102.61 140.204 102.61 137.797C102.61 135.39 100.693 133.438 98.3274 133.438C95.962 133.438 94.0444 135.39 94.0444 137.797C94.0444 140.204 95.962 142.155 98.3274 142.155Z" fill="#3F3D56"/>
<path d="M113.123 142.155C115.489 142.155 117.406 140.204 117.406 137.797C117.406 135.39 115.489 133.438 113.123 133.438C110.758 133.438 108.84 135.39 108.84 137.797C108.84 140.204 110.758 142.155 113.123 142.155Z" fill="#3F3D56"/>
<path d="M245.889 134.516H235.38C235.173 134.521 234.975 134.606 234.83 134.754C234.685 134.902 234.603 135.101 234.603 135.308C234.603 135.515 234.685 135.713 234.83 135.861C234.975 136.009 235.173 136.095 235.38 136.099H245.889C246.098 136.097 246.298 136.012 246.444 135.864C246.591 135.715 246.673 135.516 246.673 135.308C246.673 135.1 246.591 134.9 246.444 134.752C246.298 134.604 246.098 134.519 245.889 134.516Z" fill="#3F3D56"/>
<path d="M245.889 137.489H235.38C235.172 137.494 234.975 137.579 234.829 137.727C234.684 137.875 234.602 138.074 234.602 138.281C234.602 138.488 234.684 138.687 234.829 138.835C234.975 138.983 235.172 139.068 235.38 139.073H245.889C246.098 139.07 246.298 138.986 246.445 138.838C246.592 138.689 246.675 138.489 246.675 138.281C246.675 138.073 246.592 137.873 246.445 137.725C246.298 137.576 246.098 137.492 245.889 137.489Z" fill="#3F3D56"/>
<path d="M245.889 140.463H235.38C235.173 140.467 234.975 140.553 234.83 140.701C234.685 140.849 234.603 141.047 234.603 141.254C234.603 141.461 234.685 141.66 234.83 141.808C234.975 141.956 235.173 142.041 235.38 142.046H245.889C246.098 142.043 246.298 141.958 246.444 141.81C246.591 141.662 246.673 141.462 246.673 141.254C246.673 141.046 246.591 140.847 246.444 140.698C246.298 140.55 246.098 140.466 245.889 140.463Z" fill="#3F3D56"/>
<path d="M499.237 316.032C499.554 316.951 500.156 317.746 500.956 318.304C501.755 318.861 502.712 319.152 503.688 319.135L522.756 318.646C523.739 318.627 524.69 318.292 525.466 317.69C526.242 317.089 526.801 316.254 527.061 315.31L529.759 286.589C530.717 287.02 531.759 287.234 532.81 287.213C533.723 287.19 534.622 286.988 535.457 286.619C536.292 286.251 537.045 285.722 537.674 285.063C538.304 284.404 538.797 283.629 539.125 282.78C539.453 281.932 539.61 281.028 539.587 280.119C539.564 279.21 539.362 278.315 538.991 277.484C538.621 276.653 538.089 275.903 537.428 275.277C536.766 274.65 535.987 274.16 535.134 273.833C534.282 273.507 533.374 273.35 532.461 273.373C532.041 273.372 531.622 273.415 531.211 273.502C530.764 273.021 530.221 272.639 529.617 272.379C529.013 272.12 528.361 271.989 527.703 271.996L498.371 272.75C498.128 272.759 497.886 272.788 497.648 272.839C497.005 272.958 496.395 273.213 495.859 273.587C495.323 273.961 494.874 274.445 494.541 275.006C494.209 275.567 494.001 276.192 493.932 276.84C493.863 277.487 493.934 278.142 494.14 278.76L499.237 316.032ZM530.313 284.639L532.233 277.794C532.451 277.004 532.456 276.17 532.247 275.377C532.341 275.376 532.423 275.332 532.516 275.332C533.833 275.305 535.106 275.799 536.058 276.705C537.009 277.611 537.561 278.856 537.592 280.166C537.622 281.477 537.13 282.746 536.222 283.695C535.314 284.645 534.065 285.197 532.749 285.232C531.898 285.258 531.056 285.053 530.313 284.639Z" fill="#2F2E41"/>
<path d="M497.648 272.839C498.273 276.396 505.299 278.896 513.746 278.461C521.515 278.105 527.867 275.39 529.03 272.172C528.6 272.045 528.152 271.986 527.703 271.996L498.371 272.749C498.128 272.758 497.886 272.788 497.648 272.839Z" fill="#3F3D56"/>
<path d="M515.295 300.249C515.333 300.239 515.37 300.223 515.403 300.202L519.544 297.504C519.594 297.471 519.635 297.427 519.664 297.374C519.692 297.322 519.707 297.264 519.707 297.204C519.707 297.145 519.692 297.086 519.664 297.034C519.636 296.982 519.594 296.937 519.544 296.905L515.24 294.098C515.201 294.072 515.157 294.054 515.11 294.045C515.064 294.037 515.016 294.037 514.969 294.046C514.923 294.056 514.879 294.074 514.84 294.101C514.8 294.127 514.767 294.161 514.741 294.201C514.715 294.24 514.697 294.284 514.688 294.331C514.68 294.377 514.68 294.425 514.69 294.471C514.7 294.517 514.718 294.561 514.745 294.599C514.772 294.638 514.806 294.672 514.846 294.697L518.69 297.204L515.009 299.602C514.938 299.649 514.886 299.719 514.861 299.8C514.837 299.881 514.842 299.968 514.877 300.046C514.911 300.124 514.972 300.187 515.048 300.224C515.125 300.261 515.212 300.27 515.295 300.249Z" fill="#4796FF"/>
<path d="M508.754 300.549C508.824 300.532 508.886 300.494 508.934 300.441C508.982 300.388 509.013 300.322 509.022 300.251C509.032 300.18 509.02 300.108 508.989 300.044C508.957 299.98 508.907 299.927 508.845 299.891L505.028 297.713L508.717 294.985C508.755 294.957 508.787 294.922 508.811 294.882C508.836 294.842 508.852 294.797 508.859 294.75C508.865 294.704 508.863 294.656 508.851 294.611C508.84 294.565 508.82 294.522 508.791 294.485C508.763 294.447 508.728 294.415 508.687 294.391C508.647 294.367 508.602 294.351 508.555 294.344C508.508 294.337 508.461 294.339 508.415 294.351C508.369 294.362 508.326 294.383 508.288 294.411L504.158 297.465C504.11 297.5 504.071 297.547 504.046 297.601C504.021 297.655 504.009 297.714 504.013 297.773C504.016 297.833 504.035 297.89 504.066 297.941C504.098 297.991 504.141 298.033 504.193 298.063L508.487 300.513C508.568 300.559 508.664 300.572 508.754 300.549Z" fill="#4796FF"/>
<path d="M514.883 302.614C514.918 302.605 514.951 302.591 514.981 302.572C515.022 302.548 515.057 302.516 515.085 302.478C515.113 302.44 515.133 302.397 515.144 302.351C515.155 302.305 515.157 302.258 515.15 302.211C515.143 302.165 515.126 302.12 515.102 302.08L509.232 292.473C509.182 292.392 509.102 292.334 509.009 292.312C508.916 292.29 508.819 292.305 508.737 292.354C508.656 292.404 508.597 292.483 508.575 292.575C508.552 292.668 508.567 292.765 508.617 292.846L514.487 302.453C514.527 302.518 514.587 302.569 514.658 302.598C514.729 302.627 514.808 302.632 514.883 302.614Z" fill="#4796FF"/>
<path d="M184.868 186.872H153.061C151.763 186.872 150.711 187.919 150.711 189.211V192.304C150.711 193.596 151.763 194.643 153.061 194.643H184.868C186.166 194.643 187.218 193.596 187.218 192.304V189.211C187.218 187.919 186.166 186.872 184.868 186.872Z" fill="#4796FF"/>
<path d="M203.409 202.413H134.52C133.223 202.413 132.171 203.46 132.171 204.752V207.845C132.171 209.137 133.223 210.184 134.52 210.184H203.409C204.706 210.184 205.758 209.137 205.758 207.845V204.752C205.758 203.46 204.706 202.413 203.409 202.413Z" fill="#E6E6E6"/>
<path d="M203.409 217.954H134.52C133.223 217.954 132.171 219.001 132.171 220.293V223.386C132.171 224.678 133.223 225.725 134.52 225.725H203.409C204.706 225.725 205.758 224.678 205.758 223.386V220.293C205.758 219.001 204.706 217.954 203.409 217.954Z" fill="#E6E6E6"/>
<path d="M209.249 269.995L209.405 270.485L209.413 270.502L214.109 284.715L219.512 301.094L229.678 331.874L229.776 336.655V336.672L230.531 375.134L228.438 380.349L230.794 388.898C230.794 388.898 229.71 375.975 223.897 383.396C220.604 387.614 216.753 391.929 213.592 395.975C218.199 397.83 222.879 399.508 227.633 401.01C228.659 401.337 229.694 401.647 230.729 401.958C230.95 402.023 231.172 402.088 231.394 402.154C247.153 406.793 263.445 409.4 279.872 409.91C280.726 409.935 281.563 409.951 282.376 409.967C282.663 409.976 282.943 409.984 283.222 409.984C284.141 409.992 285.053 410 285.972 410C287.828 410 289.676 409.973 291.515 409.918C305.128 409.536 318.662 407.714 331.888 404.483C331.798 399.048 331.552 392.698 331.199 385.914C331.034 382.587 327.348 378.983 327.126 375.501C326.97 372.886 330.279 370.426 330.107 367.769C328.99 351.415 327.594 357.693 326.559 346.112C326.453 344.976 326.354 343.889 326.264 342.851C325.599 335.413 325.139 330.762 325.139 330.762L329.557 303.047L336.495 259.534L335.961 258.659L335.362 258.365L298.765 240.335L296.778 235.267C296.199 233.808 295.195 232.553 293.894 231.666C292.593 230.779 291.055 230.3 289.478 230.29L265.371 230.192C264.12 230.186 262.885 230.478 261.77 231.042C260.655 231.606 259.691 232.427 258.958 233.437L252.43 242.435L209.249 269.995Z" fill="#3F3D56"/>
<path d="M235.236 325.025L229.776 336.655L226.048 344.6L219.635 378.02L216.425 381.411L213.674 369.404L184.885 375.767C183.94 370.544 184.632 375.944 184.049 370.214C184.213 370.051 184.385 369.887 184.558 369.724C185.018 369.299 185.404 368.898 185.395 368.514C185.067 348.752 186.052 315.119 194.28 294.743C195.568 291.417 197.267 288.262 199.338 285.352C199.502 285.132 199.658 284.911 199.814 284.69C203.608 279.402 206.005 274.196 209.404 270.494V270.486C209.426 270.469 209.445 270.449 209.462 270.428C209.474 270.422 209.485 270.414 209.495 270.404L232.847 258.079L233.849 286.096L234.563 306.235L235.236 325.025Z" fill="#3F3D56"/>
<path d="M319.44 328.328L326.261 342.854L328.641 347.913L335.052 381.33L338.252 384.714L341.009 372.709L342.305 372.445L365.668 367.629L372.477 389.155C374.012 386.61 374.617 383.615 374.189 380.677C373.761 377.739 372.327 375.038 370.13 373.031C369.665 372.612 369.277 372.205 369.288 371.819C369.676 348.575 368.248 306.131 355.348 288.662C351.251 283.118 348.793 277.597 345.217 273.739C345.206 273.728 345.206 273.717 345.195 273.717L336.492 259.533L335.96 258.662L335.362 258.364L319.44 328.328Z" fill="#3F3D56"/>
<path d="M278.121 223.363C295.834 223.363 310.193 209.07 310.193 191.439C310.193 173.807 295.834 159.514 278.121 159.514C260.408 159.514 246.049 173.807 246.049 191.439C246.049 209.07 260.408 223.363 278.121 223.363Z" fill="#FFB6B6"/>
<path d="M321.47 169.14C321.222 168.875 320.922 168.664 320.59 168.517C320.257 168.371 319.898 168.292 319.534 168.287L320.016 166.954C320.174 166.535 320.216 166.081 320.14 165.639C320.063 165.198 319.869 164.785 319.579 164.442C319.289 164.099 318.913 163.84 318.489 163.689C318.065 163.539 317.608 163.504 317.166 163.587L315.41 163.924L315.575 162.756C315.639 162.321 315.588 161.877 315.426 161.468C315.265 161.059 315 160.698 314.656 160.422C314.313 160.146 313.903 159.964 313.467 159.893C313.031 159.822 312.585 159.866 312.171 160.019C311.794 160.167 311.39 160.228 310.986 160.2C310.582 160.171 310.19 160.053 309.839 159.854C309.486 159.661 309.179 159.394 308.94 159.071C308.702 158.748 308.537 158.377 308.457 157.984L307.845 155.047L307.78 154.889C304.8 149.946 299.071 146.349 292.06 145.031C285.82 143.849 279.421 144.45 273.252 145.016C270.805 145.246 268.041 145.504 265.738 146.908C263.78 148.111 262.124 150.519 262.463 152.948C256.381 151.092 249.859 154.796 246.628 159.467C242.798 165.027 242.172 171.991 242.071 177.436C241.798 190.318 244.468 200.857 249.989 208.767C250.392 209.34 250.493 210.537 251.292 210.938L251.126 210.673C252.019 211.117 252.926 211.833 252.587 212.6C251.616 214.807 258.072 219.686 262.621 221.298C270.92 224.243 281.954 223.992 289.714 222.931L289.987 221.104C292.787 220.725 294.759 220.001 295.314 218.869C296.292 218.038 297.127 217.293 297.854 216.605L297.862 216.598C297.876 216.584 297.905 216.562 297.919 216.548C301.424 213.202 302.238 211.296 302.605 208.395C302.958 205.55 302.331 202.663 301.691 200.062C315.18 202.14 296.379 185.762 308.946 182.595C309.09 182.551 309.237 182.515 309.385 182.487C309.752 182.401 310.119 182.315 310.472 182.215C312.172 181.756 313.8 181.064 315.309 180.159C318.822 178.031 319.98 175.208 321.794 172.027C322.056 171.574 322.166 171.05 322.108 170.531C322.049 170.011 321.826 169.524 321.47 169.14Z" fill="#2F2E41"/>
<path d="M391.555 330.601C391.548 331.855 391.534 333.61 391.476 335.781C391.469 336.082 391.462 336.39 391.455 336.705C391.361 340.696 391.268 344.042 391.116 347.76C391.109 348.018 391.102 348.269 391.088 348.527C390.886 353.714 390.569 359.754 390.022 369.319C389.007 386.987 387.237 371.747 385.459 377.945C385.373 378.253 385.279 378.618 385.193 379.048C384.923 380.608 384.469 382.13 383.839 383.583C382.897 384.142 381.925 384.68 380.967 385.217C378.24 386.729 375.468 388.183 372.676 389.566C371.106 390.34 369.53 391.099 367.947 391.83C367.695 391.945 367.45 392.059 367.205 392.167C359.096 395.9 350.739 399.074 342.193 401.667C340.523 402.168 338.86 402.656 337.176 403.107C335.42 403.594 333.664 404.053 331.886 404.483C318.66 407.715 305.126 409.537 291.513 409.921C289.678 409.978 287.828 409.999 285.971 409.999C285.049 409.999 284.143 409.992 283.221 409.985C282.941 409.985 282.66 409.978 282.379 409.971C281.566 409.949 280.724 409.935 279.874 409.913C263.448 409.403 247.156 406.796 231.397 402.154L230.728 401.961C229.691 401.645 228.662 401.337 227.633 401.008C222.882 399.51 218.201 397.834 213.59 395.978C210.07 394.567 206.591 393.053 203.153 391.436C203.121 391.427 203.092 391.413 203.066 391.393C202.347 391.063 201.62 390.719 200.9 390.368C200.806 390.318 200.706 390.268 200.605 390.218C197.92 388.914 195.264 387.548 192.637 386.12C190.427 381.069 187.318 380.101 185.389 375.659C184.827 374.34 184.421 372.96 184.179 371.547C184.179 371.533 184.172 371.518 184.172 371.497C184.374 374.162 183.316 366.768 184.165 371.468C184.158 371.382 184.151 371.289 184.143 371.181C184.122 370.924 184.093 370.608 184.05 370.214C181.581 346.22 181.739 318.78 180.667 296.168C180.595 294.707 180.52 293.307 180.444 291.97C180.422 291.525 180.393 291.088 180.365 290.659C180.415 290.53 180.472 290.393 180.537 290.264C180.551 290.227 180.568 290.191 180.588 290.157C180.609 290.113 180.633 290.069 180.66 290.028C180.674 290.007 180.696 289.978 180.71 289.956C180.721 289.932 180.733 289.908 180.746 289.885C180.811 289.784 180.883 289.677 180.962 289.577C180.998 289.534 181.027 289.498 181.063 289.462C181.088 289.425 181.117 289.392 181.149 289.362C181.171 289.327 181.198 289.296 181.228 289.269C181.257 289.24 181.286 289.204 181.322 289.168C181.337 289.146 181.357 289.126 181.379 289.111C181.436 289.046 181.499 288.986 181.567 288.932C181.823 288.697 182.098 288.481 182.387 288.287C182.488 288.223 182.596 288.158 182.697 288.086C183.422 287.655 184.186 287.29 184.978 286.997C185.252 286.897 185.525 286.804 185.82 286.704C185.928 286.675 186.029 286.639 186.137 286.603C186.295 286.553 186.454 286.503 186.619 286.467C187.44 286.224 188.325 286.016 189.283 285.822C189.398 285.801 189.52 285.779 189.642 285.751C189.815 285.715 189.995 285.686 190.175 285.658C190.42 285.615 190.672 285.572 190.924 285.529C193.061 285.192 195.487 284.941 198.165 284.776C198.417 284.762 198.669 284.748 198.92 284.733C199.216 284.719 199.511 284.705 199.813 284.69C200.065 284.676 200.324 284.669 200.583 284.662C200.835 284.647 201.094 284.64 201.361 284.633C202.087 284.612 202.836 284.59 203.599 284.576C205.773 284.533 208.062 284.547 210.466 284.597C211.581 284.626 212.719 284.655 213.885 284.705C213.964 284.705 214.036 284.712 214.108 284.712C215.123 284.748 216.145 284.791 217.196 284.848C217.93 284.884 218.671 284.92 219.413 284.963C220.111 285.006 220.816 285.049 221.529 285.099C222.083 285.128 222.637 285.17 223.199 285.206C223.674 285.242 224.149 285.278 224.624 285.307L225.272 285.35C225.624 285.378 225.977 285.4 226.337 285.436C227.129 285.5 227.92 285.565 228.727 285.629C229.526 285.701 230.339 285.772 231.152 285.844C231.966 285.916 232.786 285.994 233.607 286.073C233.693 286.08 233.772 286.088 233.851 286.095C234.6 286.174 235.349 286.245 236.104 286.324C236.277 286.338 236.457 286.353 236.63 286.374C237.35 286.446 238.085 286.531 238.812 286.607C239.035 286.631 239.257 286.655 239.481 286.679C240.051 286.741 240.612 286.794 241.186 286.861C241.942 286.947 242.712 287.026 243.46 287.126C244.043 287.191 244.626 287.255 245.21 287.327C246.124 287.434 247.052 287.549 247.981 287.671C248.333 287.714 248.686 287.757 249.039 287.807C251.688 288.137 254.365 288.502 257.086 288.882C261.21 289.462 265.399 290.093 269.617 290.773C273.842 291.454 278.092 292.173 282.365 292.93C283.444 293.123 284.524 293.317 285.611 293.517C286.1 293.61 286.59 293.703 287.079 293.797C287.914 293.947 288.749 294.105 289.584 294.262C290.419 294.42 291.254 294.578 292.089 294.742C293.082 294.936 294.083 295.129 295.076 295.323C301.619 296.612 308.126 297.988 314.474 299.428C315.518 299.664 316.561 299.908 317.598 300.144C319.671 300.624 321.725 301.112 323.759 301.606C324.321 301.735 324.875 301.871 325.429 302.007C326.811 302.351 328.193 302.695 329.553 303.046L329.791 303.111C330.792 303.354 331.77 303.605 332.749 303.863C335.06 304.465 337.332 305.074 339.566 305.69C341.048 306.098 342.514 306.511 343.964 306.929C346.13 307.553 348.253 308.183 350.319 308.821C350.83 308.978 351.341 309.136 351.845 309.286C353.357 309.752 354.847 310.225 356.293 310.698C357.445 311.07 358.568 311.45 359.676 311.83C360.785 312.21 361.872 312.589 362.937 312.969C363.621 313.213 364.297 313.471 364.974 313.714C365.946 314.072 366.903 314.431 367.839 314.789C368.127 314.896 368.407 315.011 368.688 315.118C368.868 315.197 369.041 315.262 369.213 315.333C369.552 315.47 369.897 315.598 370.228 315.735C370.567 315.864 370.898 316 371.229 316.143C371.553 316.272 371.884 316.408 372.201 316.544C372.524 316.673 372.841 316.809 373.158 316.953C373.424 317.06 373.683 317.175 373.935 317.289C374.446 317.511 374.957 317.734 375.454 317.963C375.699 318.077 375.943 318.185 376.188 318.3L376.75 318.557C376.829 318.6 376.908 318.636 376.987 318.672C377.167 318.758 377.354 318.851 377.534 318.937C377.952 319.131 378.362 319.338 378.765 319.532C379.305 319.804 379.83 320.076 380.334 320.341C380.845 320.614 381.342 320.886 381.817 321.151C381.896 321.194 381.968 321.237 382.047 321.28C382.155 321.337 382.263 321.402 382.371 321.459C382.738 321.667 383.091 321.882 383.444 322.09C384.135 322.512 384.789 322.928 385.401 323.343C385.538 323.437 385.668 323.53 385.804 323.616C386.258 323.938 386.69 324.253 387.093 324.576C387.093 324.583 387.093 324.583 387.1 324.583C387.237 324.683 387.366 324.791 387.496 324.891C387.604 324.991 387.719 325.077 387.827 325.178C388.201 325.5 388.547 325.808 388.863 326.123C388.97 326.221 389.071 326.323 389.166 326.431C389.208 326.466 389.246 326.504 389.281 326.546C389.425 326.689 389.554 326.833 389.677 326.976C389.696 326.996 389.713 327.017 389.727 327.04C389.9 327.241 390.058 327.442 390.209 327.642C390.281 327.742 390.361 327.843 390.425 327.943C390.512 328.065 390.598 328.194 390.67 328.316C390.735 328.416 390.792 328.523 390.85 328.624C391.003 328.882 391.133 329.153 391.239 329.433C391.32 329.624 391.385 329.82 391.433 330.021C391.488 330.211 391.529 330.405 391.555 330.601Z" fill="#2F2E41"/>
<path opacity="0.2" d="M391.555 330.601C391.548 331.855 391.534 333.61 391.476 335.781C391.469 336.082 391.455 336.39 391.447 336.705C391.375 339.75 391.268 343.512 391.116 347.76C391.109 348.018 391.102 348.269 391.088 348.527C390.886 353.714 390.569 359.754 390.022 369.319C389.007 386.987 387.237 371.747 385.459 377.945C380.521 374.921 375.108 371.755 369.321 368.502C368.278 367.914 367.224 367.325 366.162 366.732C354.587 360.306 341.66 353.571 328.164 346.901C327.632 346.636 327.092 346.37 326.559 346.113C295.645 330.902 261.901 316.107 234.564 306.234C229.288 304.329 224.249 302.609 219.513 301.097C209.537 297.923 200.914 295.702 194.278 294.742C187.368 293.739 182.596 294.097 180.667 296.168C180.595 294.706 180.52 293.307 180.444 291.97C180.415 291.525 180.386 291.088 180.357 290.658C180.402 290.541 180.459 290.428 180.515 290.314C180.523 290.298 180.529 290.281 180.537 290.264C180.551 290.227 180.568 290.191 180.588 290.157C180.609 290.112 180.633 290.069 180.659 290.028C180.683 289.977 180.712 289.929 180.746 289.885C180.811 289.784 180.883 289.677 180.962 289.577C181.02 289.501 181.083 289.43 181.149 289.362C181.171 289.327 181.198 289.296 181.228 289.268C181.257 289.24 181.286 289.204 181.322 289.168C181.337 289.146 181.357 289.126 181.379 289.111C181.436 289.046 181.499 288.986 181.566 288.932C181.823 288.697 182.098 288.481 182.387 288.287C182.488 288.222 182.596 288.158 182.696 288.086C183.422 287.654 184.186 287.29 184.978 286.997C185.252 286.897 185.525 286.804 185.82 286.704C185.928 286.675 186.029 286.639 186.137 286.603C186.295 286.553 186.454 286.503 186.619 286.467C187.44 286.224 188.325 286.016 189.282 285.822C189.57 285.765 189.873 285.708 190.175 285.658C190.42 285.615 190.672 285.572 190.924 285.529C193.061 285.192 195.487 284.941 198.165 284.776C198.417 284.762 198.668 284.748 198.92 284.733C199.215 284.719 199.511 284.705 199.813 284.69C200.065 284.676 200.324 284.669 200.583 284.662C200.835 284.647 201.094 284.64 201.36 284.633C202.087 284.612 202.836 284.59 203.599 284.576C205.773 284.54 208.062 284.554 210.466 284.604C211.581 284.626 212.719 284.662 213.885 284.712C213.957 284.712 214.036 284.719 214.108 284.719C215.123 284.748 216.152 284.798 217.196 284.848C217.93 284.884 218.671 284.92 219.412 284.963C220.111 285.006 220.816 285.049 221.529 285.099C222.083 285.127 222.637 285.17 223.199 285.206C223.674 285.242 224.149 285.278 224.624 285.306C225.192 285.349 225.761 285.392 226.337 285.435C227.129 285.5 227.92 285.564 228.726 285.629C229.525 285.701 230.339 285.772 231.152 285.844C231.965 285.915 232.786 285.994 233.607 286.073C233.693 286.08 233.772 286.087 233.851 286.095C234.6 286.173 235.348 286.245 236.104 286.324C240.293 286.747 244.605 287.241 249.039 287.807C251.687 288.144 254.37 288.504 257.086 288.889C261.21 289.469 265.399 290.1 269.617 290.773C273.842 291.454 278.091 292.173 282.365 292.93C283.444 293.123 284.524 293.317 285.611 293.517C286.935 293.761 288.26 294.009 289.584 294.262C290.419 294.42 291.254 294.578 292.089 294.742C293.082 294.936 294.083 295.129 295.076 295.323C301.619 296.612 308.126 297.988 314.474 299.428C315.518 299.664 316.561 299.908 317.598 300.144C319.671 300.624 321.725 301.112 323.759 301.606C324.321 301.742 324.875 301.878 325.429 302.014C326.818 302.358 328.193 302.702 329.553 303.046V303.053C329.633 303.068 329.712 303.089 329.791 303.111C330.784 303.361 331.77 303.612 332.749 303.87C335.06 304.472 337.332 305.078 339.566 305.69C341.048 306.105 342.517 306.514 343.963 306.929C346.13 307.56 348.253 308.19 350.319 308.821C350.83 308.978 351.341 309.136 351.845 309.286C353.357 309.759 354.839 310.23 356.293 310.698C357.445 311.07 358.568 311.45 359.676 311.83C360.785 312.21 361.872 312.589 362.937 312.969C363.628 313.213 364.304 313.463 364.974 313.707C365.953 314.065 366.903 314.423 367.839 314.789C368.126 314.896 368.407 315.011 368.688 315.118C369.213 315.319 369.724 315.527 370.228 315.735C370.567 315.864 370.898 316 371.229 316.143C371.553 316.272 371.884 316.408 372.2 316.544C372.524 316.673 372.841 316.809 373.158 316.953C373.424 317.06 373.683 317.175 373.935 317.289C374.446 317.511 374.957 317.733 375.454 317.963C375.699 318.077 375.943 318.185 376.188 318.3L376.749 318.557C376.829 318.6 376.908 318.636 376.987 318.672C377.599 318.959 378.189 319.245 378.765 319.532C379.305 319.804 379.83 320.076 380.334 320.341C380.931 320.657 381.5 320.965 382.047 321.28C382.155 321.337 382.263 321.402 382.371 321.459C382.738 321.667 383.091 321.882 383.443 322.09C384.134 322.512 384.789 322.928 385.401 323.343C386.006 323.759 386.567 324.167 387.093 324.576C387.093 324.583 387.093 324.583 387.1 324.583C387.352 324.783 387.597 324.984 387.827 325.177C388.201 325.5 388.547 325.808 388.863 326.123C388.97 326.221 389.07 326.323 389.166 326.431C389.208 326.466 389.246 326.504 389.281 326.546C389.432 326.711 389.583 326.876 389.727 327.04C389.9 327.241 390.058 327.441 390.209 327.642C390.281 327.742 390.361 327.843 390.425 327.943C390.512 328.065 390.598 328.194 390.67 328.316C390.735 328.416 390.792 328.523 390.85 328.624C391.003 328.882 391.133 329.153 391.239 329.433C391.317 329.624 391.382 329.821 391.433 330.021C391.488 330.211 391.528 330.405 391.555 330.601Z" fill="black"/>
</g>
<defs>
<clipPath id="clip0_39_886">
<rect width="566.338" height="410" fill="white"/>
</clipPath>
</defs>
</svg>
