<svg width="558" height="410" viewBox="0 0 558 410" fill="none" xmlns="http://www.w3.org/2000/svg">
<g clip-path="url(#clip0_43_1372)">
<path d="M110.514 331.807C110.212 330.886 107.93 331.292 107.711 330.467C107.492 329.646 109.683 328.957 111.362 326.643C111.665 326.225 113.574 323.595 112.842 322.489C111.454 320.391 101.798 325.614 99.4807 322.683C98.972 322.04 98.7628 320.936 97.2474 318.881C96.6446 318.063 96.2579 317.669 95.7958 317.68C95.1401 317.697 94.9055 318.517 93.8749 320.003C92.3294 322.231 91.7717 321.952 90.7536 323.778C89.9978 325.133 89.9082 325.999 89.3632 326.05C88.5919 326.122 88.2732 324.435 87.3308 324.369C86.3691 324.302 85.4068 325.97 84.9298 327.273C84.0345 329.717 84.5889 331.586 84.7118 333.448C84.8454 335.472 84.5318 338.434 82.3329 342.237L61.5929 375.28C66.047 368.544 78.6905 350.175 83.7846 343.437C85.2552 341.492 86.8355 339.539 89.2678 339.171C91.6096 338.818 94.4589 339.976 98.436 339.909C98.9005 339.901 100.193 339.862 100.508 339.177C100.767 338.611 100.122 338.118 100.357 337.586C100.672 336.872 102.089 337.178 104.02 336.704C105.381 336.37 106.306 335.817 107.102 335.342C107.342 335.198 110.914 333.034 110.514 331.807Z" fill="#F2F2F2"/>
<path d="M56.1917 339.522C55.6524 339.404 55.193 340.642 54.7252 340.511C54.259 340.382 54.553 339.108 53.9017 337.616C53.7842 337.346 53.0441 335.65 52.2898 335.691C50.8601 335.767 50.6375 342.013 48.5302 342.305C48.0678 342.369 47.4654 342.153 46.0196 342.304C45.4444 342.364 45.1391 342.44 45.0115 342.67C44.8304 342.996 45.1653 343.348 45.5973 344.283C46.245 345.684 45.9468 345.877 46.5492 346.904C46.9963 347.666 47.3955 347.96 47.2633 348.242C47.0762 348.641 46.1561 348.311 45.852 348.754C45.5418 349.207 46.0825 350.161 46.5842 350.771C47.5258 351.915 48.6028 352.182 49.5523 352.659C50.5841 353.178 51.9476 354.186 53.1793 356.363L63.4133 376.076C61.3923 371.947 56.0246 360.441 54.1874 355.997C53.657 354.714 53.1544 353.374 53.6759 352.075C54.1779 350.823 55.5687 349.759 56.6831 347.788C56.8133 347.557 57.1674 346.912 56.9218 346.56C56.7189 346.269 56.2909 346.443 56.0973 346.175C55.8377 345.814 56.3969 345.207 56.7212 344.122C56.95 343.358 56.9457 342.744 56.9419 342.217C56.9408 342.057 56.9094 339.68 56.1917 339.522Z" fill="#F2F2F2"/>
<path d="M66.4016 344.332L66.7233 341.362L66.9206 341.176C67.8334 340.313 68.4044 339.399 68.6187 338.459C68.6527 338.309 68.6791 338.158 68.7061 338.004C68.813 337.393 68.9456 336.634 69.5327 335.845C69.8613 335.406 70.7304 334.413 71.6268 334.76C71.8688 334.851 72.0321 335.008 72.1455 335.174C72.174 335.145 72.2032 335.116 72.2344 335.085C72.6216 334.709 72.8925 334.571 73.1534 334.438C73.3539 334.336 73.5609 334.231 73.9113 333.951C74.065 333.828 74.1881 333.717 74.2918 333.624C74.6063 333.343 75.0086 333.015 75.5597 333.145C76.1439 333.305 76.3442 333.862 76.4771 334.231C76.7144 334.889 76.7875 335.341 76.8359 335.641C76.8533 335.751 76.8735 335.874 76.8888 335.915C77.0166 336.237 78.6217 336.32 79.2257 336.355C80.5832 336.429 81.7579 336.492 82.0404 337.422C82.2431 338.087 81.8207 338.812 80.7486 339.635C80.4146 339.891 80.0807 340.068 79.7899 340.2C79.9688 340.369 80.1113 340.599 80.12 340.912C80.1397 341.654 79.379 342.223 77.8592 342.607C77.4815 342.703 76.9736 342.831 76.3088 342.798C75.9957 342.783 75.7215 342.735 75.4877 342.69C75.4528 342.823 75.3889 342.962 75.2737 343.093C74.9354 343.481 74.3891 343.579 73.6476 343.361C72.829 343.133 72.1822 342.822 71.6115 342.55C71.113 342.312 70.6831 342.109 70.3225 342.054C69.6516 341.96 69.0261 342.374 68.2775 342.925L66.4016 344.332Z" fill="#F2F2F2"/>
<path d="M71.7554 327.416L68.8009 327.858L68.5704 327.715C67.5044 327.051 66.4755 326.73 65.5112 326.761C65.3579 326.766 65.2049 326.779 65.049 326.792C64.4313 326.844 63.6633 326.908 62.7517 326.54C62.2434 326.334 61.0626 325.745 61.1707 324.79C61.197 324.533 61.3073 324.335 61.4394 324.183C61.4042 324.163 61.369 324.142 61.3309 324.12C60.8687 323.841 60.6667 323.614 60.4721 323.395C60.3224 323.227 60.1682 323.053 59.8083 322.785C59.6505 322.668 59.5123 322.577 59.3961 322.5C59.0446 322.267 58.6245 321.961 58.6107 321.395C58.617 320.79 59.1052 320.455 59.4284 320.232C60.0047 319.836 60.4239 319.65 60.7019 319.528C60.8035 319.483 60.9178 319.432 60.9528 319.407C61.2321 319.202 60.9056 317.628 60.7861 317.035C60.513 315.703 60.2767 314.551 61.1042 314.042C61.696 313.677 62.5048 313.901 63.5726 314.73C63.9049 314.988 64.1605 315.266 64.3619 315.514C64.4801 315.298 64.6665 315.102 64.9674 315.014C65.6798 314.807 66.4233 315.398 67.1798 316.771C67.3689 317.112 67.6212 317.571 67.7586 318.222C67.823 318.529 67.8462 318.806 67.8622 319.044C67.9999 319.044 68.15 319.07 68.3064 319.148C68.7668 319.377 69.0006 319.881 68.9775 320.654C68.9645 321.503 68.8285 322.208 68.7095 322.829C68.6062 323.371 68.5188 323.839 68.5566 324.201C68.636 324.874 69.1953 325.374 69.9184 325.959L71.7554 327.416Z" fill="#F2F2F2"/>
<path d="M72.1536 318.544L72.4752 315.574L72.6725 315.387C73.5854 314.525 74.1564 313.611 74.3706 312.67C74.4047 312.52 74.4311 312.369 74.4581 312.215C74.5649 311.604 74.6975 310.845 75.2846 310.057C75.6132 309.618 76.4824 308.625 77.3788 308.971C77.6207 309.062 77.784 309.219 77.8975 309.385C77.9259 309.356 77.9551 309.328 77.9863 309.296C78.3735 308.92 78.6444 308.782 78.9053 308.65C79.1058 308.547 79.3129 308.442 79.6632 308.162C79.8169 308.039 79.94 307.929 80.0437 307.836C80.3583 307.555 80.7606 307.226 81.3117 307.356C81.8959 307.516 82.0962 308.073 82.2291 308.442C82.4664 309.1 82.5395 309.553 82.5878 309.853C82.6052 309.962 82.6254 310.086 82.6407 310.126C82.7686 310.448 84.3737 310.532 84.9776 310.566C86.3352 310.64 87.5099 310.704 87.7924 311.633C87.9951 312.298 87.5726 313.024 86.5005 313.847C86.1666 314.102 85.8327 314.279 85.5418 314.411C85.7207 314.58 85.8633 314.81 85.872 315.124C85.8916 315.865 85.1309 316.434 83.6112 316.818C83.2335 316.914 82.7255 317.042 82.0608 317.01C81.7477 316.994 81.4735 316.946 81.2397 316.902C81.2048 317.035 81.1409 317.173 81.0256 317.305C80.6874 317.692 80.1411 317.79 79.3996 317.572C78.581 317.344 77.9342 317.034 77.3635 316.761C76.8649 316.524 76.4351 316.321 76.0744 316.265C75.4036 316.171 74.7781 316.585 74.0294 317.137L72.1536 318.544Z" fill="#F2F2F2"/>
<path d="M62.5735 375.45L62.0511 374.934L61.3251 374.857C61.3285 374.789 61.3238 374.629 61.3185 374.379C61.2905 373.013 61.2038 368.855 61.7828 362.466C62.1871 358.006 62.8628 353.479 63.7909 349.008C64.7206 344.53 65.6855 341.198 66.4605 338.521C67.0454 336.501 67.6357 334.585 68.212 332.719C69.7499 327.734 71.2019 323.024 72.1012 317.652C72.3025 316.453 72.7205 313.957 71.8648 311.011C71.3683 309.302 70.5183 307.694 69.3375 306.232L70.4804 305.309C71.7834 306.924 72.7234 308.706 73.2747 310.603C74.2234 313.869 73.7681 316.589 73.5493 317.896C72.6341 323.363 71.1675 328.117 69.6145 333.151C69.0412 335.01 68.4527 336.917 67.8704 338.929C67.1024 341.582 66.1462 344.885 65.2286 349.305C64.3109 353.723 63.644 358.194 63.2441 362.598C62.6728 368.907 62.7586 373.003 62.7867 374.349C62.8013 375.067 62.8044 375.218 62.5735 375.45Z" fill="#F2F2F2"/>
<path d="M66.2022 307.922C66.1434 307.909 66.0843 307.895 66.0251 307.877C64.8197 307.539 63.8528 306.557 63.1505 304.958C62.8218 304.206 62.7442 303.415 62.5894 301.837C62.5652 301.593 62.4579 300.362 62.5898 298.73C62.6756 297.664 62.7902 297.236 63.0803 296.9C63.4026 296.525 63.8367 296.31 64.2955 296.203C64.3079 296.062 64.354 295.924 64.4457 295.793C64.8231 295.25 65.4548 295.473 65.7975 295.589C65.9702 295.651 66.1854 295.73 66.4275 295.771C66.8079 295.836 67.0351 295.769 67.3789 295.67C67.7079 295.574 68.117 295.456 68.6824 295.466C69.7981 295.481 70.6241 295.983 70.8964 296.148C72.3308 297.009 72.826 298.384 73.3991 299.977C73.513 300.296 73.891 301.449 73.979 302.935C74.0425 304.006 73.9021 304.445 73.7411 304.759C73.4122 305.403 72.9086 305.702 71.6587 306.331C70.3529 306.99 69.6977 307.32 69.1605 307.49C67.9105 307.882 67.1256 308.128 66.2022 307.922Z" fill="#F2F2F2"/>
<path d="M232.039 217.681C235.937 214.388 234.902 206.753 229.727 200.628C227.462 197.947 224.779 196 222.152 194.934L219.131 191.448L180.131 142.582C180.131 142.582 158.533 93.9698 152.158 88.7181C145.782 83.4664 138.281 86.2006 138.281 86.2006L132.428 93.4415L168.899 161.315L206.225 198.879L211.263 204.132C211.875 206.901 213.347 209.871 215.612 212.552C220.787 218.678 228.141 220.974 232.039 217.681Z" fill="#FFB6B6"/>
<path d="M158.42 97.7567L168.194 112.09L182.225 132.856L157.014 141.577L134.754 103.382L158.42 97.7567Z" fill="#E6E6E6"/>
<path d="M557.791 374.128H0V375.829H557.791V374.128Z" fill="#3F3D56"/>
<path d="M394.886 255.924H350.416V240.823C350.416 216.532 370.137 196.81 394.428 196.81H394.886V255.924Z" fill="#2F2E41"/>
<path d="M360.326 248.016L367.697 223.891L386.606 222.944L394.886 255.924L360.326 248.016Z" fill="#A0616A"/>
<path opacity="0.1" d="M360.326 248.016L367.697 223.891L386.606 222.944L394.886 255.924L360.326 248.016Z" fill="black"/>
<path d="M377.532 238.027C389.812 238.027 399.767 228.072 399.767 215.792C399.767 203.511 389.812 193.556 377.532 193.556C365.252 193.556 355.297 203.511 355.297 215.792C355.297 228.072 365.252 238.027 377.532 238.027Z" fill="#A0616A"/>
<path d="M330.404 340.076L324.519 345.961C324.519 345.961 293.071 324.868 281.01 332.735C268.949 340.601 268.424 355.833 282.606 364.238C296.788 372.642 333.03 393.126 333.03 393.126C333.03 393.126 381.353 401.53 413.919 375.793C446.485 350.056 452.525 351.369 446.747 337.712C440.97 324.056 428.364 327.207 428.364 327.207L404.202 341.389L394.222 339.288L330.404 340.076Z" fill="#2F2E41"/>
<path d="M331.717 346.642L356.929 357.672L347.475 380.258L310.182 371.328" fill="#2F2E41"/>
<path d="M396.16 346.642L362.182 362.399L375.313 389.712L413.131 373.43" fill="#2F2E41"/>
<path d="M362.182 243.649L329.353 258.136L339.858 315.914L330.404 340.076L380.828 347.955L406.686 339.931L404.464 328.52L406.686 285.933L415.495 260.763L391.858 244.48L362.182 243.649Z" fill="#E6E6E6"/>
<path d="M353.778 359.773L370.06 364.5L362.182 383.804L340.646 375.531L353.778 359.773Z" fill="#A0616A"/>
<path d="M376.407 359.773L356.404 369.753V384.995L378.99 382.359L376.407 359.773Z" fill="#A0616A"/>
<path d="M347.474 388.662C347.474 388.662 382.141 411.773 395.273 402.318C408.404 392.864 415.757 380.783 413.131 379.207C410.505 377.631 402.626 375.005 402.626 375.005L358.505 383.934L347.474 388.662Z" fill="#2F2E41"/>
<path d="M303.353 371.328C303.353 371.328 285.495 398.642 302.303 402.844C319.111 407.046 361.468 389.712 361.468 389.712L358.505 367.126L350.626 375.005L303.353 371.328Z" fill="#2F2E41"/>
<path d="M414.656 182.274C409.743 177.733 408.104 171.516 410.994 168.39C413.885 165.264 420.21 166.412 425.125 170.956C427.113 172.744 428.643 174.982 429.589 177.483L450.163 196.989L440.804 206.448L421.515 186.215C418.947 185.468 416.595 184.117 414.656 182.274Z" fill="#A0616A"/>
<path d="M409.06 242.757L446.288 224.589L427.03 191.468L433.059 179.22C433.059 179.22 479.926 205.346 475.262 224.356C470.598 243.367 424.111 278.291 409.265 272.707C404.758 271.012 402.146 267.987 400.696 264.596C397.153 256.316 400.965 246.708 409.06 242.757Z" fill="#E6E6E6"/>
<path d="M334.963 233.78C336.094 230.341 338.326 227.331 339.325 223.851C340.652 219.231 343.476 229.48 343.751 224.681C344.275 215.56 358.196 192.097 366.143 187.591C374.09 183.084 378.655 184.443 386.751 188.675C386.751 188.675 390.682 188.925 395.575 191.341C400.468 193.757 404.872 197.625 406.775 202.739C408.284 206.793 408.117 211.245 408.621 215.541C410.025 227.508 416.733 238.89 415.294 250.854C414.844 254.586 413.426 258.446 410.374 260.642C407.322 262.837 402.391 262.598 400.383 259.42C399.697 258.336 399.407 257.049 398.82 255.909C398.232 254.768 397.171 253.705 395.888 253.741C393.961 253.794 392.98 256.381 393.74 258.153C394.5 259.925 396.286 260.995 397.963 261.947C393.969 263.744 389.014 263.184 385.521 260.542C382.028 257.899 380.142 253.283 380.785 248.951C381.691 242.846 390.585 244.109 391.632 238.027C392.395 233.599 395.074 226.191 394.344 221.757C393.615 217.324 390.111 222.692 393.802 220.13C389.741 222.088 381.054 208.695 376.803 207.195C372.552 205.695 368.947 202.447 367.014 198.374C362.505 204.911 358.538 203.136 356.924 210.911C355.309 218.686 357.99 242.668 364.639 247.009C361.978 248.825 358.669 245.103 357.42 248.072C356.713 249.755 356.254 251.595 355.08 252.993C352.838 255.661 348.698 255.824 345.397 254.702C341.305 253.31 337.807 250.254 335.878 246.387C333.949 242.519 333.612 237.886 334.963 233.78Z" fill="#2F2E41"/>
<path d="M278.085 228.569C276.883 221.987 272.513 217.272 268.324 218.038C264.135 218.803 261.715 224.759 262.918 231.343C263.363 233.979 264.432 236.471 266.037 238.61L271.481 266.433L284.484 263.6L277.736 236.472C278.482 233.903 278.601 231.193 278.085 228.569Z" fill="#A0616A"/>
<path d="M332.15 256.254L296.861 277.951L279.216 243.943L265.644 242.47C265.644 242.47 262.588 296.04 281.138 302.289C299.688 308.538 354.085 288.003 357.327 272.476C358.311 267.762 357.156 263.937 355.07 260.895C349.977 253.466 339.822 251.537 332.15 256.254Z" fill="#E6E6E6"/>
<path d="M524.673 296.762L398.268 336.714V182.801L524.673 142.849V296.762Z" fill="white"/>
<path d="M397.417 337.876V182.178L525.523 141.689V297.385L397.417 337.876ZM399.118 183.424V335.554L523.823 296.14V144.009L399.118 183.424Z" fill="#3F3D56"/>
<path d="M215.124 330.906L316.498 362.946V239.512L215.124 207.471V330.906Z" fill="white"/>
<path d="M317.348 364.107L316.241 363.756L214.273 331.528V206.31L215.38 206.661L317.348 238.889V364.107ZM215.974 330.283L315.647 361.785V240.134L215.974 208.632V330.283Z" fill="#3F3D56"/>
<path d="M428.99 192.313C427.546 199.844 430.181 208.031 435.747 213.305C441.313 218.579 449.631 220.77 457.073 218.922C464.138 217.167 470.746 209.697 467.757 203.059C465.625 198.327 459.126 196.537 454.461 198.812C449.797 201.088 447.203 206.558 447.472 211.741C447.741 216.924 450.499 221.742 454.179 225.402C463.777 234.949 479.15 237.425 487.609 247.994C494.997 257.223 494.769 271.708 487.096 280.701C479.423 289.694 465.154 292.198 454.877 286.356C450.641 283.948 446.997 280.084 445.944 275.327C444.892 270.569 447.012 264.99 451.464 263.008C459.859 259.271 468.312 269.309 477.5 269.456C482.762 269.54 487.873 265.9 489.515 260.899C491.156 255.898 489.196 249.938 484.907 246.887" fill="#4796FF"/>
<path d="M251.101 300.004C252.725 304.774 249.358 310.59 244.413 311.556C239.467 312.522 234.159 308.399 233.87 303.369C233.581 298.338 238.382 293.635 243.406 294.028C251.499 294.662 256.279 305.74 264.381 305.222C269.924 304.868 273.426 299.198 275.472 294.034C277.828 288.088 279.551 281.891 280.603 275.582C281.48 270.319 281.883 264.871 280.617 259.688C279.352 254.505 276.216 249.584 271.462 247.162C264.241 243.484 254.356 247.072 250.908 254.406C247.46 261.74 250.781 271.429 257.861 275.373C266.715 280.306 278.909 276.754 286.953 282.919C293.399 287.86 294.508 296.973 295.096 305.074C295.471 310.241 295.842 315.488 294.784 320.559C293.726 325.631 291.032 330.594 286.564 333.216C283.179 335.202 278.661 335.595 275.404 333.407C272.147 331.219 270.924 326.155 273.457 323.158C275.53 320.705 279.305 320.314 282.339 321.368C285.373 322.421 287.843 324.629 290.225 326.784" fill="#4796FF"/>
<path d="M168.343 48.9741L161.265 75.961L134.278 70.6521C134.278 70.6521 144.895 51.1862 142.241 42.338L168.343 48.9741Z" fill="#FFB6B6"/>
<path d="M139.855 400.259L156.106 400.258L163.837 337.573L139.852 337.575L139.855 400.259Z" fill="#FFB6B6"/>
<path d="M195.534 399.891C196.04 400.743 196.307 403.493 196.307 404.484C196.307 407.531 193.837 410 190.791 410H140.463C138.385 410 136.7 408.315 136.7 406.237V404.142C136.7 404.142 134.21 397.844 139.336 390.082C139.336 390.082 145.707 396.16 155.226 386.641L158.034 381.555L178.354 396.416L189.617 397.803C192.081 398.106 194.266 397.756 195.534 399.891Z" fill="#2F2E41"/>
<path d="M184.979 218.85L162.585 371.236H134.49L138.226 284.25L140.192 238.513L134.49 216.742C134.49 216.742 131.89 211.902 129.7 206.036C127.231 199.417 125.281 191.481 128.176 187.717C129.241 186.33 132.01 185.303 135.773 184.539C138.073 184.069 140.749 183.703 143.638 183.419C160.253 181.775 183.887 182.802 183.887 182.802L184.487 202.628L184.821 213.699L184.979 218.85Z" fill="#2F2E41"/>
<path d="M111.228 392.807L127.306 395.169L144.073 334.276L120.342 330.789L111.228 392.807Z" fill="#FFB6B6"/>
<path d="M166.368 400.541C166.745 401.457 166.609 404.218 166.465 405.198C166.022 408.212 163.219 410.296 160.205 409.853L110.412 402.532C108.356 402.23 106.935 400.318 107.237 398.262L107.542 396.189C107.542 396.189 105.994 389.596 112.195 382.662C112.195 382.662 117.614 389.602 128.417 381.569L131.934 376.946L149.876 394.605L160.818 397.615C163.212 398.273 165.425 398.244 166.368 400.541Z" fill="#2F2E41"/>
<path d="M185.331 193.436L182.26 219.888L165.51 275.629L137.936 367.397L110.142 363.313L135.087 232.832L132.617 210.458C132.617 210.458 131.812 208.234 130.89 204.978C129.06 198.536 126.765 188.046 129.29 182.696C129.631 181.968 130.059 181.337 130.589 180.826C131.582 179.863 133.601 179.278 136.305 178.968C147.61 177.69 170.893 181.344 181.253 183.138L185.331 193.436Z" fill="#2F2E41"/>
<path d="M163.919 67.9977L194.445 106.487L188.965 146.616L184.27 187.448L128.969 179.042C128.969 179.042 140.914 150.285 142.241 148.958C143.568 147.631 146.902 150.909 144.571 146.616C142.241 142.322 139.587 142.322 141.799 140.11C144.011 137.898 124.545 109.142 124.545 93.6573C124.545 78.173 133.835 65.7856 133.835 65.7856L163.919 67.9977Z" fill="#E6E6E6"/>
<path d="M156.797 54.0705C168.154 54.0705 177.361 44.8638 177.361 33.5066C177.361 22.1495 168.154 12.9427 156.797 12.9427C145.44 12.9427 136.233 22.1495 136.233 33.5066C136.233 44.8638 145.44 54.0705 156.797 54.0705Z" fill="#FFB6B6"/>
<path d="M155.836 72.8242C155.836 72.8242 158.913 48.4763 159.457 41.3957C160.002 34.3152 169.997 23.2605 169.997 23.2605L177.077 28.9794C177.077 28.9794 183.069 28.9794 178.984 20.2649C174.899 11.5504 167.273 10.1887 167.273 10.1887C167.273 10.1887 166.457 -1.24905 152.295 0.112597C138.134 1.47424 131.871 12.912 131.871 12.912C131.871 12.912 131.054 -1.52137 122.067 9.09942C113.08 19.7202 107.906 24.0775 117.437 27.6177C126.969 31.158 134.049 28.4347 134.049 28.4347C134.049 28.4347 124.79 30.341 126.424 36.8769C128.058 43.4128 104.91 73.0965 115.531 76.3644C126.152 79.6324 149.845 87.5299 152.568 82.3557C155.291 77.1814 155.836 72.8242 155.836 72.8242Z" fill="#2F2E41"/>
<path d="M240.605 219.72C244.53 216.46 243.559 208.817 238.436 202.649C236.193 199.949 233.527 197.979 230.908 196.891L227.917 193.38L189.328 144.189C189.328 144.189 168.138 95.3975 161.807 90.0925C155.476 84.7875 147.952 87.4588 147.952 87.4588L142.039 94.6504L177.939 162.828L214.949 200.702L219.943 205.998C220.532 208.772 221.979 211.754 224.221 214.454C229.344 220.623 236.679 222.98 240.605 219.72Z" fill="#FFB6B6"/>
<path d="M139.799 83.677C139.799 83.677 149.245 132.7 159.995 139.927L181.417 123.224C181.417 123.224 183.291 123.143 179.802 119.202C176.313 115.261 177.207 106.798 177.207 106.798C177.207 106.798 178.776 108.829 175.36 106.01C171.944 103.19 175.125 83.7979 175.125 83.7979L139.799 83.677Z" fill="#E6E6E6"/>
</g>
<defs>
<clipPath id="clip0_43_1372">
<rect width="557.791" height="410" fill="white"/>
</clipPath>
</defs>
</svg>
